<?xml version="1.0" encoding="utf-8"?>
<!-- Generator: Adobe Illustrator 24.2.1, SVG Export Plug-In . SVG Version: 6.00 Build 0)  -->
<svg version="1.1" xmlns="http://www.w3.org/2000/svg" xmlns:xlink="http://www.w3.org/1999/xlink" x="0px" y="0px"
	 viewBox="0 0 500 500" style="enable-background:new 0 0 500 500;" xml:space="preserve">
<style type="text/css">
	.st0{display:none;}
	.st1{display:inline;}
	.st2{fill:#FFFDF8;}
	.st3{enable-background:new    ;}
	.st4{fill:#3BDBBC;}
	.st5{fill:#2BA08D;}
	.st6{fill:#3ECCB1;}
	.st7{fill:#95EFE2;}
	.st8{fill:#35A892;}
	.st9{fill:#168E77;}
	.st10{fill:#FF8DD6;}
	.st11{fill:#EBF6FF;}
	.st12{fill:#DD409E;}
	.st13{fill:#FFCFE5;}
	.st14{fill:#2B2B2B;}
	.st15{fill:#565656;}
	.st16{fill:#CCCCCC;}
	.st17{fill:#195E51;}
	.st18{fill:#35AF98;}
	.st19{fill:#227F6D;}
	.st20{fill:#A0A0A0;}
	.st21{fill:#97FFEB;}
	.st22{fill:#175448;}
	.st23{fill:#CFFFF6;}
	.st24{fill:#BBFFF4;}
	.st25{fill:#FFFFFF;}
	.st26{fill:#63331B;}
	.st27{fill:#EAB18B;}
	.st28{fill:#DDABF4;}
	.st29{fill:#C99AE2;}
	.st30{fill:#8F6CA3;}
	.st31{fill:#EA4987;}
	.st32{fill:#5A4963;}
	.st33{fill:#4A3072;}
	.st34{fill:#DD9E7A;}
	.st35{opacity:0.4;fill:#D39779;}
	.st36{fill:#FCF5FF;}
	.st37{fill:#E04D20;}
	.st38{fill:#F7BC37;}
	.st39{fill:#7F1F42;}
	.st40{fill:#B72E58;}
	.st41{fill:#1E4277;}
	.st42{fill:#388EF4;}
	.st43{fill:#6F43A8;}
	.st44{fill:#ED88FF;}
	.st45{fill:#3D2151;}
	.st46{fill:#683293;}
	.st47{fill:#622570;}
	.st48{fill:#9242A5;}
	.st49{fill:#FF97C1;}
	.st50{fill:#226D47;}
	.st51{fill:#33AA77;}
</style>
<g id="BACKGROUND" class="st0">
	<g class="st1">
		<rect class="st2" width="500" height="500"/>
	</g>
</g>
<g id="OBJECTS">
	<g>
		<g>
			<g class="st3">
				<g>
					<polygon class="st4" points="153.3,325.1 153.2,354.9 152.4,355.3 152.5,325.5 					"/>
				</g>
				<g>
					<polygon class="st5" points="152.5,325.5 152.4,355.3 113.8,332.4 113.9,302.6 					"/>
				</g>
				<g>
					<polygon class="st6" points="149.4,326 149.3,330.4 116.9,311.1 117,306.8 					"/>
				</g>
				<g>
					<polygon class="st7" points="153.3,325.1 152.5,325.5 113.9,302.6 114.6,302.1 					"/>
				</g>
			</g>
		</g>
		<g>
			<g class="st3">
				<g>
					<polygon class="st4" points="190.6,376.4 190.6,380.3 114.4,424.6 114.4,420.7 					"/>
				</g>
				<g>
					<polygon class="st5" points="114.4,420.7 114.4,424.6 37.8,380.3 37.8,376.4 					"/>
				</g>
				<g>
					<polygon class="st7" points="190.6,376.4 114.4,420.7 37.8,376.4 113.9,332.2 					"/>
				</g>
				<g>
					<polygon class="st8" points="120.1,381.7 95.9,395.9 71.4,381.7 95.7,367.6 					"/>
				</g>
			</g>
			<g>
				<g class="st3">
					<g>
						<polygon class="st4" points="90.6,315.6 90.7,345.4 91.4,345.8 91.3,316 						"/>
					</g>
					<g>
						<polygon class="st9" points="91.3,316 91.4,345.8 113.8,332.4 113.9,302.6 						"/>
					</g>
					<g>
						<polygon class="st7" points="90.6,315.6 91.3,316 113.9,302.6 113,302.1 						"/>
					</g>
				</g>
			</g>
			<g>
				<g>
					<g>
						<g class="st3">
							<g>
								<polygon class="st10" points="108.5,311.9 108.5,338.1 98.1,344 98.2,317.8 								"/>
							</g>
							<g>
								<polygon class="st11" points="107.4,315.2 107.4,335.9 99.2,340.7 99.2,319.9 								"/>
							</g>
							<g>
								<polygon class="st12" points="98.2,317.8 98.1,344 96.2,343 96.2,316.8 								"/>
							</g>
							<g>
								<polygon class="st13" points="108.5,311.9 98.2,317.8 96.2,316.8 106.5,310.9 								"/>
							</g>
						</g>
					</g>
				</g>
			</g>
		</g>
		<g>
			<g>
				<g>
					<polygon class="st14" points="56.9,385.2 56.9,379 58.9,380.2 58.9,386.3 					"/>
					<polygon class="st15" points="58.9,386.3 61,385.2 61,379 58.9,380.2 					"/>
					<polygon class="st16" points="61,379 58.9,377.9 56.9,379 58.9,380.2 					"/>
				</g>
				<g>
					<polygon class="st14" points="96.8,361.8 96.8,355.7 98.8,356.9 98.7,363 					"/>
					<polygon class="st15" points="98.7,363 100.8,361.8 100.8,355.7 98.8,356.9 					"/>
					<polygon class="st16" points="100.8,355.7 98.8,354.5 96.8,355.7 98.8,356.9 					"/>
				</g>
				<g>
					<polygon class="st14" points="44.4,377.9 44.4,371.8 46.5,373 46.4,379.1 					"/>
					<polygon class="st15" points="46.4,379.1 48.5,377.9 48.5,371.8 46.5,373 					"/>
					<polygon class="st16" points="48.5,371.8 46.5,370.7 44.4,371.8 46.5,373 					"/>
				</g>
			</g>
			<g>
				<polygon class="st17" points="82.2,342.3 82.2,353.5 97.5,362.3 97.5,351.1 				"/>
				<path class="st18" d="M97.5,351.1l4-2.3l-13-7.5c-1.4-0.8-3.2-0.8-4.6,0l-1.7,1L97.5,351.1z"/>
				<polygon class="st19" points="101.4,348.8 101.4,360 97.5,362.3 97.5,351.1 				"/>
			</g>
			<g>
				<polygon class="st20" points="45.4,369.6 45.4,374.7 60.6,383.5 60.6,378.4 				"/>
				<polygon class="st17" points="60.6,378.4 97.5,357.2 82.2,348.3 45.4,369.6 				"/>
				<polygon class="st19" points="97.5,357.2 97.5,362.3 60.6,383.5 60.6,378.4 				"/>
			</g>
			<polygon class="st18" points="46.9,362.6 82.2,342.3 87,345 51.8,365.4 			"/>
			<polygon class="st19" points="87,345 87,351.1 56.8,368.3 51.8,365.4 			"/>
			<g>
				<path class="st18" d="M96.7,358.2L96.7,358.2l0-3.3l-1.5-0.3l-3.4,0.1l-0.7-0.4c-2.4-1.4-5.4-1.4-7.9,0l-1,0.6l-4.3,0.1v3.3h0
					c0,0.6,0.3,1.2,0.9,1.6l5.5,3.1c1.7,1,3.9,1,5.6,0l6-3.4C96.5,359.2,96.7,358.7,96.7,358.2z"/>
				<path class="st21" d="M78.8,353.3l4.4-2.5c2.4-1.4,5.4-1.4,7.9,0l4.9,2.8c1,0.6,1,2,0,2.6l-6,3.4c-1.7,1-3.9,1-5.6,0l-5.5-3.1
					C77.5,355.7,77.5,354,78.8,353.3z"/>
			</g>
			<g>
				<path class="st18" d="M85.4,364.6L85.4,364.6l0-3.3l-1.5-0.3l-3.4,0.1l-0.7-0.4c-2.4-1.4-5.4-1.4-7.9,0l-1,0.6l-4.3,0.1v3.3h0
					c0,0.6,0.3,1.2,0.9,1.6l5.5,3.1c1.7,1,3.9,1,5.6,0l6-3.4C85.1,365.6,85.4,365.1,85.4,364.6z"/>
				<path class="st21" d="M67.8,359.3l4.4-2.5c2.4-1.4,5.4-1.4,7.9,0l4.9,2.8c1,0.6,1,2,0,2.6l-6,3.4c-1.7,1-3.9,1-5.6,0l-5.5-3.1
					C66.5,361.7,66.5,360,67.8,359.3z"/>
			</g>
			<g>
				<path class="st18" d="M74.2,371.1L74.2,371.1l0-3.3l-1.5-0.3l-3.4,0.1l-0.7-0.4c-2.4-1.4-5.4-1.4-7.9,0l-1,0.6l-4.3,0.1v3.3h0
					c0,0.6,0.3,1.2,0.9,1.6l5.5,3.1c1.7,1,3.9,1,5.6,0l6-3.4C74,372.1,74.2,371.6,74.2,371.1z"/>
				<path class="st21" d="M56.6,365.8l4.4-2.5c2.4-1.4,5.4-1.4,7.9,0l4.9,2.8c1,0.6,1,2,0,2.6l-6,3.4c-1.7,1-3.9,1-5.6,0l-5.5-3.1
					C55.4,368.2,55.4,366.5,56.6,365.8z"/>
			</g>
			<g>
				<polygon class="st22" points="44.2,365 44.2,376.8 58.2,384.9 58.2,373.7 				"/>
				<path class="st18" d="M58.2,373.7l4-2.3l-15.3-8.8l-2,1.2c-0.9,0.5-0.9,1.7,0,2.2L58.2,373.7z"/>
				<polygon class="st19" points="62.2,371.4 62.2,382.6 58.2,384.9 58.2,373.7 				"/>
			</g>
		</g>
		<g>
			<g>
				<g>
					<g class="st3">
						<g>
							<polygon class="st23" points="182.2,363.7 182.1,379.8 152.2,397.2 152.3,381.2 							"/>
						</g>
						<g>
							<polygon class="st24" points="152.3,381.2 152.2,397.2 134.9,387.2 134.9,371.2 							"/>
						</g>
						<g>
							<polygon class="st25" points="182.2,363.7 152.3,381.2 134.9,371.2 164.8,353.7 							"/>
						</g>
					</g>
				</g>
			</g>
			<g>
				<polygon class="st4" points="182.2,374.7 182.1,376.9 152.2,394.3 152.3,392.1 				"/>
				<polygon class="st5" points="152.3,392.1 152.2,394.3 134.9,384.3 134.9,382.1 				"/>
			</g>
		</g>
		<g>
			<path class="st26" d="M101.5,363.1c-0.3,0.7-1,1-1.6,0.8c-0.6-0.2-0.9-1-0.6-1.7c0.3-0.7,1-1,1.6-0.8
				C101.4,361.7,101.7,362.4,101.5,363.1z"/>
			<path class="st26" d="M105,362.9c0,0,0.6,0.4,0.3,1.7c-0.2,1-0.7-1.7-0.7-1.7L105,362.9z"/>
			<g>
				<g>
					<path class="st27" d="M113.5,378c0,0,0.7,0.8,0.8,1l0.6,1.8c0,0.1,0,0.1-0.1,0.1l-0.7-0.1l-1.2-2.4l0.3-0.1L113.5,378z"/>
					<path class="st27" d="M111.4,375.9c0,0,1.2,1.4,2.1,2.1c0,0.3,0.5,1.9,0.2,1.7c-1.4-1.2-2.8-2.3-2.8-2.3L111.4,375.9z"/>
				</g>
				<g>
					<path class="st28" d="M108.2,374.8C108.1,374.8,108.1,374.7,108.2,374.8c-0.4-0.6-3.5-5.3-3.7-5.8c-0.3-0.6-0.3-1.3,0.3-1.6
						c0.5-0.3,1.5,0.1,2,1c0.5,0.9,2.8,5.2,2.9,5.4c0,0,1.6,1.8,1.8,2.1l-0.6,1.2L108.2,374.8z"/>
					<path class="st29" d="M110.5,377.2c-0.1,0-0.1-0.1-0.1-0.1c0.1-0.2,0.2-0.5,0.3-0.6l0.2,0l-0.1-0.2c0,0,0.2-0.4,0.3-0.6
						c0-0.1,0.1-0.1,0.1-0.1c0.1,0.1,0.3,0.2,0.4,0.2c0,0,0,0,0,0c0.1,0.2-0.5,1.1-0.6,1.6c0,0.1-0.1,0.1-0.1,0.1L110.5,377.2z"/>
				</g>
			</g>
			<path class="st27" d="M103.6,399.2c0.5-2.7-0.6-7.1-0.2-9.2c0,0-0.6-5.5-0.7-8c0-2.5,0.9-4.4,0.9-4.4s1.8,0.1,2.4,0.3
				c0,0,1.8,4.9-0.2,12.6c0.1,0.4-0.9,6.7-0.7,8.9c0.1,0.8,0.8,2.6,0.8,3c0,0.3-0.8,0.5-0.9,0.4c-0.1,0-0.4-0.1-0.4-0.1
				c0,0-0.8-2.5-0.8-2.5s-0.2-0.7-0.2-0.7S103.6,399.2,103.6,399.2z"/>
			<g>
				<path class="st30" d="M103.6,402.2L103.6,402.2c-0.1,0-0.1-0.1-0.1-0.1v-2.3h0.2L103.6,402.2
					C103.7,402.2,103.6,402.2,103.6,402.2z"/>
				<path class="st31" d="M103.7,398.7c0,0-0.4,0.1-0.4,0.9s0.5,0.7,0.6,1.1c0.1,0.4,0.5,2.1,1.1,2.3c0.6,0.2,1.2,0.4,1.6,0.3
					c0.2,0,0.1-0.3-0.1-0.4c-0.1-0.1-0.5-0.7-0.6-0.9c0,0,0,0,0,0c0,0.1-0.3,0.3-0.6,0.3c-0.4,0-0.5-0.2-1.6-3.4L103.7,398.7z"/>
			</g>
			<path class="st27" d="M103.6,390.2c0.2-5.3,1-5.7,0.2-11c-0.1-0.9-3.5-0.5-3.5-0.5c-0.7,0.5-1.1,1.7-1,3c0.2,2.1,2.4,6.4,1.9,8.4
				c-1.1,3.2,0.2,7.3-0.3,10c0,0,0,0.1,0,0.1c0,1.9-0.3,3.3,0.2,3.8c0.3,0.4,1,0.7,1.3,0.2c0.1-0.2,0-0.9,0-1.3
				c0-0.6-0.1-1.5-0.2-2.5c0,0,0-0.1,0-0.2C102.2,400.4,103.1,394.8,103.6,390.2z"/>
			<path class="st31" d="M100.9,400.1c0,0-0.1,2.8,0.1,3.6c0.2,0.6,0.9,0.7,1.2,0.3c0.2-0.2,0.1-0.7,0.1-1.1c0-0.2,0.1,0.7,0.1,1.2
				c0,0.2,0,0.3,0,0.5l-0.2,0.9c0,0.2-0.2,0.3-0.3,0.3h-0.2c-0.1,0-0.3-0.1-0.3-0.2l-0.5-0.9c-0.2-0.3-0.3-0.7-0.2-1.1
				c0-0.6,0.3-1.3-0.1-2.2C100.4,401.1,100.7,400.2,100.9,400.1z"/>
			<path class="st32" d="M106.1,377.9c0,0-5,0.4-5.7,0.9c-0.5,0.3-1.1,1-1.1,2.6c0,1.8,2.1,7.1,1.9,8.6c0,0.1,0.2,0.2,0.5,0.3
				c0.1-0.5,0.2-1.5,0.1-2c0,0,0.4,1.1,0.4,2.1c0.7,0.1,1.8-0.1,2.6-0.5c1.1-0.5,1.7-1.6,1.7-1.8
				C106.4,388.1,107.7,383.2,106.1,377.9z"/>
			<path class="st33" d="M106.1,377.9c0,0-5,0.4-5.7,0.9c-0.5,0.3-1.1,1-1.1,2.6c0,1.8,2.1,7.1,1.9,8.6c0,0.1,0.2,0.2,0.5,0.3
				c0.1-0.5,0.2-1.5,0.1-2c0,0,0.4,1.1,0.4,2.1c0.7,0.1,1.8-0.1,2.6-0.5c1.1-0.5,1.7-1.6,1.7-1.8
				C106.4,388.1,107.7,383.2,106.1,377.9z"/>
			<path class="st31" d="M102,368c-0.3,0.1-1.1,0.4-1.7,0.7c-0.7,0.4-1.1,1.1-1.1,1.9c0,1.4,0.6,3,1.5,4.4c0.5,0.8,0.5,2.4-0.3,3.8
				c0.6,0.8,2.2,1,3.2,0.9c1.9-0.2,2.7-1.2,2.5-2c0,0-0.4-1.8-0.4-2.9c-0.1-0.9,0.1-1.9,0.3-2.4c0.6-0.1,1.3-1,0.4-2.6
				c0-0.5,0-2.3-1.4-2.5c-1.1,0.3-2.3,0.6-2.7,0.6C102.1,367.9,102.1,368,102,368z"/>
			<g>
				<path class="st27" d="M102,366.4c0,0,0.1,1-0.2,1.9c0.4,0.6,1.9,1,2.1,0.2c0,0-0.1-0.7,0.2-1.1C104.5,366.9,102,366.4,102,366.4
					z"/>
				<path class="st27" d="M104.9,362.9c0,0,0.5,0.9,0.5,2c0,0.1,0.2,0.4,0.1,1c0,0.4-0.1,1.3-0.2,1.7c0,0.2-0.1,0.3-0.3,0.3
					c-0.8,0.1-2.2,0.2-3.1-1.1c0,0-0.5-0.5-0.7-0.6c-0.2-0.1-1.1-1.2-1.1-2c0-0.9,0.5-2.3,2.4-2.3
					C104.3,361.8,104.9,362.9,104.9,362.9z"/>
				<g>
					<path class="st34" d="M101.1,366c0.1,0.1,0.1,0.1,0.1,0.1C101.2,366.1,101.2,366,101.1,366z"/>
				</g>
			</g>
			<path class="st26" d="M102.1,366.8c-1.2-0.7-2.3-2.3-1.8-3.7c0.5-1.4,2.2-1.6,3.2-1.4c1,0.2,1.6,1.1,1.6,1.1
				c0,0.1-0.1,0.2-0.2,0.1c-0.1,0-0.9-0.1-1,0.1c-0.1,0.2-0.2,2.4-1.6,3c0,0-0.1-0.6-0.4-0.8c-0.3-0.2-0.4,0.3-0.3,0.4
				C101.7,365.8,102.1,366.8,102.1,366.8z"/>
			<g>
				<path class="st35" d="M101.7,365.5c-0.4-0.4-0.8-0.1-0.5,0.4c0.1,0.1,0.2,0.2,0.3,0.2c0,0.1,0.1,0.1,0.1,0.1
					c0.1,0.1,0.2,0.2,0.2,0.2c0.1,0,0.2,0,0.2-0.1L101.7,365.5z"/>
				<path class="st27" d="M102,365.5c-0.2-0.5-0.8-0.3-0.6,0.2c0,0.1,0.1,0.2,0.2,0.3c0.1,0.5,0.3,0.6,0.5,0.4"/>
			</g>
			<circle class="st36" cx="101.8" cy="366.5" r="0.1"/>
			<g>
				<g>
					<path class="st37" d="M112.2,381.5c0.5,0,2-1.5,2.1-1.2l-0.2-0.6l-0.8,0.4c0,0-0.6,0.6-0.7,0.7
						C112.5,380.8,112.2,381.5,112.2,381.5z"/>
					<path class="st37" d="M111.8,380c0.3-0.1,1.8-0.9,2.2-1.5c0,0-0.4,1.1-0.5,1.1c0,0-1,1.2-1.3,1.3c-0.3,0.1-0.8,0.3-1,0.2
						c-0.2-0.1-0.4-0.4-0.3-0.6C111.1,380.3,111.8,380,111.8,380z"/>
					<path class="st38" d="M114.5,378.5c-0.6-0.7-2,2.2-2.6,2.1c-0.6-0.1-0.1-0.6-0.1-0.6c-0.4,0.1-1.1,0.1-1.4,0.7
						c-0.1,0.1-0.1,0.3,0,0.4c0.2,0.6,0.9,0.7,1.3,0.7c0.7,0,1.3-0.8,2.3-1.7l0.1,2.8h0.2c0,0,0.1-1.7,0.2-2
						C114.6,380.5,115.1,379.3,114.5,378.5z"/>
					<circle class="st25" cx="110.8" cy="380.8" r="0.1"/>
				</g>
				<g>
					<path class="st37" d="M110.5,382.4c0.5,0,2-1.5,2.1-1.2l-0.2-0.6l-0.8,0.4c0,0-0.6,0.6-0.7,0.7S110.5,382.4,110.5,382.4z"/>
					<path class="st37" d="M110.1,380.8c0.3-0.1,1.8-0.9,2.2-1.5c0,0-0.4,1.1-0.5,1.1c0,0-1,1.2-1.3,1.3c-0.3,0.1-0.8,0.3-1,0.2
						c-0.2-0.1-0.4-0.4-0.3-0.6S110.1,380.8,110.1,380.8z"/>
					<path class="st38" d="M112.8,379.4c-0.6-0.7-2,2.2-2.6,2.1c-0.6-0.1-0.1-0.6-0.1-0.6c-0.4,0.1-1.1,0.1-1.4,0.7
						c-0.1,0.1-0.1,0.3,0,0.4c0.2,0.6,0.9,0.7,1.3,0.7c0.7,0,1.3-0.8,2.3-1.7l0.1,2.8h0.2c0,0,0.1-1.7,0.2-2
						C112.9,381.3,113.4,380.2,112.8,379.4z"/>
					<circle class="st25" cx="109.1" cy="381.7" r="0.1"/>
				</g>
			</g>
			<g>
				<g>
					<path class="st27" d="M111.2,380.9c-0.2-0.3-0.7,0.1-1.3-0.4c0,0-0.1,0-0.1-0.1c0,0,0,0,0,0c-0.9-0.7-2.3-2.3-2.3-2.3l-1.1,0.9
						c0,0,1.4,1.1,2.8,2.3c0,0,0.7,1,0.8,1s1.2,0.2,1.6-0.1c0.3-0.3,0.3-0.7,0.3-0.7S111.4,381.2,111.2,380.9z"/>
				</g>
				<g>
					<path class="st28" d="M103.7,376.5C103.7,376.5,103.7,376.4,103.7,376.5c-0.4-0.6-3.5-5.4-3.7-5.8c-0.3-0.6-0.3-1.3,0.3-1.6
						c0.5-0.2,1.5,0.1,2,1c0.5,0.9,2.7,5.2,2.8,5.5c0,0,2,2.3,2.2,2.6l-1,1.1L103.7,376.5z"/>
					<path class="st29" d="M106.1,379.1c0,0-0.1-0.1,0-0.2c0.1-0.1,0.4-0.4,0.4-0.5l0.2,0l-0.1-0.3c0,0,0.3-0.3,0.5-0.5
						c0-0.1,0.1-0.1,0.2,0c0.1,0.1,0.3,0.3,0.3,0.3c0,0,0,0,0,0.1c0,0.2-0.9,0.9-1.1,1.3c0,0.1-0.1,0.1-0.2,0L106.1,379.1z"/>
				</g>
			</g>
		</g>
		<g>
			<g>
				<g>
					<g class="st3">
						<g>
							<polygon class="st23" points="144.7,384.1 144.7,400.2 114.8,417.6 114.8,401.5 							"/>
						</g>
						<g>
							<polygon class="st24" points="114.8,401.5 114.8,417.6 97.5,407.6 97.5,391.5 							"/>
						</g>
						<g>
							<polygon class="st25" points="144.7,384.1 114.8,401.5 97.5,391.5 127.4,374.1 							"/>
						</g>
					</g>
				</g>
			</g>
			<g>
				<polygon class="st4" points="144.7,395 144.7,397.2 114.8,414.7 114.8,412.5 				"/>
				<polygon class="st5" points="114.8,412.5 114.8,414.7 97.5,404.7 97.5,402.5 				"/>
			</g>
		</g>
		<g>
			<g>
				<g>
					<path class="st39" d="M127.2,378.4c0.5,0,2-1.5,2.1-1.2l-0.2-0.6l-0.8,0.4c0,0-0.6,0.6-0.7,0.7
						C127.5,377.7,127.2,378.4,127.2,378.4z"/>
					<path class="st39" d="M126.8,376.8c0.3-0.1,1.8-0.9,2.2-1.5c0,0-0.4,1.1-0.5,1.1c0,0-1,1.2-1.3,1.3c-0.3,0.1-0.8,0.3-1,0.2
						c-0.2-0.1-0.4-0.4-0.3-0.6C126.1,377.2,126.8,376.8,126.8,376.8z"/>
					<path class="st40" d="M129.5,375.4c-0.6-0.7-2,2.2-2.6,2.1c-0.6-0.1-0.1-0.6-0.1-0.6c-0.4,0.1-1.1,0.1-1.4,0.7
						c-0.1,0.1-0.1,0.3,0,0.4c0.2,0.6,0.9,0.7,1.3,0.7c0.7,0,1.3-0.8,2.3-1.7l0.1,2.8h0.2c0,0,0.1-1.7,0.2-2
						C129.6,377.3,130.1,376.2,129.5,375.4z"/>
					<circle class="st25" cx="125.8" cy="377.7" r="0.1"/>
				</g>
				<g>
					<path class="st39" d="M125.5,379.2c0.5,0,2-1.5,2.1-1.2l-0.2-0.6l-0.8,0.4c0,0-0.6,0.6-0.7,0.7
						C125.8,378.6,125.5,379.2,125.5,379.2z"/>
					<path class="st39" d="M125.1,377.7c0.3-0.1,1.8-0.9,2.2-1.5c0,0-0.4,1.1-0.5,1.1c0,0-1,1.2-1.3,1.3c-0.3,0.1-0.8,0.3-1,0.2
						c-0.2-0.1-0.4-0.4-0.3-0.6C124.5,378.1,125.1,377.7,125.1,377.7z"/>
					<path class="st40" d="M127.8,376.3c-0.6-0.7-2,2.2-2.6,2.1c-0.6-0.1-0.1-0.6-0.1-0.6c-0.4,0.1-1.1,0.1-1.4,0.7
						c-0.1,0.1-0.1,0.3,0,0.4c0.2,0.6,0.9,0.7,1.3,0.7c0.7,0,1.3-0.8,2.3-1.7l0.1,2.8h0.2c0,0,0.1-1.7,0.2-2
						C127.9,378.2,128.4,377.1,127.8,376.3z"/>
					<circle class="st25" cx="124.1" cy="378.6" r="0.1"/>
				</g>
			</g>
			<g>
				<g>
					<path class="st41" d="M116.7,384.7c0.5,0,2-1.5,2.1-1.2l-0.2-0.6l-0.8,0.4c0,0-0.6,0.6-0.7,0.7
						C117,384,116.7,384.7,116.7,384.7z"/>
					<path class="st41" d="M116.3,383.1c0.3-0.1,1.8-0.9,2.2-1.5c0,0-0.4,1.1-0.5,1.1c0,0-1,1.2-1.3,1.3c-0.3,0.1-0.8,0.3-1,0.2
						c-0.2-0.1-0.4-0.4-0.3-0.6C115.7,383.5,116.3,383.1,116.3,383.1z"/>
					<path class="st42" d="M119,381.7c-0.6-0.7-2,2.2-2.6,2.1c-0.6-0.1-0.1-0.6-0.1-0.6c-0.4,0.1-1.1,0.1-1.4,0.7
						c-0.1,0.1-0.1,0.3,0,0.4c0.2,0.6,0.9,0.7,1.3,0.7c0.7,0,1.3-0.8,2.3-1.7l0.1,2.8h0.2c0,0,0.1-1.7,0.2-2
						C119.1,383.6,119.7,382.5,119,381.7z"/>
					<circle class="st25" cx="115.3" cy="384" r="0.1"/>
				</g>
				<g>
					<path class="st41" d="M115,385.5c0.5,0,2-1.5,2.1-1.2l-0.2-0.6l-0.8,0.4c0,0-0.6,0.6-0.7,0.7C115.3,384.9,115,385.5,115,385.5z
						"/>
					<path class="st41" d="M114.7,384c0.3-0.1,1.8-0.9,2.2-1.5c0,0-0.4,1.1-0.5,1.1c0,0-1,1.2-1.3,1.3c-0.3,0.1-0.8,0.3-1,0.2
						c-0.2-0.1-0.4-0.4-0.3-0.6C114,384.3,114.7,384,114.7,384z"/>
					<path class="st42" d="M117.3,382.6c-0.6-0.7-2,2.2-2.6,2.1c-0.6-0.1-0.1-0.6-0.1-0.6c-0.4,0.1-1.1,0.1-1.4,0.7
						c-0.1,0.1-0.1,0.3,0,0.4c0.2,0.6,0.9,0.7,1.3,0.7c0.7,0,1.3-0.8,2.3-1.7l0.1,2.8h0.2c0,0,0.1-1.7,0.2-2
						C117.4,384.5,118,383.4,117.3,382.6z"/>
					<circle class="st25" cx="113.7" cy="384.9" r="0.1"/>
				</g>
			</g>
			<g>
				<g>
					<path class="st43" d="M111.3,387.5c0.5,0,2-1.5,2.1-1.2l-0.2-0.6l-0.8,0.4c0,0-0.6,0.6-0.7,0.7
						C111.7,386.9,111.3,387.5,111.3,387.5z"/>
					<path class="st43" d="M111,386c0.3-0.1,1.8-0.9,2.2-1.5c0,0-0.4,1.1-0.5,1.1c0,0-1,1.2-1.3,1.3c-0.3,0.1-0.8,0.3-1,0.2
						c-0.2-0.1-0.4-0.4-0.3-0.6C110.3,386.4,111,386,111,386z"/>
					<path class="st44" d="M113.6,384.6c-0.6-0.7-2,2.2-2.6,2.1c-0.6-0.1-0.1-0.6-0.1-0.6c-0.4,0.1-1.1,0.1-1.4,0.7
						c-0.1,0.1-0.1,0.3,0,0.4c0.2,0.6,0.9,0.7,1.3,0.7c0.7,0,1.3-0.8,2.3-1.7l0.1,2.8h0.2c0,0,0.1-1.7,0.2-2
						C113.8,386.5,114.3,385.4,113.6,384.6z"/>
					<path class="st25" d="M110.1,386.9C110.1,386.9,110,387,110.1,386.9c-0.1,0.1-0.2,0.1-0.2,0
						C109.9,386.8,109.9,386.8,110.1,386.9C110,386.8,110.1,386.8,110.1,386.9z"/>
				</g>
				<g>
					<path class="st43" d="M109.7,388.4c0.5,0,2-1.5,2.1-1.2l-0.2-0.6l-0.8,0.4c0,0-0.6,0.6-0.7,0.7
						C110,387.8,109.7,388.4,109.7,388.4z"/>
					<path class="st43" d="M109.3,386.9c0.3-0.1,1.8-0.9,2.2-1.5c0,0-0.4,1.1-0.5,1.1c0,0-1,1.2-1.3,1.3c-0.3,0.1-0.8,0.3-1,0.2
						c-0.2-0.1-0.4-0.4-0.3-0.6C108.6,387.2,109.3,386.9,109.3,386.9z"/>
					<path class="st44" d="M112,385.4c-0.6-0.7-2,2.2-2.6,2.1c-0.6-0.1-0.1-0.6-0.1-0.6c-0.4,0.1-1.1,0.1-1.4,0.7
						c-0.1,0.1-0.1,0.3,0,0.4c0.2,0.6,0.9,0.7,1.3,0.7c0.7,0,1.3-0.8,2.3-1.7l0.1,2.8h0.2c0,0,0.1-1.7,0.2-2
						C112.1,387.4,112.6,386.3,112,385.4z"/>
					<circle class="st25" cx="108.3" cy="387.8" r="0.1"/>
				</g>
			</g>
			<g>
				<g>
					<path class="st45" d="M106.2,390.6c0.5,0,2-1.5,2.1-1.2l-0.2-0.6l-0.8,0.4c0,0-0.6,0.6-0.7,0.7
						C106.5,390,106.2,390.6,106.2,390.6z"/>
					<path class="st45" d="M105.8,389.1c0.3-0.1,1.8-0.9,2.2-1.5c0,0-0.4,1.1-0.5,1.1c0,0-1,1.2-1.3,1.3c-0.3,0.1-0.8,0.3-1,0.2
						c-0.2-0.1-0.4-0.4-0.3-0.6S105.8,389.1,105.8,389.1z"/>
					<path class="st46" d="M108.5,387.7c-0.6-0.7-2,2.2-2.6,2.1c-0.6-0.1-0.1-0.6-0.1-0.6c-0.4,0.1-1.1,0.1-1.4,0.7
						c-0.1,0.1-0.1,0.3,0,0.4c0.2,0.6,0.9,0.7,1.3,0.7c0.7,0,1.3-0.8,2.3-1.7l0.1,2.8h0.2c0,0,0.1-1.7,0.2-2
						C108.6,389.6,109.1,388.5,108.5,387.7z"/>
					<circle class="st25" cx="104.8" cy="390" r="0.1"/>
				</g>
				<g>
					<path class="st45" d="M104.5,391.5c0.5,0,2-1.5,2.1-1.2l-0.2-0.6l-0.8,0.4c0,0-0.6,0.6-0.7,0.7
						C104.8,390.9,104.5,391.5,104.5,391.5z"/>
					<path class="st45" d="M104.1,390c0.3-0.1,1.8-0.9,2.2-1.5c0,0-0.4,1.1-0.5,1.1c0,0-1,1.2-1.3,1.3c-0.3,0.1-0.8,0.3-1,0.2
						c-0.2-0.1-0.4-0.4-0.3-0.6C103.5,390.3,104.1,390,104.1,390z"/>
					<path class="st46" d="M106.8,388.5c-0.6-0.7-2,2.2-2.6,2.1c-0.6-0.1-0.1-0.6-0.1-0.6c-0.4,0.1-1.1,0.1-1.4,0.7
						c-0.1,0.1-0.1,0.3,0,0.4c0.2,0.6,0.9,0.7,1.3,0.7c0.7,0,1.3-0.8,2.3-1.7l0.1,2.8h0.2c0,0,0.1-1.7,0.2-2
						C106.9,390.5,107.4,389.4,106.8,388.5z"/>
					<circle class="st25" cx="103.1" cy="390.8" r="0.1"/>
				</g>
			</g>
		</g>
		<g>
			<g>
				<g>
					<path class="st39" d="M135.7,383.2c0.5,0,2-1.5,2.1-1.2l-0.2-0.6l-0.8,0.4c0,0-0.6,0.6-0.7,0.7
						C136.1,382.6,135.7,383.2,135.7,383.2z"/>
					<path class="st39" d="M135.4,381.7c0.3-0.1,1.8-0.9,2.2-1.5c0,0-0.4,1.1-0.5,1.1c0,0-1,1.2-1.3,1.3c-0.3,0.1-0.8,0.3-1,0.2
						c-0.2-0.1-0.4-0.4-0.3-0.6C134.7,382,135.4,381.7,135.4,381.7z"/>
					<path class="st40" d="M138,380.2c-0.6-0.7-2,2.2-2.6,2.1c-0.6-0.1-0.1-0.6-0.1-0.6c-0.4,0.1-1.1,0.1-1.4,0.7
						c-0.1,0.1-0.1,0.3,0,0.4c0.2,0.6,0.9,0.7,1.3,0.7c0.7,0,1.3-0.8,2.3-1.7l0.1,2.8h0.2c0,0,0.1-1.7,0.2-2
						C138.1,382.2,138.7,381.1,138,380.2z"/>
					<circle class="st25" cx="134.4" cy="382.5" r="0.1"/>
				</g>
				<g>
					<path class="st39" d="M134,384.1c0.5,0,2-1.5,2.1-1.2l-0.2-0.6l-0.8,0.4c0,0-0.6,0.6-0.7,0.7C134.4,383.4,134,384.1,134,384.1z
						"/>
					<path class="st39" d="M133.7,382.6c0.3-0.1,1.8-0.9,2.2-1.5c0,0-0.4,1.1-0.5,1.1c0,0-1,1.2-1.3,1.3c-0.3,0.1-0.8,0.3-1,0.2
						c-0.2-0.1-0.4-0.4-0.3-0.6C133,382.9,133.7,382.6,133.7,382.6z"/>
					<path class="st40" d="M136.3,381.1c-0.6-0.7-2,2.2-2.6,2.1c-0.6-0.1-0.1-0.6-0.1-0.6c-0.4,0.1-1.1,0.1-1.4,0.7
						c-0.1,0.1-0.1,0.3,0,0.4c0.2,0.6,0.9,0.7,1.3,0.7c0.7,0,1.3-0.8,2.3-1.7l0.1,2.8h0.2c0,0,0.1-1.7,0.2-2
						C136.5,383,137,381.9,136.3,381.1z"/>
					<circle class="st25" cx="132.7" cy="383.4" r="0.1"/>
				</g>
			</g>
			<g>
				<g>
					<path class="st37" d="M130,386.4c0.5,0,2-1.5,2.1-1.2l-0.2-0.6L131,385c0,0-0.6,0.6-0.7,0.7C130.3,385.8,130,386.4,130,386.4z"
						/>
					<path class="st37" d="M129.6,384.9c0.3-0.1,1.8-0.9,2.2-1.5c0,0-0.4,1.1-0.5,1.1c0,0-1,1.2-1.3,1.3c-0.3,0.1-0.8,0.3-1,0.2
						c-0.2-0.1-0.4-0.4-0.3-0.6C129,385.2,129.6,384.9,129.6,384.9z"/>
					<path class="st38" d="M132.3,383.4c-0.6-0.7-2,2.2-2.6,2.1c-0.6-0.1-0.1-0.6-0.1-0.6c-0.4,0.1-1.1,0.1-1.4,0.7
						c-0.1,0.1-0.1,0.3,0,0.4c0.2,0.6,0.9,0.7,1.3,0.7c0.7,0,1.3-0.8,2.3-1.7l0.1,2.8h0.2c0,0,0.1-1.7,0.2-2
						C132.4,385.4,132.9,384.3,132.3,383.4z"/>
					<circle class="st25" cx="128.6" cy="385.7" r="0.1"/>
				</g>
				<g>
					<path class="st37" d="M128.3,387.3c0.5,0,2-1.5,2.1-1.2l-0.2-0.6l-0.8,0.4c0,0-0.6,0.6-0.7,0.7
						C128.6,386.6,128.3,387.3,128.3,387.3z"/>
					<path class="st37" d="M127.9,385.8c0.3-0.1,1.8-0.9,2.2-1.5c0,0-0.4,1.1-0.5,1.1c0,0-1,1.2-1.3,1.3c-0.3,0.1-0.8,0.3-1,0.2
						c-0.2-0.1-0.4-0.4-0.3-0.6C127.3,386.1,127.9,385.8,127.9,385.8z"/>
					<path class="st38" d="M130.6,384.3c-0.6-0.7-2,2.2-2.6,2.1c-0.6-0.1-0.1-0.6-0.1-0.6c-0.4,0.1-1.1,0.1-1.4,0.7
						c-0.1,0.1-0.1,0.3,0,0.4c0.2,0.6,0.9,0.7,1.3,0.7c0.7,0,1.3-0.8,2.3-1.7l0.1,2.8h0.2c0,0,0.1-1.7,0.2-2
						C130.7,386.3,131.2,385.1,130.6,384.3z"/>
					<circle class="st25" cx="126.9" cy="386.6" r="0.1"/>
				</g>
			</g>
			<g>
				<g>
					<path class="st41" d="M125.3,389.5c0.5,0,2-1.5,2.1-1.2l-0.2-0.6l-0.8,0.4c0,0-0.6,0.6-0.7,0.7
						C125.6,388.8,125.3,389.5,125.3,389.5z"/>
					<path class="st41" d="M124.9,388c0.3-0.1,1.8-0.9,2.2-1.5c0,0-0.4,1.1-0.5,1.1c0,0-1,1.2-1.3,1.3c-0.3,0.1-0.8,0.3-1,0.2
						c-0.2-0.1-0.4-0.4-0.3-0.6C124.2,388.3,124.9,388,124.9,388z"/>
					<path class="st42" d="M127.6,386.5c-0.6-0.7-2,2.2-2.6,2.1c-0.6-0.1-0.1-0.6-0.1-0.6c-0.4,0.1-1.1,0.1-1.4,0.7
						c-0.1,0.1-0.1,0.3,0,0.4c0.2,0.6,0.9,0.7,1.3,0.7c0.7,0,1.3-0.8,2.3-1.7l0.1,2.8h0.2c0,0,0.1-1.7,0.2-2
						C127.7,388.5,128.2,387.3,127.6,386.5z"/>
					<circle class="st25" cx="123.9" cy="388.8" r="0.1"/>
				</g>
				<g>
					<path class="st41" d="M123.6,390.4c0.5,0,2-1.5,2.1-1.2l-0.2-0.6l-0.8,0.4c0,0-0.6,0.6-0.7,0.7
						C123.9,389.7,123.6,390.4,123.6,390.4z"/>
					<path class="st41" d="M123.2,388.8c0.3-0.1,1.8-0.9,2.2-1.5c0,0-0.4,1.1-0.5,1.1c0,0-1,1.2-1.3,1.3c-0.3,0.1-0.8,0.3-1,0.2
						c-0.2-0.1-0.4-0.4-0.3-0.6C122.6,389.2,123.2,388.8,123.2,388.8z"/>
					<path class="st42" d="M125.9,387.4c-0.6-0.7-2,2.2-2.6,2.1c-0.6-0.1-0.1-0.6-0.1-0.6c-0.4,0.1-1.1,0.1-1.4,0.7
						c-0.1,0.1-0.1,0.3,0,0.4c0.2,0.6,0.9,0.7,1.3,0.7c0.7,0,1.3-0.8,2.3-1.7l0.1,2.8h0.2c0,0,0.1-1.7,0.2-2
						C126,389.3,126.5,388.2,125.9,387.4z"/>
					<circle class="st25" cx="122.2" cy="389.7" r="0.1"/>
				</g>
			</g>
			<g>
				<g>
					<path class="st43" d="M119.9,392.4c0.5,0,2-1.5,2.1-1.2l-0.2-0.6L121,391c0,0-0.6,0.6-0.7,0.7
						C120.2,391.7,119.9,392.4,119.9,392.4z"/>
					<path class="st43" d="M119.6,390.9c0.3-0.1,1.8-0.9,2.2-1.5c0,0-0.4,1.1-0.5,1.1c0,0-1,1.2-1.3,1.3c-0.3,0.1-0.8,0.3-1,0.2
						c-0.2-0.1-0.4-0.4-0.3-0.6C118.9,391.2,119.6,390.9,119.6,390.9z"/>
					<path class="st44" d="M122.2,389.4c-0.6-0.7-2,2.2-2.6,2.1c-0.6-0.1-0.1-0.6-0.1-0.6c-0.4,0.1-1.1,0.1-1.4,0.7
						c-0.1,0.1-0.1,0.3,0,0.4c0.2,0.6,0.9,0.7,1.3,0.7c0.7,0,1.3-0.8,2.3-1.7l0.1,2.8h0.2c0,0,0.1-1.7,0.2-2
						C122.3,391.3,122.9,390.2,122.2,389.4z"/>
					<circle class="st25" cx="118.5" cy="391.7" r="0.1"/>
				</g>
				<g>
					<path class="st43" d="M118.2,393.3c0.5,0,2-1.5,2.1-1.2l-0.2-0.6l-0.8,0.4c0,0-0.6,0.6-0.7,0.7
						C118.6,392.6,118.2,393.3,118.2,393.3z"/>
					<path class="st43" d="M117.9,391.7c0.3-0.1,1.8-0.9,2.2-1.5c0,0-0.4,1.1-0.5,1.1c0,0-1,1.2-1.3,1.3c-0.3,0.1-0.8,0.3-1,0.2
						c-0.2-0.1-0.4-0.4-0.3-0.6C117.2,392.1,117.9,391.7,117.9,391.7z"/>
					<path class="st44" d="M120.5,390.3c-0.6-0.7-2,2.2-2.6,2.1c-0.6-0.1-0.1-0.6-0.1-0.6c-0.4,0.1-1.1,0.1-1.4,0.7
						c-0.1,0.1-0.1,0.3,0,0.4c0.2,0.6,0.9,0.7,1.3,0.7c0.7,0,1.3-0.8,2.3-1.7l0.1,2.8h0.2c0,0,0.1-1.7,0.2-2
						C120.6,392.2,121.2,391.1,120.5,390.3z"/>
					<circle class="st25" cx="116.9" cy="392.6" r="0.1"/>
				</g>
			</g>
			<g>
				<g>
					<path class="st45" d="M114.7,395.5c0.5,0,2-1.5,2.1-1.2l-0.2-0.6l-0.8,0.4c0,0-0.6,0.6-0.7,0.7
						C115.1,394.8,114.7,395.5,114.7,395.5z"/>
					<path class="st45" d="M114.4,393.9c0.3-0.1,1.8-0.9,2.2-1.5c0,0-0.4,1.1-0.5,1.1c0,0-1,1.2-1.3,1.3c-0.3,0.1-0.8,0.3-1,0.2
						c-0.2-0.1-0.4-0.4-0.3-0.6C113.7,394.3,114.4,393.9,114.4,393.9z"/>
					<path class="st46" d="M117,392.5c-0.6-0.7-2,2.2-2.6,2.1c-0.6-0.1-0.1-0.6-0.1-0.6c-0.4,0.1-1.1,0.1-1.4,0.7
						c-0.1,0.1-0.1,0.3,0,0.4c0.2,0.6,0.9,0.7,1.3,0.7c0.7,0,1.3-0.8,2.3-1.7l0.1,2.8h0.2c0,0,0.1-1.7,0.2-2
						C117.1,394.4,117.7,393.3,117,392.5z"/>
					<circle class="st25" cx="113.4" cy="394.8" r="0.1"/>
				</g>
				<g>
					<path class="st45" d="M113,396.3c0.5,0,2-1.5,2.1-1.2l-0.2-0.6l-0.8,0.4c0,0-0.6,0.6-0.7,0.7C113.4,395.7,113,396.3,113,396.3z
						"/>
					<path class="st45" d="M112.7,394.8c0.3-0.1,1.8-0.9,2.2-1.5c0,0-0.4,1.1-0.5,1.1c0,0-1,1.2-1.3,1.3c-0.3,0.1-0.8,0.3-1,0.2
						c-0.2-0.1-0.4-0.4-0.3-0.6C112,395.2,112.7,394.8,112.7,394.8z"/>
					<path class="st46" d="M115.3,393.4c-0.6-0.7-2,2.2-2.6,2.1c-0.6-0.1-0.1-0.6-0.1-0.6c-0.4,0.1-1.1,0.1-1.4,0.7
						c-0.1,0.1-0.1,0.3,0,0.4c0.2,0.6,0.9,0.7,1.3,0.7c0.7,0,1.3-0.8,2.3-1.7l0.1,2.8h0.2c0,0,0.1-1.7,0.2-2
						C115.5,395.3,116,394.2,115.3,393.4z"/>
					<circle class="st25" cx="111.7" cy="395.7" r="0.1"/>
				</g>
			</g>
		</g>
		<g>
			<g>
				<g>
					<path class="st39" d="M165.2,357.9c0.5,0,2-1.5,2.1-1.2l-0.2-0.6l-0.8,0.4c0,0-0.6,0.6-0.7,0.7
						C165.5,357.3,165.2,357.9,165.2,357.9z"/>
					<path class="st39" d="M164.8,356.4c0.3-0.1,1.8-0.9,2.2-1.5c0,0-0.4,1.1-0.5,1.1c0,0-1,1.2-1.3,1.3c-0.3,0.1-0.8,0.3-1,0.2
						c-0.2-0.1-0.4-0.4-0.3-0.6C164.2,356.7,164.8,356.4,164.8,356.4z"/>
					<path class="st40" d="M167.5,354.9c-0.6-0.7-2,2.2-2.6,2.1c-0.6-0.1-0.1-0.6-0.1-0.6c-0.4,0.1-1.1,0.1-1.4,0.7
						c-0.1,0.1-0.1,0.3,0,0.4c0.2,0.6,0.9,0.7,1.3,0.7c0.7,0,1.3-0.8,2.3-1.7l0.1,2.8h0.2c0,0,0.1-1.7,0.2-2
						C167.6,356.9,168.1,355.8,167.5,354.9z"/>
					<circle class="st25" cx="163.8" cy="357.3" r="0.1"/>
				</g>
				<g>
					<path class="st39" d="M163.5,358.8c0.5,0,2-1.5,2.1-1.2l-0.2-0.6l-0.8,0.4c0,0-0.6,0.6-0.7,0.7
						C163.8,358.2,163.5,358.8,163.5,358.8z"/>
					<path class="st39" d="M163.2,357.3c0.3-0.1,1.8-0.9,2.2-1.5c0,0-0.4,1.1-0.5,1.1c0,0-1,1.2-1.3,1.3c-0.3,0.1-0.8,0.3-1,0.2
						c-0.2-0.1-0.4-0.4-0.3-0.6C162.5,357.6,163.2,357.3,163.2,357.3z"/>
					<path class="st40" d="M165.8,355.8c-0.6-0.7-2,2.2-2.6,2.1c-0.6-0.1-0.1-0.6-0.1-0.6c-0.4,0.1-1.1,0.1-1.4,0.7
						c-0.1,0.1-0.1,0.3,0,0.4c0.2,0.6,0.9,0.7,1.3,0.7c0.7,0,1.3-0.8,2.3-1.7l0.1,2.8h0.2c0,0,0.1-1.7,0.2-2
						C165.9,357.8,166.5,356.7,165.8,355.8z"/>
					<circle class="st25" cx="162.1" cy="358.1" r="0.1"/>
				</g>
			</g>
			<g>
				<g>
					<path class="st37" d="M159.4,361.1c0.5,0,2-1.5,2.1-1.2l-0.2-0.6l-0.8,0.4c0,0-0.6,0.6-0.7,0.7
						C159.8,360.5,159.4,361.1,159.4,361.1z"/>
					<path class="st37" d="M159.1,359.6c0.3-0.1,1.8-0.9,2.2-1.5c0,0-0.4,1.1-0.5,1.1c0,0-1,1.2-1.3,1.3c-0.3,0.1-0.8,0.3-1,0.2
						c-0.2-0.1-0.4-0.4-0.3-0.6C158.4,360,159.1,359.6,159.1,359.6z"/>
					<path class="st38" d="M161.7,358.2c-0.6-0.7-2,2.2-2.6,2.1c-0.6-0.1-0.1-0.6-0.1-0.6c-0.4,0.1-1.1,0.1-1.4,0.7
						c-0.1,0.1-0.1,0.3,0,0.4c0.2,0.6,0.9,0.7,1.3,0.7c0.7,0,1.3-0.8,2.3-1.7l0.1,2.8h0.2c0,0,0.1-1.7,0.2-2
						C161.9,360.1,162.4,359,161.7,358.2z"/>
					<circle class="st25" cx="158.1" cy="360.5" r="0.1"/>
				</g>
				<g>
					<path class="st37" d="M157.8,362c0.5,0,2-1.5,2.1-1.2l-0.2-0.6l-0.8,0.4c0,0-0.6,0.6-0.7,0.7C158.1,361.4,157.8,362,157.8,362z
						"/>
					<path class="st37" d="M157.4,360.5c0.3-0.1,1.8-0.9,2.2-1.5c0,0-0.4,1.1-0.5,1.1c0,0-1,1.2-1.3,1.3c-0.3,0.1-0.8,0.3-1,0.2
						c-0.2-0.1-0.4-0.4-0.3-0.6C156.7,360.8,157.4,360.5,157.4,360.5z"/>
					<path class="st38" d="M160.1,359c-0.6-0.7-2,2.2-2.6,2.1c-0.6-0.1-0.1-0.6-0.1-0.6c-0.4,0.1-1.1,0.1-1.4,0.7
						c-0.1,0.1-0.1,0.3,0,0.4c0.2,0.6,0.9,0.7,1.3,0.7c0.7,0,1.3-0.8,2.3-1.7l0.1,2.8h0.2c0,0,0.1-1.7,0.2-2
						C160.2,361,160.7,359.9,160.1,359z"/>
					<circle class="st25" cx="156.4" cy="361.3" r="0.1"/>
				</g>
			</g>
			<g>
				<g>
					<path class="st41" d="M154.7,364.2c0.5,0,2-1.5,2.1-1.2l-0.2-0.6l-0.8,0.4c0,0-0.6,0.6-0.7,0.7
						C155.1,363.6,154.7,364.2,154.7,364.2z"/>
					<path class="st41" d="M154.4,362.7c0.3-0.1,1.8-0.9,2.2-1.5c0,0-0.4,1.1-0.5,1.1c0,0-1,1.2-1.3,1.3c-0.3,0.1-0.8,0.3-1,0.2
						c-0.2-0.1-0.4-0.4-0.3-0.6C153.7,363,154.4,362.7,154.4,362.7z"/>
					<path class="st42" d="M157,361.2c-0.6-0.7-2,2.2-2.6,2.1c-0.6-0.1-0.1-0.6-0.1-0.6c-0.4,0.1-1.1,0.1-1.4,0.7
						c-0.1,0.1-0.1,0.3,0,0.4c0.2,0.6,0.9,0.7,1.3,0.7c0.7,0,1.3-0.8,2.3-1.7l0.1,2.8h0.2c0,0,0.1-1.7,0.2-2
						C157.1,363.2,157.7,362.1,157,361.2z"/>
					<circle class="st25" cx="153.4" cy="363.5" r="0.1"/>
				</g>
				<g>
					<path class="st41" d="M153,365.1c0.5,0,2-1.5,2.1-1.2l-0.2-0.6l-0.8,0.4c0,0-0.6,0.6-0.7,0.7C153.4,364.4,153,365.1,153,365.1z
						"/>
					<path class="st41" d="M152.7,363.6c0.3-0.1,1.8-0.9,2.2-1.5c0,0-0.4,1.1-0.5,1.1c0,0-1,1.2-1.3,1.3c-0.3,0.1-0.8,0.3-1,0.2
						c-0.2-0.1-0.4-0.4-0.3-0.6C152,363.9,152.7,363.6,152.7,363.6z"/>
					<path class="st42" d="M155.3,362.1c-0.6-0.7-2,2.2-2.6,2.1c-0.6-0.1-0.1-0.6-0.1-0.6c-0.4,0.1-1.1,0.1-1.4,0.7
						c-0.1,0.1-0.1,0.3,0,0.4c0.2,0.6,0.9,0.7,1.3,0.7c0.7,0,1.3-0.8,2.3-1.7l0.1,2.8h0.2c0,0,0.1-1.7,0.2-2
						C155.5,364.1,156,362.9,155.3,362.1z"/>
					<circle class="st25" cx="151.7" cy="364.4" r="0.1"/>
				</g>
			</g>
			<g>
				<g>
					<path class="st43" d="M149.4,367.1c0.5,0,2-1.5,2.1-1.2l-0.2-0.6l-0.8,0.4c0,0-0.6,0.6-0.7,0.7
						C149.7,366.5,149.4,367.1,149.4,367.1z"/>
					<path class="st43" d="M149,365.6c0.3-0.1,1.8-0.9,2.2-1.5c0,0-0.4,1.1-0.5,1.1c0,0-1,1.2-1.3,1.3c-0.3,0.1-0.8,0.3-1,0.2
						c-0.2-0.1-0.4-0.4-0.3-0.6C148.3,365.9,149,365.6,149,365.6z"/>
					<path class="st44" d="M151.7,364.1c-0.6-0.7-2,2.2-2.6,2.1c-0.6-0.1-0.1-0.6-0.1-0.6c-0.4,0.1-1.1,0.1-1.4,0.7
						c-0.1,0.1-0.1,0.3,0,0.4c0.2,0.6,0.9,0.7,1.3,0.7c0.7,0,1.3-0.8,2.3-1.7l0.1,2.8h0.2c0,0,0.1-1.7,0.2-2
						C151.8,366.1,152.3,365,151.7,364.1z"/>
					<circle class="st25" cx="148" cy="366.4" r="0.1"/>
				</g>
				<g>
					<path class="st43" d="M147.7,368c0.5,0,2-1.5,2.1-1.2l-0.2-0.6l-0.8,0.4c0,0-0.6,0.6-0.7,0.7C148,367.3,147.7,368,147.7,368z"
						/>
					<path class="st43" d="M147.3,366.5c0.3-0.1,1.8-0.9,2.2-1.5c0,0-0.4,1.1-0.5,1.1c0,0-1,1.2-1.3,1.3c-0.3,0.1-0.8,0.3-1,0.2
						c-0.2-0.1-0.4-0.4-0.3-0.6C146.7,366.8,147.3,366.5,147.3,366.5z"/>
					<path class="st44" d="M150,365c-0.6-0.7-2,2.2-2.6,2.1c-0.6-0.1-0.1-0.6-0.1-0.6c-0.4,0.1-1.1,0.1-1.4,0.7
						c-0.1,0.1-0.1,0.3,0,0.4c0.2,0.6,0.9,0.7,1.3,0.7c0.7,0,1.3-0.8,2.3-1.7l0.1,2.8h0.2c0,0,0.1-1.7,0.2-2
						C150.1,366.9,150.6,365.8,150,365z"/>
					<circle class="st25" cx="146.3" cy="367.3" r="0.1"/>
				</g>
			</g>
			<g>
				<g>
					<path class="st45" d="M144.2,370.2c0.5,0,2-1.5,2.1-1.2l-0.2-0.6l-0.8,0.4c0,0-0.6,0.6-0.7,0.7
						C144.5,369.5,144.2,370.2,144.2,370.2z"/>
					<path class="st45" d="M143.8,368.7c0.3-0.1,1.8-0.9,2.2-1.5c0,0-0.4,1.1-0.5,1.1c0,0-1,1.2-1.3,1.3c-0.3,0.1-0.8,0.3-1,0.2
						c-0.2-0.1-0.4-0.4-0.3-0.6C143.2,369,143.8,368.7,143.8,368.7z"/>
					<path class="st46" d="M146.5,367.2c-0.6-0.7-2,2.2-2.6,2.1c-0.6-0.1-0.1-0.6-0.1-0.6c-0.4,0.1-1.1,0.1-1.4,0.7
						c-0.1,0.1-0.1,0.3,0,0.4c0.2,0.6,0.9,0.7,1.3,0.7c0.7,0,1.3-0.8,2.3-1.7l0.1,2.8h0.2c0,0,0.1-1.7,0.2-2
						C146.6,369.2,147.1,368,146.5,367.2z"/>
					<circle class="st25" cx="142.8" cy="369.5" r="0.1"/>
				</g>
				<g>
					<path class="st45" d="M142.5,371.1c0.5,0,2-1.5,2.1-1.2l-0.2-0.6l-0.8,0.4c0,0-0.6,0.6-0.7,0.7
						C142.8,370.4,142.5,371.1,142.5,371.1z"/>
					<path class="st45" d="M142.2,369.5c0.3-0.1,1.8-0.9,2.2-1.5c0,0-0.4,1.1-0.5,1.1c0,0-1,1.2-1.3,1.3c-0.3,0.1-0.8,0.3-1,0.2
						c-0.2-0.1-0.4-0.4-0.3-0.6C141.5,369.9,142.2,369.5,142.2,369.5z"/>
					<path class="st46" d="M144.8,368.1c-0.6-0.7-2,2.2-2.6,2.1c-0.6-0.1-0.1-0.6-0.1-0.6c-0.4,0.1-1.1,0.1-1.4,0.7
						c-0.1,0.1-0.1,0.3,0,0.4c0.2,0.6,0.9,0.7,1.3,0.7c0.7,0,1.3-0.8,2.3-1.7l0.1,2.8h0.2c0,0,0.1-1.7,0.2-2
						C144.9,370,145.5,368.9,144.8,368.1z"/>
					<circle class="st25" cx="141.1" cy="370.4" r="0.1"/>
				</g>
			</g>
		</g>
		<g>
			<g>
				<g>
					<path class="st39" d="M173.8,362.8c0.5,0,2-1.5,2.1-1.2l-0.2-0.6l-0.8,0.4c0,0-0.6,0.6-0.7,0.7
						C174.1,362.1,173.8,362.8,173.8,362.8z"/>
					<path class="st39" d="M173.4,361.2c0.3-0.1,1.8-0.9,2.2-1.5c0,0-0.4,1.1-0.5,1.1c0,0-1,1.2-1.3,1.3c-0.3,0.1-0.8,0.3-1,0.2
						c-0.2-0.1-0.4-0.4-0.3-0.6C172.7,361.6,173.4,361.2,173.4,361.2z"/>
					<path class="st40" d="M176.1,359.8c-0.6-0.7-2,2.2-2.6,2.1c-0.6-0.1-0.1-0.6-0.1-0.6c-0.4,0.1-1.1,0.1-1.4,0.7
						c-0.1,0.1-0.1,0.3,0,0.4c0.2,0.6,0.9,0.7,1.3,0.7c0.7,0,1.3-0.8,2.3-1.7l0.1,2.8h0.2c0,0,0.1-1.7,0.2-2
						C176.2,361.7,176.7,360.6,176.1,359.8z"/>
					<circle class="st25" cx="172.4" cy="362.1" r="0.1"/>
				</g>
				<g>
					<path class="st39" d="M172.1,363.6c0.5,0,2-1.5,2.1-1.2l-0.2-0.6l-0.8,0.4c0,0-0.6,0.6-0.7,0.7
						C172.4,363,172.1,363.6,172.1,363.6z"/>
					<path class="st39" d="M171.7,362.1c0.3-0.1,1.8-0.9,2.2-1.5c0,0-0.4,1.1-0.5,1.1c0,0-1,1.2-1.3,1.3c-0.3,0.1-0.8,0.3-1,0.2
						c-0.2-0.1-0.4-0.4-0.3-0.6C171,362.5,171.7,362.1,171.7,362.1z"/>
					<path class="st40" d="M174.4,360.7c-0.6-0.7-2,2.2-2.6,2.1c-0.6-0.1-0.1-0.6-0.1-0.6c-0.4,0.1-1.1,0.1-1.4,0.7
						c-0.1,0.1-0.1,0.3,0,0.4c0.2,0.6,0.9,0.7,1.3,0.7c0.7,0,1.3-0.8,2.3-1.7l0.1,2.8h0.2c0,0,0.1-1.7,0.2-2
						C174.5,362.6,175,361.5,174.4,360.7z"/>
					<circle class="st25" cx="170.7" cy="363" r="0.1"/>
				</g>
			</g>
			<g>
				<g>
					<path class="st37" d="M168,366c0.5,0,2-1.5,2.1-1.2l-0.2-0.6l-0.8,0.4c0,0-0.6,0.6-0.7,0.7C168.3,365.3,168,366,168,366z"/>
					<path class="st37" d="M167.7,364.4c0.3-0.1,1.8-0.9,2.2-1.5c0,0-0.4,1.1-0.5,1.1c0,0-1,1.2-1.3,1.3c-0.3,0.1-0.8,0.3-1,0.2
						c-0.2-0.1-0.4-0.4-0.3-0.6C167,364.8,167.7,364.4,167.7,364.4z"/>
					<path class="st38" d="M170.3,363c-0.6-0.7-2,2.2-2.6,2.1c-0.6-0.1-0.1-0.6-0.1-0.6c-0.4,0.1-1.1,0.1-1.4,0.7
						c-0.1,0.1-0.1,0.3,0,0.4c0.2,0.6,0.9,0.7,1.3,0.7c0.7,0,1.3-0.8,2.3-1.7l0.1,2.8h0.2c0,0,0.1-1.7,0.2-2
						C170.4,364.9,171,363.8,170.3,363z"/>
					<circle class="st25" cx="166.6" cy="365.3" r="0.1"/>
				</g>
				<g>
					<path class="st37" d="M166.3,366.9c0.5,0,2-1.5,2.1-1.2l-0.2-0.6l-0.8,0.4c0,0-0.6,0.6-0.7,0.7
						C166.6,366.2,166.3,366.9,166.3,366.9z"/>
					<path class="st37" d="M166,365.3c0.3-0.1,1.8-0.9,2.2-1.5c0,0-0.4,1.1-0.5,1.1c0,0-1,1.2-1.3,1.3c-0.3,0.1-0.8,0.3-1,0.2
						c-0.2-0.1-0.4-0.4-0.3-0.6C165.3,365.7,166,365.3,166,365.3z"/>
					<path class="st38" d="M168.6,363.9c-0.6-0.7-2,2.2-2.6,2.1c-0.6-0.1-0.1-0.6-0.1-0.6c-0.4,0.1-1.1,0.1-1.4,0.7
						c-0.1,0.1-0.1,0.3,0,0.4c0.2,0.6,0.9,0.7,1.3,0.7c0.7,0,1.3-0.8,2.3-1.7l0.1,2.8h0.2c0,0,0.1-1.7,0.2-2
						C168.7,365.8,169.3,364.7,168.6,363.9z"/>
					<circle class="st25" cx="165" cy="366.2" r="0.1"/>
				</g>
			</g>
			<g>
				<g>
					<path class="st41" d="M163.3,369.1c0.5,0,2-1.5,2.1-1.2l-0.2-0.6l-0.8,0.4c0,0-0.6,0.6-0.7,0.7
						C163.6,368.4,163.3,369.1,163.3,369.1z"/>
					<path class="st41" d="M162.9,367.5c0.3-0.1,1.8-0.9,2.2-1.5c0,0-0.4,1.1-0.5,1.1c0,0-1,1.2-1.3,1.3c-0.3,0.1-0.8,0.3-1,0.2
						c-0.2-0.1-0.4-0.4-0.3-0.6C162.3,367.9,162.9,367.5,162.9,367.5z"/>
					<path class="st42" d="M165.6,366.1c-0.6-0.7-2,2.2-2.6,2.1c-0.6-0.1-0.1-0.6-0.1-0.6c-0.4,0.1-1.1,0.1-1.4,0.7
						c-0.1,0.1-0.1,0.3,0,0.4c0.2,0.6,0.9,0.7,1.3,0.7c0.7,0,1.3-0.8,2.3-1.7l0.1,2.8h0.2c0,0,0.1-1.7,0.2-2
						C165.7,368,166.2,366.9,165.6,366.1z"/>
					<circle class="st25" cx="161.9" cy="368.4" r="0.1"/>
				</g>
				<g>
					<path class="st41" d="M161.6,369.9c0.5,0,2-1.5,2.1-1.2l-0.2-0.6l-0.8,0.4c0,0-0.6,0.6-0.7,0.7
						C161.9,369.3,161.6,369.9,161.6,369.9z"/>
					<path class="st41" d="M161.3,368.4c0.3-0.1,1.8-0.9,2.2-1.5c0,0-0.4,1.1-0.5,1.1c0,0-1,1.2-1.3,1.3c-0.3,0.1-0.8,0.3-1,0.2
						c-0.2-0.1-0.4-0.4-0.3-0.6C160.6,368.7,161.3,368.4,161.3,368.4z"/>
					<path class="st42" d="M163.9,367c-0.6-0.7-2,2.2-2.6,2.1c-0.6-0.1-0.1-0.6-0.1-0.6c-0.4,0.1-1.1,0.1-1.4,0.7
						c-0.1,0.1-0.1,0.3,0,0.4c0.2,0.6,0.9,0.7,1.3,0.7c0.7,0,1.3-0.8,2.3-1.7l0.1,2.8h0.2c0,0,0.1-1.7,0.2-2
						C164,368.9,164.6,367.8,163.9,367z"/>
					<circle class="st25" cx="160.2" cy="369.3" r="0.1"/>
				</g>
			</g>
			<g>
				<g>
					<path class="st43" d="M157.9,371.9c0.5,0,2-1.5,2.1-1.2l-0.2-0.6l-0.8,0.4c0,0-0.6,0.6-0.7,0.7
						C158.3,371.3,157.9,371.9,157.9,371.9z"/>
					<path class="st43" d="M157.6,370.4c0.3-0.1,1.8-0.9,2.2-1.5c0,0-0.4,1.1-0.5,1.1c0,0-1,1.2-1.3,1.3c-0.3,0.1-0.8,0.3-1,0.2
						c-0.2-0.1-0.4-0.4-0.3-0.6C156.9,370.8,157.6,370.4,157.6,370.4z"/>
					<path class="st44" d="M160.2,369c-0.6-0.7-2,2.2-2.6,2.1c-0.6-0.1-0.1-0.6-0.1-0.6c-0.4,0.1-1.1,0.1-1.4,0.7
						c-0.1,0.1-0.1,0.3,0,0.4c0.2,0.6,0.9,0.7,1.3,0.7c0.7,0,1.3-0.8,2.3-1.7l0.1,2.8h0.2c0,0,0.1-1.7,0.2-2
						C160.3,370.9,160.9,369.8,160.2,369z"/>
					<circle class="st25" cx="156.6" cy="371.3" r="0.1"/>
				</g>
				<g>
					<path class="st43" d="M156.2,372.8c0.5,0,2-1.5,2.1-1.2l-0.2-0.6l-0.8,0.4c0,0-0.6,0.6-0.7,0.7
						C156.6,372.2,156.2,372.8,156.2,372.8z"/>
					<path class="st43" d="M155.9,371.3c0.3-0.1,1.8-0.9,2.2-1.5c0,0-0.4,1.1-0.5,1.1c0,0-1,1.2-1.3,1.3c-0.3,0.1-0.8,0.3-1,0.2
						c-0.2-0.1-0.4-0.4-0.3-0.6C155.2,371.6,155.9,371.3,155.9,371.3z"/>
					<path class="st44" d="M158.5,369.8c-0.6-0.7-2,2.2-2.6,2.1c-0.6-0.1-0.1-0.6-0.1-0.6c-0.4,0.1-1.1,0.1-1.4,0.7
						c-0.1,0.1-0.1,0.3,0,0.4c0.2,0.6,0.9,0.7,1.3,0.7c0.7,0,1.3-0.8,2.3-1.7l0.1,2.8h0.2c0,0,0.1-1.7,0.2-2
						C158.7,371.8,159.2,370.7,158.5,369.8z"/>
					<circle class="st25" cx="154.9" cy="372.2" r="0.1"/>
				</g>
			</g>
			<g>
				<g>
					<path class="st45" d="M152.7,375c0.5,0,2-1.5,2.1-1.2l-0.2-0.6l-0.8,0.4c0,0-0.6,0.6-0.7,0.7C153.1,374.4,152.7,375,152.7,375z
						"/>
					<path class="st45" d="M152.4,373.5c0.3-0.1,1.8-0.9,2.2-1.5c0,0-0.4,1.1-0.5,1.1c0,0-1,1.2-1.3,1.3c-0.3,0.1-0.8,0.3-1,0.2
						c-0.2-0.1-0.4-0.4-0.3-0.6C151.7,373.9,152.4,373.5,152.4,373.5z"/>
					<path class="st46" d="M155,372.1c-0.6-0.7-2,2.2-2.6,2.1c-0.6-0.1-0.1-0.6-0.1-0.6c-0.4,0.1-1.1,0.1-1.4,0.7
						c-0.1,0.1-0.1,0.3,0,0.4c0.2,0.6,0.9,0.7,1.3,0.7c0.7,0,1.3-0.8,2.3-1.7l0.1,2.8h0.2c0,0,0.1-1.7,0.2-2
						C155.2,374,155.7,372.9,155,372.1z"/>
					<circle class="st25" cx="151.4" cy="374.4" r="0.1"/>
				</g>
				<g>
					<path class="st45" d="M151.1,375.9c0.5,0,2-1.5,2.1-1.2l-0.2-0.6l-0.8,0.4c0,0-0.6,0.6-0.7,0.7
						C151.4,375.3,151.1,375.9,151.1,375.9z"/>
					<path class="st45" d="M150.7,374.4c0.3-0.1,1.8-0.9,2.2-1.5c0,0-0.4,1.1-0.5,1.1c0,0-1,1.2-1.3,1.3c-0.3,0.1-0.8,0.3-1,0.2
						c-0.2-0.1-0.4-0.4-0.3-0.6C150,374.7,150.7,374.4,150.7,374.4z"/>
					<path class="st46" d="M153.4,372.9c-0.6-0.7-2,2.2-2.6,2.1c-0.6-0.1-0.1-0.6-0.1-0.6c-0.4,0.1-1.1,0.1-1.4,0.7
						c-0.1,0.1-0.1,0.3,0,0.4c0.2,0.6,0.9,0.7,1.3,0.7c0.7,0,1.3-0.8,2.3-1.7l0.1,2.8h0.2c0,0,0.1-1.7,0.2-2
						C153.5,374.9,154,373.8,153.4,372.9z"/>
					<circle class="st25" cx="149.7" cy="375.2" r="0.1"/>
				</g>
			</g>
		</g>
		<g>
			<g>
				<g>
					<g class="st3">
						<g>
							<polygon class="st4" points="132.4,337.5 132.4,338 124.9,342.4 124.9,341.9 							"/>
						</g>
						<g>
							<polygon class="st7" points="124.9,341.9 124.9,342.4 110.1,333.8 110.1,333.3 							"/>
						</g>
						<g>
							<polygon class="st25" points="132.4,337.5 124.9,341.9 110.1,333.3 117.6,329 							"/>
						</g>
					</g>
				</g>
			</g>
			<g>
				<g>
					<path class="st47" d="M113.7,332.4c1-0.8,1.3-3.2,2.6-2.9l0.2,0.4l-0.1,0.6c0,0-0.5,1.3-0.5,1.3c0,0-0.5,0.7-0.5,0.8
						c0,0.1-0.6,0.7-0.6,0.7s-0.9,0-0.9,0c0,0-0.2-0.1-0.2-0.3C113.7,332.8,113.6,332.4,113.7,332.4z"/>
					<path class="st47" d="M116.5,332.2L116.5,332.2c0.1,0,0.2-0.1,0.2-0.2v-1.4h-0.2L116.5,332.2
						C116.4,332.2,116.4,332.2,116.5,332.2z"/>
					<path class="st48" d="M116,329.4c0,0,0.9-0.2,0.9,1.1c0,1-0.5,0.8-0.6,1.2c-0.1,0.4-0.6,1.2-1.2,1.6c-0.6,0.3-1.2,0.5-1.7,0.4
						c-0.2,0-0.2-0.3-0.1-0.4c0.1-0.2,0.4-0.7,0.5-0.9c0,0,0,0,0.1,0c0,0.1,0.4,0.3,0.8,0.4c0.2,0,1.5-0.2,1.8-3
						C116.4,329.4,116,329.4,116,329.4z"/>
					<path class="st25" d="M114,333.4C114,333.5,114,333.5,114,333.4c-0.1,0.1-0.1,0-0.1,0C113.9,333.4,113.9,333.4,114,333.4
						C114,333.4,114,333.4,114,333.4z"/>
				</g>
				<g>
					<path class="st47" d="M115,333.2c1-0.8,1.3-3.2,2.6-2.9l0.2,0.4l-0.1,0.6c0,0-0.5,1.3-0.5,1.3c0,0-0.5,0.7-0.5,0.8
						c0,0.1-0.6,0.7-0.6,0.7s-0.9,0-0.9,0c0,0-0.2-0.1-0.2-0.3C115,333.6,115,333.3,115,333.2z"/>
					<path class="st47" d="M117.8,333.1L117.8,333.1c0.1,0,0.2-0.1,0.2-0.2v-1.4h-0.2L117.8,333.1
						C117.7,333,117.7,333.1,117.8,333.1z"/>
					<path class="st48" d="M117.3,330.3c0,0,0.9-0.2,0.9,1.1c0,1-0.5,0.8-0.6,1.2c-0.1,0.4-0.6,1.2-1.2,1.6
						c-0.6,0.3-1.2,0.5-1.7,0.4c-0.2,0-0.2-0.3-0.1-0.4c0.1-0.2,0.4-0.7,0.5-0.9c0,0,0,0,0.1,0c0,0.1,0.4,0.3,0.8,0.4
						c0.2,0,1.5-0.2,1.8-3C117.7,330.2,117.3,330.3,117.3,330.3z"/>
					<path class="st25" d="M115.3,334.2C115.3,334.3,115.3,334.3,115.3,334.2c-0.1,0.1-0.1,0-0.1,0
						C115.2,334.2,115.2,334.2,115.3,334.2C115.3,334.2,115.3,334.2,115.3,334.2z"/>
				</g>
			</g>
			<g>
				<g>
					<path class="st12" d="M118.3,334.9c1-0.8,1.3-3.2,2.6-2.9l0.2,0.4L121,333c0,0-0.5,1.3-0.5,1.3c0,0-0.5,0.7-0.5,0.8
						c0,0.1-0.6,0.7-0.6,0.7s-0.9,0-0.9,0c0,0-0.2-0.1-0.2-0.3C118.3,335.4,118.2,335,118.3,334.9z"/>
					<path class="st12" d="M121.1,334.8L121.1,334.8c0.1,0,0.2-0.1,0.2-0.2v-1.4H121L121.1,334.8C121,334.8,121,334.8,121.1,334.8z"
						/>
					<path class="st49" d="M120.6,332c0,0,0.9-0.2,0.9,1.1c0,1-0.5,0.8-0.6,1.2c-0.1,0.4-0.6,1.2-1.2,1.6c-0.6,0.3-1.2,0.5-1.7,0.4
						c-0.2,0-0.2-0.3-0.1-0.4c0.1-0.2,0.4-0.7,0.5-0.9c0,0,0,0,0.1,0c0,0.1,0.4,0.3,0.8,0.4c0.2,0,1.5-0.2,1.8-3
						C121,332,120.6,332,120.6,332z"/>
					<path class="st25" d="M118.6,336C118.6,336,118.6,336.1,118.6,336c-0.1,0.1-0.1,0-0.1,0C118.5,336,118.5,335.9,118.6,336
						C118.6,335.9,118.6,336,118.6,336z"/>
				</g>
				<g>
					<path class="st12" d="M119.6,335.7c1-0.8,1.3-3.2,2.6-2.9l0.2,0.4l-0.1,0.6c0,0-0.5,1.3-0.5,1.3c0,0-0.5,0.7-0.5,0.8
						c0,0.1-0.6,0.7-0.6,0.7s-0.9,0-0.9,0c0,0-0.2-0.1-0.2-0.3C119.6,336.2,119.6,335.8,119.6,335.7z"/>
					<path class="st12" d="M122.4,335.6L122.4,335.6c0.1,0,0.2-0.1,0.2-0.2v-1.4h-0.2L122.4,335.6
						C122.3,335.6,122.3,335.6,122.4,335.6z"/>
					<path class="st49" d="M121.9,332.8c0,0,0.9-0.2,0.9,1.1c0,1-0.5,0.8-0.6,1.2c-0.1,0.4-0.6,1.2-1.2,1.6
						c-0.6,0.3-1.2,0.5-1.7,0.4c-0.2,0-0.2-0.3-0.1-0.4c0.1-0.2,0.4-0.7,0.5-0.9c0,0,0,0,0.1,0c0,0.1,0.4,0.3,0.8,0.4
						c0.2,0,1.5-0.2,1.8-3C122.3,332.8,121.9,332.8,121.9,332.8z"/>
					<path class="st25" d="M119.9,336.8C119.9,336.8,119.9,336.9,119.9,336.8c-0.1,0.1-0.1,0-0.1,0
						C119.8,336.8,119.8,336.8,119.9,336.8C119.9,336.8,119.9,336.8,119.9,336.8z"/>
				</g>
			</g>
			<g>
				<g>
					<path class="st50" d="M122.9,337.8c1-0.8,1.3-3.2,2.6-2.9l0.2,0.4l-0.1,0.6c0,0-0.5,1.3-0.5,1.3c0,0-0.5,0.7-0.5,0.8
						c0,0.1-0.6,0.7-0.6,0.7s-0.9,0-0.9,0c0,0-0.2-0.1-0.2-0.3S122.8,337.8,122.9,337.8z"/>
					<path class="st50" d="M125.7,337.7L125.7,337.7c0.1,0,0.2-0.1,0.2-0.2v-1.4h-0.2L125.7,337.7
						C125.6,337.6,125.6,337.7,125.7,337.7z"/>
					<path class="st51" d="M125.2,334.9c0,0,0.9-0.2,0.9,1.1c0,1-0.5,0.8-0.6,1.2c-0.1,0.4-0.6,1.2-1.2,1.6
						c-0.6,0.3-1.2,0.5-1.7,0.4c-0.2,0-0.2-0.3-0.1-0.4c0.1-0.2,0.4-0.7,0.5-0.9c0,0,0,0,0.1,0c0,0.1,0.4,0.3,0.8,0.4
						c0.2,0,1.5-0.2,1.8-3C125.6,334.8,125.2,334.9,125.2,334.9z"/>
					<path class="st25" d="M123.2,338.8C123.2,338.9,123.2,338.9,123.2,338.8c-0.1,0.1-0.1,0-0.1,0
						C123.1,338.8,123.1,338.8,123.2,338.8C123.2,338.8,123.2,338.8,123.2,338.8z"/>
				</g>
				<g>
					<path class="st50" d="M124.2,338.6c1-0.8,1.3-3.2,2.6-2.9l0.2,0.4l-0.1,0.6c0,0-0.5,1.3-0.5,1.3c0,0-0.5,0.7-0.5,0.8
						c0,0.1-0.6,0.7-0.6,0.7s-0.9,0-0.9,0c0,0-0.2-0.1-0.2-0.3S124.2,338.7,124.2,338.6z"/>
					<path class="st50" d="M127,338.5L127,338.5c0.1,0,0.2-0.1,0.2-0.2V337h-0.2L127,338.5C126.9,338.4,126.9,338.5,127,338.5z"/>
					<path class="st51" d="M126.5,335.7c0,0,0.9-0.2,0.9,1.1c0,1-0.5,0.8-0.6,1.2c-0.1,0.4-0.6,1.2-1.2,1.6
						c-0.6,0.3-1.2,0.5-1.7,0.4c-0.2,0-0.2-0.3-0.1-0.4c0.1-0.2,0.4-0.7,0.5-0.9c0,0,0,0,0.1,0c0,0.1,0.4,0.3,0.8,0.4
						c0.2,0,1.5-0.2,1.8-3C126.9,335.7,126.5,335.7,126.5,335.7z"/>
					<path class="st25" d="M124.5,339.7C124.5,339.7,124.5,339.7,124.5,339.7c-0.1,0.1-0.1,0-0.1,0
						C124.4,339.6,124.4,339.6,124.5,339.7C124.5,339.6,124.5,339.6,124.5,339.7z"/>
				</g>
			</g>
		</g>
		<g>
			<g>
				<g>
					<g class="st3">
						<g>
							<polygon class="st4" points="149.5,347.5 149.5,348 142,352.4 142,351.9 							"/>
						</g>
						<g>
							<polygon class="st7" points="142,351.9 142,352.4 127.2,343.8 127.2,343.3 							"/>
						</g>
						<g>
							<polygon class="st25" points="149.5,347.5 142,351.9 127.2,343.3 134.7,338.9 							"/>
						</g>
					</g>
				</g>
			</g>
			<g>
				<g>
					<path class="st47" d="M130.8,342.3c1-0.8,1.3-3.2,2.6-2.9l0.2,0.4l-0.1,0.6c0,0-0.5,1.3-0.5,1.3c0,0-0.5,0.7-0.5,0.8
						c0,0.1-0.6,0.7-0.6,0.7s-0.9,0-0.9,0c0,0-0.2-0.1-0.2-0.3S130.7,342.4,130.8,342.3z"/>
					<path class="st47" d="M133.6,342.2L133.6,342.2c0.1,0,0.2-0.1,0.2-0.2v-1.4h-0.2L133.6,342.2
						C133.5,342.2,133.5,342.2,133.6,342.2z"/>
					<path class="st48" d="M133,339.4c0,0,0.9-0.2,0.9,1.1c0,1-0.5,0.8-0.6,1.2c-0.1,0.4-0.6,1.2-1.2,1.6c-0.6,0.3-1.2,0.5-1.7,0.4
						c-0.2,0-0.2-0.3-0.1-0.4c0.1-0.2,0.4-0.7,0.5-0.9c0,0,0,0,0.1,0c0,0.1,0.4,0.3,0.8,0.4c0.2,0,1.5-0.2,1.8-3
						C133.5,339.4,133,339.4,133,339.4z"/>
					<path class="st25" d="M131.1,343.4C131.1,343.4,131,343.4,131.1,343.4c-0.1,0.1-0.1,0-0.1,0C130.9,343.4,131,343.3,131.1,343.4
						C131,343.3,131.1,343.4,131.1,343.4z"/>
				</g>
				<g>
					<path class="st47" d="M132.1,343.1c1-0.8,1.3-3.2,2.6-2.9l0.2,0.4l-0.1,0.6c0,0-0.5,1.3-0.5,1.3c0,0-0.5,0.7-0.5,0.8
						c0,0.1-0.6,0.7-0.6,0.7s-0.9,0-0.9,0c0,0-0.2-0.1-0.2-0.3S132,343.2,132.1,343.1z"/>
					<path class="st47" d="M134.9,343L134.9,343c0.1,0,0.2-0.1,0.2-0.2v-1.4h-0.2L134.9,343C134.8,343,134.8,343,134.9,343z"/>
					<path class="st48" d="M134.4,340.2c0,0,0.9-0.2,0.9,1.1c0,1-0.5,0.8-0.6,1.2c-0.1,0.4-0.6,1.2-1.2,1.6
						c-0.6,0.3-1.2,0.5-1.7,0.4c-0.2,0-0.2-0.3-0.1-0.4c0.1-0.2,0.4-0.7,0.5-0.9c0,0,0,0,0.1,0c0,0.1,0.4,0.3,0.8,0.4
						c0.2,0,1.5-0.2,1.8-3C134.8,340.2,134.4,340.2,134.4,340.2z"/>
					<path class="st25" d="M132.4,344.2C132.4,344.2,132.4,344.3,132.4,344.2c-0.1,0.1-0.1,0-0.1,0
						C132.3,344.2,132.3,344.2,132.4,344.2C132.4,344.2,132.4,344.2,132.4,344.2z"/>
				</g>
			</g>
			<g>
				<g>
					<path class="st12" d="M135.4,344.9c1-0.8,1.3-3.2,2.6-2.9l0.2,0.4l-0.1,0.6c0,0-0.5,1.3-0.5,1.3c0,0-0.5,0.7-0.5,0.8
						c0,0.1-0.6,0.7-0.6,0.7s-0.9,0-0.9,0c0,0-0.2-0.1-0.2-0.3S135.3,345,135.4,344.9z"/>
					<path class="st12" d="M138.2,344.8L138.2,344.8c0.1,0,0.2-0.1,0.2-0.2v-1.4h-0.2L138.2,344.8
						C138.1,344.7,138.1,344.8,138.2,344.8z"/>
					<path class="st49" d="M137.6,342c0,0,0.9-0.2,0.9,1.1c0,1-0.5,0.8-0.6,1.2c-0.1,0.4-0.6,1.2-1.2,1.6c-0.6,0.3-1.2,0.5-1.7,0.4
						c-0.2,0-0.2-0.3-0.1-0.4c0.1-0.2,0.4-0.7,0.5-0.9c0,0,0,0,0.1,0c0,0.1,0.4,0.3,0.8,0.4c0.2,0,1.5-0.2,1.8-3
						C138.1,342,137.6,342,137.6,342z"/>
					<path class="st25" d="M135.7,346C135.7,346,135.6,346,135.7,346c-0.1,0.1-0.1,0-0.1,0C135.5,345.9,135.6,345.9,135.7,346
						C135.6,345.9,135.7,345.9,135.7,346z"/>
				</g>
				<g>
					<path class="st12" d="M136.7,345.7c1-0.8,1.3-3.2,2.6-2.9l0.2,0.4l-0.1,0.6c0,0-0.5,1.3-0.5,1.3c0,0-0.5,0.7-0.5,0.8
						s-0.6,0.7-0.6,0.7s-0.9,0-0.9,0c0,0-0.2-0.1-0.2-0.3C136.7,346.2,136.6,345.8,136.7,345.7z"/>
					<path class="st12" d="M139.5,345.6L139.5,345.6c0.1,0,0.2-0.1,0.2-0.2v-1.4h-0.2L139.5,345.6
						C139.4,345.6,139.4,345.6,139.5,345.6z"/>
					<path class="st49" d="M139,342.8c0,0,0.9-0.2,0.9,1.1c0,1-0.5,0.8-0.6,1.2c-0.1,0.4-0.6,1.2-1.2,1.6c-0.6,0.3-1.2,0.5-1.7,0.4
						c-0.2,0-0.2-0.3-0.1-0.4c0.1-0.2,0.4-0.7,0.5-0.9c0,0,0,0,0.1,0c0,0.1,0.4,0.3,0.8,0.4c0.2,0,1.5-0.2,1.8-3
						C139.4,342.8,139,342.8,139,342.8z"/>
					<path class="st25" d="M137,346.8C137,346.8,137,346.8,137,346.8c-0.1,0.1-0.1,0-0.1,0C136.9,346.7,136.9,346.7,137,346.8
						C137,346.7,137,346.7,137,346.8z"/>
				</g>
			</g>
			<g>
				<g>
					<path class="st50" d="M140,347.7c1-0.8,1.3-3.2,2.6-2.9l0.2,0.4l-0.1,0.6c0,0-0.5,1.3-0.5,1.3c0,0-0.5,0.7-0.5,0.8
						c0,0.1-0.6,0.7-0.6,0.7s-0.9,0-0.9,0s-0.2-0.1-0.2-0.3C140,348.2,139.9,347.8,140,347.7z"/>
					<path class="st50" d="M142.8,347.6L142.8,347.6c0.1,0,0.2-0.1,0.2-0.2v-1.4h-0.2L142.8,347.6
						C142.7,347.6,142.7,347.6,142.8,347.6z"/>
					<path class="st51" d="M142.2,344.8c0,0,0.9-0.2,0.9,1.1c0,1-0.5,0.8-0.6,1.2c-0.1,0.4-0.6,1.2-1.2,1.6
						c-0.6,0.3-1.2,0.5-1.7,0.4c-0.2,0-0.2-0.3-0.1-0.4c0.1-0.2,0.4-0.7,0.5-0.9c0,0,0,0,0.1,0c0,0.1,0.4,0.3,0.8,0.4
						c0.2,0,1.5-0.2,1.8-3C142.7,344.8,142.2,344.8,142.2,344.8z"/>
					<path class="st25" d="M140.3,348.8C140.3,348.8,140.2,348.9,140.3,348.8c-0.1,0.1-0.1,0-0.1,0
						C140.1,348.8,140.2,348.7,140.3,348.8C140.2,348.7,140.3,348.8,140.3,348.8z"/>
				</g>
				<g>
					<path class="st50" d="M141.3,348.5c1-0.8,1.3-3.2,2.6-2.9l0.2,0.4l-0.1,0.6c0,0-0.5,1.3-0.5,1.3s-0.5,0.7-0.5,0.8
						c0,0.1-0.6,0.7-0.6,0.7s-0.9,0-0.9,0c0,0-0.2-0.1-0.2-0.3C141.3,349,141.2,348.6,141.3,348.5z"/>
					<path class="st50" d="M144.1,348.4L144.1,348.4c0.1,0,0.2-0.1,0.2-0.2v-1.4H144L144.1,348.4C144,348.4,144,348.4,144.1,348.4z"
						/>
					<path class="st51" d="M143.6,345.6c0,0,0.9-0.2,0.9,1.1c0,1-0.5,0.8-0.6,1.2c-0.1,0.4-0.6,1.2-1.2,1.6
						c-0.6,0.3-1.2,0.5-1.7,0.4c-0.2,0-0.2-0.3-0.1-0.4c0.1-0.2,0.4-0.7,0.5-0.9c0,0,0,0,0.1,0c0,0.1,0.4,0.3,0.8,0.4
						c0.2,0,1.5-0.2,1.8-3C144,345.6,143.6,345.6,143.6,345.6z"/>
					<path class="st25" d="M141.6,349.6C141.6,349.7,141.6,349.7,141.6,349.6c-0.1,0.1-0.1,0-0.1,0
						C141.5,349.6,141.5,349.6,141.6,349.6C141.6,349.6,141.6,349.6,141.6,349.6z"/>
				</g>
			</g>
		</g>
		<g>
			<g>
				<g>
					<g class="st3">
						<g>
							<polygon class="st4" points="132.4,330.2 132.4,330.7 124.9,335.1 124.9,334.6 							"/>
						</g>
						<g>
							<polygon class="st7" points="124.9,334.6 124.9,335.1 110.1,326.5 110.1,326 							"/>
						</g>
						<g>
							<polygon class="st25" points="132.4,330.2 124.9,334.6 110.1,326 117.6,321.6 							"/>
						</g>
					</g>
				</g>
			</g>
			<g>
				<g>
					<path class="st47" d="M113.7,325c1-0.8,1.3-3.2,2.6-2.9l0.2,0.4l-0.1,0.6c0,0-0.5,1.3-0.5,1.3c0,0-0.5,0.7-0.5,0.8
						c0,0.1-0.6,0.7-0.6,0.7s-0.9,0-0.9,0c0,0-0.2-0.1-0.2-0.3C113.7,325.5,113.6,325.1,113.7,325z"/>
					<path class="st47" d="M116.5,324.9L116.5,324.9c0.1,0,0.2-0.1,0.2-0.2v-1.4h-0.2L116.5,324.9
						C116.4,324.9,116.4,324.9,116.5,324.9z"/>
					<path class="st48" d="M116,322.1c0,0,0.9-0.2,0.9,1.1c0,1-0.5,0.8-0.6,1.2c-0.1,0.4-0.6,1.2-1.2,1.6c-0.6,0.3-1.2,0.5-1.7,0.4
						c-0.2,0-0.2-0.3-0.1-0.4c0.1-0.2,0.4-0.7,0.5-0.9c0,0,0,0,0.1,0c0,0.1,0.4,0.3,0.8,0.4c0.2,0,1.5-0.2,1.8-3
						C116.4,322.1,116,322.1,116,322.1z"/>
					<path class="st25" d="M114,326.1C114,326.1,114,326.1,114,326.1c-0.1,0.1-0.1,0-0.1,0C113.9,326.1,113.9,326,114,326.1
						C114,326,114,326.1,114,326.1z"/>
				</g>
				<g>
					<path class="st47" d="M115,325.8c1-0.8,1.3-3.2,2.6-2.9l0.2,0.4l-0.1,0.6c0,0-0.5,1.3-0.5,1.3c0,0-0.5,0.7-0.5,0.8
						c0,0.1-0.6,0.7-0.6,0.7s-0.9,0-0.9,0c0,0-0.2-0.1-0.2-0.3S115,325.9,115,325.8z"/>
					<path class="st47" d="M117.8,325.7L117.8,325.7c0.1,0,0.2-0.1,0.2-0.2v-1.4h-0.2L117.8,325.7
						C117.7,325.7,117.7,325.7,117.8,325.7z"/>
					<path class="st48" d="M117.3,322.9c0,0,0.9-0.2,0.9,1.1c0,1-0.5,0.8-0.6,1.2c-0.1,0.4-0.6,1.2-1.2,1.6
						c-0.6,0.3-1.2,0.5-1.7,0.4c-0.2,0-0.2-0.3-0.1-0.4c0.1-0.2,0.4-0.7,0.5-0.9c0,0,0,0,0.1,0c0,0.1,0.4,0.3,0.8,0.4
						c0.2,0,1.5-0.2,1.8-3C117.7,322.9,117.3,322.9,117.3,322.9z"/>
					<path class="st25" d="M115.3,326.9C115.3,326.9,115.3,327,115.3,326.9c-0.1,0.1-0.1,0-0.1,0
						C115.2,326.9,115.2,326.9,115.3,326.9C115.3,326.9,115.3,326.9,115.3,326.9z"/>
				</g>
			</g>
			<g>
				<g>
					<path class="st12" d="M118.3,327.6c1-0.8,1.3-3.2,2.6-2.9l0.2,0.4l-0.1,0.6c0,0-0.5,1.3-0.5,1.3c0,0-0.5,0.7-0.5,0.8
						c0,0.1-0.6,0.7-0.6,0.7s-0.9,0-0.9,0c0,0-0.2-0.1-0.2-0.3S118.2,327.7,118.3,327.6z"/>
					<path class="st12" d="M121.1,327.5L121.1,327.5c0.1,0,0.2-0.1,0.2-0.2v-1.4H121L121.1,327.5C121,327.4,121,327.5,121.1,327.5z"
						/>
					<path class="st49" d="M120.6,324.7c0,0,0.9-0.2,0.9,1.1c0,1-0.5,0.8-0.6,1.2c-0.1,0.4-0.6,1.2-1.2,1.6
						c-0.6,0.3-1.2,0.5-1.7,0.4c-0.2,0-0.2-0.3-0.1-0.4c0.1-0.2,0.4-0.7,0.5-0.9c0,0,0,0,0.1,0c0,0.1,0.4,0.3,0.8,0.4
						c0.2,0,1.5-0.2,1.8-3C121,324.7,120.6,324.7,120.6,324.7z"/>
					<path class="st25" d="M118.6,328.7C118.6,328.7,118.6,328.7,118.6,328.7c-0.1,0.1-0.1,0-0.1,0
						C118.5,328.6,118.5,328.6,118.6,328.7C118.6,328.6,118.6,328.6,118.6,328.7z"/>
				</g>
				<g>
					<path class="st12" d="M119.6,328.4c1-0.8,1.3-3.2,2.6-2.9l0.2,0.4l-0.1,0.6c0,0-0.5,1.3-0.5,1.3c0,0-0.5,0.7-0.5,0.8
						c0,0.1-0.6,0.7-0.6,0.7s-0.9,0-0.9,0c0,0-0.2-0.1-0.2-0.3C119.6,328.9,119.6,328.5,119.6,328.4z"/>
					<path class="st12" d="M122.4,328.3L122.4,328.3c0.1,0,0.2-0.1,0.2-0.2v-1.4h-0.2L122.4,328.3
						C122.3,328.3,122.3,328.3,122.4,328.3z"/>
					<path class="st49" d="M121.9,325.5c0,0,0.9-0.2,0.9,1.1c0,1-0.5,0.8-0.6,1.2c-0.1,0.4-0.6,1.2-1.2,1.6
						c-0.6,0.3-1.2,0.5-1.7,0.4c-0.2,0-0.2-0.3-0.1-0.4c0.1-0.2,0.4-0.7,0.5-0.9c0,0,0,0,0.1,0c0,0.1,0.4,0.3,0.8,0.4
						c0.2,0,1.5-0.2,1.8-3C122.3,325.5,121.9,325.5,121.9,325.5z"/>
					<path class="st25" d="M119.9,329.5C119.9,329.5,119.9,329.5,119.9,329.5c-0.1,0.1-0.1,0-0.1,0
						C119.8,329.4,119.8,329.4,119.9,329.5C119.9,329.4,119.9,329.4,119.9,329.5z"/>
				</g>
			</g>
			<g>
				<g>
					<path class="st50" d="M122.9,330.4c1-0.8,1.3-3.2,2.6-2.9l0.2,0.4l-0.1,0.6c0,0-0.5,1.3-0.5,1.3c0,0-0.5,0.7-0.5,0.8
						c0,0.1-0.6,0.7-0.6,0.7s-0.9,0-0.9,0c0,0-0.2-0.1-0.2-0.3C122.9,330.9,122.8,330.5,122.9,330.4z"/>
					<path class="st50" d="M125.7,330.3L125.7,330.3c0.1,0,0.2-0.1,0.2-0.2v-1.4h-0.2L125.7,330.3
						C125.6,330.3,125.6,330.3,125.7,330.3z"/>
					<path class="st51" d="M125.2,327.5c0,0,0.9-0.2,0.9,1.1c0,1-0.5,0.8-0.6,1.2c-0.1,0.4-0.6,1.2-1.2,1.6
						c-0.6,0.3-1.2,0.5-1.7,0.4c-0.2,0-0.2-0.3-0.1-0.4c0.1-0.2,0.4-0.7,0.5-0.9c0,0,0,0,0.1,0c0,0.1,0.4,0.3,0.8,0.4
						c0.2,0,1.5-0.2,1.8-3C125.6,327.5,125.2,327.5,125.2,327.5z"/>
					<path class="st25" d="M123.2,331.5C123.2,331.5,123.2,331.6,123.2,331.5c-0.1,0.1-0.1,0-0.1,0
						C123.1,331.5,123.1,331.4,123.2,331.5C123.2,331.4,123.2,331.5,123.2,331.5z"/>
				</g>
				<g>
					<path class="st50" d="M124.2,331.2c1-0.8,1.3-3.2,2.6-2.9l0.2,0.4l-0.1,0.6c0,0-0.5,1.3-0.5,1.3c0,0-0.5,0.7-0.5,0.8
						c0,0.1-0.6,0.7-0.6,0.7s-0.9,0-0.9,0c0,0-0.2-0.1-0.2-0.3C124.2,331.7,124.2,331.3,124.2,331.2z"/>
					<path class="st50" d="M127,331.1L127,331.1c0.1,0,0.2-0.1,0.2-0.2v-1.4h-0.2L127,331.1C126.9,331.1,126.9,331.1,127,331.1z"/>
					<path class="st51" d="M126.5,328.3c0,0,0.9-0.2,0.9,1.1c0,1-0.5,0.8-0.6,1.2c-0.1,0.4-0.6,1.2-1.2,1.6
						c-0.6,0.3-1.2,0.5-1.7,0.4c-0.2,0-0.2-0.3-0.1-0.4c0.1-0.2,0.4-0.7,0.5-0.9c0,0,0,0,0.1,0c0,0.1,0.4,0.3,0.8,0.4
						c0.2,0,1.5-0.2,1.8-3C126.9,328.3,126.5,328.3,126.5,328.3z"/>
					<path class="st25" d="M124.5,332.3C124.5,332.4,124.5,332.4,124.5,332.3c-0.1,0.1-0.1,0-0.1,0
						C124.4,332.3,124.4,332.3,124.5,332.3C124.5,332.3,124.5,332.3,124.5,332.3z"/>
				</g>
			</g>
		</g>
		<g>
			<g>
				<g>
					<g class="st3">
						<g>
							<polygon class="st4" points="149.5,340.2 149.5,340.7 142,345 142,344.5 							"/>
						</g>
						<g>
							<polygon class="st7" points="142,344.5 142,345 127.2,336.5 127.2,336 							"/>
						</g>
						<g>
							<polygon class="st25" points="149.5,340.2 142,344.5 127.2,336 134.7,331.6 							"/>
						</g>
					</g>
				</g>
			</g>
			<g>
				<g>
					<path class="st47" d="M130.8,335c1-0.8,1.3-3.2,2.6-2.9l0.2,0.4l-0.1,0.6c0,0-0.5,1.3-0.5,1.3c0,0-0.5,0.7-0.5,0.8
						c0,0.1-0.6,0.7-0.6,0.7s-0.9,0-0.9,0c0,0-0.2-0.1-0.2-0.3C130.8,335.4,130.7,335.1,130.8,335z"/>
					<path class="st47" d="M133.6,334.9L133.6,334.9c0.1,0,0.2-0.1,0.2-0.2v-1.4h-0.2L133.6,334.9
						C133.5,334.8,133.5,334.9,133.6,334.9z"/>
					<path class="st48" d="M133,332.1c0,0,0.9-0.2,0.9,1.1c0,1-0.5,0.8-0.6,1.2c-0.1,0.4-0.6,1.2-1.2,1.6c-0.6,0.3-1.2,0.5-1.7,0.4
						c-0.2,0-0.2-0.3-0.1-0.4c0.1-0.2,0.4-0.7,0.5-0.9c0,0,0,0,0.1,0c0,0.1,0.4,0.3,0.8,0.4c0.2,0,1.5-0.2,1.8-3
						C133.5,332.1,133,332.1,133,332.1z"/>
					<path class="st25" d="M131.1,336.1C131.1,336.1,131,336.1,131.1,336.1c-0.1,0.1-0.1,0-0.1,0C130.9,336,131,336,131.1,336.1
						C131,336,131.1,336,131.1,336.1z"/>
				</g>
				<g>
					<path class="st47" d="M132.1,335.8c1-0.8,1.3-3.2,2.6-2.9l0.2,0.4l-0.1,0.6c0,0-0.5,1.3-0.5,1.3c0,0-0.5,0.7-0.5,0.8
						c0,0.1-0.6,0.7-0.6,0.7s-0.9,0-0.9,0c0,0-0.2-0.1-0.2-0.3C132.1,336.3,132,335.9,132.1,335.8z"/>
					<path class="st47" d="M134.9,335.7L134.9,335.7c0.1,0,0.2-0.1,0.2-0.2v-1.4h-0.2L134.9,335.7
						C134.8,335.7,134.8,335.7,134.9,335.7z"/>
					<path class="st48" d="M134.4,332.9c0,0,0.9-0.2,0.9,1.1c0,1-0.5,0.8-0.6,1.2c-0.1,0.4-0.6,1.2-1.2,1.6
						c-0.6,0.3-1.2,0.5-1.7,0.4c-0.2,0-0.2-0.3-0.1-0.4c0.1-0.2,0.4-0.7,0.5-0.9c0,0,0,0,0.1,0c0,0.1,0.4,0.3,0.8,0.4
						c0.2,0,1.5-0.2,1.8-3C134.8,332.9,134.4,332.9,134.4,332.9z"/>
					<path class="st25" d="M132.4,336.9C132.4,336.9,132.4,336.9,132.4,336.9c-0.1,0.1-0.1,0-0.1,0
						C132.3,336.8,132.3,336.8,132.4,336.9C132.4,336.8,132.4,336.8,132.4,336.9z"/>
				</g>
			</g>
			<g>
				<g>
					<path class="st12" d="M135.4,337.5c1-0.8,1.3-3.2,2.6-2.9l0.2,0.4l-0.1,0.6c0,0-0.5,1.3-0.5,1.3c0,0-0.5,0.7-0.5,0.8
						c0,0.1-0.6,0.7-0.6,0.7s-0.9,0-0.9,0c0,0-0.2-0.1-0.2-0.3C135.4,338,135.3,337.6,135.4,337.5z"/>
					<path class="st12" d="M138.2,337.4L138.2,337.4c0.1,0,0.2-0.1,0.2-0.2v-1.4h-0.2L138.2,337.4
						C138.1,337.4,138.1,337.4,138.2,337.4z"/>
					<path class="st49" d="M137.6,334.6c0,0,0.9-0.2,0.9,1.1c0,1-0.5,0.8-0.6,1.2c-0.1,0.4-0.6,1.2-1.2,1.6
						c-0.6,0.3-1.2,0.5-1.7,0.4c-0.2,0-0.2-0.3-0.1-0.4c0.1-0.2,0.4-0.7,0.5-0.9c0,0,0,0,0.1,0c0,0.1,0.4,0.3,0.8,0.4
						c0.2,0,1.5-0.2,1.8-3C138.1,334.6,137.6,334.6,137.6,334.6z"/>
					<path class="st25" d="M135.7,338.6C135.7,338.6,135.6,338.7,135.7,338.6c-0.1,0.1-0.1,0-0.1,0
						C135.5,338.6,135.6,338.6,135.7,338.6C135.6,338.6,135.7,338.6,135.7,338.6z"/>
				</g>
				<g>
					<path class="st12" d="M136.7,338.4c1-0.8,1.3-3.2,2.6-2.9l0.2,0.4l-0.1,0.6c0,0-0.5,1.3-0.5,1.3c0,0-0.5,0.7-0.5,0.8
						c0,0.1-0.6,0.7-0.6,0.7s-0.9,0-0.9,0c0,0-0.2-0.1-0.2-0.3S136.6,338.4,136.7,338.4z"/>
					<path class="st12" d="M139.5,338.3L139.5,338.3c0.1,0,0.2-0.1,0.2-0.2v-1.4h-0.2L139.5,338.3
						C139.4,338.2,139.4,338.3,139.5,338.3z"/>
					<path class="st49" d="M139,335.5c0,0,0.9-0.2,0.9,1.1c0,1-0.5,0.8-0.6,1.2c-0.1,0.4-0.6,1.2-1.2,1.6c-0.6,0.3-1.2,0.5-1.7,0.4
						c-0.2,0-0.2-0.3-0.1-0.4c0.1-0.2,0.4-0.7,0.5-0.9c0,0,0,0,0.1,0c0,0.1,0.4,0.3,0.8,0.4c0.2,0,1.5-0.2,1.8-3
						C139.4,335.4,139,335.5,139,335.5z"/>
					<path class="st25" d="M137,339.4C137,339.5,137,339.5,137,339.4c-0.1,0.1-0.1,0-0.1,0C136.9,339.4,136.9,339.4,137,339.4
						C137,339.4,137,339.4,137,339.4z"/>
				</g>
			</g>
			<g>
				<g>
					<path class="st50" d="M140,340.4c1-0.8,1.3-3.2,2.6-2.9l0.2,0.4l-0.1,0.6c0,0-0.5,1.3-0.5,1.3c0,0-0.5,0.7-0.5,0.8
						c0,0.1-0.6,0.7-0.6,0.7s-0.9,0-0.9,0s-0.2-0.1-0.2-0.3C140,340.9,139.9,340.5,140,340.4z"/>
					<path class="st50" d="M142.8,340.3L142.8,340.3c0.1,0,0.2-0.1,0.2-0.2v-1.4h-0.2L142.8,340.3
						C142.7,340.3,142.7,340.3,142.8,340.3z"/>
					<path class="st51" d="M142.2,337.5c0,0,0.9-0.2,0.9,1.1c0,1-0.5,0.8-0.6,1.2c-0.1,0.4-0.6,1.2-1.2,1.6
						c-0.6,0.3-1.2,0.5-1.7,0.4c-0.2,0-0.2-0.3-0.1-0.4c0.1-0.2,0.4-0.7,0.5-0.9c0,0,0,0,0.1,0c0,0.1,0.4,0.3,0.8,0.4
						c0.2,0,1.5-0.2,1.8-3C142.7,337.5,142.2,337.5,142.2,337.5z"/>
					<path class="st25" d="M140.3,341.5C140.3,341.5,140.2,341.5,140.3,341.5c-0.1,0.1-0.1,0-0.1,0
						C140.1,341.4,140.2,341.4,140.3,341.5C140.2,341.4,140.3,341.4,140.3,341.5z"/>
				</g>
				<g>
					<path class="st50" d="M141.3,341.2c1-0.8,1.3-3.2,2.6-2.9l0.2,0.4l-0.1,0.6c0,0-0.5,1.3-0.5,1.3c0,0-0.5,0.7-0.5,0.8
						c0,0.1-0.6,0.7-0.6,0.7s-0.9,0-0.9,0c0,0-0.2-0.1-0.2-0.3C141.3,341.7,141.2,341.3,141.3,341.2z"/>
					<path class="st50" d="M144.1,341.1L144.1,341.1c0.1,0,0.2-0.1,0.2-0.2v-1.4H144L144.1,341.1C144,341.1,144,341.1,144.1,341.1z"
						/>
					<path class="st51" d="M143.6,338.3c0,0,0.9-0.2,0.9,1.1c0,1-0.5,0.8-0.6,1.2c-0.1,0.4-0.6,1.2-1.2,1.6
						c-0.6,0.3-1.2,0.5-1.7,0.4c-0.2,0-0.2-0.3-0.1-0.4c0.1-0.2,0.4-0.7,0.5-0.9c0,0,0,0,0.1,0c0,0.1,0.4,0.3,0.8,0.4
						c0.2,0,1.5-0.2,1.8-3C144,338.3,143.6,338.3,143.6,338.3z"/>
					<path class="st25" d="M141.6,342.3C141.6,342.3,141.6,342.3,141.6,342.3c-0.1,0.1-0.1,0-0.1,0
						C141.5,342.3,141.5,342.2,141.6,342.3C141.6,342.2,141.6,342.3,141.6,342.3z"/>
				</g>
			</g>
		</g>
		<g>
			<g>
				<g>
					<g class="st3">
						<g>
							<polygon class="st4" points="132.4,322.9 132.4,323.4 124.9,327.7 124.9,327.2 							"/>
						</g>
						<g>
							<polygon class="st7" points="124.9,327.2 124.9,327.7 110.1,319.2 110.1,318.7 							"/>
						</g>
						<g>
							<polygon class="st25" points="132.4,322.9 124.9,327.2 110.1,318.7 117.6,314.3 							"/>
						</g>
					</g>
				</g>
			</g>
			<g>
				<g>
					<path class="st47" d="M113.7,317.7c1-0.8,1.3-3.2,2.6-2.9l0.2,0.4l-0.1,0.6c0,0-0.5,1.3-0.5,1.3c0,0-0.5,0.7-0.5,0.8
						c0,0.1-0.6,0.7-0.6,0.7s-0.9,0-0.9,0c0,0-0.2-0.1-0.2-0.3C113.7,318.1,113.6,317.8,113.7,317.7z"/>
					<path class="st47" d="M116.5,317.6L116.5,317.6c0.1,0,0.2-0.1,0.2-0.2V316h-0.2L116.5,317.6
						C116.4,317.5,116.4,317.6,116.5,317.6z"/>
					<path class="st48" d="M116,314.8c0,0,0.9-0.2,0.9,1.1c0,1-0.5,0.8-0.6,1.2c-0.1,0.4-0.6,1.2-1.2,1.6c-0.6,0.3-1.2,0.5-1.7,0.4
						c-0.2,0-0.2-0.3-0.1-0.4c0.1-0.2,0.4-0.7,0.5-0.9c0,0,0,0,0.1,0c0,0.1,0.4,0.3,0.8,0.4c0.2,0,1.5-0.2,1.8-3
						C116.4,314.8,116,314.8,116,314.8z"/>
					<path class="st25" d="M114,318.8C114,318.8,114,318.8,114,318.8c-0.1,0.1-0.1,0-0.1,0C113.9,318.7,113.9,318.7,114,318.8
						C114,318.7,114,318.7,114,318.8z"/>
				</g>
				<g>
					<path class="st47" d="M115,318.5c1-0.8,1.3-3.2,2.6-2.9l0.2,0.4l-0.1,0.6c0,0-0.5,1.3-0.5,1.3c0,0-0.5,0.7-0.5,0.8
						c0,0.1-0.6,0.7-0.6,0.7s-0.9,0-0.9,0c0,0-0.2-0.1-0.2-0.3C115,319,115,318.6,115,318.5z"/>
					<path class="st47" d="M117.8,318.4L117.8,318.4c0.1,0,0.2-0.1,0.2-0.2v-1.4h-0.2L117.8,318.4
						C117.7,318.4,117.7,318.4,117.8,318.4z"/>
					<path class="st48" d="M117.3,315.6c0,0,0.9-0.2,0.9,1.1c0,1-0.5,0.8-0.6,1.2c-0.1,0.4-0.6,1.2-1.2,1.6
						c-0.6,0.3-1.2,0.5-1.7,0.4c-0.2,0-0.2-0.3-0.1-0.4c0.1-0.2,0.4-0.7,0.5-0.9c0,0,0,0,0.1,0c0,0.1,0.4,0.3,0.8,0.4
						c0.2,0,1.5-0.2,1.8-3C117.7,315.6,117.3,315.6,117.3,315.6z"/>
					<path class="st25" d="M115.3,319.6C115.3,319.6,115.3,319.6,115.3,319.6c-0.1,0.1-0.1,0-0.1,0
						C115.2,319.5,115.2,319.5,115.3,319.6C115.3,319.5,115.3,319.5,115.3,319.6z"/>
				</g>
			</g>
			<g>
				<g>
					<path class="st12" d="M118.3,320.2c1-0.8,1.3-3.2,2.6-2.9l0.2,0.4l-0.1,0.6c0,0-0.5,1.3-0.5,1.3c0,0-0.5,0.7-0.5,0.8
						c0,0.1-0.6,0.7-0.6,0.7s-0.9,0-0.9,0c0,0-0.2-0.1-0.2-0.3C118.3,320.7,118.2,320.3,118.3,320.2z"/>
					<path class="st12" d="M121.1,320.1L121.1,320.1c0.1,0,0.2-0.1,0.2-0.2v-1.4H121L121.1,320.1C121,320.1,121,320.1,121.1,320.1z"
						/>
					<path class="st49" d="M120.6,317.3c0,0,0.9-0.2,0.9,1.1c0,1-0.5,0.8-0.6,1.2c-0.1,0.4-0.6,1.2-1.2,1.6
						c-0.6,0.3-1.2,0.5-1.7,0.4c-0.2,0-0.2-0.3-0.1-0.4c0.1-0.2,0.4-0.7,0.5-0.9c0,0,0,0,0.1,0c0,0.1,0.4,0.3,0.8,0.4
						c0.2,0,1.5-0.2,1.8-3C121,317.3,120.6,317.3,120.6,317.3z"/>
					<path class="st25" d="M118.6,321.3C118.6,321.3,118.6,321.4,118.6,321.3c-0.1,0.1-0.1,0-0.1,0
						C118.5,321.3,118.5,321.3,118.6,321.3C118.6,321.3,118.6,321.3,118.6,321.3z"/>
				</g>
				<g>
					<path class="st12" d="M119.6,321.1c1-0.8,1.3-3.2,2.6-2.9l0.2,0.4l-0.1,0.6c0,0-0.5,1.3-0.5,1.3c0,0-0.5,0.7-0.5,0.8
						c0,0.1-0.6,0.7-0.6,0.7s-0.9,0-0.9,0c0,0-0.2-0.1-0.2-0.3S119.6,321.1,119.6,321.1z"/>
					<path class="st12" d="M122.4,321L122.4,321c0.1,0,0.2-0.1,0.2-0.2v-1.4h-0.2L122.4,321C122.3,320.9,122.3,321,122.4,321z"/>
					<path class="st49" d="M121.9,318.2c0,0,0.9-0.2,0.9,1.1c0,1-0.5,0.8-0.6,1.2c-0.1,0.4-0.6,1.2-1.2,1.6
						c-0.6,0.3-1.2,0.5-1.7,0.4c-0.2,0-0.2-0.3-0.1-0.4c0.1-0.2,0.4-0.7,0.5-0.9c0,0,0,0,0.1,0c0,0.1,0.4,0.3,0.8,0.4
						c0.2,0,1.5-0.2,1.8-3C122.3,318.1,121.9,318.2,121.9,318.2z"/>
					<path class="st25" d="M119.9,322.1C119.9,322.2,119.9,322.2,119.9,322.1c-0.1,0.1-0.1,0-0.1,0
						C119.8,322.1,119.8,322.1,119.9,322.1C119.9,322.1,119.9,322.1,119.9,322.1z"/>
				</g>
			</g>
			<g>
				<g>
					<path class="st50" d="M122.9,323.1c1-0.8,1.3-3.2,2.6-2.9l0.2,0.4l-0.1,0.6c0,0-0.5,1.3-0.5,1.3c0,0-0.5,0.7-0.5,0.8
						c0,0.1-0.6,0.7-0.6,0.7s-0.9,0-0.9,0c0,0-0.2-0.1-0.2-0.3C122.9,323.6,122.8,323.2,122.9,323.1z"/>
					<path class="st50" d="M125.7,323L125.7,323c0.1,0,0.2-0.1,0.2-0.2v-1.4h-0.2L125.7,323C125.6,322.9,125.6,323,125.7,323z"/>
					<path class="st51" d="M125.2,320.2c0,0,0.9-0.2,0.9,1.1c0,1-0.5,0.8-0.6,1.2c-0.1,0.4-0.6,1.2-1.2,1.6
						c-0.6,0.3-1.2,0.5-1.7,0.4c-0.2,0-0.2-0.3-0.1-0.4c0.1-0.2,0.4-0.7,0.5-0.9c0,0,0,0,0.1,0c0,0.1,0.4,0.3,0.8,0.4
						c0.2,0,1.5-0.2,1.8-3C125.6,320.2,125.2,320.2,125.2,320.2z"/>
					<path class="st25" d="M123.2,324.2C123.2,324.2,123.2,324.2,123.2,324.2c-0.1,0.1-0.1,0-0.1,0
						C123.1,324.1,123.1,324.1,123.2,324.2C123.2,324.1,123.2,324.1,123.2,324.2z"/>
				</g>
				<g>
					<path class="st50" d="M124.2,323.9c1-0.8,1.3-3.2,2.6-2.9l0.2,0.4l-0.1,0.6c0,0-0.5,1.3-0.5,1.3c0,0-0.5,0.7-0.5,0.8
						c0,0.1-0.6,0.7-0.6,0.7s-0.9,0-0.9,0c0,0-0.2-0.1-0.2-0.3C124.2,324.4,124.2,324,124.2,323.9z"/>
					<path class="st50" d="M127,323.8L127,323.8c0.1,0,0.2-0.1,0.2-0.2v-1.4h-0.2L127,323.8C126.9,323.8,126.9,323.8,127,323.8z"/>
					<path class="st51" d="M126.5,321c0,0,0.9-0.2,0.9,1.1c0,1-0.5,0.8-0.6,1.2c-0.1,0.4-0.6,1.2-1.2,1.6c-0.6,0.3-1.2,0.5-1.7,0.4
						c-0.2,0-0.2-0.3-0.1-0.4c0.1-0.2,0.4-0.7,0.5-0.9c0,0,0,0,0.1,0c0,0.1,0.4,0.3,0.8,0.4c0.2,0,1.5-0.2,1.8-3
						C126.9,321,126.5,321,126.5,321z"/>
					<path class="st25" d="M124.5,325C124.5,325,124.5,325,124.5,325c-0.1,0.1-0.1,0-0.1,0C124.4,325,124.4,324.9,124.5,325
						C124.5,324.9,124.5,325,124.5,325z"/>
				</g>
			</g>
		</g>
		<g>
			<g>
				<g>
					<g class="st3">
						<g>
							<polygon class="st4" points="149.5,332.8 149.5,333.3 142,337.7 142,337.2 							"/>
						</g>
						<g>
							<polygon class="st7" points="142,337.2 142,337.7 127.2,329.1 127.2,328.6 							"/>
						</g>
						<g>
							<polygon class="st25" points="149.5,332.8 142,337.2 127.2,328.6 134.7,324.3 							"/>
						</g>
					</g>
				</g>
			</g>
			<g>
				<g>
					<path class="st47" d="M130.8,327.6c1-0.8,1.3-3.2,2.6-2.9l0.2,0.4l-0.1,0.6c0,0-0.5,1.3-0.5,1.3c0,0-0.5,0.7-0.5,0.8
						c0,0.1-0.6,0.7-0.6,0.7s-0.9,0-0.9,0c0,0-0.2-0.1-0.2-0.3C130.8,328.1,130.7,327.7,130.8,327.6z"/>
					<path class="st47" d="M133.6,327.5L133.6,327.5c0.1,0,0.2-0.1,0.2-0.2V326h-0.2L133.6,327.5
						C133.5,327.5,133.5,327.5,133.6,327.5z"/>
					<path class="st48" d="M133,324.7c0,0,0.9-0.2,0.9,1.1c0,1-0.5,0.8-0.6,1.2c-0.1,0.4-0.6,1.2-1.2,1.6c-0.6,0.3-1.2,0.5-1.7,0.4
						c-0.2,0-0.2-0.3-0.1-0.4c0.1-0.2,0.4-0.7,0.5-0.9c0,0,0,0,0.1,0c0,0.1,0.4,0.3,0.8,0.4c0.2,0,1.5-0.2,1.8-3
						C133.5,324.7,133,324.7,133,324.7z"/>
					<path class="st25" d="M131.1,328.7C131.1,328.7,131,328.8,131.1,328.7c-0.1,0.1-0.1,0-0.1,0C130.9,328.7,131,328.7,131.1,328.7
						C131,328.7,131.1,328.7,131.1,328.7z"/>
				</g>
				<g>
					<path class="st47" d="M132.1,328.5c1-0.8,1.3-3.2,2.6-2.9l0.2,0.4l-0.1,0.6c0,0-0.5,1.3-0.5,1.3c0,0-0.5,0.7-0.5,0.8
						c0,0.1-0.6,0.7-0.6,0.7s-0.9,0-0.9,0c0,0-0.2-0.1-0.2-0.3C132.1,328.9,132,328.5,132.1,328.5z"/>
					<path class="st47" d="M134.9,328.4L134.9,328.4c0.1,0,0.2-0.1,0.2-0.2v-1.4h-0.2L134.9,328.4
						C134.8,328.3,134.8,328.4,134.9,328.4z"/>
					<path class="st48" d="M134.4,325.6c0,0,0.9-0.2,0.9,1.1c0,1-0.5,0.8-0.6,1.2c-0.1,0.4-0.6,1.2-1.2,1.6
						c-0.6,0.3-1.2,0.5-1.7,0.4c-0.2,0-0.2-0.3-0.1-0.4c0.1-0.2,0.4-0.7,0.5-0.9c0,0,0,0,0.1,0c0,0.1,0.4,0.3,0.8,0.4
						c0.2,0,1.5-0.2,1.8-3C134.8,325.5,134.4,325.6,134.4,325.6z"/>
					<path class="st25" d="M132.4,329.5C132.4,329.6,132.4,329.6,132.4,329.5c-0.1,0.1-0.1,0-0.1,0
						C132.3,329.5,132.3,329.5,132.4,329.5C132.4,329.5,132.4,329.5,132.4,329.5z"/>
				</g>
			</g>
			<g>
				<g>
					<path class="st12" d="M135.4,330.2c1-0.8,1.3-3.2,2.6-2.9l0.2,0.4l-0.1,0.6c0,0-0.5,1.3-0.5,1.3c0,0-0.5,0.7-0.5,0.8
						c0,0.1-0.6,0.7-0.6,0.7s-0.9,0-0.9,0c0,0-0.2-0.1-0.2-0.3C135.4,330.7,135.3,330.3,135.4,330.2z"/>
					<path class="st12" d="M138.2,330.1L138.2,330.1c0.1,0,0.2-0.1,0.2-0.2v-1.4h-0.2L138.2,330.1
						C138.1,330.1,138.1,330.1,138.2,330.1z"/>
					<path class="st49" d="M137.6,327.3c0,0,0.9-0.2,0.9,1.1c0,1-0.5,0.8-0.6,1.2c-0.1,0.4-0.6,1.2-1.2,1.6
						c-0.6,0.3-1.2,0.5-1.7,0.4c-0.2,0-0.2-0.3-0.1-0.4c0.1-0.2,0.4-0.7,0.5-0.9c0,0,0,0,0.1,0c0,0.1,0.4,0.3,0.8,0.4
						c0.2,0,1.5-0.2,1.8-3C138.1,327.3,137.6,327.3,137.6,327.3z"/>
					<path class="st25" d="M135.7,331.3C135.7,331.3,135.6,331.3,135.7,331.3c-0.1,0.1-0.1,0-0.1,0
						C135.5,331.2,135.6,331.2,135.7,331.3C135.6,331.2,135.7,331.2,135.7,331.3z"/>
				</g>
				<g>
					<path class="st12" d="M136.7,331c1-0.8,1.3-3.2,2.6-2.9l0.2,0.4l-0.1,0.6c0,0-0.5,1.3-0.5,1.3c0,0-0.5,0.7-0.5,0.8
						s-0.6,0.7-0.6,0.7s-0.9,0-0.9,0c0,0-0.2-0.1-0.2-0.3C136.7,331.5,136.6,331.1,136.7,331z"/>
					<path class="st12" d="M139.5,330.9L139.5,330.9c0.1,0,0.2-0.1,0.2-0.2v-1.4h-0.2L139.5,330.9
						C139.4,330.9,139.4,330.9,139.5,330.9z"/>
					<path class="st49" d="M139,328.1c0,0,0.9-0.2,0.9,1.1c0,1-0.5,0.8-0.6,1.2c-0.1,0.4-0.6,1.2-1.2,1.6c-0.6,0.3-1.2,0.5-1.7,0.4
						c-0.2,0-0.2-0.3-0.1-0.4c0.1-0.2,0.4-0.7,0.5-0.9c0,0,0,0,0.1,0c0,0.1,0.4,0.3,0.8,0.4c0.2,0,1.5-0.2,1.8-3
						C139.4,328.1,139,328.1,139,328.1z"/>
					<path class="st25" d="M137,332.1C137,332.1,137,332.2,137,332.1c-0.1,0.1-0.1,0-0.1,0C136.9,332.1,136.9,332,137,332.1
						C137,332,137,332.1,137,332.1z"/>
				</g>
			</g>
			<g>
				<g>
					<path class="st50" d="M140,333c1-0.8,1.3-3.2,2.6-2.9l0.2,0.4l-0.1,0.6c0,0-0.5,1.3-0.5,1.3c0,0-0.5,0.7-0.5,0.8
						c0,0.1-0.6,0.7-0.6,0.7s-0.9,0-0.9,0c0,0-0.2-0.1-0.2-0.3S139.9,333.1,140,333z"/>
					<path class="st50" d="M142.8,332.9L142.8,332.9c0.1,0,0.2-0.1,0.2-0.2v-1.4h-0.2L142.8,332.9
						C142.7,332.9,142.7,332.9,142.8,332.9z"/>
					<path class="st51" d="M142.2,330.1c0,0,0.9-0.2,0.9,1.1c0,1-0.5,0.8-0.6,1.2c-0.1,0.4-0.6,1.2-1.2,1.6
						c-0.6,0.3-1.2,0.5-1.7,0.4c-0.2,0-0.2-0.3-0.1-0.4c0.1-0.2,0.4-0.7,0.5-0.9c0,0,0,0,0.1,0c0,0.1,0.4,0.3,0.8,0.4
						c0.2,0,1.5-0.2,1.8-3C142.7,330.1,142.2,330.1,142.2,330.1z"/>
					<path class="st25" d="M140.3,334.1C140.3,334.2,140.2,334.2,140.3,334.1c-0.1,0.1-0.1,0-0.1,0
						C140.1,334.1,140.2,334.1,140.3,334.1C140.2,334.1,140.3,334.1,140.3,334.1z"/>
				</g>
				<g>
					<path class="st50" d="M141.3,333.9c1-0.8,1.3-3.2,2.6-2.9l0.2,0.4L144,332c0,0-0.5,1.3-0.5,1.3s-0.5,0.7-0.5,0.8
						c0,0.1-0.6,0.7-0.6,0.7s-0.9,0-0.9,0c0,0-0.2-0.1-0.2-0.3S141.2,334,141.3,333.9z"/>
					<path class="st50" d="M144.1,333.8L144.1,333.8c0.1,0,0.2-0.1,0.2-0.2v-1.4H144L144.1,333.8C144,333.7,144,333.8,144.1,333.8z"
						/>
					<path class="st51" d="M143.6,331c0,0,0.9-0.2,0.9,1.1c0,1-0.5,0.8-0.6,1.2c-0.1,0.4-0.6,1.2-1.2,1.6c-0.6,0.3-1.2,0.5-1.7,0.4
						c-0.2,0-0.2-0.3-0.1-0.4c0.1-0.2,0.4-0.7,0.5-0.9c0,0,0,0,0.1,0c0,0.1,0.4,0.3,0.8,0.4c0.2,0,1.5-0.2,1.8-3
						C144,330.9,143.6,331,143.6,331z"/>
					<path class="st25" d="M141.6,334.9C141.6,335,141.6,335,141.6,334.9c-0.1,0.1-0.1,0-0.1,0C141.5,334.9,141.5,334.9,141.6,334.9
						C141.6,334.9,141.6,334.9,141.6,334.9z"/>
				</g>
			</g>
		</g>
	</g>
</g>
</svg>
