<?xml version="1.0" encoding="utf-8"?>
<!-- Generator: Adobe Illustrator 24.2.1, SVG Export Plug-In . SVG Version: 6.00 Build 0)  -->
<svg version="1.1" xmlns="http://www.w3.org/2000/svg" xmlns:xlink="http://www.w3.org/1999/xlink" x="0px" y="0px"
	 viewBox="0 0 500 500" style="enable-background:new 0 0 500 500;" xml:space="preserve">
<style type="text/css">
	.st0{display:none;}
	.st1{display:inline;}
	.st2{fill:#FFFDF8;}
	.st3{enable-background:new    ;}
	.st4{fill:#F28420;}
	.st5{fill:#F26320;}
	.st6{fill:#FFC536;}
	.st7{fill:#FFF17C;}
	.st8{fill:#FF7733;}
	.st9{fill:#FFF3D7;}
	.st10{fill:#F9D691;}
	.st11{fill:#61C3FF;}
	.st12{fill:#FFFFFF;}
	.st13{fill:#FF9E55;}
	.st14{opacity:0.25;fill:#61C3FF;}
	.st15{fill:none;stroke:#FFFFFF;stroke-width:0.5874;stroke-linecap:round;stroke-miterlimit:10;}
	.st16{fill:#CE3E72;}
	.st17{fill:#B72560;}
	.st18{fill:#EA5482;}
	.st19{fill:#DB4279;}
	.st20{fill:#FFD8C5;}
	.st21{fill:#C96BF4;}
	.st22{fill:none;stroke:#5533C4;stroke-width:0.1732;stroke-linecap:round;stroke-miterlimit:10;}
	.st23{fill:#2D7AC1;}
	.st24{fill:#3780D3;}
	.st25{fill:#4D8DE5;}
	.st26{fill:#4596E2;}
	.st27{fill:none;stroke:#5533C4;stroke-width:0.1844;stroke-linecap:round;stroke-miterlimit:10;}
	.st28{fill:#995A2F;}
	.st29{fill:none;stroke:#C45F33;stroke-width:0.1732;stroke-linecap:round;stroke-miterlimit:10;}
	.st30{fill:#2B9CB7;}
	.st31{fill:#3BA5C6;}
	.st32{fill:#4DB7E2;}
	.st33{fill:none;stroke:#C45F33;stroke-width:0.1844;stroke-linecap:round;stroke-miterlimit:10;}
	.st34{fill:#FF5C18;}
	.st35{fill:#FFC818;}
	.st36{fill:none;stroke:#FF5C18;stroke-width:9.408000e-02;stroke-linecap:round;stroke-miterlimit:10;}
	.st37{fill:#433693;}
	.st38{fill:#5843A8;}
	.st39{fill:#C155EA;}
	.st40{fill:none;stroke:#C4423F;stroke-width:0.1732;stroke-linecap:round;stroke-miterlimit:10;}
	.st41{fill:#C138C1;}
	.st42{fill:#D344CB;}
	.st43{fill:#E55FD8;}
	.st44{fill:#E256E2;}
	.st45{fill:none;stroke:#C4423F;stroke-width:0.1844;stroke-linecap:round;stroke-miterlimit:10;}
	.st46{fill:#EA8C4E;}
	.st47{fill:none;stroke:#C47433;stroke-width:0.1685;stroke-linecap:round;stroke-miterlimit:10;}
	.st48{fill:#2B68B7;}
	.st49{fill:#3B72C6;}
	.st50{fill:#4D80E2;}
	.st51{fill:none;stroke:#C47433;stroke-width:0.1794;stroke-linecap:round;stroke-miterlimit:10;}
	.st52{fill:#7756AF;}
	.st53{fill:#624193;}
	.st54{fill:none;stroke:#7756AF;stroke-width:9.155600e-02;stroke-linecap:round;stroke-miterlimit:10;}
	.st55{fill:#D13F13;}
	.st56{fill:#DB4B14;}
	.st57{fill:#FFCE00;}
	.st58{fill:#E27D45;}
	.st59{fill:#824A11;}
	.st60{fill:none;stroke:#C45F33;stroke-width:0.1685;stroke-linecap:round;stroke-miterlimit:10;}
	.st61{fill:#C12D5F;}
	.st62{fill:#D33764;}
	.st63{fill:#E54D71;}
	.st64{fill:#E24579;}
	.st65{fill:none;stroke:#C45F33;stroke-width:0.1794;stroke-linecap:round;stroke-miterlimit:10;}
</style>
<g id="BACKGROUND" class="st0">
	<g class="st1">
		<rect class="st2" width="500" height="500"/>
	</g>
</g>
<g id="OBJECTS">
	<g>
		<g>
			<g class="st3">
				<g>
					<polygon class="st4" points="314.9,276.1 314.9,279.6 216.1,337 216.1,333.5 					"/>
				</g>
				<g>
					<polygon class="st5" points="216.1,333.5 216.1,337 116.7,279.6 116.7,276.1 					"/>
				</g>
				<g>
					<polygon class="st6" points="314.9,276.1 216.1,333.5 116.7,276.1 215.5,218.7 					"/>
				</g>
				<g>
					<polygon class="st7" points="286.8,276.1 216,317.2 144.8,276.1 215.6,235 					"/>
				</g>
			</g>
		</g>
		<g>
			<g class="st3">
				<g>
					<polygon class="st5" points="198.8,352.5 164.8,332.7 164.8,325.5 198.8,345.2 					"/>
				</g>
				<g>
					<polygon class="st6" points="198.8,345.2 164.8,325.5 171.1,321.8 205.1,341.6 					"/>
				</g>
				<g>
					<polygon class="st4" points="205.1,341.6 205.1,348.8 198.8,352.5 198.8,345.2 					"/>
				</g>
			</g>
			<g class="st3">
				<g>
					<polygon class="st5" points="205.1,341.6 171.1,321.8 171.1,314.6 205,334.3 					"/>
				</g>
				<g>
					<polygon class="st6" points="205,334.3 171.1,314.6 177.4,311 211.3,330.7 					"/>
				</g>
				<g>
					<polygon class="st4" points="211.3,330.7 211.4,337.9 205.1,341.6 205,334.3 					"/>
				</g>
			</g>
			<g class="st3">
				<g>
					<polygon class="st5" points="192.5,363.3 158.6,343.6 158.5,336.4 192.5,356.1 					"/>
				</g>
				<g>
					<polygon class="st6" points="192.5,356.1 158.5,336.4 164.8,332.7 198.8,352.5 					"/>
				</g>
				<g>
					<polygon class="st4" points="198.8,352.5 198.8,359.7 192.5,363.3 192.5,356.1 					"/>
				</g>
			</g>
			<g class="st3">
				<g>
					<polygon class="st5" points="186.2,374.2 152.3,354.5 152.2,347.3 186.2,367 					"/>
				</g>
				<g>
					<polygon class="st6" points="186.2,367 152.2,347.3 158.6,343.6 192.5,363.3 					"/>
				</g>
				<g>
					<polygon class="st4" points="192.5,363.3 192.5,370.6 186.2,374.2 186.2,367 					"/>
				</g>
			</g>
		</g>
		<g>
			<g class="st3">
				<g>
					<polygon class="st5" points="243.1,217.5 223,205.8 223,201.5 243.1,213.2 					"/>
				</g>
				<g>
					<polygon class="st6" points="243.1,213.2 223,201.5 226.7,199.3 246.8,211 					"/>
				</g>
				<g>
					<polygon class="st4" points="246.8,211 246.8,215.3 243.1,217.5 243.1,213.2 					"/>
				</g>
			</g>
			<g class="st3">
				<g>
					<polygon class="st5" points="246.8,211 226.7,199.3 226.7,195 246.8,206.7 					"/>
				</g>
				<g>
					<polygon class="st6" points="246.8,206.7 226.7,195 230.4,192.9 250.6,204.6 					"/>
				</g>
				<g>
					<polygon class="st4" points="250.6,204.6 250.6,208.9 246.8,211 246.8,206.7 					"/>
				</g>
			</g>
			<g class="st3">
				<g>
					<polygon class="st5" points="239.4,224 219.3,212.3 219.2,208 239.4,219.7 					"/>
				</g>
				<g>
					<polygon class="st6" points="239.4,219.7 219.2,208 223,205.8 243.1,217.5 					"/>
				</g>
				<g>
					<polygon class="st4" points="243.1,217.5 243.1,221.8 239.4,224 239.4,219.7 					"/>
				</g>
			</g>
			<g class="st3">
				<g>
					<polygon class="st5" points="235.7,230.4 215.5,218.7 215.5,214.4 235.6,226.1 					"/>
				</g>
				<g>
					<polygon class="st6" points="235.6,226.1 215.5,214.4 219.3,212.3 239.4,224 					"/>
				</g>
				<g>
					<polygon class="st4" points="239.4,224 239.4,228.2 235.7,230.4 235.6,226.1 					"/>
				</g>
			</g>
		</g>
		<g>
			<g class="st3">
				<g>
					<polygon class="st5" points="109.8,251.4 143.8,231.7 143.8,224.4 109.9,244.1 					"/>
				</g>
				<g>
					<polygon class="st6" points="109.9,244.1 143.8,224.4 137.5,220.8 103.6,240.5 					"/>
				</g>
				<g>
					<polygon class="st4" points="103.6,240.5 103.5,247.7 109.8,251.4 109.9,244.1 					"/>
				</g>
			</g>
			<g class="st3">
				<g>
					<polygon class="st5" points="103.6,240.5 137.5,220.8 137.5,213.5 103.6,233.3 					"/>
				</g>
				<g>
					<polygon class="st6" points="103.6,233.3 137.5,213.5 131.2,209.9 97.3,229.6 					"/>
				</g>
				<g>
					<polygon class="st4" points="97.3,229.6 97.3,236.9 103.6,240.5 103.6,233.3 					"/>
				</g>
			</g>
			<g class="st3">
				<g>
					<polygon class="st5" points="116.1,262.3 150.1,242.5 150.1,235.3 116.1,255 					"/>
				</g>
				<g>
					<polygon class="st6" points="116.1,255 150.1,235.3 143.8,231.7 109.8,251.4 					"/>
				</g>
				<g>
					<polygon class="st4" points="109.8,251.4 109.8,258.6 116.1,262.3 116.1,255 					"/>
				</g>
			</g>
			<g class="st3">
				<g>
					<polygon class="st5" points="122.4,273.2 156.4,253.4 156.4,246.2 122.4,265.9 					"/>
				</g>
				<g>
					<polygon class="st6" points="122.4,265.9 156.4,246.2 150.1,242.5 116.1,262.3 					"/>
				</g>
				<g>
					<polygon class="st4" points="116.1,262.3 116.1,269.5 122.4,273.2 122.4,265.9 					"/>
				</g>
			</g>
		</g>
		<g>
			<g class="st3">
				<path class="st8" d="M247.4,264.2c0,0.2,0,0.3,0,0.5c0,0.1,0,0.3-0.1,0.4c0,0.2,0,0.3-0.1,0.5c0,0.1-0.1,0.3-0.1,0.4
					c0,0.2-0.1,0.3-0.1,0.5c0,0.1-0.1,0.3-0.1,0.4c0,0.2-0.1,0.3-0.1,0.5c0,0.1-0.1,0.3-0.2,0.4c-0.1,0.2-0.1,0.3-0.2,0.5
					c-0.1,0.1-0.1,0.3-0.2,0.4c-0.1,0.2-0.2,0.3-0.2,0.5c-0.1,0.1-0.1,0.3-0.2,0.4c-0.1,0.2-0.2,0.4-0.3,0.6
					c-0.1,0.1-0.1,0.2-0.2,0.3c-0.1,0.2-0.3,0.4-0.4,0.6c-0.1,0.1-0.1,0.2-0.2,0.3c-0.3,0.3-0.5,0.6-0.8,0.9
					c-0.1,0.1-0.2,0.2-0.2,0.2c-0.2,0.2-0.5,0.5-0.7,0.7c-0.1,0.1-0.2,0.2-0.3,0.3c-0.1,0.1-0.3,0.3-0.5,0.4
					c-0.1,0.1-0.3,0.2-0.4,0.4c-0.2,0.1-0.3,0.3-0.5,0.4c-0.2,0.1-0.3,0.2-0.5,0.3c-0.2,0.1-0.4,0.2-0.5,0.4
					c-0.2,0.1-0.3,0.2-0.5,0.3c-0.2,0.1-0.4,0.2-0.6,0.4c-0.2,0.1-0.5,0.3-0.7,0.4c-0.5,0.3-1,0.5-1.4,0.8c-0.1,0.1-0.3,0.1-0.4,0.2
					c-0.4,0.2-0.8,0.4-1.2,0.5c-0.1,0.1-0.3,0.1-0.4,0.2c-0.5,0.2-1,0.4-1.6,0.6c-0.1,0-0.2,0.1-0.3,0.1c-0.4,0.2-0.9,0.3-1.4,0.5
					c-0.2,0.1-0.4,0.1-0.6,0.2c-0.3,0.1-0.5,0.2-0.8,0.2c-0.2,0.1-0.4,0.1-0.6,0.2c-0.3,0.1-0.5,0.1-0.8,0.2
					c-0.2,0.1-0.4,0.1-0.7,0.2c-0.3,0.1-0.5,0.1-0.8,0.2c-0.2,0-0.4,0.1-0.7,0.1c-0.3,0.1-0.5,0.1-0.8,0.2c-0.2,0-0.4,0.1-0.6,0.1
					c-0.6,0.1-1.2,0.2-1.8,0.3c-0.1,0-0.2,0-0.3,0c-0.5,0.1-1,0.1-1.6,0.2c-0.2,0-0.4,0-0.6,0.1c-0.3,0-0.7,0.1-1,0.1
					c-0.2,0-0.4,0-0.6,0c-0.4,0-0.7,0-1.1,0.1c-0.2,0-0.4,0-0.6,0c-0.3,0-0.6,0-0.9,0c-0.2,0-0.4,0-0.6,0c-0.3,0-0.7,0-1,0
					c-0.2,0-0.4,0-0.6,0c-0.3,0-0.6,0-0.9,0c-0.2,0-0.4,0-0.6,0c-0.3,0-0.6,0-1-0.1c-0.2,0-0.4,0-0.5,0c-0.4,0-0.8-0.1-1.2-0.1
					c-0.1,0-0.2,0-0.4,0c-0.5-0.1-1-0.1-1.5-0.2c-0.1,0-0.2,0-0.2,0c-0.4-0.1-0.9-0.1-1.3-0.2c-0.2,0-0.3-0.1-0.5-0.1
					c-0.3-0.1-0.7-0.1-1-0.2c-0.2,0-0.3-0.1-0.5-0.1c-0.4-0.1-0.7-0.2-1.1-0.2c-0.2,0-0.4-0.1-0.6-0.1c-0.3-0.1-0.6-0.2-0.9-0.3
					c-0.2,0-0.4-0.1-0.5-0.2c-0.5-0.1-1-0.3-1.5-0.5c-0.1,0-0.2-0.1-0.3-0.1c-0.6-0.2-1.1-0.4-1.7-0.6c-0.2-0.1-0.4-0.2-0.7-0.3
					c-0.2-0.1-0.3-0.1-0.5-0.2c-0.2-0.1-0.5-0.2-0.7-0.3c-0.2-0.1-0.3-0.1-0.5-0.2c-0.3-0.1-0.5-0.3-0.8-0.4
					c-0.1-0.1-0.3-0.1-0.4-0.2c-0.4-0.2-0.8-0.4-1.1-0.6c-3.5-2-6-4.4-7.5-6.9c-0.5-0.8-0.9-1.7-1.2-2.6c-0.2-0.6-0.3-1.2-0.4-1.7
					c-0.1-0.6-0.1-1.2-0.1-1.8v0c0,0,0,0,0,0l0,12.8c0,4.7,3.1,9.4,9.2,12.9c0.4,0.2,0.7,0.4,1.1,0.6c0.1,0.1,0.3,0.1,0.4,0.2
					c0.3,0.1,0.5,0.3,0.8,0.4c0.2,0.1,0.3,0.1,0.5,0.2c0.2,0.1,0.5,0.2,0.7,0.3c0.2,0.1,0.3,0.1,0.5,0.2c0.2,0.1,0.3,0.1,0.5,0.2
					c0.1,0,0.1,0,0.2,0.1c0.5,0.2,1.1,0.4,1.7,0.6c0.1,0,0.2,0.1,0.3,0.1c0.5,0.2,1,0.3,1.5,0.5c0.1,0,0.2,0.1,0.2,0.1
					c0.1,0,0.2,0,0.3,0.1c0.3,0.1,0.6,0.2,0.9,0.3c0.2,0,0.4,0.1,0.6,0.1c0.3,0.1,0.7,0.2,1.1,0.2c0.1,0,0.3,0.1,0.4,0.1
					c0,0,0.1,0,0.1,0c0.3,0.1,0.6,0.1,1,0.2c0.2,0,0.3,0.1,0.5,0.1c0.4,0.1,0.8,0.1,1.3,0.2c0.1,0,0.2,0,0.2,0c0,0,0,0,0,0
					c0.5,0.1,1,0.1,1.5,0.2c0.1,0,0.2,0,0.4,0c0.4,0,0.8,0.1,1.2,0.1c0,0,0,0,0,0c0.2,0,0.3,0,0.5,0c0.3,0,0.6,0,1,0.1
					c0.2,0,0.4,0,0.6,0c0.3,0,0.6,0,0.9,0c0,0,0,0,0.1,0c0.2,0,0.3,0,0.5,0c0.3,0,0.7,0,1,0c0.2,0,0.4,0,0.6,0c0.3,0,0.6,0,0.9,0
					c0.1,0,0.1,0,0.2,0c0.1,0,0.3,0,0.4,0c0.4,0,0.7,0,1.1-0.1c0.2,0,0.4,0,0.6,0c0.3,0,0.7-0.1,1-0.1c0.1,0,0.2,0,0.4,0
					c0.1,0,0.2,0,0.2,0c0.5-0.1,1-0.1,1.6-0.2c0.1,0,0.2,0,0.3,0c0.6-0.1,1.2-0.2,1.8-0.3c0.1,0,0.1,0,0.2,0c0.2,0,0.3-0.1,0.5-0.1
					c0.3-0.1,0.5-0.1,0.8-0.2c0.2,0,0.4-0.1,0.7-0.1c0.3-0.1,0.5-0.1,0.8-0.2c0.2-0.1,0.4-0.1,0.7-0.2c0.3-0.1,0.5-0.1,0.8-0.2
					c0.2-0.1,0.4-0.1,0.6-0.2c0.3-0.1,0.5-0.2,0.8-0.2c0.1,0,0.2-0.1,0.3-0.1c0.1,0,0.2-0.1,0.2-0.1c0.5-0.2,0.9-0.3,1.4-0.5
					c0.1,0,0.2-0.1,0.3-0.1c0.5-0.2,1-0.4,1.6-0.6c0.1-0.1,0.3-0.1,0.4-0.2c0.4-0.2,0.8-0.4,1.2-0.5c0.1-0.1,0.3-0.1,0.4-0.2
					c0.5-0.3,1-0.5,1.4-0.8c0.1-0.1,0.3-0.2,0.4-0.2c0.1-0.1,0.2-0.1,0.3-0.2c0.2-0.1,0.4-0.2,0.6-0.4c0.2-0.1,0.3-0.2,0.5-0.3
					c0.2-0.1,0.4-0.2,0.5-0.4c0.2-0.1,0.3-0.2,0.5-0.3c0.2-0.1,0.3-0.3,0.5-0.4c0.1-0.1,0.3-0.2,0.4-0.4c0.2-0.1,0.3-0.3,0.5-0.4
					c0.1-0.1,0.1-0.1,0.2-0.2c0.1-0.1,0.1-0.1,0.2-0.2c0.2-0.2,0.5-0.5,0.7-0.7c0.1-0.1,0.2-0.2,0.2-0.2c0.3-0.3,0.6-0.6,0.8-0.9
					c0,0,0,0,0,0c0.1-0.1,0.1-0.1,0.2-0.2c0.2-0.2,0.3-0.4,0.4-0.6c0.1-0.1,0.1-0.2,0.2-0.3c0.1-0.2,0.2-0.4,0.3-0.6
					c0-0.1,0.1-0.1,0.1-0.2c0-0.1,0.1-0.2,0.1-0.2c0.1-0.2,0.2-0.3,0.2-0.5c0.1-0.1,0.1-0.3,0.2-0.4c0.1-0.2,0.1-0.3,0.2-0.5
					c0-0.1,0.1-0.1,0.1-0.2c0-0.1,0-0.1,0.1-0.2c0.1-0.2,0.1-0.3,0.1-0.5c0-0.1,0.1-0.3,0.1-0.4c0-0.2,0.1-0.3,0.1-0.5
					c0-0.1,0-0.2,0.1-0.2c0-0.1,0-0.1,0-0.2c0-0.2,0.1-0.3,0.1-0.5c0-0.1,0-0.3,0.1-0.4c0-0.2,0-0.3,0-0.5c0-0.1,0-0.2,0-0.3
					c0-0.1,0-0.2,0-0.3l0-12.8C247.5,263.8,247.4,264,247.4,264.2z"/>
				<g>
					<path class="st9" d="M238.2,250.7c12.3,7.1,12.3,18.6,0.1,25.7c-12.2,7.1-32,7.1-44.3,0c-12.3-7.1-12.3-18.6-0.1-25.7
						C206.1,243.6,225.9,243.6,238.2,250.7z"/>
				</g>
				<g>
					<path class="st10" d="M236.1,251.9c11.1,6.4,11.1,16.8,0.1,23.2c-11,6.4-28.9,6.4-40,0c-11.1-6.4-11.1-16.8-0.1-23.2
						C207.1,245.5,225,245.5,236.1,251.9z"/>
				</g>
				<path class="st11" d="M236.1,257.7c-11.1-6.4-29-6.4-40,0c-4.2,2.5-6.8,5.5-7.8,8.7c1,3.2,3.6,6.3,7.9,8.8c11.1,6.4,29,6.4,40,0
					c4.2-2.5,6.8-5.5,7.8-8.7C243,263.2,240.4,260.1,236.1,257.7z"/>
			</g>
			<g class="st3">
				<path class="st8" d="M235.3,261c0,0.1,0,0.2,0,0.3c0,0.1,0,0.2,0,0.3c0,0.1,0,0.2,0,0.3c0,0.1,0,0.2-0.1,0.3
					c0,0.1,0,0.2-0.1,0.3c0,0.1,0,0.2-0.1,0.3c0,0.1-0.1,0.2-0.1,0.3c0,0.1-0.1,0.2-0.1,0.2c0,0.1-0.1,0.2-0.1,0.3
					c0,0.1-0.1,0.2-0.1,0.2c0,0.1-0.1,0.2-0.1,0.3c0,0.1-0.1,0.2-0.1,0.2c-0.1,0.1-0.1,0.2-0.2,0.3c0,0.1-0.1,0.1-0.1,0.2
					c-0.1,0.1-0.2,0.2-0.3,0.4c0,0.1-0.1,0.1-0.1,0.2c-0.2,0.2-0.3,0.4-0.5,0.6c0,0-0.1,0.1-0.1,0.1c-0.1,0.1-0.3,0.3-0.4,0.4
					c-0.1,0.1-0.1,0.1-0.2,0.2c-0.1,0.1-0.2,0.2-0.3,0.2c-0.1,0.1-0.2,0.1-0.3,0.2c-0.1,0.1-0.2,0.2-0.3,0.2
					c-0.1,0.1-0.2,0.1-0.3,0.2c-0.1,0.1-0.2,0.2-0.3,0.2c-0.1,0.1-0.2,0.1-0.3,0.2c-0.1,0.1-0.2,0.1-0.3,0.2
					c-0.1,0.1-0.3,0.2-0.4,0.3c-0.3,0.2-0.6,0.3-0.9,0.5c-0.1,0-0.2,0.1-0.3,0.1c-0.2,0.1-0.5,0.2-0.7,0.3c-0.1,0-0.2,0.1-0.2,0.1
					c-0.3,0.1-0.6,0.3-1,0.4c-0.1,0-0.1,0-0.2,0.1c-0.3,0.1-0.6,0.2-0.8,0.3c-0.1,0-0.2,0.1-0.3,0.1c-0.2,0-0.3,0.1-0.5,0.1
					c-0.1,0-0.3,0.1-0.4,0.1c-0.2,0-0.3,0.1-0.5,0.1c-0.1,0-0.3,0.1-0.4,0.1c-0.2,0-0.3,0.1-0.5,0.1c-0.1,0-0.3,0.1-0.4,0.1
					c-0.2,0-0.3,0.1-0.5,0.1c-0.1,0-0.3,0-0.4,0.1c-0.4,0.1-0.7,0.1-1.1,0.2c-0.1,0-0.1,0-0.2,0c-0.3,0-0.6,0.1-1,0.1
					c-0.1,0-0.2,0-0.4,0c-0.2,0-0.4,0-0.6,0.1c-0.1,0-0.3,0-0.4,0c-0.2,0-0.4,0-0.6,0c-0.1,0-0.2,0-0.4,0c-0.2,0-0.4,0-0.6,0
					c-0.1,0-0.3,0-0.4,0c-0.2,0-0.4,0-0.6,0c-0.1,0-0.2,0-0.4,0c-0.2,0-0.4,0-0.6,0c-0.1,0-0.3,0-0.4,0c-0.2,0-0.4,0-0.6,0
					c-0.1,0-0.2,0-0.3,0c-0.2,0-0.5,0-0.7-0.1c-0.1,0-0.1,0-0.2,0c-0.3,0-0.6-0.1-0.9-0.1c0,0-0.1,0-0.1,0c-0.3,0-0.5-0.1-0.8-0.1
					c-0.1,0-0.2,0-0.3-0.1c-0.2,0-0.4-0.1-0.6-0.1c-0.1,0-0.2,0-0.3-0.1c-0.2,0-0.4-0.1-0.6-0.1c-0.1,0-0.2-0.1-0.4-0.1
					c-0.2,0-0.4-0.1-0.6-0.2c-0.1,0-0.2-0.1-0.3-0.1c-0.3-0.1-0.6-0.2-0.9-0.3c-0.1,0-0.1,0-0.2-0.1c-0.3-0.1-0.7-0.2-1-0.4
					c-0.1-0.1-0.3-0.1-0.4-0.2c-0.1,0-0.2-0.1-0.3-0.1c-0.2-0.1-0.3-0.1-0.4-0.2c-0.1,0-0.2-0.1-0.3-0.1c-0.2-0.1-0.3-0.2-0.5-0.2
					c-0.1,0-0.2-0.1-0.2-0.1c-0.2-0.1-0.5-0.2-0.7-0.4c-2.1-1.2-3.6-2.7-4.6-4.2c-0.3-0.5-0.6-1-0.7-1.6c-0.1-0.4-0.2-0.7-0.3-1.1
					c-0.1-0.4-0.1-0.7-0.1-1.1v0c0,0,0,0,0,0l0,7.8c0,2.9,1.9,5.7,5.7,7.9c0.2,0.1,0.5,0.3,0.7,0.4c0.1,0,0.2,0.1,0.2,0.1
					c0.2,0.1,0.3,0.2,0.5,0.2c0.1,0,0.2,0.1,0.3,0.1c0.1,0.1,0.3,0.1,0.4,0.2c0.1,0,0.2,0.1,0.3,0.1c0.1,0,0.2,0.1,0.3,0.1
					c0,0,0.1,0,0.1,0c0.3,0.1,0.7,0.3,1,0.4c0.1,0,0.1,0,0.2,0.1c0.3,0.1,0.6,0.2,0.9,0.3c0.1,0,0.1,0,0.2,0c0.1,0,0.1,0,0.2,0
					c0.2,0.1,0.4,0.1,0.6,0.2c0.1,0,0.2,0.1,0.4,0.1c0.2,0.1,0.4,0.1,0.6,0.1c0.1,0,0.2,0,0.2,0.1c0,0,0,0,0.1,0
					c0.2,0,0.4,0.1,0.6,0.1c0.1,0,0.2,0,0.3,0.1c0.3,0,0.5,0.1,0.8,0.1c0,0,0.1,0,0.1,0c0,0,0,0,0,0c0.3,0,0.6,0.1,0.9,0.1
					c0.1,0,0.1,0,0.2,0c0.2,0,0.5,0,0.7,0.1c0,0,0,0,0,0c0.1,0,0.2,0,0.3,0c0.2,0,0.4,0,0.6,0c0.1,0,0.3,0,0.4,0c0.2,0,0.4,0,0.6,0
					c0,0,0,0,0,0c0.1,0,0.2,0,0.3,0c0.2,0,0.4,0,0.6,0c0.1,0,0.3,0,0.4,0c0.2,0,0.4,0,0.6,0c0,0,0.1,0,0.1,0c0.1,0,0.2,0,0.3,0
					c0.2,0,0.4,0,0.6,0c0.1,0,0.3,0,0.4,0c0.2,0,0.4,0,0.6-0.1c0.1,0,0.1,0,0.2,0c0.1,0,0.1,0,0.1,0c0.3,0,0.6-0.1,1-0.1
					c0.1,0,0.1,0,0.2,0c0.4-0.1,0.7-0.1,1.1-0.2c0,0,0.1,0,0.1,0c0.1,0,0.2,0,0.3-0.1c0.2,0,0.3-0.1,0.5-0.1c0.1,0,0.3-0.1,0.4-0.1
					c0.2,0,0.3-0.1,0.5-0.1c0.1,0,0.3-0.1,0.4-0.1c0.2,0,0.3-0.1,0.5-0.1c0.1,0,0.3-0.1,0.4-0.1c0.2,0,0.3-0.1,0.5-0.1
					c0.1,0,0.1,0,0.2-0.1c0,0,0.1,0,0.1-0.1c0.3-0.1,0.6-0.2,0.8-0.3c0.1,0,0.1,0,0.2-0.1c0.3-0.1,0.6-0.3,1-0.4
					c0.1,0,0.2-0.1,0.2-0.1c0.2-0.1,0.5-0.2,0.7-0.3c0.1,0,0.2-0.1,0.3-0.1c0.3-0.2,0.6-0.3,0.9-0.5c0.1,0,0.2-0.1,0.2-0.1
					c0.1,0,0.1-0.1,0.2-0.1c0.1-0.1,0.2-0.1,0.3-0.2c0.1-0.1,0.2-0.1,0.3-0.2c0.1-0.1,0.2-0.2,0.3-0.2c0.1-0.1,0.2-0.1,0.3-0.2
					c0.1-0.1,0.2-0.2,0.3-0.2c0.1-0.1,0.2-0.1,0.3-0.2c0.1-0.1,0.2-0.2,0.3-0.2c0,0,0.1-0.1,0.1-0.1c0,0,0.1-0.1,0.1-0.1
					c0.2-0.1,0.3-0.3,0.4-0.4c0,0,0.1-0.1,0.1-0.1c0.2-0.2,0.3-0.4,0.5-0.6c0,0,0,0,0,0c0,0,0.1-0.1,0.1-0.1
					c0.1-0.1,0.2-0.2,0.3-0.4c0-0.1,0.1-0.1,0.1-0.2c0.1-0.1,0.1-0.2,0.2-0.3c0,0,0-0.1,0.1-0.1c0,0,0-0.1,0.1-0.1
					c0.1-0.1,0.1-0.2,0.1-0.3c0-0.1,0.1-0.2,0.1-0.2c0-0.1,0.1-0.2,0.1-0.3c0,0,0-0.1,0.1-0.1c0,0,0-0.1,0-0.1
					c0-0.1,0.1-0.2,0.1-0.3c0-0.1,0.1-0.2,0.1-0.3c0-0.1,0-0.2,0.1-0.3c0-0.1,0-0.1,0-0.2c0,0,0-0.1,0-0.1c0-0.1,0-0.2,0-0.3
					c0-0.1,0-0.2,0-0.3c0-0.1,0-0.2,0-0.3c0-0.1,0-0.1,0-0.2c0-0.1,0-0.1,0-0.2l0-7.8C235.3,260.8,235.3,260.9,235.3,261z"/>
				<g>
					<path class="st9" d="M229.6,252.8c7.5,4.3,7.5,11.4,0.1,15.7c-7.5,4.3-19.6,4.3-27.1,0c-7.5-4.3-7.5-11.4-0.1-15.7
						C210,248.5,222.1,248.5,229.6,252.8z"/>
				</g>
				<g>
					<path class="st10" d="M228.3,253.6c6.8,3.9,6.8,10.3,0.1,14.2c-6.7,3.9-17.7,3.9-24.5,0c-6.8-3.9-6.8-10.3-0.1-14.2
						C210.6,249.7,221.6,249.7,228.3,253.6z"/>
				</g>
				<path class="st11" d="M228.3,257.1c-6.8-3.9-17.7-3.9-24.5,0c-2.6,1.5-4.2,3.4-4.8,5.3c0.6,2,2.2,3.9,4.8,5.4
					c6.8,3.9,17.7,3.9,24.5,0c2.6-1.5,4.2-3.4,4.8-5.3C232.6,260.5,231,258.6,228.3,257.1z"/>
			</g>
			<g class="st3">
				<path class="st12" d="M225.8,244.2c0,0,0,0.1,0,0.1c0,0,0,0.1,0,0.1c0,0,0,0.1,0,0.1c0,0,0,0.1,0,0.1c0,0,0,0.1,0,0.1
					c0,0,0,0.1,0,0.1c0,0,0,0.1,0,0.1c0,0,0,0.1,0,0.1c0,0,0,0.1-0.1,0.1c0,0,0,0.1-0.1,0.1c0,0,0,0.1-0.1,0.1c0,0,0,0.1-0.1,0.1
					c0,0.1-0.1,0.1-0.1,0.2c0,0,0,0.1-0.1,0.1c0,0.1-0.1,0.1-0.1,0.2c0,0,0,0.1-0.1,0.1c-0.1,0.1-0.2,0.2-0.2,0.3c0,0,0,0-0.1,0.1
					c-0.1,0.1-0.1,0.1-0.2,0.2c0,0-0.1,0.1-0.1,0.1c0,0-0.1,0.1-0.1,0.1c0,0-0.1,0.1-0.1,0.1c0,0-0.1,0.1-0.2,0.1
					c0,0-0.1,0.1-0.1,0.1c-0.1,0-0.1,0.1-0.2,0.1c-0.1,0-0.1,0.1-0.2,0.1c-0.1,0-0.1,0.1-0.2,0.1c-0.1,0-0.1,0.1-0.2,0.1
					c-0.1,0.1-0.3,0.2-0.4,0.2c0,0-0.1,0-0.1,0.1c-0.1,0.1-0.2,0.1-0.4,0.2c0,0-0.1,0-0.1,0.1c-0.2,0.1-0.3,0.1-0.5,0.2
					c0,0-0.1,0-0.1,0c-0.1,0.1-0.3,0.1-0.4,0.1c-0.1,0-0.1,0-0.2,0.1c-0.1,0-0.2,0-0.2,0.1c-0.1,0-0.1,0-0.2,0.1
					c-0.1,0-0.2,0-0.2,0.1c-0.1,0-0.1,0-0.2,0.1c-0.1,0-0.2,0-0.2,0.1c-0.1,0-0.1,0-0.2,0c-0.1,0-0.2,0-0.3,0c-0.1,0-0.1,0-0.2,0
					c-0.2,0-0.4,0.1-0.5,0.1c0,0-0.1,0-0.1,0c-0.2,0-0.3,0-0.5,0.1c-0.1,0-0.1,0-0.2,0c-0.1,0-0.2,0-0.3,0c-0.1,0-0.1,0-0.2,0
					c-0.1,0-0.2,0-0.3,0c-0.1,0-0.1,0-0.2,0c-0.1,0-0.2,0-0.3,0c-0.1,0-0.1,0-0.2,0c-0.1,0-0.2,0-0.3,0c-0.1,0-0.1,0-0.2,0
					c-0.1,0-0.2,0-0.3,0c-0.1,0-0.1,0-0.2,0c-0.1,0-0.2,0-0.3,0c-0.1,0-0.1,0-0.2,0c-0.1,0-0.2,0-0.4,0c0,0-0.1,0-0.1,0
					c-0.2,0-0.3,0-0.5-0.1c0,0,0,0-0.1,0c-0.1,0-0.3,0-0.4-0.1c-0.1,0-0.1,0-0.2,0c-0.1,0-0.2,0-0.3-0.1c-0.1,0-0.1,0-0.2,0
					c-0.1,0-0.2,0-0.3-0.1c-0.1,0-0.1,0-0.2,0c-0.1,0-0.2-0.1-0.3-0.1c-0.1,0-0.1,0-0.2,0c-0.2,0-0.3-0.1-0.5-0.1c0,0-0.1,0-0.1,0
					c-0.2-0.1-0.3-0.1-0.5-0.2c-0.1,0-0.1-0.1-0.2-0.1c-0.1,0-0.1,0-0.2-0.1c-0.1,0-0.1-0.1-0.2-0.1c0,0-0.1,0-0.1-0.1
					c-0.1,0-0.2-0.1-0.2-0.1c0,0-0.1,0-0.1-0.1c-0.1-0.1-0.2-0.1-0.3-0.2c-1.1-0.6-1.8-1.3-2.3-2.1c-0.2-0.3-0.3-0.5-0.4-0.8
					c-0.1-0.2-0.1-0.4-0.1-0.5c0-0.2,0-0.4,0-0.5v0c0,0,0,0,0,0l0,17.6c0,1.4,0.9,2.9,2.8,4c0.1,0.1,0.2,0.1,0.3,0.2
					c0,0,0.1,0,0.1,0.1c0.1,0,0.2,0.1,0.2,0.1c0,0,0.1,0,0.1,0.1c0.1,0,0.1,0.1,0.2,0.1c0.1,0,0.1,0,0.2,0.1c0.1,0,0.1,0,0.2,0.1
					c0,0,0,0,0,0c0.2,0.1,0.3,0.1,0.5,0.2c0,0,0.1,0,0.1,0c0.2,0,0.3,0.1,0.5,0.1c0,0,0.1,0,0.1,0c0,0,0.1,0,0.1,0
					c0.1,0,0.2,0.1,0.3,0.1c0.1,0,0.1,0,0.2,0c0.1,0,0.2,0,0.3,0.1c0,0,0.1,0,0.1,0c0,0,0,0,0,0c0.1,0,0.2,0,0.3,0.1
					c0.1,0,0.1,0,0.2,0c0.1,0,0.3,0,0.4,0.1c0,0,0,0,0.1,0c0,0,0,0,0,0c0.2,0,0.3,0,0.5,0.1c0,0,0.1,0,0.1,0c0.1,0,0.2,0,0.4,0
					c0,0,0,0,0,0c0.1,0,0.1,0,0.2,0c0.1,0,0.2,0,0.3,0c0.1,0,0.1,0,0.2,0c0.1,0,0.2,0,0.3,0c0,0,0,0,0,0c0.1,0,0.1,0,0.2,0
					c0.1,0,0.2,0,0.3,0c0.1,0,0.1,0,0.2,0c0.1,0,0.2,0,0.3,0c0,0,0,0,0.1,0c0,0,0.1,0,0.1,0c0.1,0,0.2,0,0.3,0c0.1,0,0.1,0,0.2,0
					c0.1,0,0.2,0,0.3,0c0,0,0.1,0,0.1,0c0,0,0.1,0,0.1,0c0.2,0,0.3,0,0.5-0.1c0,0,0.1,0,0.1,0c0.2,0,0.4-0.1,0.5-0.1c0,0,0,0,0.1,0
					c0,0,0.1,0,0.1,0c0.1,0,0.2,0,0.3,0c0.1,0,0.1,0,0.2,0c0.1,0,0.2,0,0.2-0.1c0.1,0,0.1,0,0.2-0.1c0.1,0,0.2,0,0.2-0.1
					c0.1,0,0.1,0,0.2-0.1c0.1,0,0.2,0,0.2-0.1c0,0,0.1,0,0.1,0c0,0,0,0,0.1,0c0.1,0,0.3-0.1,0.4-0.1c0,0,0.1,0,0.1,0
					c0.2-0.1,0.3-0.1,0.5-0.2c0,0,0.1,0,0.1-0.1c0.1-0.1,0.2-0.1,0.4-0.2c0,0,0.1,0,0.1-0.1c0.2-0.1,0.3-0.2,0.4-0.2
					c0,0,0.1,0,0.1-0.1c0,0,0.1,0,0.1-0.1c0.1,0,0.1-0.1,0.2-0.1c0.1,0,0.1-0.1,0.2-0.1c0.1,0,0.1-0.1,0.2-0.1c0,0,0.1-0.1,0.1-0.1
					c0.1,0,0.1-0.1,0.2-0.1c0,0,0.1-0.1,0.1-0.1c0,0,0.1-0.1,0.1-0.1c0,0,0,0,0.1,0c0,0,0,0,0,0c0.1-0.1,0.1-0.1,0.2-0.2
					c0,0,0,0,0.1-0.1c0.1-0.1,0.2-0.2,0.2-0.3c0,0,0,0,0,0c0,0,0,0,0.1-0.1c0-0.1,0.1-0.1,0.1-0.2c0,0,0-0.1,0.1-0.1
					c0-0.1,0.1-0.1,0.1-0.2c0,0,0,0,0,0c0,0,0,0,0-0.1c0,0,0.1-0.1,0.1-0.1c0,0,0-0.1,0.1-0.1c0,0,0-0.1,0.1-0.1c0,0,0,0,0-0.1
					c0,0,0,0,0-0.1c0,0,0-0.1,0-0.1c0,0,0-0.1,0-0.1c0,0,0-0.1,0-0.1c0,0,0-0.1,0-0.1c0,0,0,0,0-0.1c0,0,0-0.1,0-0.1
					c0,0,0-0.1,0-0.1c0,0,0-0.1,0-0.1c0,0,0-0.1,0-0.1c0,0,0-0.1,0-0.1l0-17.6C225.8,244.1,225.8,244.2,225.8,244.2z"/>
				<g>
					<path class="st13" d="M222.9,240.1c3.8,2.2,3.8,5.7,0,7.9c-3.8,2.2-9.9,2.2-13.6,0c-3.8-2.2-3.8-5.7,0-7.9
						C213,237.9,219.1,237.9,222.9,240.1z"/>
				</g>
			</g>
			<g class="st3">
				<path class="st12" d="M223,230.8c0,0,0,0.1,0,0.1c0,0,0,0.1,0,0.1c0,0,0,0.1,0,0.1c0,0,0,0.1,0,0.1c0,0,0,0.1,0,0.1
					c0,0,0,0.1,0,0.1c0,0,0,0.1,0,0.1c0,0,0,0.1,0,0.1c0,0,0,0.1,0,0.1c0,0,0,0.1,0,0.1c0,0,0,0.1-0.1,0.1c0,0,0,0.1,0,0.1
					c0,0,0,0.1-0.1,0.1c0,0,0,0,0,0.1c0,0-0.1,0.1-0.1,0.1c0,0,0,0,0,0.1c-0.1,0.1-0.1,0.1-0.2,0.2c0,0,0,0-0.1,0.1
					c0,0.1-0.1,0.1-0.2,0.2c0,0,0,0-0.1,0.1c0,0-0.1,0.1-0.1,0.1c0,0-0.1,0.1-0.1,0.1c0,0-0.1,0.1-0.1,0.1c0,0-0.1,0.1-0.1,0.1
					c0,0-0.1,0.1-0.1,0.1c0,0-0.1,0-0.1,0.1c0,0-0.1,0.1-0.1,0.1c-0.1,0-0.1,0.1-0.2,0.1c-0.1,0.1-0.2,0.1-0.3,0.2c0,0-0.1,0-0.1,0
					c-0.1,0-0.2,0.1-0.3,0.1c0,0-0.1,0-0.1,0c-0.1,0-0.2,0.1-0.3,0.1c0,0,0,0-0.1,0c-0.1,0-0.2,0.1-0.3,0.1c0,0-0.1,0-0.1,0
					c-0.1,0-0.1,0-0.2,0.1c0,0-0.1,0-0.1,0c-0.1,0-0.1,0-0.2,0c0,0-0.1,0-0.1,0c-0.1,0-0.1,0-0.2,0c0,0-0.1,0-0.1,0
					c-0.1,0-0.1,0-0.2,0c0,0-0.1,0-0.1,0c-0.1,0-0.3,0-0.4,0.1c0,0,0,0-0.1,0c-0.1,0-0.2,0-0.3,0c0,0-0.1,0-0.1,0
					c-0.1,0-0.1,0-0.2,0c0,0-0.1,0-0.1,0c-0.1,0-0.2,0-0.2,0c0,0-0.1,0-0.1,0c-0.1,0-0.1,0-0.2,0c0,0-0.1,0-0.1,0
					c-0.1,0-0.1,0-0.2,0c0,0-0.1,0-0.1,0c-0.1,0-0.1,0-0.2,0c0,0-0.1,0-0.1,0c-0.1,0-0.1,0-0.2,0c0,0-0.1,0-0.1,0
					c-0.1,0-0.2,0-0.3,0c0,0-0.1,0-0.1,0c-0.1,0-0.2,0-0.3,0c0,0,0,0-0.1,0c-0.1,0-0.2,0-0.3,0c0,0-0.1,0-0.1,0c-0.1,0-0.1,0-0.2,0
					c0,0-0.1,0-0.1,0c-0.1,0-0.2,0-0.2-0.1c0,0-0.1,0-0.1,0c-0.1,0-0.1,0-0.2-0.1c0,0-0.1,0-0.1,0c-0.1,0-0.2-0.1-0.3-0.1
					c0,0,0,0-0.1,0c-0.1,0-0.2-0.1-0.4-0.1c0,0-0.1,0-0.1-0.1c0,0-0.1,0-0.1,0c-0.1,0-0.1,0-0.2-0.1c0,0-0.1,0-0.1,0
					c-0.1,0-0.1-0.1-0.2-0.1c0,0-0.1,0-0.1,0c-0.1,0-0.2-0.1-0.2-0.1c-0.8-0.4-1.3-1-1.6-1.5c-0.1-0.2-0.2-0.4-0.3-0.6
					c0-0.1-0.1-0.3-0.1-0.4c0-0.1,0-0.3,0-0.4v0c0,0,0,0,0,0l0,12.6c0,1,0.7,2.1,2,2.8c0.1,0,0.2,0.1,0.2,0.1c0,0,0.1,0,0.1,0
					c0.1,0,0.1,0.1,0.2,0.1c0,0,0.1,0,0.1,0c0.1,0,0.1,0,0.2,0.1c0,0,0.1,0,0.1,0c0,0,0.1,0,0.1,0c0,0,0,0,0,0
					c0.1,0,0.2,0.1,0.4,0.1c0,0,0,0,0.1,0c0.1,0,0.2,0.1,0.3,0.1c0,0,0,0,0.1,0c0,0,0,0,0.1,0c0.1,0,0.1,0,0.2,0.1c0,0,0.1,0,0.1,0
					c0.1,0,0.2,0,0.2,0.1c0,0,0.1,0,0.1,0c0,0,0,0,0,0c0.1,0,0.1,0,0.2,0c0,0,0.1,0,0.1,0c0.1,0,0.2,0,0.3,0c0,0,0,0,0.1,0
					c0,0,0,0,0,0c0.1,0,0.2,0,0.3,0c0,0,0.1,0,0.1,0c0.1,0,0.2,0,0.3,0c0,0,0,0,0,0c0,0,0.1,0,0.1,0c0.1,0,0.1,0,0.2,0
					c0,0,0.1,0,0.1,0c0.1,0,0.1,0,0.2,0c0,0,0,0,0,0c0,0,0.1,0,0.1,0c0.1,0,0.1,0,0.2,0c0,0,0.1,0,0.1,0c0.1,0,0.1,0,0.2,0
					c0,0,0,0,0,0c0,0,0.1,0,0.1,0c0.1,0,0.2,0,0.2,0c0,0,0.1,0,0.1,0c0.1,0,0.1,0,0.2,0c0,0,0.1,0,0.1,0c0,0,0,0,0.1,0
					c0.1,0,0.2,0,0.3,0c0,0,0,0,0.1,0c0.1,0,0.3,0,0.4-0.1c0,0,0,0,0,0c0,0,0.1,0,0.1,0c0.1,0,0.1,0,0.2,0c0,0,0.1,0,0.1,0
					c0.1,0,0.1,0,0.2,0c0,0,0.1,0,0.1,0c0.1,0,0.1,0,0.2,0c0,0,0.1,0,0.1,0c0.1,0,0.1,0,0.2-0.1c0,0,0,0,0.1,0c0,0,0,0,0.1,0
					c0.1,0,0.2-0.1,0.3-0.1c0,0,0,0,0.1,0c0.1,0,0.2-0.1,0.3-0.1c0,0,0.1,0,0.1,0c0.1,0,0.2-0.1,0.3-0.1c0,0,0.1,0,0.1,0
					c0.1-0.1,0.2-0.1,0.3-0.2c0,0,0.1,0,0.1,0c0,0,0,0,0.1,0c0,0,0.1-0.1,0.1-0.1c0,0,0.1,0,0.1-0.1c0,0,0.1-0.1,0.1-0.1
					c0,0,0.1-0.1,0.1-0.1c0,0,0.1-0.1,0.1-0.1c0,0,0.1-0.1,0.1-0.1c0,0,0.1-0.1,0.1-0.1c0,0,0,0,0,0c0,0,0,0,0,0
					c0.1-0.1,0.1-0.1,0.2-0.2c0,0,0,0,0.1-0.1c0.1-0.1,0.1-0.1,0.2-0.2c0,0,0,0,0,0c0,0,0,0,0,0c0,0,0.1-0.1,0.1-0.1c0,0,0,0,0-0.1
					c0,0,0.1-0.1,0.1-0.1c0,0,0,0,0,0c0,0,0,0,0-0.1c0,0,0-0.1,0.1-0.1c0,0,0-0.1,0-0.1c0,0,0-0.1,0-0.1c0,0,0,0,0,0c0,0,0,0,0,0
					c0,0,0-0.1,0-0.1c0,0,0-0.1,0-0.1c0,0,0-0.1,0-0.1c0,0,0,0,0-0.1c0,0,0,0,0,0c0,0,0-0.1,0-0.1c0,0,0-0.1,0-0.1c0,0,0-0.1,0-0.1
					c0,0,0,0,0-0.1c0,0,0,0,0-0.1l0-12.6C223,230.7,223,230.7,223,230.8z"/>
				<g>
					<path class="st13" d="M221,227.8c2.7,1.6,2.7,4.1,0,5.6c-2.7,1.6-7,1.6-9.7,0c-2.7-1.6-2.7-4.1,0-5.6
						C213.9,226.2,218.3,226.2,221,227.8z"/>
				</g>
			</g>
			<g class="st3">
				<path class="st12" d="M220.4,221.3C220.4,221.3,220.4,221.3,220.4,221.3c0,0.1,0,0.1,0,0.1c0,0,0,0,0,0.1c0,0,0,0,0,0.1
					c0,0,0,0,0,0.1c0,0,0,0,0,0.1c0,0,0,0,0,0.1c0,0,0,0,0,0.1c0,0,0,0,0,0.1c0,0,0,0,0,0.1c0,0,0,0,0,0.1c0,0,0,0,0,0.1
					c0,0,0,0.1,0,0.1c0,0,0,0,0,0c0,0,0,0.1-0.1,0.1c0,0,0,0,0,0c0,0-0.1,0.1-0.1,0.1c0,0,0,0,0,0c0,0-0.1,0.1-0.1,0.1c0,0,0,0,0,0
					c0,0,0,0-0.1,0.1c0,0,0,0-0.1,0c0,0,0,0-0.1,0.1c0,0,0,0-0.1,0c0,0,0,0-0.1,0.1c0,0,0,0-0.1,0c0,0-0.1,0-0.1,0
					c0,0-0.1,0-0.1,0.1c-0.1,0-0.1,0.1-0.2,0.1c0,0,0,0-0.1,0c-0.1,0-0.1,0.1-0.2,0.1c0,0,0,0-0.1,0c-0.1,0-0.1,0.1-0.2,0.1
					c0,0,0,0,0,0c-0.1,0-0.1,0-0.2,0.1c0,0-0.1,0-0.1,0c0,0-0.1,0-0.1,0c0,0-0.1,0-0.1,0c0,0-0.1,0-0.1,0c0,0-0.1,0-0.1,0
					c0,0-0.1,0-0.1,0c0,0-0.1,0-0.1,0c0,0-0.1,0-0.1,0c0,0-0.1,0-0.1,0c-0.1,0-0.2,0-0.2,0c0,0,0,0,0,0c-0.1,0-0.1,0-0.2,0
					c0,0-0.1,0-0.1,0c0,0-0.1,0-0.1,0c0,0-0.1,0-0.1,0c0,0-0.1,0-0.1,0c0,0-0.1,0-0.1,0c0,0-0.1,0-0.1,0c0,0-0.1,0-0.1,0
					c0,0-0.1,0-0.1,0c0,0-0.1,0-0.1,0c0,0-0.1,0-0.1,0c0,0-0.1,0-0.1,0c0,0-0.1,0-0.1,0c0,0-0.1,0-0.1,0c-0.1,0-0.1,0-0.2,0
					c0,0,0,0,0,0c-0.1,0-0.1,0-0.2,0c0,0,0,0,0,0c-0.1,0-0.1,0-0.2,0c0,0,0,0-0.1,0c0,0-0.1,0-0.1,0c0,0,0,0-0.1,0c0,0-0.1,0-0.1,0
					c0,0-0.1,0-0.1,0c0,0-0.1,0-0.1,0c0,0,0,0-0.1,0c-0.1,0-0.1,0-0.2-0.1c0,0,0,0,0,0c-0.1,0-0.2-0.1-0.2-0.1c0,0-0.1,0-0.1,0
					c0,0,0,0-0.1,0c0,0-0.1,0-0.1,0c0,0,0,0-0.1,0c0,0-0.1,0-0.1-0.1c0,0,0,0-0.1,0c-0.1,0-0.1-0.1-0.2-0.1c-0.5-0.3-0.8-0.6-1-0.9
					c-0.1-0.1-0.1-0.2-0.2-0.4c0-0.1,0-0.2-0.1-0.2c0-0.1,0-0.2,0-0.2v0v0l0,7.9c0,0.6,0.4,1.3,1.3,1.8c0.1,0,0.1,0.1,0.2,0.1
					c0,0,0,0,0.1,0c0,0,0.1,0,0.1,0.1c0,0,0,0,0.1,0c0,0,0.1,0,0.1,0c0,0,0,0,0.1,0c0,0,0,0,0.1,0c0,0,0,0,0,0
					c0.1,0,0.2,0.1,0.2,0.1c0,0,0,0,0,0c0.1,0,0.1,0,0.2,0.1c0,0,0,0,0,0c0,0,0,0,0,0c0,0,0.1,0,0.1,0c0,0,0.1,0,0.1,0
					c0,0,0.1,0,0.1,0c0,0,0,0,0.1,0c0,0,0,0,0,0c0,0,0.1,0,0.1,0c0,0,0,0,0.1,0c0.1,0,0.1,0,0.2,0c0,0,0,0,0,0c0,0,0,0,0,0
					c0.1,0,0.1,0,0.2,0c0,0,0,0,0,0c0.1,0,0.1,0,0.2,0c0,0,0,0,0,0c0,0,0,0,0.1,0c0,0,0.1,0,0.1,0c0,0,0.1,0,0.1,0c0,0,0.1,0,0.1,0
					c0,0,0,0,0,0c0,0,0,0,0.1,0c0,0,0.1,0,0.1,0c0,0,0.1,0,0.1,0c0,0,0.1,0,0.1,0c0,0,0,0,0,0c0,0,0,0,0.1,0c0,0,0.1,0,0.1,0
					c0,0,0.1,0,0.1,0c0,0,0.1,0,0.1,0c0,0,0,0,0,0c0,0,0,0,0,0c0.1,0,0.1,0,0.2,0c0,0,0,0,0,0c0.1,0,0.2,0,0.2,0c0,0,0,0,0,0
					c0,0,0,0,0.1,0c0,0,0.1,0,0.1,0c0,0,0.1,0,0.1,0c0,0,0.1,0,0.1,0c0,0,0.1,0,0.1,0c0,0,0.1,0,0.1,0c0,0,0.1,0,0.1,0
					c0,0,0.1,0,0.1,0c0,0,0,0,0,0c0,0,0,0,0,0c0.1,0,0.1,0,0.2-0.1c0,0,0,0,0,0c0.1,0,0.1-0.1,0.2-0.1c0,0,0,0,0.1,0
					c0.1,0,0.1,0,0.2-0.1c0,0,0,0,0.1,0c0.1,0,0.1-0.1,0.2-0.1c0,0,0,0,0.1,0c0,0,0,0,0,0c0,0,0.1,0,0.1,0c0,0,0,0,0.1,0
					c0,0,0,0,0.1-0.1c0,0,0,0,0.1,0c0,0,0,0,0.1-0.1c0,0,0,0,0.1,0c0,0,0,0,0.1-0.1c0,0,0,0,0,0c0,0,0,0,0,0c0,0,0.1-0.1,0.1-0.1
					c0,0,0,0,0,0c0,0,0.1-0.1,0.1-0.1c0,0,0,0,0,0c0,0,0,0,0,0c0,0,0-0.1,0.1-0.1c0,0,0,0,0,0c0,0,0-0.1,0-0.1c0,0,0,0,0,0
					c0,0,0,0,0,0c0,0,0,0,0-0.1c0,0,0,0,0-0.1c0,0,0,0,0-0.1c0,0,0,0,0,0c0,0,0,0,0,0c0,0,0,0,0-0.1c0,0,0,0,0-0.1c0,0,0,0,0-0.1
					c0,0,0,0,0,0c0,0,0,0,0,0c0,0,0,0,0-0.1c0,0,0,0,0-0.1c0,0,0,0,0-0.1c0,0,0,0,0,0c0,0,0,0,0,0L220.4,221.3
					C220.4,221.2,220.4,221.3,220.4,221.3z"/>
				<g>
					<path class="st13" d="M219.2,219.4c1.7,1,1.7,2.5,0,3.5c-1.7,1-4.4,1-6.1,0c-1.7-1-1.7-2.5,0-3.5
						C214.8,218.5,217.5,218.5,219.2,219.4z"/>
				</g>
			</g>
			<g class="st3">
				<path class="st6" d="M219.4,162C219.4,162,219.4,162,219.4,162C219.4,162,219.4,162.1,219.4,162c0,0.1,0,0.1,0,0.1c0,0,0,0,0,0
					c0,0,0,0,0,0c0,0,0,0,0,0c0,0,0,0,0,0c0,0,0,0,0,0c0,0,0,0,0,0c0,0,0,0,0,0c0,0,0,0,0,0c0,0,0,0,0,0c0,0,0,0,0,0.1c0,0,0,0,0,0
					c0,0,0,0,0,0.1c0,0,0,0,0,0c0,0-0.1,0.1-0.1,0.1c0,0,0,0,0,0c0,0,0,0-0.1,0.1c0,0,0,0,0,0c0,0,0,0,0,0c0,0,0,0,0,0
					c0,0,0,0-0.1,0c0,0,0,0,0,0c0,0,0,0-0.1,0c0,0,0,0-0.1,0c0,0,0,0-0.1,0c0,0,0,0-0.1,0c0,0-0.1,0.1-0.2,0.1c0,0,0,0,0,0
					c0,0-0.1,0-0.1,0.1c0,0,0,0,0,0c-0.1,0-0.1,0-0.2,0.1c0,0,0,0,0,0c0,0-0.1,0-0.1,0c0,0,0,0-0.1,0c0,0-0.1,0-0.1,0c0,0,0,0-0.1,0
					c0,0-0.1,0-0.1,0c0,0,0,0-0.1,0c0,0-0.1,0-0.1,0c0,0,0,0-0.1,0c0,0-0.1,0-0.1,0c0,0,0,0-0.1,0c-0.1,0-0.1,0-0.2,0c0,0,0,0,0,0
					c-0.1,0-0.1,0-0.2,0c0,0,0,0-0.1,0c0,0-0.1,0-0.1,0c0,0,0,0-0.1,0c0,0-0.1,0-0.1,0c0,0,0,0-0.1,0c0,0-0.1,0-0.1,0c0,0,0,0-0.1,0
					c0,0-0.1,0-0.1,0c0,0,0,0-0.1,0c0,0-0.1,0-0.1,0c0,0,0,0-0.1,0c0,0-0.1,0-0.1,0c0,0,0,0-0.1,0c0,0-0.1,0-0.1,0c0,0,0,0,0,0
					c-0.1,0-0.1,0-0.2,0c0,0,0,0,0,0c0,0-0.1,0-0.1,0c0,0,0,0-0.1,0c0,0-0.1,0-0.1,0c0,0,0,0-0.1,0c0,0-0.1,0-0.1,0c0,0,0,0-0.1,0
					c0,0-0.1,0-0.1,0c0,0,0,0-0.1,0c-0.1,0-0.1,0-0.2,0c0,0,0,0,0,0c-0.1,0-0.1,0-0.2-0.1c0,0,0,0-0.1,0c0,0,0,0-0.1,0
					c0,0-0.1,0-0.1,0c0,0,0,0,0,0c0,0-0.1,0-0.1,0c0,0,0,0,0,0c0,0-0.1,0-0.1-0.1c-0.4-0.2-0.6-0.5-0.8-0.7
					c-0.1-0.1-0.1-0.2-0.1-0.3c0-0.1,0-0.1,0-0.2c0-0.1,0-0.1,0-0.2v0c0,0,0,0,0,0l0,58.6c0,0.5,0.3,1,1,1.4c0,0,0.1,0,0.1,0.1
					c0,0,0,0,0,0c0,0,0.1,0,0.1,0c0,0,0,0,0,0c0,0,0.1,0,0.1,0c0,0,0,0,0.1,0c0,0,0,0,0.1,0c0,0,0,0,0,0c0.1,0,0.1,0,0.2,0.1
					c0,0,0,0,0,0c0.1,0,0.1,0,0.2,0c0,0,0,0,0,0c0,0,0,0,0,0c0,0,0.1,0,0.1,0c0,0,0,0,0.1,0c0,0,0.1,0,0.1,0c0,0,0,0,0,0
					c0,0,0,0,0,0c0,0,0.1,0,0.1,0c0,0,0,0,0.1,0c0,0,0.1,0,0.1,0c0,0,0,0,0,0c0,0,0,0,0,0c0.1,0,0.1,0,0.2,0c0,0,0,0,0,0
					c0,0,0.1,0,0.1,0c0,0,0,0,0,0c0,0,0,0,0.1,0c0,0,0.1,0,0.1,0c0,0,0,0,0.1,0c0,0,0.1,0,0.1,0c0,0,0,0,0,0c0,0,0,0,0.1,0
					c0,0,0.1,0,0.1,0c0,0,0,0,0.1,0c0,0,0.1,0,0.1,0c0,0,0,0,0,0c0,0,0,0,0,0c0,0,0.1,0,0.1,0c0,0,0,0,0.1,0c0,0,0.1,0,0.1,0
					c0,0,0,0,0,0c0,0,0,0,0,0c0.1,0,0.1,0,0.2,0c0,0,0,0,0,0c0.1,0,0.1,0,0.2,0c0,0,0,0,0,0c0,0,0,0,0,0c0,0,0.1,0,0.1,0
					c0,0,0,0,0.1,0c0,0,0.1,0,0.1,0c0,0,0,0,0.1,0c0,0,0.1,0,0.1,0c0,0,0,0,0.1,0c0,0,0.1,0,0.1,0c0,0,0,0,0,0c0,0,0,0,0,0
					c0,0,0.1,0,0.1,0c0,0,0,0,0,0c0.1,0,0.1,0,0.2-0.1c0,0,0,0,0,0c0,0,0.1,0,0.1-0.1c0,0,0,0,0,0c0.1,0,0.1-0.1,0.2-0.1
					c0,0,0,0,0,0c0,0,0,0,0,0c0,0,0,0,0.1,0c0,0,0,0,0.1,0c0,0,0,0,0.1,0c0,0,0,0,0,0c0,0,0,0,0.1,0c0,0,0,0,0,0c0,0,0,0,0,0
					c0,0,0,0,0,0c0,0,0,0,0,0c0,0,0.1,0,0.1-0.1c0,0,0,0,0,0c0,0,0.1-0.1,0.1-0.1c0,0,0,0,0,0c0,0,0,0,0,0c0,0,0,0,0-0.1
					c0,0,0,0,0,0c0,0,0,0,0-0.1c0,0,0,0,0,0c0,0,0,0,0,0c0,0,0,0,0,0c0,0,0,0,0,0c0,0,0,0,0,0c0,0,0,0,0,0c0,0,0,0,0,0c0,0,0,0,0,0
					c0,0,0,0,0,0c0,0,0,0,0,0c0,0,0,0,0,0c0,0,0,0,0,0c0,0,0,0,0,0c0,0,0,0,0,0c0,0,0,0,0,0c0,0,0,0,0,0c0,0,0,0,0,0L219.4,162
					C219.4,161.9,219.4,162,219.4,162z"/>
				<g>
					<path class="st13" d="M218.4,160.6c1.3,0.7,1.3,1.9,0,2.7c-1.3,0.7-3.3,0.7-4.6,0c-1.3-0.7-1.3-1.9,0-2.7
						C215.1,159.8,217.2,159.8,218.4,160.6z"/>
				</g>
			</g>
			<g class="st3">
				<path class="st5" d="M223,151.9c0,0,0,0.1,0,0.1c0,0,0,0.1,0,0.1c0,0,0,0.1,0,0.1c0,0,0,0.1,0,0.1c0,0,0,0.1,0,0.1
					c0,0,0,0.1,0,0.1c0,0,0,0.1,0,0.1c0,0,0,0.1,0,0.1c0,0,0,0.1,0,0.1c0,0,0,0.1,0,0.1c0,0,0,0.1-0.1,0.1c0,0,0,0.1,0,0.1
					c0,0,0,0.1-0.1,0.1c0,0,0,0,0,0.1c0,0-0.1,0.1-0.1,0.1c0,0,0,0,0,0.1c-0.1,0.1-0.1,0.1-0.2,0.2c0,0,0,0-0.1,0.1
					c0,0.1-0.1,0.1-0.2,0.2c0,0,0,0-0.1,0.1c0,0-0.1,0.1-0.1,0.1c0,0-0.1,0.1-0.1,0.1c0,0-0.1,0.1-0.1,0.1c0,0-0.1,0.1-0.1,0.1
					c0,0-0.1,0.1-0.1,0.1c0,0-0.1,0-0.1,0.1c0,0-0.1,0.1-0.1,0.1c-0.1,0-0.1,0.1-0.2,0.1c-0.1,0.1-0.2,0.1-0.3,0.2c0,0-0.1,0-0.1,0
					c-0.1,0-0.2,0.1-0.3,0.1c0,0-0.1,0-0.1,0c-0.1,0-0.2,0.1-0.3,0.1c0,0,0,0-0.1,0c-0.1,0-0.2,0.1-0.3,0.1c0,0-0.1,0-0.1,0
					c-0.1,0-0.1,0-0.2,0.1c0,0-0.1,0-0.1,0c-0.1,0-0.1,0-0.2,0c0,0-0.1,0-0.1,0c-0.1,0-0.1,0-0.2,0c0,0-0.1,0-0.1,0
					c-0.1,0-0.1,0-0.2,0c0,0-0.1,0-0.1,0c-0.1,0-0.3,0-0.4,0.1c0,0,0,0-0.1,0c-0.1,0-0.2,0-0.3,0c0,0-0.1,0-0.1,0
					c-0.1,0-0.1,0-0.2,0c0,0-0.1,0-0.1,0c-0.1,0-0.2,0-0.2,0c0,0-0.1,0-0.1,0c-0.1,0-0.1,0-0.2,0c0,0-0.1,0-0.1,0
					c-0.1,0-0.1,0-0.2,0c0,0-0.1,0-0.1,0c-0.1,0-0.1,0-0.2,0c0,0-0.1,0-0.1,0c-0.1,0-0.1,0-0.2,0c0,0-0.1,0-0.1,0
					c-0.1,0-0.2,0-0.3,0c0,0-0.1,0-0.1,0c-0.1,0-0.2,0-0.3,0c0,0,0,0-0.1,0c-0.1,0-0.2,0-0.3,0c0,0-0.1,0-0.1,0c-0.1,0-0.1,0-0.2,0
					c0,0-0.1,0-0.1,0c-0.1,0-0.2,0-0.2-0.1c0,0-0.1,0-0.1,0c-0.1,0-0.1,0-0.2-0.1c0,0-0.1,0-0.1,0c-0.1,0-0.2-0.1-0.3-0.1
					c0,0,0,0-0.1,0c-0.1,0-0.2-0.1-0.4-0.1c0,0-0.1,0-0.1-0.1c0,0-0.1,0-0.1,0c-0.1,0-0.1,0-0.2-0.1c0,0-0.1,0-0.1,0
					c-0.1,0-0.1-0.1-0.2-0.1c0,0-0.1,0-0.1,0c-0.1,0-0.2-0.1-0.2-0.1c-0.8-0.4-1.3-1-1.6-1.5c-0.1-0.2-0.2-0.4-0.3-0.6
					c0-0.1-0.1-0.3-0.1-0.4c0-0.1,0-0.3,0-0.4v0c0,0,0,0,0,0l0,12.6c0,1,0.7,2.1,2,2.8c0.1,0,0.2,0.1,0.2,0.1c0,0,0.1,0,0.1,0
					c0.1,0,0.1,0.1,0.2,0.1c0,0,0.1,0,0.1,0c0.1,0,0.1,0,0.2,0.1c0,0,0.1,0,0.1,0c0,0,0.1,0,0.1,0c0,0,0,0,0,0
					c0.1,0,0.2,0.1,0.4,0.1c0,0,0,0,0.1,0c0.1,0,0.2,0.1,0.3,0.1c0,0,0,0,0.1,0c0,0,0,0,0.1,0c0.1,0,0.1,0,0.2,0.1c0,0,0.1,0,0.1,0
					c0.1,0,0.2,0,0.2,0.1c0,0,0.1,0,0.1,0c0,0,0,0,0,0c0.1,0,0.1,0,0.2,0c0,0,0.1,0,0.1,0c0.1,0,0.2,0,0.3,0c0,0,0,0,0.1,0
					c0,0,0,0,0,0c0.1,0,0.2,0,0.3,0c0,0,0.1,0,0.1,0c0.1,0,0.2,0,0.3,0c0,0,0,0,0,0c0,0,0.1,0,0.1,0c0.1,0,0.1,0,0.2,0
					c0,0,0.1,0,0.1,0c0.1,0,0.1,0,0.2,0c0,0,0,0,0,0c0,0,0.1,0,0.1,0c0.1,0,0.1,0,0.2,0c0,0,0.1,0,0.1,0c0.1,0,0.1,0,0.2,0
					c0,0,0,0,0,0c0,0,0.1,0,0.1,0c0.1,0,0.2,0,0.2,0c0,0,0.1,0,0.1,0c0.1,0,0.1,0,0.2,0c0,0,0.1,0,0.1,0c0,0,0,0,0.1,0
					c0.1,0,0.2,0,0.3,0c0,0,0,0,0.1,0c0.1,0,0.3,0,0.4-0.1c0,0,0,0,0,0c0,0,0.1,0,0.1,0c0.1,0,0.1,0,0.2,0c0,0,0.1,0,0.1,0
					c0.1,0,0.1,0,0.2,0c0,0,0.1,0,0.1,0c0.1,0,0.1,0,0.2,0c0,0,0.1,0,0.1,0c0.1,0,0.1,0,0.2-0.1c0,0,0,0,0.1,0c0,0,0,0,0.1,0
					c0.1,0,0.2-0.1,0.3-0.1c0,0,0,0,0.1,0c0.1,0,0.2-0.1,0.3-0.1c0,0,0.1,0,0.1,0c0.1,0,0.2-0.1,0.3-0.1c0,0,0.1,0,0.1,0
					c0.1-0.1,0.2-0.1,0.3-0.2c0,0,0.1,0,0.1,0c0,0,0,0,0.1,0c0,0,0.1-0.1,0.1-0.1c0,0,0.1,0,0.1-0.1c0,0,0.1-0.1,0.1-0.1
					c0,0,0.1-0.1,0.1-0.1c0,0,0.1-0.1,0.1-0.1c0,0,0.1-0.1,0.1-0.1c0,0,0.1-0.1,0.1-0.1c0,0,0,0,0,0c0,0,0,0,0,0
					c0.1-0.1,0.1-0.1,0.2-0.2c0,0,0,0,0.1-0.1c0.1-0.1,0.1-0.1,0.2-0.2c0,0,0,0,0,0c0,0,0,0,0,0c0,0,0.1-0.1,0.1-0.1c0,0,0,0,0-0.1
					c0,0,0.1-0.1,0.1-0.1c0,0,0,0,0,0c0,0,0,0,0,0c0,0,0-0.1,0.1-0.1c0,0,0-0.1,0-0.1c0,0,0-0.1,0-0.1c0,0,0,0,0,0c0,0,0,0,0,0
					c0,0,0-0.1,0-0.1c0,0,0-0.1,0-0.1c0,0,0-0.1,0-0.1c0,0,0,0,0-0.1c0,0,0,0,0,0c0,0,0-0.1,0-0.1c0,0,0-0.1,0-0.1c0,0,0-0.1,0-0.1
					c0,0,0,0,0-0.1c0,0,0,0,0-0.1l0-12.6C223,151.8,223,151.8,223,151.9z"/>
				<g>
					<path class="st13" d="M221,148.9c2.7,1.6,2.7,4.1,0,5.6c-2.7,1.6-7,1.6-9.7,0c-2.7-1.6-2.7-4.1,0-5.6
						C213.9,147.4,218.3,147.4,221,148.9z"/>
				</g>
			</g>
			<g class="st3">
				<path class="st14" d="M226,149.2c0,0.1,0,0.1,0,0.2c0,0,0,0.1,0,0.1c0,0,0,0.1,0,0.1c0,0,0,0.1,0,0.1c0,0,0,0.1,0,0.1
					c0,0,0,0.1,0,0.1c0,0,0,0.1,0,0.1c0,0,0,0.1,0,0.1c0,0.1,0,0.1-0.1,0.2c0,0,0,0.1-0.1,0.1c0,0-0.1,0.1-0.1,0.1
					c0,0,0,0.1-0.1,0.1c0,0.1-0.1,0.1-0.1,0.2c0,0,0,0.1-0.1,0.1c0,0.1-0.1,0.1-0.1,0.2c0,0,0,0.1-0.1,0.1c-0.1,0.1-0.2,0.2-0.3,0.3
					c0,0,0,0.1-0.1,0.1c-0.1,0.1-0.1,0.1-0.2,0.2c0,0-0.1,0.1-0.1,0.1c0,0-0.1,0.1-0.1,0.1c0,0-0.1,0.1-0.1,0.1
					c-0.1,0-0.1,0.1-0.2,0.1c0,0-0.1,0.1-0.1,0.1c-0.1,0-0.1,0.1-0.2,0.1c-0.1,0-0.1,0.1-0.2,0.1c-0.1,0-0.1,0.1-0.2,0.1
					c-0.1,0-0.2,0.1-0.2,0.1c-0.1,0.1-0.3,0.2-0.5,0.2c0,0-0.1,0-0.1,0.1c-0.1,0.1-0.2,0.1-0.4,0.2c0,0-0.1,0-0.1,0.1
					c-0.2,0.1-0.3,0.1-0.5,0.2c0,0-0.1,0-0.1,0c-0.1,0.1-0.3,0.1-0.4,0.2c-0.1,0-0.1,0-0.2,0.1c-0.1,0-0.2,0-0.2,0.1
					c-0.1,0-0.1,0-0.2,0.1c-0.1,0-0.2,0-0.2,0.1c-0.1,0-0.1,0-0.2,0.1c-0.1,0-0.2,0-0.3,0.1c-0.1,0-0.1,0-0.2,0
					c-0.1,0-0.2,0-0.3,0.1c-0.1,0-0.1,0-0.2,0c-0.2,0-0.4,0.1-0.6,0.1c0,0-0.1,0-0.1,0c-0.2,0-0.3,0-0.5,0.1c-0.1,0-0.1,0-0.2,0
					c-0.1,0-0.2,0-0.3,0c-0.1,0-0.1,0-0.2,0c-0.1,0-0.2,0-0.3,0c-0.1,0-0.1,0-0.2,0c-0.1,0-0.2,0-0.3,0c-0.1,0-0.1,0-0.2,0
					c-0.1,0-0.2,0-0.3,0c-0.1,0-0.1,0-0.2,0c-0.1,0-0.2,0-0.3,0c-0.1,0-0.1,0-0.2,0c-0.1,0-0.2,0-0.3,0c-0.1,0-0.1,0-0.2,0
					c-0.1,0-0.2,0-0.4,0c0,0-0.1,0-0.1,0c-0.2,0-0.3,0-0.5-0.1c0,0-0.1,0-0.1,0c-0.1,0-0.3,0-0.4-0.1c-0.1,0-0.1,0-0.2,0
					c-0.1,0-0.2,0-0.3-0.1c-0.1,0-0.1,0-0.2,0c-0.1,0-0.2,0-0.3-0.1c-0.1,0-0.1,0-0.2,0c-0.1,0-0.2-0.1-0.3-0.1c-0.1,0-0.1,0-0.2,0
					c-0.2,0-0.3-0.1-0.5-0.1c0,0-0.1,0-0.1,0c-0.2-0.1-0.4-0.1-0.5-0.2c-0.1,0-0.1-0.1-0.2-0.1c-0.1,0-0.1,0-0.2-0.1
					c-0.1,0-0.2-0.1-0.2-0.1c-0.1,0-0.1,0-0.2-0.1c-0.1,0-0.2-0.1-0.2-0.1c0,0-0.1,0-0.1-0.1c-0.1-0.1-0.2-0.1-0.4-0.2
					c-1.1-0.6-1.9-1.4-2.4-2.2c-0.2-0.3-0.3-0.5-0.4-0.8c-0.1-0.2-0.1-0.4-0.1-0.6c0-0.2,0-0.4,0-0.6v0c0,0,0,0,0,0l0,115.1
					c0,1.5,1,3,2.9,4.1c0.1,0.1,0.2,0.1,0.4,0.2c0,0,0.1,0,0.1,0.1c0.1,0,0.2,0.1,0.2,0.1c0,0,0.1,0,0.2,0.1c0.1,0,0.2,0.1,0.2,0.1
					c0.1,0,0.1,0,0.2,0.1c0.1,0,0.1,0,0.2,0.1c0,0,0,0,0.1,0c0.2,0.1,0.3,0.1,0.5,0.2c0,0,0.1,0,0.1,0c0.2,0.1,0.3,0.1,0.5,0.1
					c0,0,0.1,0,0.1,0c0,0,0.1,0,0.1,0c0.1,0,0.2,0.1,0.3,0.1c0.1,0,0.1,0,0.2,0c0.1,0,0.2,0.1,0.3,0.1c0,0,0.1,0,0.1,0c0,0,0,0,0,0
					c0.1,0,0.2,0,0.3,0.1c0.1,0,0.1,0,0.2,0c0.1,0,0.3,0,0.4,0.1c0,0,0,0,0.1,0c0,0,0,0,0,0c0.2,0,0.3,0,0.5,0.1c0,0,0.1,0,0.1,0
					c0.1,0,0.2,0,0.4,0c0,0,0,0,0,0c0.1,0,0.1,0,0.2,0c0.1,0,0.2,0,0.3,0c0.1,0,0.1,0,0.2,0c0.1,0,0.2,0,0.3,0c0,0,0,0,0,0
					c0.1,0,0.1,0,0.2,0c0.1,0,0.2,0,0.3,0c0.1,0,0.1,0,0.2,0c0.1,0,0.2,0,0.3,0c0,0,0,0,0.1,0c0,0,0.1,0,0.1,0c0.1,0,0.2,0,0.3,0
					c0.1,0,0.1,0,0.2,0c0.1,0,0.2,0,0.3,0c0,0,0.1,0,0.1,0c0,0,0.1,0,0.1,0c0.2,0,0.3,0,0.5-0.1c0,0,0.1,0,0.1,0
					c0.2,0,0.4-0.1,0.6-0.1c0,0,0,0,0.1,0c0,0,0.1,0,0.1,0c0.1,0,0.2,0,0.3-0.1c0.1,0,0.1,0,0.2,0c0.1,0,0.2,0,0.3-0.1
					c0.1,0,0.1,0,0.2-0.1c0.1,0,0.2,0,0.2-0.1c0.1,0,0.1,0,0.2-0.1c0.1,0,0.2,0,0.2-0.1c0,0,0.1,0,0.1,0c0,0,0,0,0.1,0
					c0.1,0,0.3-0.1,0.4-0.2c0,0,0.1,0,0.1,0c0.2-0.1,0.3-0.1,0.5-0.2c0,0,0.1,0,0.1-0.1c0.1-0.1,0.2-0.1,0.4-0.2c0,0,0.1,0,0.1-0.1
					c0.2-0.1,0.3-0.2,0.5-0.2c0,0,0.1,0,0.1-0.1c0,0,0.1,0,0.1-0.1c0.1,0,0.1-0.1,0.2-0.1c0.1,0,0.1-0.1,0.2-0.1
					c0.1,0,0.1-0.1,0.2-0.1c0.1,0,0.1-0.1,0.1-0.1c0.1,0,0.1-0.1,0.2-0.1c0,0,0.1-0.1,0.1-0.1c0,0,0.1-0.1,0.1-0.1c0,0,0,0,0.1-0.1
					c0,0,0,0,0,0c0.1-0.1,0.2-0.1,0.2-0.2c0,0,0-0.1,0.1-0.1c0.1-0.1,0.2-0.2,0.3-0.3c0,0,0,0,0,0c0,0,0,0,0.1-0.1
					c0-0.1,0.1-0.1,0.1-0.2c0,0,0-0.1,0.1-0.1c0-0.1,0.1-0.1,0.1-0.2c0,0,0,0,0,0c0,0,0,0,0-0.1c0,0,0.1-0.1,0.1-0.1
					c0,0,0-0.1,0.1-0.1c0,0,0-0.1,0.1-0.2c0,0,0,0,0-0.1c0,0,0,0,0-0.1c0,0,0-0.1,0-0.1c0,0,0-0.1,0-0.1c0,0,0-0.1,0-0.1
					c0,0,0-0.1,0-0.1c0,0,0,0,0-0.1c0,0,0-0.1,0-0.1c0,0,0-0.1,0-0.1c0,0,0-0.1,0-0.1c0,0,0-0.1,0-0.1c0,0,0-0.1,0-0.1l0-115.1
					C226,149.1,226,149.1,226,149.2z"/>
			</g>
			<g>
				<line class="st15" x1="209.2" y1="177.5" x2="209.2" y2="214.8"/>
				<line class="st15" x1="225.6" y1="185.4" x2="225.6" y2="222.7"/>
				<line class="st15" x1="217.8" y1="225.5" x2="217.8" y2="244.1"/>
				<line class="st15" x1="220.4" y1="178.1" x2="220.4" y2="196.8"/>
				<line class="st15" x1="211.8" y1="211.3" x2="211.8" y2="259.7"/>
				<line class="st15" x1="223" y1="184.8" x2="223" y2="193.8"/>
				<line class="st15" x1="220" y1="206.8" x2="220" y2="215.8"/>
				<line class="st15" x1="214.4" y1="200.9" x2="214.4" y2="210"/>
				<line class="st15" x1="223" y1="243.2" x2="223" y2="252.3"/>
				<line class="st15" x1="210.5" y1="163" x2="210.5" y2="172.1"/>
				<line class="st15" x1="222.3" y1="156.2" x2="222.3" y2="165.2"/>
				<line class="st15" x1="207.7" y1="240.7" x2="207.7" y2="249.7"/>
				<line class="st15" x1="215.8" y1="164.4" x2="215.8" y2="185.6"/>
			</g>
		</g>
		<g>
			
				<ellipse transform="matrix(0.2298 -0.9732 0.9732 0.2298 24.766 322.4976)" class="st16" cx="216.1" cy="145.6" rx="10.4" ry="10.4"/>
			<path class="st17" d="M224.6,139.6c0.5,1.2,0.7,2.5,0.7,3.8c0,5.8-4.7,10.4-10.4,10.4c-3.5,0-6.6-1.7-8.5-4.4
				c1.5,3.9,5.3,6.6,9.7,6.6c5.8,0,10.4-4.7,10.4-10.4C226.5,143.4,225.8,141.3,224.6,139.6z"/>
			
				<ellipse transform="matrix(0.2298 -0.9732 0.9732 0.2298 57.054 296.9444)" class="st18" cx="216.1" cy="112.4" rx="38" ry="38"/>
			<path class="st19" d="M249.7,94.6c1.7,4.4,2.7,9.1,2.7,14.1c0,21-17,38-38,38c-14.5,0-27.1-8.2-33.5-20.2
				c5.6,14,19.3,23.9,35.2,23.9c21,0,38-17,38-38C254.1,106,252.5,99.9,249.7,94.6z"/>
			<g>
				<path class="st12" d="M179.3,111.1c-0.1-0.3-0.3-0.8-0.5-0.4c0,0-0.7,1.8-0.1,5.1c0.1,0.6,0.3,1.6,0.2,2.1c0,0,0,0,0,0
					c-0.2-0.2-0.4-1.2-0.5-2.4c0,3.1,0.7,4,0.7,4c0,0,0,0,0.1,0c0.1-0.1,0.3-1.7-0.3-4.6c-0.1-0.6-0.4-2.2-0.1-2.7c0,0,0,0,0.1,0
					c0.2,0.2,0.3,0.8,0.4,1.9C179.7,112.9,179.8,112.6,179.3,111.1"/>
				<path class="st12" d="M182.2,116.5c-0.2-0.3-0.4-0.5-0.6-0.8c-0.2,1-0.3,2.1-0.4,3.1c-0.4-0.5-0.7-1.1-1.1-1.6
					c0.1-1,0.2-2.1,0.4-3.1c-0.2-0.3-0.3-0.6-0.4-0.8c-0.3,1.7-0.5,3.5-0.5,5.2c0,0.9,0,1.7,0.1,2.6c0.1,0.3,0.3,0.6,0.4,0.8
					c-0.1-0.8-0.1-1.7-0.1-2.6c0-0.2,0-0.4,0-0.6c0.3,0.6,0.7,1.1,1.1,1.6c0,0.2,0,0.4,0,0.6c0,0.9,0,1.7,0.1,2.6
					c0.2,0.3,0.4,0.5,0.6,0.8c-0.1-0.8-0.1-1.7-0.1-2.6C181.8,120.1,181.9,118.3,182.2,116.5"/>
				<path class="st12" d="M184.1,125.5c-1.5-1.5-1.4-5.3-0.3-5.3c1.2,0,2.1,4.6,1,5.4C184.7,125.8,184.4,125.7,184.1,125.5
					 M184.6,118.8c-1.7-1.4-2.5,1.2-2.2,3.6c0.4,3.4,2.4,5.7,3.3,4.7C186.8,126,186.5,120.6,184.6,118.8"/>
				<path class="st12" d="M188.1,126.3c0-0.9,0.1-1.8,0.2-2.8c0.2,0.1,0.4,0.3,0.6,0.4c0.1,0.1,0.2,0.1,0.3,0.2
					c1.4,0.9,1.1,2.8,0.5,3c-0.2,0.1-0.5-0.1-0.7-0.2c-0.1-0.1-0.2-0.1-0.3-0.2C188.6,126.5,188.3,126.4,188.1,126.3 M189.5,122.5
					c-0.1-0.1-0.2-0.1-0.4-0.2c-0.6-0.3-1.1-0.7-1.7-1.1c-0.3,1.8-0.4,3.6-0.4,5.4c0,0.9,0,1.7,0.1,2.5c0.3,0.2,0.7,0.5,1.1,0.7
					c-0.1-0.7-0.1-1.4-0.1-2.1c0.2,0.1,0.4,0.3,0.6,0.4c0.1,0.1,0.2,0.1,0.4,0.2c2.6,1.4,2.4-2.4,2.1-3.6
					C190.7,123.3,189.8,122.7,189.5,122.5"/>
				<path class="st12" d="M193.5,129.1c0-0.9,0.1-1.9,0.1-2.8c0.3,0.1,0.7,0.3,1,0.4c1.6,0.7,1.3,2.7,0.6,2.9
					c-0.3,0.1-0.5,0-0.7-0.1C194.2,129.3,193.8,129.2,193.5,129.1 M194.9,125.2c-0.8-0.3-1.6-0.7-2.3-1c-0.2,1.8-0.3,3.6-0.3,5.4
					c0,0.9,0,1.7,0.1,2.5c0.4,0.2,0.8,0.4,1.3,0.6c0-0.7-0.1-1.4-0.1-2.1c0.4,0.2,0.7,0.3,1.1,0.5c2.9,1,2.8-2.7,2.1-4.1
					C196.3,126.1,195.7,125.5,194.9,125.2"/>
				<path class="st12" d="M199.6,126.8c-0.5-0.1-0.9-0.3-1.4-0.4c-0.2,1.9-0.2,3.7-0.2,5.4c0,0.9,0,1.7,0.1,2.5
					c0.5,0.1,0.9,0.3,1.4,0.4c0-0.8-0.1-1.7-0.1-2.5C199.4,130.4,199.5,128.6,199.6,126.8"/>
				<path class="st12" d="M206.7,128.3c-0.5-0.1-1-0.1-1.4-0.2c-0.1,1.7-0.1,3.4-0.1,5c-1.8-3.2-1.9-3.5-2.9-5.6
					c-0.4-0.1-0.8-0.2-1.2-0.3c-0.1,1.9-0.2,3.7-0.2,5.4c0,0.9,0,1.7,0.1,2.5c0.5,0.1,0.9,0.2,1.4,0.3c0-0.8-0.1-1.6-0.1-2.5
					c0-0.7,0-1.5,0-2.2c1.8,3.2,1.9,3.5,3.1,5.3c0.4,0.1,0.8,0.1,1.2,0.2c0-0.8,0-1.6,0-2.5C206.6,132,206.6,130.1,206.7,128.3"/>
				<path class="st12" d="M211.3,128.6c-3.9-0.1-4.5,5.1-2.4,7.2c1.3,1.3,3.4,1.4,4.9,0.2c0-0.6,0-1.1,0-1.7c0-0.5,0-1,0-1.5
					c-0.5,0-0.9,0-1.4-0.1c0,0.5,0,1,0,1.5c0,0.3,0,0.6,0,0.9c-1.7,1-3.8-0.7-3.2-3.2c0.4-1.7,2.4-2.3,3.7-0.6
					c0.3-0.3,0.7-0.8,1-1.1C213.8,129.9,213,128.7,211.3,128.6"/>
				<path class="st12" d="M221,128.6c-3.9,0.5-4.4,5.7-2.2,7.6c1.1,0.9,3.5,1.2,5-0.9c-0.3-0.3-0.7-0.7-1-0.9
					c-1.2,1.7-3.4,1.3-3.7-0.8c-0.4-2.5,1.7-4.1,3.2-2.9c0.2,0.2,0.4,0.3,0.4,0.5c0.3-0.4,0.7-0.9,0.9-1.2
					C223,128.9,222.1,128.5,221,128.6"/>
				<path class="st12" d="M229.4,127.5c-1.5,0.3-3.1,0.6-4.7,0.8c0.1,1.9,0.1,3.7,0.1,5.4c0,0.9,0,1.7,0,2.5
					c1.7-0.2,3.3-0.5,4.9-0.9c0-0.5,0-0.9,0-1.4c-1.1,0.3-2.3,0.5-3.4,0.7c0-0.4,0-0.8,0-1.1c0-0.2,0-0.4,0-0.7c1-0.2,2-0.3,2.9-0.6
					c0-0.5,0-1,0-1.4c-1,0.2-1.9,0.4-2.9,0.5c0-0.6,0-1.2-0.1-1.8c1.1-0.2,2.2-0.4,3.3-0.6C229.5,128.6,229.4,128,229.4,127.5"/>
				<path class="st12" d="M236,125.6c-0.4,0.2-0.9,0.3-1.3,0.5c0.2,1.7,0.3,3.3,0.3,4.9c-1.5-1.9-1.5-1.9-3.2-4.1
					c-0.4,0.1-0.8,0.2-1.2,0.3c0.1,1.9,0.2,3.7,0.2,5.4c0,0.9,0,1.7,0,2.5c0.5-0.1,0.9-0.2,1.4-0.4c0-0.8,0.1-1.7,0-2.5
					c0-0.7,0-1.5,0-2.2c1,1.3,2,2.5,3,3.8c0.4-0.1,0.7-0.3,1.1-0.4c0-0.8,0.1-1.7,0.1-2.5C236.3,129.2,236.2,127.4,236,125.6"/>
				<path class="st12" d="M241.4,123.2c-1.5,0.8-3.1,1.5-4.7,2.1c0.1,0.5,0.1,1,0.1,1.6c0.6-0.2,1.2-0.5,1.8-0.7
					c0.1,1.3,0.2,2.6,0.2,3.8c0,0.9,0,1.7-0.1,2.5c0.4-0.2,0.8-0.4,1.3-0.6c0.1-0.8,0.1-1.7,0.1-2.5c0-1.3-0.1-2.5-0.2-3.8
					c0.6-0.3,1.1-0.6,1.7-0.8C241.6,124.2,241.5,123.7,241.4,123.2"/>
				<path class="st12" d="M245.6,120.6c-1.1,0.8-2.2,1.5-3.5,2.2c0.2,1.8,0.4,3.6,0.4,5.4c0,0.9,0,1.7-0.1,2.5
					c1.3-0.7,2.5-1.5,3.6-2.3c0-0.5,0.1-0.9,0.1-1.4c-0.8,0.6-1.6,1.1-2.5,1.7c0-0.4,0-0.8,0-1.1c0-0.2,0-0.4,0-0.7
					c0.7-0.5,1.5-0.9,2.1-1.4c0-0.5,0-1-0.1-1.4c-0.7,0.5-1.4,1-2.1,1.4c0-0.6-0.1-1.2-0.1-1.8c0.8-0.5,1.6-1,2.4-1.6
					C245.7,121.6,245.6,121.1,245.6,120.6"/>
				<path class="st12" d="M247.7,123.5c0-0.9-0.1-1.8-0.2-2.8c0.2-0.2,0.5-0.4,0.7-0.6c1-0.8,0.9,0.9,0.9,1.1c0,1-0.5,1.5-0.7,1.6
					C248.2,123.1,248,123.3,247.7,123.5 M248,118.6c-0.5,0.5-1,0.9-1.6,1.4c0.3,1.8,0.4,3.6,0.4,5.3c0,0.9,0,1.7-0.1,2.5
					c0.3-0.2,0.6-0.5,0.9-0.8c0.1-0.7,0.1-1.4,0.1-2.1c0.3-0.2,0.5-0.4,0.7-0.7c0,0,0,0,0,0l0.6,1.5c0.3-0.3,0.5-0.6,0.8-0.9
					c-0.2-0.5-0.4-1.2-0.6-1.7c1.1-2.3,0.6-5.5-0.7-5C248.4,118.3,248.2,118.3,248,118.6"/>
			</g>
			<path class="st12" d="M198.8,91.9c0,1.2-0.9,2.1-2.1,2.1c-1.2,0-2.1-0.9-2.1-2.1c0-1.2,0.9-2.1,2.1-2.1
				C197.9,89.8,198.8,90.7,198.8,91.9z"/>
		</g>
		<g>
			<path class="st20" d="M248.6,233.5c-0.2-1-0.8-4.5-1.1-5.3c-0.1-1.5,0.2-4.9,0-5.9c-0.1-0.6-1.1-0.7-1.2-0.2
				c-0.1,0.4,0,3.6,0.2,6.2c0.1,0.4,1.2,4.4,1.4,5.3C247.9,233.7,248.9,235.5,248.6,233.5z"/>
			<path class="st21" d="M246.8,221.7c-0.3,0-0.7,0.3-0.7,0.9c0,0.6,0.3,5.1,0.3,5.3c0,0.2,0.9,0.2,1.1,0c0,0,0.1-5.4,0-5.7
				C247.4,221.8,247.2,221.6,246.8,221.7z"/>
			<g>
				<path class="st22" d="M250.5,236.3l-0.4-1.2c-0.2-0.7-0.8-1.1-1.5-1.3l0,0c-0.6-0.1-1.2,0.4-1,1l0.3,1.1"/>
				<polygon class="st23" points="252.4,236.5 246.8,235.2 248.3,238.4 252.1,239.3 253,238.3 				"/>
				<g>
					<polygon class="st24" points="253.1,240.6 251.8,236.7 251.8,237.1 252.8,241.5 					"/>
					<polygon class="st25" points="251.8,236.7 252.4,236.5 254.1,240.1 253.1,240.6 					"/>
					<polygon class="st24" points="246.2,235.9 247.8,236.6 247.3,235.8 					"/>
				</g>
				<polygon class="st25" points="251.8,237.1 252.8,241.5 247.2,240.2 246.2,235.9 				"/>
				<polygon class="st26" points="247.3,235.8 246.8,235.2 247.1,235.8 				"/>
				<path class="st27" d="M250.2,237l-0.3-1.4c-0.2-0.8-0.7-1.4-1.4-1.5l0,0c-0.6-0.1-1.2,0.4-1,1.1l0.3,1.2"/>
			</g>
			<path class="st28" d="M243.4,217.1c-0.3-0.7-0.7-0.6-1.1-0.6c-0.4,0.1-1.1,0.5-0.9,1.9c0.2,1.4,0.6,3,0.2,3.4
				c0.6,0,0.9-0.3,1.1-1.6C242.9,218.8,243.4,217.1,243.4,217.1z"/>
			<g>
				<path class="st29" d="M249.8,236.8v-1.3c0-0.7-0.4-1.3-1.1-1.7l0,0c-0.5-0.3-1.2,0.1-1.2,0.6v1.1"/>
				<polygon class="st30" points="251.6,237.5 246.6,234.6 247.1,238.2 250.5,240.1 251.6,239.5 				"/>
				<g>
					<polygon class="st31" points="251.1,245.1 251,237.6 250.8,238 250.5,245.9 					"/>
					<polygon class="st32" points="251,237.6 251.6,237.5 252.2,244.9 251.1,245.1 					"/>
					<polygon class="st31" points="245.8,235.1 247.1,236.2 246.9,235.3 					"/>
				</g>
				<polygon class="st32" points="250.8,238 250.5,245.9 245.5,243 245.8,235.1 				"/>
				<polygon class="st32" points="246.9,235.3 246.6,234.6 246.7,235.2 				"/>
				<path class="st33" d="M249.3,237.4l0.1-1.4c0.1-0.8-0.3-1.5-0.9-1.9l0,0c-0.5-0.3-1.2,0.1-1.3,0.7l-0.1,1.3"/>
			</g>
			<path class="st20" d="M248.6,233.7c-0.1,0-0.2,0.3-0.1,0.6c0.1,0.3-0.1-0.3-0.1-0.4s0-0.4,0-0.4l0.1-0.1
				C248.4,233.5,248.6,233.7,248.6,233.7z"/>
			<path class="st20" d="M241.9,236.9l0.1-0.3c0,0,0.4,0.2,0.3,0.6c0,0.1-0.1,0.2-0.1,0.2c0,0.3-0.2,0.3-0.2,0.3l-0.1-0.2
				c0,0,0-0.2,0.1-0.4C242,237,241.9,236.9,241.9,236.9z"/>
			<g>
				<path class="st34" d="M243.1,249.5c0.1-0.5,0.2-0.5,0.2-0.5c0.1,0,0.7,0.4,1.2,0.2c0,0,1.8,1.4,2.3,1.8c0.1,0.1,0.2,0.2,0.2,0.2
					l0,0v0.1l0,0c0,0.2-0.3,0.3-0.7,0.3c-0.7,0-1.6-0.6-2-0.9c-0.4-0.3-0.8-0.3-1.1-0.5C243.2,250.1,243.1,250,243.1,249.5z"/>
				<path class="st35" d="M244.6,249c0,0,1.8,1.4,2.3,1.8c0.4,0.4,0.2,0.6-0.5,0.6c-0.7,0-1.6-0.6-2-0.9c-0.4-0.3-0.8-0.3-1.1-0.5
					c-0.1-0.1-0.2-0.2-0.1-0.7c0.1-0.5,0.2-0.5,0.2-0.5C243.5,248.8,244.1,249.2,244.6,249z"/>
				<path class="st36" d="M245.1,250.4c0,0,0.3-0.4,0.8-0.4"/>
				<path class="st36" d="M244.9,250.2c0,0,0.3-0.4,0.8-0.4"/>
				<path class="st36" d="M244.7,250c0,0,0.3-0.4,0.8-0.4"/>
			</g>
			<g>
				<path class="st34" d="M241.6,243.5c0.3-0.4,0.4-0.4,0.4-0.4c0.1,0,0.5,0.7,1,0.7c0,0,1,2.1,1.3,2.7c0,0.1,0.1,0.2,0.1,0.3l0,0
					l-0.1,0.1l0,0c-0.1,0.1-0.3,0.1-0.7-0.1c-0.6-0.3-1.1-1.2-1.4-1.7c-0.2-0.5-0.6-0.7-0.8-1C241.4,244,241.3,243.9,241.6,243.5z"
					/>
				<path class="st35" d="M243.2,243.6c0,0,1,2.1,1.3,2.7c0.2,0.5-0.1,0.6-0.7,0.4c-0.6-0.3-1.1-1.2-1.4-1.7c-0.2-0.5-0.6-0.7-0.8-1
					c0-0.1-0.1-0.3,0.2-0.7c0.3-0.4,0.4-0.4,0.4-0.4C242.2,243,242.7,243.6,243.2,243.6z"/>
				<path class="st36" d="M243,245.1c0,0,0.5-0.2,0.9,0"/>
				<path class="st36" d="M242.9,244.9c0,0,0.5-0.2,0.9,0"/>
				<path class="st36" d="M242.8,244.6c0,0,0.5-0.2,0.9,0"/>
			</g>
			<path class="st37" d="M247,229.8c0.3,0,0.5,0.3,0.6,0.5c0.3,1.4,1.4,5.7,1.6,7.5c0.2,2.1-5.7,5.9-6,6c0,0-0.8,0.4-1-0.8
				c1.3-1.1,3.8-4.1,5-4.8c0,0-1.2-2-1.6-3.6c-0.4-1.6-0.5-3.9-0.5-3.9l0.7-1.1L247,229.8z"/>
			<path class="st38" d="M242.9,230.7c-1.5,0.9-0.3,4.4,1.2,8.9c-0.6,2.1,0.1,2.7-0.7,9.5c0.2,0.7,1.4,0.6,1.4,0
				c0,0,1.1-5.8,1.6-9.4c0.1-4.2,0-4.5-0.6-8.6C245.6,230.4,242.9,230.7,242.9,230.7z"/>
			<path class="st39" d="M244.2,222.3c-0.2,0.1-0.8,0.3-1.4,0.6c-0.5,0.3-0.9,0.8-0.9,1.5c0,1.7,1.4,3.2,0.9,6.4
				c0.5,0.6,1.7,0.8,2.5,0.7c1.5-0.1,2.2-1,1.9-2.2c0,0-0.3-2.7-0.1-3.5c0.5-0.1,1-0.8,0.3-2c0-0.4,0-1.8-1.1-2
				c-0.9,0.2-1.8,0.4-2.1,0.5C244.3,222.2,244.2,222.3,244.2,222.3z"/>
			<path class="st20" d="M245.9,222l0.6,2.4c0,0-2.1-1.3-2.4-2c0-0.7,0.2-1.5,0.2-1.5l-0.1-0.1l0.5,0.2L245.9,222z"/>
			<path class="st20" d="M246.9,219.4c0,0,0.1-1.9-1.5-2.3c-1.7-0.4-3.1,0.8-3,2c0.1,1.2,0.9,1.8,1.7,2.2c0.5,0.3,1,0.8,1.9,0.9
				c0.3,0,0.6-0.1,0.6-0.3C246.8,221.2,247.3,219.7,246.9,219.4z"/>
			<path class="st20" d="M242.1,236.4c0-1,0.1-5.6-0.1-6.4c0.1-1.5,1.1-4.8,1.1-5.8c0-0.6-1-0.9-1.1-0.4c-0.1,0.4-0.6,3.6-0.9,6.2
				c0,0.4,0.4,5.6,0.4,6.5C241.5,236.5,242.1,238.4,242.1,236.4z"/>
			<g>
				<path class="st40" d="M243.2,240v-1.3c0-0.7-0.4-1.3-1.1-1.7l0,0c-0.5-0.3-1.2,0.1-1.2,0.6v1.1"/>
				<polygon class="st41" points="245,240.7 240.1,237.8 240.6,241.4 243.9,243.3 245,242.7 				"/>
				<g>
					<polygon class="st42" points="244.5,248.3 244.4,240.8 244.3,241.2 243.9,249.1 					"/>
					<polygon class="st43" points="244.4,240.8 245,240.7 245.6,248.2 244.5,248.3 					"/>
					<polygon class="st42" points="239.3,238.3 240.6,239.5 240.3,238.5 					"/>
				</g>
				<polygon class="st43" points="244.3,241.2 243.9,249.1 238.9,246.2 239.3,238.3 				"/>
				<polygon class="st44" points="240.3,238.5 240.1,237.8 240.1,238.5 				"/>
				<path class="st45" d="M242.7,240.6l0.1-1.4c0.1-0.8-0.3-1.5-0.9-1.9l0,0c-0.5-0.3-1.2,0.1-1.3,0.7l-0.1,1.3"/>
			</g>
			<path class="st20" d="M242.1,236.8c0,0.2,0.1,0.7,0,0.9c-0.1,0.2-0.8-0.1-0.9-0.5c-0.1-0.3,0-0.8,0.2-0.8
				C241.7,236.4,242.1,236.6,242.1,236.8z"/>
			<path class="st28" d="M246.9,217.9c0.3,0.4-0.3,1.6-2.4,1c0,0-0.6,0.3-0.6,2.3c0,0.3-0.2,0-0.7-0.3c-0.7-0.4-1.2-2.2-0.6-3.2
				C243.2,216.7,245.4,215.9,246.9,217.9z"/>
			<path class="st20" d="M244.2,220.1c-0.2-0.4-0.7-0.4-0.6,0c0.1,0.4,0.3,0.7,0.5,0.6"/>
			<path class="st21" d="M242.7,223.5c0.3,0.1,0.7,0.4,0.5,1c-0.1,0.6-1,5-1,5.2c0,0.2-0.9,0.1-1.1-0.2c0,0,0.7-5.3,0.9-5.6
				C242.1,223.5,242.3,223.4,242.7,223.5z"/>
		</g>
		<g>
			<path class="st46" d="M197.5,311.8c0.2-1,0.8-4.3,1.1-5.2c0.1-1.5-0.2-4.8,0-5.7c0.1-0.6,1.1-0.7,1.1-0.1c0.1,0.4,0,3.5-0.2,6.1
				c-0.1,0.4-1.2,4.3-1.4,5.1C198.1,312,197.2,313.7,197.5,311.8z"/>
			<g>
				<path class="st47" d="M196.3,315v-1.2c0-0.7,0.4-1.3,1.1-1.6l0,0c0.5-0.3,1.2,0.1,1.2,0.6v1.1"/>
				<polygon class="st48" points="194.6,315.7 199.4,312.9 198.9,316.3 195.7,318.2 194.6,317.6 				"/>
				<g>
					<polygon class="st49" points="195.1,321.2 195.2,315.8 195.3,316.1 195.7,322 					"/>
					<polygon class="st50" points="195.2,315.8 194.6,315.7 194,321.1 195.1,321.2 					"/>
					<polygon class="st49" points="200.2,313.3 198.9,314.5 199.1,313.5 					"/>
				</g>
				<polygon class="st50" points="195.3,316.1 195.7,322 200.5,319.2 200.2,313.3 				"/>
				<polygon class="st50" points="199.1,313.5 199.4,312.9 199.3,313.5 				"/>
				<path class="st51" d="M196.8,315.6l-0.1-1.4c-0.1-0.8,0.3-1.5,0.9-1.8l0,0c0.5-0.3,1.2,0.1,1.3,0.7l0.1,1.2"/>
			</g>
			<path class="st46" d="M197.5,312c0.1,0,0.2,0.3,0.1,0.6c-0.1,0.3,0.1-0.3,0.1-0.4c0,0,0-0.4,0-0.4l-0.1-0.1
				C197.7,311.8,197.5,312,197.5,312z"/>
			<path class="st46" d="M204,315.1l-0.1-0.3c0,0-0.4,0.2-0.3,0.5c0,0.1,0.1,0.2,0.1,0.2c0,0.3,0.2,0.3,0.2,0.3l0.1-0.2
				c0,0,0-0.2-0.1-0.3C203.9,315.2,204,315.1,204,315.1z"/>
			<g>
				<path class="st52" d="M202.8,327.4c-0.1-0.5-0.1-0.5-0.2-0.5c-0.1,0-0.7,0.4-1.2,0.2c0,0-1.8,1.3-2.2,1.8
					c-0.1,0.1-0.1,0.2-0.2,0.2l0,0v0.1h0c0,0.2,0.3,0.2,0.7,0.3c0.7,0,1.5-0.6,1.9-0.9c0.4-0.3,0.8-0.3,1.1-0.5
					C202.8,328,202.9,327.9,202.8,327.4z"/>
				<path class="st53" d="M201.4,326.9c0,0-1.8,1.3-2.2,1.8c-0.4,0.4-0.2,0.6,0.5,0.6c0.7,0,1.5-0.6,1.9-0.9
					c0.4-0.3,0.8-0.3,1.1-0.5c0.1-0.1,0.2-0.2,0.1-0.7c-0.1-0.5-0.1-0.5-0.2-0.5C202.5,326.7,201.8,327.1,201.4,326.9z"/>
				<path class="st54" d="M200.9,328.2c0,0-0.3-0.4-0.8-0.4"/>
				<path class="st54" d="M201.1,328c0,0-0.3-0.4-0.8-0.4"/>
				<path class="st54" d="M201.3,327.9c0,0-0.3-0.4-0.8-0.4"/>
			</g>
			<g>
				<path class="st52" d="M204.3,321.5c-0.3-0.4-0.4-0.4-0.4-0.3c-0.1,0-0.5,0.6-1,0.7c0,0-1,2-1.2,2.6c0,0.1-0.1,0.2-0.1,0.3l0,0
					l0.1,0.1l0,0c0.1,0.1,0.3,0.1,0.7-0.1c0.6-0.3,1.1-1.2,1.3-1.7c0.2-0.4,0.6-0.6,0.8-0.9C204.5,322.1,204.6,321.9,204.3,321.5z"
					/>
				<path class="st53" d="M202.8,321.7c0,0-1,2-1.2,2.6c-0.2,0.5,0.1,0.6,0.7,0.4c0.6-0.3,1.1-1.2,1.3-1.7c0.2-0.4,0.6-0.6,0.8-0.9
					c0-0.1,0.1-0.2-0.2-0.7c-0.3-0.4-0.4-0.4-0.4-0.3C203.7,321,203.3,321.6,202.8,321.7z"/>
				<path class="st54" d="M202.9,323.1c0,0-0.5-0.2-0.9,0"/>
				<path class="st54" d="M203,322.9c0,0-0.5-0.2-0.9,0"/>
				<path class="st54" d="M203.2,322.6c0,0-0.5-0.2-0.9,0"/>
			</g>
			<path class="st55" d="M199,308.2c-0.3,0-0.5,0.2-0.5,0.5c-0.3,1.4-1.4,5.6-1.5,7.3c-0.2,2,5.6,5.8,5.9,5.8c0,0,0.8,0.4,1-0.8
				c-1.3-1.1-3.7-4-4.8-4.7c0,0,1.2-1.9,1.6-3.5c0.4-1.6,0.5-3.8,0.5-3.8l-0.6-1.1L199,308.2z"/>
			<path class="st56" d="M203.1,309.1c1.2,1.1,0.3,4.3-1.1,8.6c0.6,2-0.1,2.6,0.7,9.2c-0.2,0.7-1.3,0.6-1.4,0c0,0-1.1-5.7-1.5-9.2
				c-0.1-4,0-4.3,0.6-8.3C200.5,308.8,203.1,309.1,203.1,309.1z"/>
			<path class="st57" d="M201.8,300.9c0.2,0.1,0.8,0.3,1.3,0.5c0.5,0.3,0.8,0.8,0.8,1.4c0,1.7-1.4,3.1-0.9,6.2
				c-0.5,0.6-1.7,0.8-2.5,0.7c-1.4-0.1-2.2-1-1.9-2.1c0,0,0.3-2.7,0.1-3.4c-0.5-0.1-1-0.7-0.3-2c0-0.4,0-1.7,1.1-1.9
				c0.9,0.2,1.8,0.4,2,0.5C201.7,300.8,201.7,300.9,201.8,300.9z"/>
			<path class="st58" d="M200.1,300.7v0.6c0,0.5,0.5,0.8,0.9,0.5c0.3-0.2,0.6-0.4,0.8-0.7c0.3-0.7,0.2-1.6,0.2-1.6h-0.2l-0.5,0.2
				L200.1,300.7z"/>
			<path class="st59" d="M199.7,296.4c-1.2,0-0.5,3.3-0.9,3.6l0.7-0.3l0.8-2.9L199.7,296.4z"/>
			<path class="st46" d="M199.2,298.1c0,0-0.1-1.9,1.4-2.2c1.7-0.4,3,0.8,2.9,2c-0.1,1.2-0.9,1.8-1.6,2.2c-0.5,0.3-1,0.8-1.8,0.9
				c-0.3,0-0.6-0.1-0.6-0.3C199.2,299.9,198.8,298.4,199.2,298.1z"/>
			<path class="st59" d="M199.7,296c-0.1,0.1-0.2,0.3-0.1,0.4c0.4,1.2,2.2,1.6,2,2.5c0,0,0.2-0.2,0.4-0.2c0.2,0.1-0.4,2.1-0.3,2.9
				l1.6-0.9c0.1-0.3,1-2.3,0.1-4.3C203.1,295.8,201.3,294.7,199.7,296z"/>
			<path class="st46" d="M203.8,314.6c0-1-0.1-5.4,0.1-6.3c-0.1-1.5-1.1-4.7-1.1-5.6c0-0.6,0.9-0.9,1.1-0.4c0.1,0.4,0.6,3.5,0.9,6
				c0,0.4-0.4,5.4-0.4,6.3C204.4,314.7,203.9,316.5,203.8,314.6z"/>
			<g>
				<path class="st60" d="M202.7,318.1v-1.2c0-0.7,0.4-1.3,1.1-1.6l0,0c0.5-0.3,1.2,0.1,1.2,0.6v1.1"/>
				<polygon class="st61" points="201,318.8 205.8,316 205.3,319.5 202,321.4 201,320.7 				"/>
				<g>
					<polygon class="st62" points="201.5,326.2 201.6,318.9 201.7,319.3 202,327 					"/>
					<polygon class="st63" points="201.6,318.9 201,318.8 200.4,326.1 201.5,326.2 					"/>
					<polygon class="st62" points="206.6,316.4 205.3,317.6 205.5,316.7 					"/>
				</g>
				<polygon class="st63" points="201.7,319.3 202,327 206.9,324.2 206.6,316.4 				"/>
				<polygon class="st64" points="205.5,316.7 205.8,316 205.7,316.6 				"/>
				<path class="st65" d="M203.2,318.7l-0.1-1.4c-0.1-0.8,0.3-1.5,0.9-1.8l0,0c0.5-0.3,1.2,0.1,1.3,0.7l0.1,1.2"/>
			</g>
			<path class="st46" d="M203.8,315c0,0.2-0.1,0.7,0,0.9c0.1,0.2,0.8-0.1,0.8-0.4c0.1-0.3,0-0.7-0.2-0.8
				C204.2,314.7,203.8,314.8,203.8,315z"/>
		</g>
	</g>
</g>
</svg>
