<?xml version="1.0" encoding="utf-8"?>
<!-- Generator: Adobe Illustrator 24.2.1, SVG Export Plug-In . SVG Version: 6.00 Build 0)  -->
<svg version="1.1" xmlns="http://www.w3.org/2000/svg" xmlns:xlink="http://www.w3.org/1999/xlink" x="0px" y="0px"
	 viewBox="0 0 500 500" style="enable-background:new 0 0 500 500;" xml:space="preserve">
<style type="text/css">
	.st0{display:none;}
	.st1{display:inline;}
	.st2{fill:#FFFDF8;}
	.st3{enable-background:new    ;}
	.st4{fill:#DD3662;}
	.st5{fill:#FF4A8B;}
	.st6{fill:#FF9FB8;}
	.st7{opacity:0.5;}
	.st8{fill:#43C0FF;}
	.st9{fill:#23569E;}
	.st10{fill:#113B6D;}
	.st11{fill:#6B95E8;}
	.st12{fill:#E9F8FF;}
	.st13{fill:#9FC4FF;}
	.st14{fill:#C6C6C6;}
	.st15{fill:#B3E8F4;}
	.st16{fill:#DFF2F7;}
	.st17{fill:#EEFFFF;}
	.st18{fill:#6D6D6D;}
	.st19{fill:#9E9E9E;}
	.st20{fill:#565656;}
	.st21{fill:#4CC5D8;}
	.st22{fill:#828282;}
	.st23{fill:none;stroke:#F2F2F2;stroke-width:0.3227;stroke-linecap:round;stroke-linejoin:round;stroke-miterlimit:10;}
	.st24{fill:#7D7D7D;}
	.st25{fill:#666666;}
	.st26{fill:#FFCBAE;}
	.st27{fill:#783089;}
	.st28{fill:#FDFFF8;}
	.st29{fill:#EAB18B;}
	.st30{fill:#FFA727;}
	.st31{fill:#9242A5;}
	.st32{fill:#469191;}
	.st33{fill:#FFDEFA;}
	.st34{fill:#DD9E7A;}
	.st35{fill:#203751;}
	.st36{fill:#23A0B5;}
	.st37{fill:#FF7766;}
	.st38{fill:#A8531A;}
	.st39{fill:#CCCCCC;}
	.st40{fill:#FFEF5F;}
	.st41{fill:#FFC466;}
	.st42{fill:#FFD666;}
	.st43{fill:#BCAE88;}
	.st44{fill:#FFFFFF;}
	.st45{fill:#FFD9F0;}
	.st46{fill:#919191;}
	.st47{fill:#FFE1F0;}
	.st48{fill:#C1366F;}
	.st49{fill:#F2A0CD;}
	.st50{fill:#F7C4E0;}
	.st51{fill:#FFE6F2;}
	.st52{fill:#FFD2EA;}
	.st53{fill:#FFF8FB;}
	.st54{fill:#909090;}
	.st55{fill:#C8C8C8;}
	.st56{fill:#353535;}
	.st57{fill:#444443;}
	.st58{fill:#593D4C;}
	.st59{fill:#9A9A9A;}
</style>
<g id="BACKGROUND" class="st0">
	<g class="st1">
		<rect class="st2" width="500" height="500"/>
	</g>
</g>
<g id="OBJECTS">
	<g>
		<g>
			<g class="st3">
				<g>
					<polygon class="st4" points="330.8,278.9 330.8,282.8 406.9,327 406.9,323.2 					"/>
				</g>
				<g>
					<polygon class="st5" points="406.9,323.2 406.9,327 483.6,282.8 483.6,278.9 					"/>
				</g>
				<g>
					<polygon class="st6" points="330.8,278.9 406.9,323.2 483.6,278.9 407.4,234.6 					"/>
				</g>
			</g>
		</g>
		<g>
			<g>
				<g class="st7">
					<path class="st8" d="M377.1,176.1c-0.8-0.4-1.4-0.1-1.4,0.8l0,8.5c0,0.9,0.6,2,1.4,2.4l2.1,1.2l28.4,49.3
						c0.4,0.7,0.9,1.2,1.4,1.5c1,0.6,2,0.2,2-1.2l0-5.2c0-0.6-0.2-1.3-0.6-2L380.8,180C379.8,178.3,378.5,176.9,377.1,176.1z"/>
				</g>
				<g>
					<g class="st3">
						<path class="st9" d="M375.5,177.1c0-0.3,0.1-0.5,0.2-0.6c0.1-0.1,0.1-0.2,0.2-0.2l0.6-0.3c-0.2,0.1-0.4,0.4-0.4,0.9l0,8.5
							c0,0,0,0.1,0,0.1c0,0,0,0,0,0c0,0,0,0.1,0,0.1c0,0,0,0.1,0,0.1c0,0,0,0,0,0.1c0,0,0,0,0,0.1c0,0,0,0.1,0,0.1c0,0,0,0,0,0.1
							c0,0,0,0.1,0,0.1c0,0,0,0,0,0c0,0,0,0.1,0.1,0.1c0,0,0,0,0,0c0,0,0,0.1,0.1,0.1c0,0,0,0,0,0c0,0,0,0.1,0.1,0.1c0,0,0,0,0,0
							c0,0,0.1,0.1,0.1,0.1c0,0,0,0,0,0c0,0,0,0.1,0.1,0.1c0,0,0,0,0,0.1c0,0,0,0.1,0.1,0.1c0,0,0,0,0.1,0.1c0,0,0,0,0.1,0.1
							c0,0,0.1,0.1,0.1,0.1c0,0,0,0,0.1,0.1c0,0,0,0,0,0c0,0,0.1,0,0.1,0.1c0,0,0,0,0,0c0,0,0.1,0,0.1,0.1c0,0,0,0,0,0
							c0,0,0.1,0.1,0.1,0.1l2.2,1.3l28.4,49.3c0,0.1,0.1,0.2,0.1,0.2c0,0,0,0,0,0.1c0,0.1,0.1,0.1,0.1,0.2c0,0,0,0,0.1,0.1
							c0,0,0.1,0.1,0.1,0.1c0,0,0,0.1,0.1,0.1c0,0,0.1,0.1,0.1,0.1c0,0,0.1,0.1,0.1,0.1c0,0,0.1,0.1,0.1,0.1c0,0,0,0,0.1,0.1
							c0,0,0.1,0.1,0.1,0.1c0,0,0,0,0.1,0.1c0,0,0.1,0.1,0.1,0.1c0,0,0,0,0.1,0c0.1,0,0.1,0.1,0.2,0.1c0.1,0,0.1,0.1,0.2,0.1
							c0,0,0,0,0,0c0,0,0.1,0,0.1,0c0,0,0.1,0,0.1,0c0,0,0.1,0,0.1,0c0,0,0.1,0,0.1,0c0,0,0.1,0,0.1,0c0.1,0,0.1,0,0.2,0
							c0,0,0,0,0,0c0.1,0,0.1,0,0.2,0c0,0,0,0,0,0c0,0,0.1,0,0.1,0c0,0,0,0,0,0c0,0,0.1,0,0.1-0.1l0,0c0,0,0,0,0,0l-0.6,0.3
							c0,0,0,0,0,0c0,0-0.1,0-0.1,0c0,0,0,0,0,0c0,0,0,0,0,0c0,0,0,0,0,0c0,0-0.1,0-0.1,0c0,0,0,0,0,0c0,0,0,0,0,0c0,0-0.1,0-0.1,0
							c0,0,0,0,0,0c0,0,0,0,0,0c0,0,0,0-0.1,0c0,0-0.1,0-0.1,0c0,0,0,0-0.1,0c0,0,0,0-0.1,0c0,0-0.1,0-0.1,0c0,0,0,0,0,0
							c0,0,0,0,0,0c0,0-0.1,0-0.1,0c0,0,0,0,0,0c0,0,0,0-0.1,0c0,0,0,0,0,0c-0.1,0-0.1-0.1-0.2-0.1c-0.1,0-0.1-0.1-0.2-0.1
							c0,0,0,0-0.1,0c0,0-0.1-0.1-0.1-0.1c0,0,0,0-0.1-0.1c0,0-0.1-0.1-0.1-0.1c0,0,0,0-0.1-0.1c0,0,0,0,0,0c0,0,0,0,0,0
							c0,0-0.1-0.1-0.1-0.1c0,0,0,0,0,0c0,0,0,0,0,0c0,0,0-0.1-0.1-0.1c0,0,0,0-0.1-0.1c0,0,0,0,0-0.1c0,0,0,0-0.1-0.1
							c0,0,0,0,0-0.1c0,0,0-0.1-0.1-0.1c0,0,0,0,0-0.1c0,0,0,0,0,0c0-0.1-0.1-0.1-0.1-0.2c0,0,0,0,0,0L379,189.2l-2.2-1.3
							c0,0-0.1-0.1-0.1-0.1c0,0,0,0,0,0c0,0-0.1,0-0.1-0.1c0,0,0,0,0,0c0,0-0.1,0-0.1-0.1c0,0,0,0,0,0c0,0,0,0,0,0c0,0,0,0,0,0
							c0,0-0.1-0.1-0.1-0.1c0,0,0,0,0,0c0,0,0,0,0,0c0,0,0,0-0.1-0.1c0,0,0,0,0,0c0,0,0,0,0,0c0,0,0,0,0-0.1c0,0,0,0,0,0
							c0,0,0,0,0-0.1c0,0,0,0,0,0c0,0,0,0,0,0c0,0,0-0.1-0.1-0.1c0,0,0,0,0,0c0,0,0,0,0,0c0,0,0-0.1,0-0.1c0,0,0,0,0,0c0,0,0,0,0,0
							c0,0,0,0,0,0c0,0,0-0.1,0-0.1c0,0,0,0,0,0c0,0,0,0,0,0c0,0,0-0.1,0-0.1c0,0,0,0,0,0c0,0,0,0,0,0c0,0,0,0,0-0.1c0,0,0,0,0,0
							c0,0,0,0,0-0.1c0,0,0,0,0,0c0,0,0,0,0-0.1c0,0,0,0,0-0.1c0,0,0,0,0,0c0,0,0,0,0,0c0,0,0-0.1,0-0.1c0,0,0,0,0,0c0,0,0,0,0-0.1
							c0,0,0,0,0,0c0,0,0-0.1,0-0.1L375.5,177.1z"/>
						<path class="st9" d="M376.4,175.8C376.4,175.8,376.4,175.8,376.4,175.8C376.4,175.8,376.5,175.8,376.4,175.8
							C376.5,175.8,376.5,175.8,376.4,175.8c0.1,0,0.1-0.1,0.1-0.1c0,0,0,0,0,0c0,0,0,0,0,0c0,0,0,0,0,0c0,0,0,0,0,0
							c0,0,0.1,0,0.1,0c0,0,0,0,0,0c0,0,0,0,0,0c0,0,0,0,0.1,0c0,0,0,0,0,0c0,0,0,0,0,0c0,0,0,0,0,0c0,0,0,0,0,0c0,0,0,0,0.1,0
							c0,0,0,0,0,0c0,0,0,0,0,0c0,0,0.1,0,0.1,0c0,0,0,0,0,0c0,0,0,0,0,0c0,0,0,0,0,0c0,0,0.1,0,0.1,0.1c0.1,0,0.2,0.1,0.2,0.1
							c0,0,0.1,0,0.1,0.1c0.1,0,0.1,0.1,0.2,0.1c0,0,0.1,0,0.1,0.1c0,0,0.1,0.1,0.1,0.1c0,0,0.1,0,0.1,0.1c0,0,0.1,0.1,0.1,0.1
							c0,0,0.1,0,0.1,0.1c0.1,0,0.1,0.1,0.2,0.1c0,0,0.1,0,0.1,0.1c0.1,0.1,0.1,0.1,0.2,0.2c0,0,0,0,0.1,0.1
							c0.1,0.1,0.1,0.1,0.2,0.2c0,0,0,0,0,0c0.1,0.1,0.2,0.2,0.3,0.3c0,0,0,0.1,0.1,0.1c0.1,0.1,0.1,0.1,0.2,0.2c0,0,0,0,0,0
							c0,0,0,0,0,0c0.1,0.1,0.3,0.3,0.4,0.5c0,0,0,0,0,0c0,0,0,0,0,0c0.1,0.1,0.2,0.3,0.3,0.4c0,0,0,0,0,0c0,0,0,0,0,0
							c0.1,0.1,0.2,0.3,0.3,0.4c0,0,0,0,0,0c0,0,0,0,0,0.1c0.1,0.1,0.1,0.2,0.2,0.3c0,0,0,0,0,0.1c0,0,0,0,0,0.1l29.7,51.6
							c0,0,0.1,0.1,0.1,0.2c0,0,0,0,0,0.1c0,0,0,0,0,0.1c0,0,0,0,0,0c0,0.1,0.1,0.1,0.1,0.2c0,0,0,0,0,0c0,0,0,0,0,0
							c0,0.1,0,0.1,0.1,0.2c0,0,0,0,0,0c0,0,0,0,0,0.1c0,0,0,0,0,0.1c0,0,0,0.1,0,0.1c0,0,0,0.1,0,0.1c0,0,0,0,0,0c0,0,0,0.1,0,0.1
							c0,0,0,0.1,0,0.1c0,0,0,0,0,0c0,0,0,0,0,0.1c0,0.1,0,0.1,0,0.2c0,0,0,0,0,0c0,0,0,0.1,0,0.1c0,0,0,0,0,0.1c0,0.1,0,0.2,0,0.2
							l0,5.2c0,0.6-0.2,1.1-0.6,1.3l-0.6,0.3c0.4-0.2,0.6-0.7,0.6-1.3l0-5.2c0-0.1,0-0.1,0-0.2c0,0,0,0,0-0.1c0,0,0-0.1,0-0.1
							c0-0.1,0-0.1,0-0.2c0,0,0-0.1,0-0.1c0,0,0-0.1,0-0.1c0-0.1,0-0.1,0-0.2c0,0,0-0.1,0-0.1c0-0.1,0-0.1-0.1-0.2c0,0,0,0,0-0.1
							c0-0.1-0.1-0.1-0.1-0.2c0,0,0,0,0,0c0-0.1-0.1-0.2-0.1-0.2c0,0,0,0,0-0.1c0-0.1-0.1-0.1-0.1-0.2l-29.7-51.6
							c0,0-0.1-0.1-0.1-0.1c-0.1-0.1-0.1-0.2-0.2-0.3c0,0,0-0.1-0.1-0.1c-0.1-0.1-0.2-0.3-0.3-0.4c0,0,0,0,0,0
							c-0.1-0.1-0.2-0.3-0.3-0.4c0,0,0,0-0.1-0.1c-0.1-0.2-0.2-0.3-0.4-0.5c0,0,0-0.1-0.1-0.1c-0.1-0.1-0.1-0.1-0.2-0.2
							c0,0,0-0.1-0.1-0.1c-0.1-0.1-0.2-0.2-0.3-0.3c-0.1-0.1-0.2-0.1-0.2-0.2c0,0,0,0-0.1-0.1c-0.1-0.1-0.1-0.1-0.2-0.2
							c0,0-0.1,0-0.1-0.1c0,0-0.1-0.1-0.2-0.1c0,0-0.1,0-0.1-0.1c0,0-0.1-0.1-0.1-0.1c0,0-0.1,0-0.1-0.1c0,0-0.1-0.1-0.1-0.1
							c0,0-0.1,0-0.1-0.1c-0.1,0-0.1-0.1-0.2-0.1c0,0-0.1,0-0.1-0.1c-0.1-0.1-0.2-0.1-0.2-0.1c0,0-0.1,0-0.1-0.1c0,0,0,0,0,0
							c0,0,0,0-0.1,0c0,0-0.1,0-0.1,0c0,0,0,0-0.1,0c0,0,0,0-0.1,0c0,0-0.1,0-0.1,0c0,0,0,0,0,0c0,0-0.1,0-0.1,0c0,0,0,0,0,0
							c0,0-0.1,0-0.1,0c0,0,0,0,0,0c0,0-0.1,0-0.1,0c0,0,0,0,0,0c0,0-0.1,0-0.1,0L376.4,175.8z"/>
						<g>
							<path class="st10" d="M380.6,180.1l29.7,51.6c0.4,0.7,0.6,1.4,0.6,2l0,5.2c0,1-0.5,1.5-1.3,1.5c-0.3,0-0.5-0.1-0.8-0.3
								c-0.5-0.3-1.1-0.9-1.5-1.6L379,189.4l-2.1-1.2c-0.8-0.5-1.5-1.6-1.5-2.5l0-8.5c0-0.9,0.7-1.3,1.5-0.8
								C378.2,177,379.6,178.5,380.6,180.1z M375.5,185.7c0,0.9,0.6,1.9,1.3,2.3l2.2,1.3l28.4,49.3c0.4,0.7,0.9,1.2,1.4,1.5
								c0.3,0.1,0.5,0.2,0.8,0.3c0.8,0.1,1.2-0.5,1.2-1.4l0-5.2c0-0.6-0.2-1.3-0.6-1.9l-29.7-51.6c-0.9-1.6-2.3-3-3.6-3.8
								c-0.7-0.4-1.3-0.1-1.3,0.8L375.5,185.7"/>
						</g>
					</g>
				</g>
			</g>
			<g>
				<g class="st3">
					<g>
						<polygon class="st11" points="367.2,192.1 378.3,185.6 378.4,181.5 367.3,188 						"/>
					</g>
					<g>
						<polygon class="st12" points="367.3,188 378.4,181.5 374.8,179.5 363.7,185.9 						"/>
					</g>
					<g>
						<polygon class="st13" points="363.7,185.9 363.7,190 367.2,192.1 367.3,188 						"/>
					</g>
				</g>
				<g class="st3">
					<g>
						<polygon class="st11" points="370.8,198.2 381.9,191.8 381.9,187.7 370.8,194.1 						"/>
					</g>
					<g>
						<polygon class="st12" points="370.8,194.1 381.9,187.7 378.3,185.6 367.2,192.1 						"/>
					</g>
					<g>
						<polygon class="st13" points="367.2,192.1 367.2,196.2 370.8,198.2 370.8,194.1 						"/>
					</g>
				</g>
				<g class="st3">
					<g>
						<polygon class="st11" points="374.3,204.3 385.4,197.9 385.4,193.8 374.3,200.3 						"/>
					</g>
					<g>
						<polygon class="st12" points="374.3,200.3 385.4,193.8 381.9,191.8 370.8,198.2 						"/>
					</g>
					<g>
						<polygon class="st13" points="370.8,198.2 370.8,202.3 374.3,204.3 374.3,200.3 						"/>
					</g>
				</g>
				<g class="st3">
					<g>
						<polygon class="st11" points="384.9,222.8 396,216.3 396,212.3 384.9,218.7 						"/>
					</g>
					<g>
						<polygon class="st13" points="381.4,216.7 381.4,220.7 384.9,222.8 384.9,218.7 						"/>
					</g>
					<g>
						<polygon class="st12" points="384.9,218.7 396,212.3 392.5,210.2 381.4,216.7 						"/>
					</g>
					<g>
						<polygon class="st13" points="377.8,210.5 377.8,214.6 381.4,216.6 381.4,212.6 						"/>
					</g>
					<g>
						<polygon class="st11" points="381.4,216.6 392.5,210.2 392.5,206.1 381.4,212.6 						"/>
					</g>
					<g>
						<polygon class="st12" points="381.4,212.6 392.5,206.1 388.9,204.1 377.8,210.5 						"/>
					</g>
					<g>
						<polygon class="st11" points="377.8,210.5 388.9,204 388.9,200 377.9,206.4 						"/>
					</g>
					<g>
						<polygon class="st13" points="374.3,204.4 374.3,208.4 377.8,210.5 377.9,206.4 						"/>
					</g>
					<g>
						<polygon class="st12" points="377.9,206.4 388.9,200 385.4,197.9 374.3,204.4 						"/>
					</g>
				</g>
				<g class="st3">
					<g>
						<polygon class="st11" points="392,235.1 403.1,228.6 403.1,224.5 392,231 						"/>
					</g>
					<g>
						<polygon class="st12" points="392,231 403.1,224.5 399.5,222.5 388.4,228.9 						"/>
					</g>
					<g>
						<polygon class="st13" points="388.4,228.9 388.4,233 392,235.1 392,231 						"/>
					</g>
				</g>
				<g class="st3">
					<g>
						<polygon class="st11" points="388.4,228.9 399.5,222.5 399.5,218.4 388.5,224.8 						"/>
					</g>
					<g>
						<polygon class="st12" points="388.5,224.8 399.5,218.4 396,216.4 384.9,222.8 						"/>
					</g>
					<g>
						<polygon class="st13" points="384.9,222.8 384.9,226.9 388.4,228.9 388.5,224.8 						"/>
					</g>
				</g>
				<g class="st3">
					<g>
						<polygon class="st11" points="399,247.3 410.1,240.9 410.1,236.8 399.1,243.3 						"/>
					</g>
					<g>
						<polygon class="st12" points="399.1,243.3 410.1,236.8 406.6,234.8 395.5,241.2 						"/>
					</g>
					<g>
						<polygon class="st13" points="395.5,241.2 395.5,245.3 399,247.3 399.1,243.3 						"/>
					</g>
				</g>
				<g class="st3">
					<g>
						<polygon class="st11" points="395.5,241.2 406.6,234.8 406.6,230.7 395.5,237.1 						"/>
					</g>
					<g>
						<polygon class="st12" points="395.5,237.1 406.6,230.7 403.1,228.6 392,235.1 						"/>
					</g>
					<g>
						<polygon class="st13" points="392,235.1 392,239.2 395.5,241.2 395.5,237.1 						"/>
					</g>
				</g>
			</g>
			<g>
				<g class="st7">
					<path class="st8" d="M365.6,182.8c-0.8-0.4-1.4-0.1-1.4,0.8l0,8.5c0,0.9,0.6,2,1.4,2.4l2.1,1.2l28.4,49.3
						c0.4,0.7,0.9,1.2,1.4,1.5c1,0.6,2,0.2,2-1.2l0-5.2c0-0.6-0.2-1.3-0.6-2l-29.7-51.6C368.3,185,367,183.6,365.6,182.8z"/>
				</g>
				<g>
					<g class="st3">
						<path class="st9" d="M364,183.8c0-0.3,0.1-0.5,0.2-0.6c0.1-0.1,0.1-0.2,0.2-0.2l0.6-0.3c-0.2,0.1-0.4,0.4-0.4,0.9l0,8.5
							c0,0,0,0.1,0,0.1c0,0,0,0,0,0c0,0,0,0.1,0,0.1c0,0,0,0.1,0,0.1c0,0,0,0,0,0.1c0,0,0,0,0,0.1c0,0,0,0.1,0,0.1c0,0,0,0,0,0.1
							c0,0,0,0.1,0,0.1c0,0,0,0,0,0c0,0,0,0.1,0.1,0.1c0,0,0,0,0,0c0,0,0,0.1,0.1,0.1c0,0,0,0,0,0c0,0,0,0.1,0.1,0.1c0,0,0,0,0,0
							c0,0,0.1,0.1,0.1,0.1c0,0,0,0,0,0c0,0,0,0.1,0.1,0.1c0,0,0,0,0,0.1c0,0,0,0.1,0.1,0.1c0,0,0,0,0.1,0.1c0,0,0,0,0.1,0.1
							c0,0,0.1,0.1,0.1,0.1c0,0,0,0,0.1,0.1c0,0,0,0,0,0c0,0,0.1,0,0.1,0.1c0,0,0,0,0,0c0,0,0.1,0,0.1,0.1c0,0,0,0,0,0
							c0,0,0.1,0.1,0.1,0.1l2.2,1.3l28.4,49.3c0,0.1,0.1,0.2,0.1,0.2c0,0,0,0,0,0.1c0,0.1,0.1,0.1,0.1,0.2c0,0,0,0,0.1,0.1
							c0,0,0.1,0.1,0.1,0.1c0,0,0,0.1,0.1,0.1c0,0,0,0.1,0.1,0.1c0,0,0.1,0.1,0.1,0.1c0,0,0.1,0.1,0.1,0.1c0,0,0,0,0.1,0.1
							c0,0,0.1,0.1,0.1,0.1c0,0,0,0,0.1,0.1c0,0,0.1,0.1,0.1,0.1c0,0,0,0,0.1,0c0.1,0,0.1,0.1,0.2,0.1c0.1,0,0.1,0.1,0.2,0.1
							c0,0,0,0,0,0c0,0,0.1,0,0.1,0c0,0,0.1,0,0.1,0c0,0,0.1,0,0.1,0c0,0,0.1,0,0.1,0c0,0,0.1,0,0.1,0c0.1,0,0.1,0,0.2,0
							c0,0,0,0,0,0c0.1,0,0.1,0,0.2,0c0,0,0,0,0,0c0,0,0.1,0,0.1,0c0,0,0,0,0,0c0,0,0.1,0,0.1-0.1c0,0,0,0,0,0l0,0l-0.6,0.3
							c0,0,0,0,0,0c0,0-0.1,0-0.1,0c0,0,0,0,0,0c0,0,0,0,0,0c0,0,0,0,0,0c0,0,0,0-0.1,0c0,0,0,0,0,0c0,0,0,0,0,0c0,0-0.1,0-0.1,0
							c0,0,0,0,0,0c0,0,0,0,0,0c0,0,0,0-0.1,0c0,0-0.1,0-0.1,0c0,0,0,0-0.1,0c0,0,0,0-0.1,0c0,0-0.1,0-0.1,0c0,0,0,0,0,0
							c0,0,0,0,0,0c0,0-0.1,0-0.1,0c0,0,0,0,0,0c0,0,0,0-0.1,0c0,0,0,0,0,0c-0.1,0-0.1-0.1-0.2-0.1c-0.1,0-0.1-0.1-0.2-0.1
							c0,0,0,0-0.1,0c0,0-0.1-0.1-0.1-0.1c0,0,0,0-0.1-0.1c0,0-0.1-0.1-0.1-0.1c0,0,0,0-0.1-0.1c0,0,0,0,0,0c0,0,0,0,0,0
							c0,0-0.1-0.1-0.1-0.1c0,0,0,0,0,0c0,0,0,0,0,0c0,0,0-0.1-0.1-0.1c0,0,0,0-0.1-0.1c0,0,0,0,0-0.1c0,0,0,0-0.1-0.1
							c0,0,0,0,0-0.1c0,0,0-0.1-0.1-0.1c0,0,0,0,0-0.1c0,0,0,0,0,0c0-0.1-0.1-0.1-0.1-0.2c0,0,0,0,0,0l-28.4-49.3l-2.2-1.3
							c0,0-0.1-0.1-0.1-0.1c0,0,0,0,0,0c0,0-0.1,0-0.1-0.1c0,0,0,0,0,0c0,0-0.1,0-0.1-0.1c0,0,0,0,0,0c0,0,0,0,0,0c0,0,0,0,0,0
							c0,0-0.1-0.1-0.1-0.1c0,0,0,0,0,0c0,0,0,0,0,0c0,0,0,0-0.1-0.1c0,0,0,0,0,0c0,0,0,0,0,0c0,0,0,0,0-0.1c0,0,0,0,0,0
							c0,0,0,0,0-0.1c0,0,0,0,0,0c0,0,0,0,0,0c0,0,0-0.1-0.1-0.1c0,0,0,0,0,0c0,0,0,0,0,0c0,0,0-0.1,0-0.1c0,0,0,0,0,0c0,0,0,0,0,0
							c0,0,0,0,0,0c0,0,0-0.1,0-0.1c0,0,0,0,0,0c0,0,0,0,0,0c0,0,0-0.1,0-0.1c0,0,0,0,0,0c0,0,0,0,0,0c0,0,0,0,0-0.1c0,0,0,0,0,0
							c0,0,0,0,0-0.1c0,0,0,0,0,0c0,0,0,0,0-0.1c0,0,0,0,0-0.1c0,0,0,0,0,0c0,0,0,0,0,0c0,0,0-0.1,0-0.1c0,0,0,0,0,0c0,0,0,0,0-0.1
							c0,0,0,0,0,0c0-0.1,0-0.1,0-0.1L364,183.8z"/>
						<path class="st9" d="M364.9,182.5C364.9,182.5,364.9,182.5,364.9,182.5C364.9,182.5,364.9,182.5,364.9,182.5
							C365,182.5,365,182.5,364.9,182.5c0.1,0,0.1-0.1,0.1-0.1c0,0,0,0,0,0c0,0,0,0,0,0c0,0,0,0,0,0c0,0,0,0,0,0c0,0,0.1,0,0.1,0
							c0,0,0,0,0,0c0,0,0,0,0,0c0,0,0,0,0.1,0c0,0,0,0,0,0c0,0,0,0,0,0c0,0,0,0,0,0c0,0,0,0,0,0c0,0,0,0,0.1,0c0,0,0,0,0,0
							c0,0,0,0,0,0c0,0,0.1,0,0.1,0c0,0,0,0,0,0c0,0,0,0,0,0c0,0,0,0,0,0c0,0,0.1,0,0.1,0.1c0.1,0,0.2,0.1,0.2,0.1
							c0,0,0.1,0,0.1,0.1c0.1,0,0.1,0.1,0.2,0.1c0,0,0.1,0,0.1,0.1c0,0,0.1,0.1,0.1,0.1c0,0,0.1,0,0.1,0.1c0,0,0.1,0.1,0.1,0.1
							c0,0,0.1,0,0.1,0.1c0.1,0,0.1,0.1,0.2,0.1c0,0,0.1,0,0.1,0.1c0.1,0.1,0.1,0.1,0.2,0.2c0,0,0,0,0.1,0.1
							c0.1,0.1,0.1,0.1,0.2,0.2c0,0,0,0,0,0c0.1,0.1,0.2,0.2,0.3,0.3c0,0,0,0.1,0.1,0.1c0.1,0.1,0.1,0.1,0.2,0.2c0,0,0,0,0,0
							c0,0,0,0,0,0c0.1,0.1,0.3,0.3,0.4,0.5c0,0,0,0,0,0c0,0,0,0,0,0c0.1,0.1,0.2,0.3,0.3,0.4c0,0,0,0,0,0c0,0,0,0,0,0
							c0.1,0.1,0.2,0.3,0.3,0.4c0,0,0,0,0,0c0,0,0,0,0,0.1c0.1,0.1,0.1,0.2,0.2,0.3c0,0,0,0,0,0.1c0,0,0,0,0,0.1l29.7,51.6
							c0,0.1,0.1,0.1,0.1,0.2c0,0,0,0,0,0.1c0,0,0,0,0,0.1c0,0,0,0,0,0c0,0.1,0.1,0.1,0.1,0.2c0,0,0,0,0,0c0,0,0,0,0,0
							c0,0.1,0,0.1,0.1,0.2c0,0,0,0,0,0c0,0,0,0,0,0.1c0,0,0,0,0,0.1c0,0,0,0.1,0,0.1c0,0,0,0.1,0,0.1c0,0,0,0,0,0c0,0,0,0.1,0,0.1
							c0,0,0,0.1,0,0.1c0,0,0,0,0,0c0,0,0,0,0,0.1c0,0.1,0,0.1,0,0.2c0,0,0,0,0,0c0,0,0,0.1,0,0.1c0,0,0,0,0,0.1c0,0.1,0,0.2,0,0.2
							l0,5.2c0,0.6-0.2,1.1-0.6,1.3l-0.6,0.3c0.4-0.2,0.6-0.7,0.6-1.3l0-5.2c0-0.1,0-0.1,0-0.2c0,0,0,0,0-0.1c0,0,0-0.1,0-0.1
							c0-0.1,0-0.1,0-0.2c0,0,0-0.1,0-0.1c0,0,0-0.1,0-0.1c0-0.1,0-0.1,0-0.2c0,0,0-0.1,0-0.1c0-0.1,0-0.1-0.1-0.2c0,0,0,0,0-0.1
							c0-0.1-0.1-0.1-0.1-0.2c0,0,0,0,0,0c0-0.1-0.1-0.2-0.1-0.2c0,0,0,0,0-0.1c0-0.1-0.1-0.1-0.1-0.2L369,186.8
							c0,0-0.1-0.1-0.1-0.1c-0.1-0.1-0.1-0.2-0.2-0.3c0,0,0-0.1-0.1-0.1c-0.1-0.1-0.2-0.3-0.3-0.4c0,0,0,0,0,0
							c-0.1-0.1-0.2-0.3-0.3-0.4c0,0,0,0-0.1-0.1c-0.1-0.2-0.2-0.3-0.4-0.5c0,0,0-0.1-0.1-0.1c-0.1-0.1-0.1-0.1-0.2-0.2
							c0,0,0-0.1-0.1-0.1c-0.1-0.1-0.2-0.2-0.3-0.3c-0.1-0.1-0.2-0.1-0.2-0.2c0,0,0,0-0.1-0.1c-0.1-0.1-0.1-0.1-0.2-0.2
							c0,0-0.1,0-0.1-0.1c-0.1,0-0.1-0.1-0.2-0.1c0,0-0.1-0.1-0.1-0.1c0,0-0.1-0.1-0.1-0.1c0,0-0.1,0-0.1-0.1c0,0-0.1-0.1-0.1-0.1
							c0,0-0.1,0-0.1-0.1c-0.1,0-0.1-0.1-0.2-0.1c0,0-0.1,0-0.1-0.1c-0.1-0.1-0.2-0.1-0.2-0.1c0,0-0.1,0-0.1-0.1c0,0,0,0,0,0
							c0,0,0,0-0.1,0c0,0-0.1,0-0.1,0c0,0,0,0-0.1,0c0,0,0,0-0.1,0c0,0-0.1,0-0.1,0c0,0,0,0,0,0c0,0-0.1,0-0.1,0c0,0,0,0,0,0
							c0,0-0.1,0-0.1,0c0,0,0,0,0,0c0,0-0.1,0-0.1,0c0,0,0,0,0,0c0,0-0.1,0-0.1,0L364.9,182.5z"/>
						<g>
							<path class="st10" d="M369,186.8l29.7,51.6c0.4,0.7,0.6,1.4,0.6,2l0,5.2c0,1-0.5,1.5-1.3,1.5c-0.3,0-0.5-0.1-0.8-0.3
								c-0.5-0.3-1.1-0.9-1.5-1.6l-28.3-49.3l-2.1-1.2c-0.8-0.5-1.5-1.6-1.5-2.5l0-8.5c0-0.9,0.7-1.3,1.5-0.8
								C366.7,183.7,368.1,185.2,369,186.8z M364,192.4c0,0.9,0.6,1.9,1.3,2.3l2.2,1.3l28.4,49.3c0.4,0.7,0.9,1.2,1.4,1.5
								c0.3,0.1,0.5,0.2,0.8,0.3c0.8,0.1,1.2-0.5,1.2-1.4l0-5.2c0-0.6-0.2-1.3-0.6-1.9L369,186.9c-0.9-1.6-2.3-3-3.6-3.8
								c-0.7-0.4-1.3-0.1-1.3,0.8L364,192.4"/>
						</g>
					</g>
				</g>
			</g>
		</g>
		<g>
			<g>
				<polygon class="st14" points="391.7,231.5 381,236.1 391.7,242.3 401,236.9 				"/>
				<polygon class="st15" points="391.7,242.3 391.7,256.6 381,250.5 381,236.1 				"/>
				<polygon class="st16" points="391.7,242.3 391.7,256.6 401,251.2 401,236.9 				"/>
			</g>
			<g>
				<polygon class="st17" points="390.3,229.7 381,235.1 391.7,241.2 401,235.9 				"/>
				<polygon class="st18" points="391.7,241.2 391.7,242.3 381,236.1 381,235.1 				"/>
				<polygon class="st19" points="391.7,241.2 391.7,242.3 401,236.9 401,235.9 				"/>
			</g>
			<polygon class="st20" points="392.6,245.3 392.6,252.2 400.1,247.9 400.1,241 			"/>
			<g>
				<g>
					<polygon class="st21" points="391.7,244.6 401,239.2 401,239.1 391.7,244.5 					"/>
				</g>
			</g>
			<g>
				<g>
					<polygon class="st21" points="391.7,254 401,248.6 401,248.5 391.7,253.9 					"/>
				</g>
			</g>
			<g>
				<polygon class="st21" points="393.5,245.7 393.5,250.7 399.1,247.5 399.1,242.5 				"/>
				<g>
					<g>
						<polygon class="st20" points="393.5,250.4 399.1,247.1 399.1,247.1 393.5,250.3 						"/>
					</g>
				</g>
				<g>
					<g>
						<polygon class="st20" points="393.5,249.9 399.1,246.6 399.1,246.6 393.5,249.9 						"/>
					</g>
				</g>
				<g>
					<g>
						<polygon class="st20" points="393.5,249.4 399.1,246.2 399.1,246.1 393.5,249.4 						"/>
					</g>
				</g>
				<g>
					<g>
						<polygon class="st20" points="393.5,249 399.1,245.7 399.1,245.7 393.5,248.9 						"/>
					</g>
				</g>
				<g>
					<g>
						<polygon class="st20" points="393.5,248.5 399.1,245.2 399.1,245.2 393.5,248.4 						"/>
					</g>
				</g>
				<g>
					<g>
						<polygon class="st20" points="393.5,248 399.1,244.7 399.1,244.7 393.5,248 						"/>
					</g>
				</g>
				<g>
					<g>
						<polygon class="st20" points="393.5,247.5 399.1,244.3 399.1,244.2 393.5,247.5 						"/>
					</g>
				</g>
				<g>
					<g>
						<polygon class="st20" points="393.5,247.1 399.1,243.8 399.1,243.7 393.5,247 						"/>
					</g>
				</g>
				<g>
					<g>
						<polygon class="st20" points="393.5,246.6 399.1,243.3 399.1,243.3 393.5,246.5 						"/>
					</g>
				</g>
				<g>
					<g>
						<polygon class="st20" points="393.5,246.1 399.1,242.8 399.1,242.8 393.5,246.1 						"/>
					</g>
				</g>
			</g>
			<g>
				<g>
					<ellipse class="st18" cx="391.9" cy="233.4" rx="2" ry="1.4"/>
					<g>
						<path class="st22" d="M390.4,233.3c0-0.6,0.7-1.1,1.5-1.1c0.9,0,1.5,0.5,1.5,1.1c0,0.6-0.7,1.1-1.5,1.1
							C391,234.4,390.4,233.9,390.4,233.3z M390.5,233.3c0,0.5,0.6,1,1.4,1c0.8,0,1.4-0.4,1.4-1c0-0.5-0.6-1-1.4-1
							C391.1,232.3,390.5,232.8,390.5,233.3z"/>
					</g>
				</g>
				<g>
					<path class="st18" d="M385.5,235.8c0,0.8,0.9,1.4,2,1.4s2-0.6,2-1.4c0-0.8-0.9-1.4-2-1.4S385.5,235.1,385.5,235.8z"/>
					<g>
						<path class="st22" d="M386,235.8c0-0.6,0.7-1.1,1.5-1.1c0.9,0,1.5,0.5,1.5,1.1c0,0.6-0.7,1.1-1.5,1.1
							C386.7,236.9,386,236.4,386,235.8z M386.1,235.8c0,0.5,0.6,1,1.4,1c0.8,0,1.4-0.4,1.4-1c0-0.5-0.6-1-1.4-1
							C386.7,234.8,386.1,235.3,386.1,235.8z"/>
					</g>
				</g>
				<g>
					<path class="st18" d="M389.5,238.1c0,0.8,0.9,1.4,2,1.4c1.1,0,2-0.6,2-1.4c0-0.8-0.9-1.4-2-1.4
						C390.4,236.7,389.5,237.3,389.5,238.1z"/>
					<g>
						<path class="st22" d="M390,238.1c0-0.6,0.7-1.1,1.5-1.1c0.9,0,1.5,0.5,1.5,1.1c0,0.6-0.7,1.1-1.5,1.1
							C390.7,239.2,390,238.7,390,238.1z M390.1,238.1c0,0.5,0.6,1,1.4,1c0.8,0,1.4-0.4,1.4-1c0-0.5-0.6-1-1.4-1
							C390.7,237.1,390.1,237.5,390.1,238.1z"/>
					</g>
				</g>
				<g>
					<path class="st18" d="M393.9,235.7c0,0.8,0.9,1.4,2,1.4c1.1,0,2-0.6,2-1.4c0-0.8-0.9-1.4-2-1.4
						C394.8,234.3,393.9,234.9,393.9,235.7z"/>
					<g>
						<path class="st22" d="M394.4,235.6c0-0.6,0.7-1.1,1.5-1.1c0.9,0,1.5,0.5,1.5,1.1c0,0.6-0.7,1.1-1.5,1.1
							C395,236.7,394.4,236.2,394.4,235.6z M394.5,235.6c0,0.5,0.6,1,1.4,1c0.8,0,1.4-0.4,1.4-1c0-0.5-0.6-1-1.4-1
							C395.1,234.6,394.5,235.1,394.5,235.6z"/>
					</g>
				</g>
			</g>
			<path class="st23" d="M398.3,241.3l0.4,0.2c0,0-1.2,1.6-3.9,2.3l-0.4-0.2"/>
			<g>
				<g>
					<path class="st24" d="M399.3,238.6c0.2-0.3,0.5-0.4,0.6-0.3l0.3,0.2l-0.6,1l-0.3-0.2C399.1,239.2,399.1,238.9,399.3,238.6z"/>
					<path class="st25" d="M400.2,239.1c-0.2,0.3-0.5,0.4-0.6,0.3c-0.2-0.1-0.2-0.4,0-0.7c0.2-0.3,0.5-0.4,0.6-0.3
						C400.4,238.5,400.4,238.9,400.2,239.1z"/>
				</g>
				<g>
					<path class="st24" d="M397.7,239.5c0.2-0.3,0.5-0.4,0.6-0.3l0.3,0.2l-0.6,1l-0.3-0.2C397.5,240.1,397.5,239.8,397.7,239.5z"/>
					<path class="st25" d="M398.6,240.1c-0.2,0.3-0.5,0.4-0.6,0.3c-0.2-0.1-0.2-0.4,0-0.7s0.5-0.4,0.6-0.3
						C398.8,239.5,398.8,239.8,398.6,240.1z"/>
				</g>
				<g>
					<path class="st24" d="M396,240.5c0.2-0.3,0.5-0.4,0.6-0.3l0.3,0.2l-0.6,1l-0.3-0.2C395.9,241.1,395.9,240.8,396,240.5z"/>
					<path class="st25" d="M397,241c-0.2,0.3-0.5,0.4-0.6,0.3c-0.2-0.1-0.2-0.4,0-0.7c0.2-0.3,0.5-0.4,0.6-0.3
						C397.1,240.4,397.1,240.7,397,241z"/>
				</g>
				<g>
					<path class="st24" d="M394.4,241.4c0.2-0.3,0.5-0.4,0.6-0.3l0.3,0.2l-0.6,1l-0.3-0.2C394.3,242,394.2,241.7,394.4,241.4z"/>
					<path class="st25" d="M395.3,242c-0.2,0.3-0.5,0.4-0.6,0.3c-0.2-0.1-0.2-0.4,0-0.7c0.2-0.3,0.5-0.4,0.6-0.3
						C395.5,241.4,395.5,241.7,395.3,242z"/>
				</g>
				<g>
					<path class="st24" d="M392.8,242.4c0.2-0.3,0.5-0.4,0.6-0.3l0.3,0.2l-0.6,1l-0.3-0.2C392.6,243,392.6,242.6,392.8,242.4z"/>
					<path class="st25" d="M393.7,242.9c-0.2,0.3-0.5,0.4-0.6,0.3c-0.2-0.1-0.2-0.4,0-0.7c0.2-0.3,0.5-0.4,0.6-0.3
						C393.9,242.3,393.9,242.6,393.7,242.9z"/>
				</g>
			</g>
			<g>
				<polygon class="st17" points="390.4,226.9 381.1,232.3 381.9,232.7 391.2,227.4 				"/>
				<polygon class="st15" points="381.9,232.7 382.4,235.8 381.1,235.1 381.1,232.3 				"/>
				<polygon class="st16" points="381.9,232.7 382.4,235.8 391.7,230.5 391.2,227.4 				"/>
				<polygon class="st18" points="385.5,231.9 385.6,232.7 388.1,231.3 388,230.5 				"/>
			</g>
		</g>
		<g>
			<g>
				<polygon class="st14" points="381,237.9 370.4,242.5 381,248.6 390.3,243.2 				"/>
				<polygon class="st15" points="381,248.6 381,263 370.4,256.8 370.4,242.5 				"/>
				<polygon class="st16" points="381,248.6 381,263 390.3,257.6 390.3,243.2 				"/>
			</g>
			<g>
				<polygon class="st17" points="379.7,236.1 370.4,241.4 381,247.6 390.3,242.2 				"/>
				<polygon class="st18" points="381,247.6 381,248.6 370.4,242.5 370.4,241.4 				"/>
				<polygon class="st19" points="381,247.6 381,248.6 390.3,243.2 390.3,242.2 				"/>
			</g>
			<polygon class="st20" points="381.9,251.7 381.9,258.5 389.4,254.2 389.4,247.3 			"/>
			<g>
				<g>
					<polygon class="st21" points="381,251 390.3,245.6 390.3,245.5 381,250.9 					"/>
				</g>
			</g>
			<g>
				<g>
					<polygon class="st21" points="381,260.3 390.3,254.9 390.3,254.8 381,260.2 					"/>
				</g>
			</g>
			<g>
				<polygon class="st21" points="382.9,252 382.9,257.1 388.4,253.9 388.4,248.8 				"/>
				<g>
					<g>
						<polygon class="st20" points="382.8,256.7 388.5,253.5 388.5,253.4 382.8,256.7 						"/>
					</g>
				</g>
				<g>
					<g>
						<polygon class="st20" points="382.8,256.2 388.5,253 388.5,252.9 382.8,256.2 						"/>
					</g>
				</g>
				<g>
					<g>
						<polygon class="st20" points="382.8,255.8 388.5,252.5 388.5,252.5 382.8,255.7 						"/>
					</g>
				</g>
				<g>
					<g>
						<polygon class="st20" points="382.8,255.3 388.5,252 388.5,252 382.8,255.2 						"/>
					</g>
				</g>
				<g>
					<g>
						<polygon class="st20" points="382.8,254.8 388.5,251.6 388.5,251.5 382.8,254.8 						"/>
					</g>
				</g>
				<g>
					<g>
						<polygon class="st20" points="382.8,254.3 388.5,251.1 388.5,251 382.8,254.3 						"/>
					</g>
				</g>
				<g>
					<g>
						<polygon class="st20" points="382.8,253.9 388.5,250.6 388.5,250.6 382.8,253.8 						"/>
					</g>
				</g>
				<g>
					<g>
						<polygon class="st20" points="382.8,253.4 388.5,250.1 388.5,250.1 382.8,253.3 						"/>
					</g>
				</g>
				<g>
					<g>
						<polygon class="st20" points="382.8,252.9 388.5,249.7 388.5,249.6 382.8,252.9 						"/>
					</g>
				</g>
				<g>
					<g>
						<polygon class="st20" points="382.8,252.4 388.5,249.2 388.5,249.1 382.8,252.4 						"/>
					</g>
				</g>
			</g>
			<g>
				<g>
					<path class="st18" d="M379.2,239.7c0,0.8,0.9,1.4,2,1.4c1.1,0,2-0.6,2-1.4c0-0.8-0.9-1.4-2-1.4
						C380.1,238.3,379.2,238.9,379.2,239.7z"/>
					<g>
						<path class="st22" d="M379.7,239.7c0-0.6,0.7-1.1,1.5-1.1c0.9,0,1.5,0.5,1.5,1.1c0,0.6-0.7,1.1-1.5,1.1
							C380.4,240.8,379.7,240.3,379.7,239.7z M379.8,239.7c0,0.5,0.6,1,1.4,1c0.8,0,1.4-0.4,1.4-1c0-0.5-0.6-1-1.4-1
							C380.5,238.7,379.8,239.1,379.8,239.7z"/>
					</g>
				</g>
				<g>
					<path class="st18" d="M374.9,242.2c0,0.8,0.9,1.4,2,1.4c1.1,0,2-0.6,2-1.4c0-0.8-0.9-1.4-2-1.4
						C375.8,240.8,374.9,241.4,374.9,242.2z"/>
					<g>
						<path class="st22" d="M375.3,242.2c0-0.6,0.7-1.1,1.5-1.1c0.9,0,1.5,0.5,1.5,1.1c0,0.6-0.7,1.1-1.5,1.1
							C376,243.3,375.3,242.8,375.3,242.2z M375.4,242.2c0,0.5,0.6,1,1.4,1c0.8,0,1.4-0.4,1.4-1c0-0.5-0.6-1-1.4-1
							C376.1,241.2,375.4,241.6,375.4,242.2z"/>
					</g>
				</g>
				<g>
					<path class="st18" d="M378.9,244.5c0,0.8,0.9,1.4,2,1.4c1.1,0,2-0.6,2-1.4c0-0.8-0.9-1.4-2-1.4
						C379.8,243.1,378.9,243.7,378.9,244.5z"/>
					<g>
						<path class="st22" d="M379.3,244.4c0-0.6,0.7-1.1,1.5-1.1c0.9,0,1.5,0.5,1.5,1.1c0,0.6-0.7,1.1-1.5,1.1
							C380,245.5,379.3,245,379.3,244.4z M379.4,244.4c0,0.5,0.6,1,1.4,1c0.8,0,1.4-0.4,1.4-1c0-0.5-0.6-1-1.4-1
							C380.1,243.4,379.4,243.9,379.4,244.4z"/>
					</g>
				</g>
				<g>
					<path class="st18" d="M383.2,242c0,0.8,0.9,1.4,2,1.4c1.1,0,2-0.6,2-1.4c0-0.8-0.9-1.4-2-1.4
						C384.1,240.6,383.2,241.2,383.2,242z"/>
					<g>
						<path class="st22" d="M383.7,242c0-0.6,0.7-1.1,1.5-1.1c0.9,0,1.5,0.5,1.5,1.1c0,0.6-0.7,1.1-1.5,1.1
							C384.4,243.1,383.7,242.6,383.7,242z M383.8,242c0,0.5,0.6,1,1.4,1c0.8,0,1.4-0.4,1.4-1c0-0.5-0.6-1-1.4-1
							C384.5,241,383.8,241.4,383.8,242z"/>
					</g>
				</g>
			</g>
			<path class="st23" d="M387.6,247.6l0.4,0.2c0,0-1.2,1.6-3.9,2.3l-0.4-0.2"/>
			<g>
				<g>
					<path class="st24" d="M388.7,244.9c0.2-0.3,0.5-0.4,0.6-0.3l0.3,0.2l-0.6,1l-0.3-0.2C388.5,245.5,388.5,245.2,388.7,244.9z"/>
					<path class="st25" d="M389.6,245.5c-0.2,0.3-0.5,0.4-0.6,0.3c-0.2-0.1-0.2-0.4,0-0.7s0.5-0.4,0.6-0.3
						C389.7,244.9,389.8,245.2,389.6,245.5z"/>
				</g>
				<g>
					<path class="st24" d="M387,245.9c0.2-0.3,0.5-0.4,0.6-0.3l0.3,0.2l-0.6,1l-0.3-0.2C386.9,246.5,386.9,246.2,387,245.9z"/>
					<path class="st25" d="M388,246.4c-0.2,0.3-0.5,0.4-0.6,0.3c-0.2-0.1-0.2-0.4,0-0.7c0.2-0.3,0.5-0.4,0.6-0.3
						C388.1,245.8,388.1,246.1,388,246.4z"/>
				</g>
				<g>
					<path class="st24" d="M385.4,246.8c0.2-0.3,0.5-0.4,0.6-0.3l0.3,0.2l-0.6,1l-0.3-0.2C385.2,247.4,385.2,247.1,385.4,246.8z"/>
					<path class="st25" d="M386.3,247.4c-0.2,0.3-0.5,0.4-0.6,0.3c-0.2-0.1-0.2-0.4,0-0.7c0.2-0.3,0.5-0.4,0.6-0.3
						C386.5,246.8,386.5,247.1,386.3,247.4z"/>
				</g>
				<g>
					<path class="st24" d="M383.8,247.7c0.2-0.3,0.5-0.4,0.6-0.3l0.3,0.2l-0.6,1l-0.3-0.2C383.6,248.4,383.6,248,383.8,247.7z"/>
					<path class="st25" d="M384.7,248.3c-0.2,0.3-0.5,0.4-0.6,0.3c-0.2-0.1-0.2-0.4,0-0.7c0.2-0.3,0.5-0.4,0.6-0.3
						S384.9,248,384.7,248.3z"/>
				</g>
				<g>
					<path class="st24" d="M382.2,248.7c0.2-0.3,0.5-0.4,0.6-0.3l0.3,0.2l-0.6,1l-0.3-0.2C382,249.3,382,249,382.2,248.7z"/>
					<path class="st25" d="M383.1,249.2c-0.2,0.3-0.5,0.4-0.6,0.3c-0.2-0.1-0.2-0.4,0-0.7c0.2-0.3,0.5-0.4,0.6-0.3
						C383.2,248.6,383.3,249,383.1,249.2z"/>
				</g>
			</g>
			<g>
				<polygon class="st17" points="379.7,233.2 370.4,238.6 371.3,239.1 380.6,233.7 				"/>
				<polygon class="st15" points="371.3,239.1 371.7,242.2 370.4,241.4 370.4,238.6 				"/>
				<polygon class="st16" points="371.3,239.1 371.7,242.2 381,236.8 380.6,233.7 				"/>
				<polygon class="st18" points="374.9,238.2 375,239.1 377.5,237.6 377.3,236.8 				"/>
			</g>
		</g>
		<g>
			<g>
				<polygon class="st14" points="370.4,244 359.8,248.6 370.4,254.8 379.7,249.4 				"/>
				<polygon class="st15" points="370.4,254.8 370.4,269.1 359.8,263 359.8,248.6 				"/>
				<polygon class="st16" points="370.4,254.8 370.4,269.1 379.7,263.8 379.7,249.4 				"/>
			</g>
			<g>
				<polygon class="st17" points="369.1,242.2 359.8,247.6 370.4,253.7 379.7,248.4 				"/>
				<polygon class="st18" points="370.4,253.7 370.4,254.8 359.8,248.6 359.8,247.6 				"/>
				<polygon class="st19" points="370.4,253.7 370.4,254.8 379.7,249.4 379.7,248.4 				"/>
			</g>
			<polygon class="st20" points="371.3,257.8 371.3,264.7 378.8,260.4 378.8,253.5 			"/>
			<g>
				<g>
					<polygon class="st21" points="370.4,257.1 379.7,251.8 379.7,251.7 370.4,257 					"/>
				</g>
			</g>
			<g>
				<g>
					<polygon class="st21" points="370.4,266.5 379.7,261.1 379.7,261 370.4,266.4 					"/>
				</g>
			</g>
			<g>
				<polygon class="st21" points="372.3,258.2 372.3,263.3 377.8,260.1 377.8,255 				"/>
				<g>
					<g>
						<polygon class="st20" points="372.2,262.9 377.9,259.6 377.9,259.6 372.2,262.8 						"/>
					</g>
				</g>
				<g>
					<g>
						<polygon class="st20" points="372.2,262.4 377.9,259.2 377.9,259.1 372.2,262.4 						"/>
					</g>
				</g>
				<g>
					<g>
						<polygon class="st20" points="372.2,261.9 377.9,258.7 377.9,258.6 372.2,261.9 						"/>
					</g>
				</g>
				<g>
					<g>
						<polygon class="st20" points="372.2,261.5 377.9,258.2 377.9,258.2 372.2,261.4 						"/>
					</g>
				</g>
				<g>
					<g>
						<polygon class="st20" points="372.2,261 377.9,257.7 377.9,257.7 372.2,260.9 						"/>
					</g>
				</g>
				<g>
					<g>
						<polygon class="st20" points="372.2,260.5 377.9,257.3 377.9,257.2 372.2,260.5 						"/>
					</g>
				</g>
				<g>
					<g>
						<polygon class="st20" points="372.2,260 377.9,256.8 377.9,256.7 372.2,260 						"/>
					</g>
				</g>
				<g>
					<g>
						<polygon class="st20" points="372.2,259.6 377.9,256.3 377.9,256.3 372.2,259.5 						"/>
					</g>
				</g>
				<g>
					<g>
						<polygon class="st20" points="372.2,259.1 377.9,255.8 377.9,255.8 372.2,259 						"/>
					</g>
				</g>
				<g>
					<g>
						<polygon class="st20" points="372.2,258.6 377.9,255.4 377.9,255.3 372.2,258.6 						"/>
					</g>
				</g>
			</g>
			<g>
				<g>
					<ellipse class="st18" cx="370.6" cy="245.9" rx="2" ry="1.4"/>
					<g>
						<path class="st22" d="M369.1,245.8c0-0.6,0.7-1.1,1.5-1.1c0.9,0,1.5,0.5,1.5,1.1c0,0.6-0.7,1.1-1.5,1.1
							C369.8,246.9,369.1,246.5,369.1,245.8z M369.2,245.8c0,0.5,0.6,1,1.4,1c0.8,0,1.4-0.4,1.4-1c0-0.5-0.6-1-1.4-1
							C369.8,244.9,369.2,245.3,369.2,245.8z"/>
					</g>
				</g>
				<g>
					<path class="st18" d="M364.2,248.4c0,0.8,0.9,1.4,2,1.4s2-0.6,2-1.4c0-0.8-0.9-1.4-2-1.4S364.2,247.6,364.2,248.4z"/>
					<g>
						<path class="st22" d="M364.7,248.3c0-0.6,0.7-1.1,1.5-1.1c0.9,0,1.5,0.5,1.5,1.1c0,0.6-0.7,1.1-1.5,1.1
							C365.4,249.4,364.7,248.9,364.7,248.3z M364.8,248.3c0,0.5,0.6,1,1.4,1c0.8,0,1.4-0.4,1.4-1c0-0.5-0.6-1-1.4-1
							C365.5,247.3,364.8,247.8,364.8,248.3z"/>
					</g>
				</g>
				<g>
					<path class="st18" d="M368.2,250.6c0,0.8,0.9,1.4,2,1.4c1.1,0,2-0.6,2-1.4c0-0.8-0.9-1.4-2-1.4
						C369.1,249.2,368.2,249.9,368.2,250.6z"/>
					<g>
						<path class="st22" d="M368.7,250.6c0-0.6,0.7-1.1,1.5-1.1c0.9,0,1.5,0.5,1.5,1.1c0,0.6-0.7,1.1-1.5,1.1
							C369.4,251.7,368.7,251.2,368.7,250.6z M368.8,250.6c0,0.5,0.6,1,1.4,1c0.8,0,1.4-0.4,1.4-1c0-0.5-0.6-1-1.4-1
							C369.5,249.6,368.8,250.1,368.8,250.6z"/>
					</g>
				</g>
				<g>
					<path class="st18" d="M372.6,248.2c0,0.8,0.9,1.4,2,1.4c1.1,0,2-0.6,2-1.4c0-0.8-0.9-1.4-2-1.4
						C373.5,246.8,372.6,247.4,372.6,248.2z"/>
					<g>
						<path class="st22" d="M373.1,248.2c0-0.6,0.7-1.1,1.5-1.1c0.9,0,1.5,0.5,1.5,1.1c0,0.6-0.7,1.1-1.5,1.1
							C373.8,249.2,373.1,248.8,373.1,248.2z M373.2,248.2c0,0.5,0.6,1,1.4,1c0.8,0,1.4-0.4,1.4-1c0-0.5-0.6-1-1.4-1
							C373.8,247.2,373.2,247.6,373.2,248.2z"/>
					</g>
				</g>
			</g>
			<path class="st23" d="M377,253.8l0.4,0.2c0,0-1.2,1.6-3.9,2.3l-0.4-0.2"/>
			<g>
				<g>
					<path class="st24" d="M378,251.1c0.2-0.3,0.5-0.4,0.6-0.3l0.3,0.2l-0.6,1l-0.3-0.2C377.9,251.7,377.9,251.4,378,251.1z"/>
					<path class="st25" d="M379,251.7c-0.2,0.3-0.5,0.4-0.6,0.3c-0.2-0.1-0.2-0.4,0-0.7c0.2-0.3,0.5-0.4,0.6-0.3
						C379.1,251,379.1,251.4,379,251.7z"/>
				</g>
				<g>
					<path class="st24" d="M376.4,252c0.2-0.3,0.5-0.4,0.6-0.3l0.3,0.2l-0.6,1l-0.3-0.2C376.2,252.7,376.2,252.3,376.4,252z"/>
					<path class="st25" d="M377.3,252.6c-0.2,0.3-0.5,0.4-0.6,0.3c-0.2-0.1-0.2-0.4,0-0.7c0.2-0.3,0.5-0.4,0.6-0.3
						C377.5,252,377.5,252.3,377.3,252.6z"/>
				</g>
				<g>
					<path class="st24" d="M374.8,253c0.2-0.3,0.5-0.4,0.6-0.3l0.3,0.2l-0.6,1l-0.3-0.2C374.6,253.6,374.6,253.3,374.8,253z"/>
					<path class="st25" d="M375.7,253.5c-0.2,0.3-0.5,0.4-0.6,0.3c-0.2-0.1-0.2-0.4,0-0.7c0.2-0.3,0.5-0.4,0.6-0.3
						C375.9,252.9,375.9,253.3,375.7,253.5z"/>
				</g>
				<g>
					<path class="st24" d="M373.1,253.9c0.2-0.3,0.5-0.4,0.6-0.3l0.3,0.2l-0.6,1l-0.3-0.2C373,254.5,373,254.2,373.1,253.9z"/>
					<path class="st25" d="M374.1,254.5c-0.2,0.3-0.5,0.4-0.6,0.3c-0.2-0.1-0.2-0.4,0-0.7c0.2-0.3,0.5-0.4,0.6-0.3
						C374.2,253.9,374.2,254.2,374.1,254.5z"/>
				</g>
				<g>
					<path class="st24" d="M371.5,254.9c0.2-0.3,0.5-0.4,0.6-0.3l0.3,0.2l-0.6,1l-0.3-0.2C371.4,255.5,371.4,255.2,371.5,254.9z"/>
					<path class="st25" d="M372.5,255.4c-0.2,0.3-0.5,0.4-0.6,0.3c-0.2-0.1-0.2-0.4,0-0.7c0.2-0.3,0.5-0.4,0.6-0.3
						C372.6,254.8,372.6,255.1,372.5,255.4z"/>
				</g>
			</g>
			<g>
				<polygon class="st17" points="369.1,239.4 359.8,244.8 360.6,245.3 370,239.9 				"/>
				<polygon class="st15" points="360.6,245.3 361.1,248.4 359.8,247.6 359.8,244.8 				"/>
				<polygon class="st16" points="360.6,245.3 361.1,248.4 370.4,243 370,239.9 				"/>
				<polygon class="st18" points="364.2,244.4 364.3,245.3 366.8,243.8 366.7,243 				"/>
			</g>
		</g>
		<g>
			<g>
				<path class="st26" d="M424.5,249l-0.1,0.2c0,0-0.2,0.1-0.3,0.3c-0.1,0.2-0.3,0.3-0.3,0.3s0,0.2,0.2,0c0,0-0.1,0.2-0.1,0.2
					c0,0.2,0.7,0.4,0.9,0.3c0.2-0.2,0.3-0.5,0.3-0.6c0-0.1-0.1-0.3,0-0.5C425.2,249,424.5,249,424.5,249z"/>
				<g>
					<path class="st27" d="M426.5,244.7c0,0,0-0.1,0-0.2c0-0.4,0.2-3.9,0.1-4.2c-0.1-0.4-0.2-0.8-0.7-0.8c-0.3,0-0.8,0.5-0.8,1.2
						c0,0.6,0.2,3.7,0.2,3.9c0,0-0.9,3.9-0.9,4.1l0.7,0.4L426.5,244.7z"/>
					<path class="st28" d="M425.3,249.1C425.3,249.1,425.3,249,425.3,249.1c-0.1-0.1-0.3-0.2-0.3-0.2l-0.1,0.1l0-0.1
						c0,0-0.2-0.1-0.3-0.1c0,0-0.1,0-0.1,0c0,0.1-0.1,0.2-0.1,0.2c0,0,0,0,0,0c0,0.1,0.6,0.3,0.8,0.4c0,0,0.1,0,0.1,0L425.3,249.1z"
						/>
				</g>
			</g>
			<path class="st29" d="M428.4,240.7l0.3,0.1l-0.8,1.2c-0.2,0.4-0.7,0.5-1.1,0.3l-0.1-0.1c-0.3-0.1-0.4-0.5-0.2-0.7l0.6-1.1
				L428.4,240.7z"/>
			<path class="st30" d="M429.4,236.9c1.4,0.4,0.2,3.4,0.6,4.2c-1-0.8-0.5-3.2-1.1-3.4C428.9,237.8,429,236.8,429.4,236.9z"/>
			<g>
				<path class="st29" d="M425.7,263c0-0.2,0.5-0.8,0.5-1.4c0-0.1,0-0.3,0-0.5c0.2,0.2,0.8,0.1,1,0c0,0.1,0,0.2,0,0.3
					c0,0,0,0.2,0,0.2c0,0-0.1,0.5-0.1,0.5s-0.5,1-0.5,1s-0.2,0.1-0.3,0.1C426.2,263.3,425.7,263.2,425.7,263z"/>
				<g>
					<path class="st31" d="M427.3,262.8L427.3,262.8C427.3,262.8,427.4,262.8,427.3,262.8l0.1-0.9h-0.1L427.3,262.8
						C427.2,262.8,427.3,262.8,427.3,262.8z"/>
					<path class="st31" d="M427.2,261.2c0,0,0.3,0,0.3,0.6c0,0.6-0.3,0.5-0.4,0.7c-0.1,0.3-0.3,0.8-0.7,0.9
						c-0.4,0.1-0.8,0.3-1.1,0.2c-0.1,0,0-0.2,0-0.3c0.1,0,0.3-0.5,0.4-0.6c0,0,0,0,0,0c0,0.1,0.2,0.3,0.4,0.3c0.1,0,0.5,0.1,1-1.8
						L427.2,261.2z"/>
					<g>
						<path class="st32" d="M425.7,262.8C425.7,262.8,425.7,262.8,425.7,262.8C425.7,262.8,425.7,262.8,425.7,262.8
							C425.7,262.8,425.7,262.8,425.7,262.8z"/>
					</g>
				</g>
				<path class="st29" d="M429,262.1c0.1,1.3,0.3,1.6,0,1.9c-0.2,0.2-0.7,0.5-0.9,0.1c-0.1-0.1,0-0.6,0-0.8c0-0.5,0.1-0.4,0.1-1.4
					C428.3,261.5,429,262.1,429,262.1z"/>
				<path class="st31" d="M429,262.1c0,0,0.1,1.1,0,1.6c-0.1,0.4-0.6,0.5-0.8,0.2c-0.1-0.1,0-0.5-0.1-0.7c0-0.1-0.1,0.5-0.1,0.8
					c0,0.1,0,0.2,0,0.3l0.2,0.6c0,0.1,0.1,0.2,0.2,0.2h0.1c0.1,0,0.2,0,0.2-0.1l0.3-0.6c0.1-0.2,0.2-0.5,0.2-0.7
					c0-0.4-0.2-0.1,0-0.7C429.4,262.8,429.2,262.2,429,262.1z"/>
				<path class="st33" d="M427.2,261.1c0,0.3-1,0.4-1,0c0-1.7-0.5-5.3-0.4-5.5c-1.4-5.2-0.1-8.4-0.1-8.4c0.4-0.1,1.6-0.2,1.6-0.2
					s0.7,1.2,0.6,2.9c0,1.7-0.5,5.4-0.5,5.4C427.7,256.6,427.1,259.3,427.2,261.1z"/>
				<path class="st28" d="M429.5,247.7c0.5,0.3,0.8,1.1,0.7,2c-0.1,1.4-1.6,4.3-1.3,5.7c0.7,2.1-0.1,4.9,0.2,6.8
					c-0.2,0.6-0.8,0.6-0.9,0.1c0,0-0.6-3.8-1-6.9c-0.1-3.6-0.7-3.9-0.2-7.4C427.2,247.5,429.5,247.7,429.5,247.7z"/>
			</g>
			<path class="st31" d="M429.3,245.1c0.6-1,0.8-1.9,0.9-2.9c0-0.5-0.2-1.1-0.6-1.3c-0.4-0.2-0.9-0.5-1.1-0.6c0,0.1,0,0.3,0.1,0.4
				c0,0-0.1,0.1-0.1,0.1l-0.9,1.1c-0.2,0.2-0.6,0.1-0.5-0.2l0-0.8c0,0,0.1-0.4-0.1-0.7c0,0,0-0.1,0-0.1c-0.2,0-0.3-0.1-0.5-0.1
				c-1,0.2-1,1.4-1,1.7c-0.6,1.1-0.2,1.7,0.3,1.8c0.1,0.3,0.2,1,0.2,1.6c0,0.8-0.3,2-0.3,2c-0.1,0.6,0.4,1.3,1.7,1.4
				c0.7,0.1,1.8-0.1,2.2-0.6C428.9,246.7,428.9,245.7,429.3,245.1z"/>
			<path class="st26" d="M427,240.9l-0.1,0.8c0,0.3,0.3,0.5,0.5,0.2l1-1.2c0,0-0.4,0.2-0.4,0.2c-0.2-0.2-0.5-0.1-0.5-0.1L427,240.9z
				"/>
			<path class="st27" d="M427,241.4v0.5c0,0-0.2-0.1-0.2-0.3s0.1-0.3,0.1-0.3L427,241.4z"/>
			<path class="st28" d="M427,240.6c0,0-0.2,0.5,0,0.8c0,0-0.4,0.3-0.4,0.6c0,0-0.1-0.7,0.1-1.3c0,0,0.1-0.2,0.2-0.2L427,240.6z"/>
			<g>
				<path class="st26" d="M428.3,239.4c0,0-0.1,0.7,0.1,1.3c-0.3,0.4-1.3,0.7-1.4,0.2c0,0,0-0.5-0.1-0.8
					C426.6,239.8,428.3,239.4,428.3,239.4z"/>
				<path class="st26" d="M426.3,237c0,0-0.4,0.6-0.4,1.3c0,0.1-0.1,0.3-0.1,0.7c0,0.3,0.1,0.9,0.1,1.1c0,0.1,0.1,0.2,0.2,0.2
					c0.6,0.1,1.5,0.2,2.1-0.7c0,0,0.3-0.4,0.5-0.4c0.1,0,0.7-0.8,0.7-1.4c0-0.6-0.3-1.6-1.6-1.6C426.8,236.3,426.3,237,426.3,237z"
					/>
				<g>
					<path class="st34" d="M428.9,239.1c0,0-0.1,0.1-0.1,0.1C428.8,239.2,428.9,239.2,428.9,239.1z"/>
				</g>
			</g>
			<g>
				<g>
					<path class="st29" d="M429.7,248.9c0,0,0,1.4-0.2,2.2c0.1,0.2,0.7,0.4,0.7,0.2c0.2-1.2,0.3-2.4,0.3-2.4L429.7,248.9z"/>
					<path class="st26" d="M430.2,251.3c0,0-0.1,1.1-0.1,1.1c-0.2,0.1-0.3,0.1-0.6,0.2c-0.4,0.1-0.6-0.1-0.6-0.1s0-0.4,0-0.6
						c0-0.2,0.4-0.3,0.5-0.8c0.1-0.5,0.7,0,0.7,0L430.2,251.3z"/>
				</g>
				<g>
					<path class="st27" d="M431,246.4c0,0,0-0.2,0-0.2c0-0.4-0.5-4.1-0.6-4.4c-0.1-0.4-0.4-0.8-0.9-0.7c-0.4,0.1-0.7,0.7-0.6,1.4
						c0.1,0.7,0.9,3.9,0.9,4.1c0,0-0.3,4.2-0.2,4.5l0.8,0.3L431,246.4z"/>
					<path class="st28" d="M430.4,251.2C430.4,251.2,430.4,251.1,430.4,251.2c-0.1-0.1-0.3-0.1-0.4-0.2l-0.1,0.1l-0.1-0.1
						c0,0-0.3-0.1-0.4-0.1c0,0-0.1,0-0.1,0c0,0.1,0,0.2-0.1,0.2c0,0,0,0,0,0c0.1,0.1,0.7,0.2,0.9,0.3c0,0,0.1,0,0.1,0L430.4,251.2z"
						/>
				</g>
			</g>
			<path class="st30" d="M428,237.7c0.3,0.3,0.1,1.2,0.4,1.2c0,0-0.2,0.6-0.1,1c0.3-0.3,1.3-1,1.3-2.2c0-0.8-0.5-1.7-1.7-1.7
				c-0.9,0-1.7,0.5-1.7,1.2c0.3-0.2,0.5-0.2,0.7,0C427.2,237.1,427.8,237.4,428,237.7z"/>
			<polygon class="st27" points="427,242 427.2,241.4 427.4,241.8 427.3,242 427.2,242.1 427,242.1 			"/>
			<g>
				<path class="st29" d="M428.3,238.8c0.2-0.3,0.5-0.2,0.4,0.1c0,0.1-0.1,0.1-0.1,0.2c-0.1,0.3-0.2,0.4-0.4,0.3"/>
			</g>
			<path class="st28" d="M428.3,240.3c0,0-0.1,0.7-1.1,1.1c0,0,0,0.5-0.1,0.8c0,0,1.2-0.8,1.5-1.4
				C428.6,240.8,428.5,240.4,428.3,240.3z"/>
		</g>
		<g>
			<g>
				<polygon class="st14" points="418.5,249.6 407.9,254.2 418.5,260.3 427.8,254.9 				"/>
				<polygon class="st15" points="418.5,260.3 418.5,274.7 407.9,268.5 407.9,254.2 				"/>
				<polygon class="st16" points="418.5,260.3 418.5,274.7 427.8,269.3 427.8,254.9 				"/>
			</g>
			<g>
				<polygon class="st17" points="417.2,247.8 407.9,253.1 418.5,259.3 427.8,253.9 				"/>
				<polygon class="st35" points="418.5,259.3 418.5,260.3 407.9,254.2 407.9,253.1 				"/>
				<polygon class="st36" points="418.5,259.3 418.5,260.3 427.8,254.9 427.8,253.9 				"/>
			</g>
			<g>
				<path class="st36" d="M426.1,266c-1.4,2.4-3.8,3.6-5.4,2.7c-1.5-0.9-1.6-3.6-0.2-6c1.4-2.4,3.8-3.6,5.4-2.7
					C427.4,260.9,427.5,263.6,426.1,266z"/>
			</g>
			<g>
				<path class="st35" d="M425.5,265.7c-1.1,1.9-3.1,2.9-4.3,2.2c-1.2-0.7-1.3-2.9-0.2-4.8c1.1-1.9,3.1-2.9,4.3-2.2
					C426.6,261.6,426.7,263.7,425.5,265.7z"/>
			</g>
		</g>
		<g>
			<g>
				<polygon class="st14" points="406.9,256.2 396.3,260.8 406.9,267 416.3,261.6 				"/>
				<polygon class="st15" points="406.9,267 406.9,281.3 396.3,275.2 396.3,260.8 				"/>
				<polygon class="st16" points="406.9,267 406.9,281.3 416.3,275.9 416.3,261.6 				"/>
			</g>
			<g>
				<polygon class="st17" points="405.6,254.4 396.3,259.8 406.9,265.9 416.3,260.5 				"/>
				<polygon class="st35" points="406.9,265.9 406.9,267 396.3,260.8 396.3,259.8 				"/>
				<polygon class="st36" points="406.9,265.9 406.9,267 416.3,261.6 416.3,260.5 				"/>
			</g>
			<g>
				<path class="st36" d="M414.5,272.6c-1.4,2.4-3.8,3.6-5.4,2.7c-1.5-0.9-1.6-3.6-0.2-6c1.4-2.4,3.8-3.6,5.4-2.7
					C415.9,267.5,416,270.2,414.5,272.6z"/>
			</g>
			<g>
				<path class="st35" d="M414,272.3c-1.1,1.9-3.1,2.9-4.3,2.2c-1.2-0.7-1.3-2.9-0.2-4.8c1.1-1.9,3.1-2.9,4.3-2.2
					C415.1,268.2,415.1,270.4,414,272.3z"/>
			</g>
		</g>
		<g>
			<g>
				<polygon class="st14" points="395.4,262.8 384.8,267.4 395.4,273.6 404.7,268.2 				"/>
				<polygon class="st15" points="395.4,273.6 395.4,287.9 384.8,281.8 384.8,267.4 				"/>
				<polygon class="st16" points="395.4,273.6 395.4,287.9 404.7,282.5 404.7,268.2 				"/>
			</g>
			<g>
				<polygon class="st17" points="394.1,261 384.8,266.4 395.4,272.5 404.7,267.2 				"/>
				<polygon class="st35" points="395.4,272.5 395.4,273.6 384.8,267.4 384.8,266.4 				"/>
				<polygon class="st36" points="395.4,272.5 395.4,273.6 404.7,268.2 404.7,267.2 				"/>
			</g>
			<g>
				<path class="st36" d="M403,279.3c-1.4,2.4-3.8,3.6-5.4,2.7c-1.5-0.9-1.6-3.6-0.2-6c1.4-2.4,3.8-3.6,5.4-2.7
					C404.3,274.2,404.4,276.9,403,279.3z"/>
			</g>
			<g>
				<path class="st35" d="M402.4,278.9c-1.1,1.9-3.1,2.9-4.3,2.2c-1.2-0.7-1.3-2.9-0.2-4.8c1.1-1.9,3.1-2.9,4.3-2.2
					C403.5,274.8,403.6,277,402.4,278.9z"/>
			</g>
		</g>
		<g>
			<g>
				<polygon class="st37" points="358.5,275.6 358.5,272.5 357.9,272.9 357.9,275.9 				"/>
				<polygon class="st38" points="357.9,275.9 357.3,275.6 357.3,272.5 357.9,272.9 				"/>
				<polygon class="st39" points="357.3,272.5 357.9,272.2 358.5,272.5 357.9,272.9 				"/>
			</g>
			<g>
				<polygon class="st37" points="365.5,271.6 365.5,268.5 364.9,268.9 364.9,271.9 				"/>
				<polygon class="st38" points="364.9,271.9 364.2,271.6 364.2,268.5 364.9,268.9 				"/>
				<polygon class="st39" points="364.2,268.5 364.9,268.1 365.5,268.5 364.9,268.9 				"/>
			</g>
			<g>
				<polygon class="st37" points="351.5,271.5 351.5,268.4 350.8,268.8 350.9,271.8 				"/>
				<polygon class="st38" points="350.9,271.8 350.2,271.5 350.2,268.4 350.8,268.8 				"/>
				<polygon class="st39" points="350.2,268.4 350.8,268.1 351.5,268.4 350.8,268.8 				"/>
			</g>
			<polygon class="st40" points="357.9,239.5 350.1,244 357.9,248.5 365.7,244 			"/>
			<polygon class="st41" points="357.9,248.5 357.9,275.4 350.1,270.9 350.1,244 			"/>
			<polygon class="st42" points="357.9,248.5 357.9,275.4 365.7,270.9 365.7,244 			"/>
			<g>
				<g>
					<polygon class="st43" points="357.9,272.8 365.7,268.3 365.7,268.1 357.9,272.6 					"/>
				</g>
			</g>
			<g>
				<g>
					<polygon class="st38" points="357.9,256.7 365.7,252.2 365.7,252.1 357.9,256.6 					"/>
				</g>
			</g>
			<g>
				<path class="st44" d="M365,251.7C365,251.7,364.9,251.7,365,251.7l-0.9-0.5c-0.1-0.1-0.1-0.2-0.1-0.3c0.1-0.1,0.2-0.1,0.3-0.1
					l0.5,0.3v-3.8l-0.7-0.4c-0.1-0.1-0.1-0.2-0.1-0.3c0.1-0.1,0.2-0.1,0.3-0.1l0.8,0.4c0.1,0,0.1,0.1,0.1,0.2v4.2
					C365.2,251.5,365.2,251.6,365,251.7C365.1,251.7,365,251.7,365,251.7z"/>
			</g>
			<g>
				<path class="st44" d="M365,260.9C365,260.9,364.9,260.8,365,260.9l-0.9-0.5c-0.1-0.1-0.1-0.2-0.1-0.3c0.1-0.1,0.2-0.1,0.3-0.1
					l0.5,0.3v-6.2l-0.7-0.4c-0.1-0.1-0.1-0.2-0.1-0.3c0.1-0.1,0.2-0.1,0.3-0.1l0.8,0.4c0.1,0,0.1,0.1,0.1,0.2v6.7
					C365.2,260.7,365.2,260.8,365,260.9C365.1,260.8,365,260.9,365,260.9z"/>
			</g>
		</g>
		<g>
			<g>
				<polygon class="st37" points="347.3,282.4 347.3,279.3 346.7,279.7 346.7,282.8 				"/>
				<polygon class="st38" points="346.7,282.8 346,282.4 346,279.3 346.7,279.7 				"/>
				<polygon class="st39" points="346,279.3 346.7,279 347.3,279.3 346.7,279.7 				"/>
			</g>
			<g>
				<polygon class="st37" points="354.3,278.4 354.3,275.3 353.6,275.7 353.7,278.7 				"/>
				<polygon class="st38" points="353.7,278.7 353,278.4 353,275.3 353.6,275.7 				"/>
				<polygon class="st39" points="353,275.3 353.6,275 354.3,275.3 353.6,275.7 				"/>
			</g>
			<g>
				<polygon class="st37" points="340.2,278.3 340.2,275.2 339.6,275.6 339.6,278.7 				"/>
				<polygon class="st38" points="339.6,278.7 339,278.3 339,275.2 339.6,275.6 				"/>
				<polygon class="st39" points="339,275.2 339.6,274.9 340.2,275.2 339.6,275.6 				"/>
			</g>
			<polygon class="st40" points="346.7,246.3 338.9,250.8 346.7,255.3 354.4,250.8 			"/>
			<polygon class="st41" points="346.7,255.3 346.7,282.2 338.9,277.7 338.9,250.8 			"/>
			<polygon class="st42" points="346.7,255.3 346.7,282.2 354.4,277.7 354.4,250.8 			"/>
			<g>
				<g>
					<polygon class="st43" points="346.7,279.6 354.4,275.1 354.4,275 346.7,279.4 					"/>
				</g>
			</g>
			<g>
				<g>
					<polygon class="st38" points="346.7,263.5 354.4,259.1 354.4,258.9 346.7,263.4 					"/>
				</g>
			</g>
			<g>
				<path class="st44" d="M353.8,258.5C353.7,258.5,353.7,258.5,353.8,258.5l-0.9-0.5c-0.1-0.1-0.1-0.2-0.1-0.3
					c0.1-0.1,0.2-0.1,0.3-0.1l0.5,0.3v-3.8l-0.7-0.4c-0.1-0.1-0.1-0.2-0.1-0.3c0.1-0.1,0.2-0.1,0.3-0.1l0.8,0.4
					c0.1,0,0.1,0.1,0.1,0.2v4.2C354,258.4,353.9,258.4,353.8,258.5C353.8,258.5,353.8,258.5,353.8,258.5z"/>
			</g>
			<g>
				<path class="st44" d="M353.8,267.7C353.7,267.7,353.7,267.7,353.8,267.7l-0.9-0.5c-0.1-0.1-0.1-0.2-0.1-0.3
					c0.1-0.1,0.2-0.1,0.3-0.1l0.5,0.3v-6.2l-0.7-0.4c-0.1-0.1-0.1-0.2-0.1-0.3c0.1-0.1,0.2-0.1,0.3-0.1l0.8,0.4
					c0.1,0,0.1,0.1,0.1,0.2v6.7C354,267.5,353.9,267.6,353.8,267.7C353.8,267.7,353.8,267.7,353.8,267.7z"/>
			</g>
		</g>
		<g>
			<g>
				<g class="st7">
					<path class="st8" d="M349.1,275.4c0.8-0.4,1.4-0.1,1.4,0.8l0,8.5c0,0.9-0.6,2-1.4,2.4l-2.1,1.2l-28.4,49.3
						c-0.4,0.7-0.9,1.2-1.4,1.5c-1,0.6-2,0.2-2-1.2l0-5.2c0-0.6,0.2-1.3,0.6-2l29.7-51.6C346.4,277.6,347.8,276.2,349.1,275.4z"/>
				</g>
				<g>
					<g class="st3">
						<path class="st9" d="M350.8,276.4c0-0.3-0.1-0.5-0.2-0.6c-0.1-0.1-0.1-0.2-0.2-0.2l-0.6-0.3c0.2,0.1,0.4,0.4,0.4,0.9l0,8.5
							c0,0,0,0.1,0,0.1c0,0,0,0,0,0c0,0,0,0.1,0,0.1c0,0,0,0.1,0,0.1c0,0,0,0,0,0.1c0,0,0,0,0,0.1c0,0,0,0.1,0,0.1c0,0,0,0,0,0.1
							c0,0,0,0.1,0,0.1c0,0,0,0,0,0c0,0,0,0.1-0.1,0.1c0,0,0,0,0,0c0,0,0,0.1-0.1,0.1c0,0,0,0,0,0c0,0,0,0.1-0.1,0.1c0,0,0,0,0,0
							c0,0-0.1,0.1-0.1,0.1c0,0,0,0,0,0c0,0,0,0.1-0.1,0.1c0,0,0,0,0,0.1c0,0,0,0.1-0.1,0.1c0,0,0,0-0.1,0.1c0,0,0,0-0.1,0.1
							c0,0-0.1,0.1-0.1,0.1c0,0,0,0-0.1,0.1c0,0,0,0,0,0c0,0-0.1,0-0.1,0.1c0,0,0,0,0,0c0,0-0.1,0-0.1,0.1c0,0,0,0,0,0
							c0,0-0.1,0.1-0.1,0.1l-2.2,1.3l-28.4,49.3c0,0.1-0.1,0.2-0.1,0.2c0,0,0,0,0,0.1c0,0.1-0.1,0.1-0.1,0.2c0,0,0,0-0.1,0.1
							c0,0-0.1,0.1-0.1,0.1c0,0,0,0.1-0.1,0.1c0,0,0,0.1-0.1,0.1c0,0-0.1,0.1-0.1,0.1c0,0-0.1,0.1-0.1,0.1c0,0,0,0-0.1,0.1
							c0,0-0.1,0.1-0.1,0.1c0,0,0,0-0.1,0.1c0,0-0.1,0.1-0.1,0.1c0,0,0,0-0.1,0c-0.1,0-0.1,0.1-0.2,0.1c-0.1,0-0.1,0.1-0.2,0.1
							c0,0,0,0,0,0c0,0-0.1,0-0.1,0c0,0-0.1,0-0.1,0c0,0-0.1,0-0.1,0c0,0-0.1,0-0.1,0c0,0-0.1,0-0.1,0c-0.1,0-0.1,0-0.2,0
							c0,0,0,0,0,0c-0.1,0-0.1,0-0.2,0c0,0,0,0,0,0c0,0-0.1,0-0.1,0c0,0,0,0,0,0c0,0-0.1,0-0.1-0.1l0,0c0,0,0,0,0,0l0.6,0.3
							c0,0,0,0,0,0c0,0,0.1,0,0.1,0c0,0,0,0,0,0c0,0,0,0,0,0c0,0,0,0,0,0c0,0,0.1,0,0.1,0c0,0,0,0,0,0c0,0,0,0,0,0c0,0,0.1,0,0.1,0
							c0,0,0,0,0,0c0,0,0,0,0,0c0,0,0,0,0.1,0c0,0,0.1,0,0.1,0c0,0,0,0,0.1,0c0,0,0,0,0.1,0c0,0,0.1,0,0.1,0c0,0,0,0,0,0
							c0,0,0,0,0,0c0,0,0.1,0,0.1,0c0,0,0,0,0,0c0,0,0,0,0.1,0c0,0,0,0,0,0c0.1,0,0.1-0.1,0.2-0.1c0.1,0,0.1-0.1,0.2-0.1
							c0,0,0,0,0.1,0c0,0,0.1-0.1,0.1-0.1c0,0,0,0,0.1-0.1c0,0,0.1-0.1,0.1-0.1c0,0,0,0,0.1-0.1c0,0,0,0,0,0c0,0,0,0,0,0
							c0,0,0.1-0.1,0.1-0.1c0,0,0,0,0,0c0,0,0,0,0,0c0,0,0-0.1,0.1-0.1c0,0,0,0,0.1-0.1c0,0,0,0,0-0.1c0,0,0,0,0.1-0.1
							c0,0,0,0,0-0.1c0,0,0-0.1,0.1-0.1c0,0,0,0,0-0.1c0,0,0,0,0,0c0-0.1,0.1-0.1,0.1-0.2c0,0,0,0,0,0l28.4-49.3l2.2-1.3
							c0,0,0.1-0.1,0.1-0.1c0,0,0,0,0,0c0,0,0.1,0,0.1-0.1c0,0,0,0,0,0c0,0,0.1,0,0.1-0.1c0,0,0,0,0,0c0,0,0,0,0,0c0,0,0,0,0,0
							c0,0,0.1-0.1,0.1-0.1c0,0,0,0,0,0c0,0,0,0,0,0c0,0,0,0,0.1-0.1c0,0,0,0,0,0c0,0,0,0,0,0c0,0,0,0,0-0.1c0,0,0,0,0,0
							c0,0,0,0,0-0.1c0,0,0,0,0,0c0,0,0,0,0,0c0,0,0-0.1,0.1-0.1c0,0,0,0,0,0c0,0,0,0,0,0c0,0,0-0.1,0-0.1c0,0,0,0,0,0c0,0,0,0,0,0
							c0,0,0,0,0,0c0,0,0-0.1,0-0.1c0,0,0,0,0,0c0,0,0,0,0,0c0,0,0-0.1,0-0.1c0,0,0,0,0,0c0,0,0,0,0,0c0,0,0,0,0-0.1c0,0,0,0,0,0
							c0,0,0,0,0-0.1c0,0,0,0,0,0c0,0,0,0,0-0.1c0,0,0,0,0-0.1c0,0,0,0,0,0c0,0,0,0,0,0c0,0,0-0.1,0-0.1c0,0,0,0,0,0c0,0,0,0,0-0.1
							c0,0,0,0,0,0c0,0,0-0.1,0-0.1L350.8,276.4z"/>
						<path class="st9" d="M349.9,275.1C349.9,275.1,349.9,275.1,349.9,275.1C349.9,275.1,349.8,275.1,349.9,275.1
							C349.8,275.1,349.8,275.1,349.9,275.1c-0.1,0-0.1-0.1-0.1-0.1c0,0,0,0,0,0c0,0,0,0,0,0c0,0,0,0,0,0c0,0,0,0,0,0
							c0,0-0.1,0-0.1,0c0,0,0,0,0,0c0,0,0,0,0,0c0,0,0,0-0.1,0c0,0,0,0,0,0c0,0,0,0,0,0c0,0,0,0,0,0c0,0,0,0,0,0c0,0,0,0-0.1,0
							c0,0,0,0,0,0c0,0,0,0,0,0c0,0-0.1,0-0.1,0c0,0,0,0,0,0c0,0,0,0,0,0c0,0,0,0,0,0c0,0-0.1,0-0.1,0.1c-0.1,0-0.2,0.1-0.2,0.1
							c0,0-0.1,0-0.1,0.1c-0.1,0-0.1,0.1-0.2,0.1c0,0-0.1,0-0.1,0.1c0,0-0.1,0.1-0.1,0.1c0,0-0.1,0-0.1,0.1c0,0-0.1,0.1-0.1,0.1
							c0,0-0.1,0-0.1,0.1c-0.1,0-0.1,0.1-0.2,0.1c0,0-0.1,0-0.1,0.1c-0.1,0.1-0.1,0.1-0.2,0.2c0,0,0,0-0.1,0.1
							c-0.1,0.1-0.1,0.1-0.2,0.2c0,0,0,0,0,0c-0.1,0.1-0.2,0.2-0.3,0.3c0,0,0,0.1-0.1,0.1c-0.1,0.1-0.1,0.1-0.2,0.2c0,0,0,0,0,0
							c0,0,0,0,0,0c-0.1,0.1-0.3,0.3-0.4,0.5c0,0,0,0,0,0c0,0,0,0,0,0c-0.1,0.1-0.2,0.3-0.3,0.4c0,0,0,0,0,0c0,0,0,0,0,0
							c-0.1,0.1-0.2,0.3-0.3,0.4c0,0,0,0,0,0c0,0,0,0,0,0.1c-0.1,0.1-0.1,0.2-0.2,0.3c0,0,0,0,0,0.1c0,0,0,0,0,0.1l-29.7,51.6
							c0,0.1-0.1,0.1-0.1,0.2c0,0,0,0,0,0.1c0,0,0,0,0,0.1c0,0,0,0,0,0c0,0.1-0.1,0.1-0.1,0.2c0,0,0,0,0,0c0,0,0,0,0,0
							c0,0.1,0,0.1-0.1,0.2c0,0,0,0,0,0c0,0,0,0,0,0.1c0,0,0,0,0,0.1c0,0,0,0.1,0,0.1c0,0,0,0.1,0,0.1c0,0,0,0,0,0c0,0,0,0.1,0,0.1
							c0,0,0,0.1,0,0.1c0,0,0,0,0,0c0,0,0,0,0,0.1c0,0.1,0,0.1,0,0.2c0,0,0,0,0,0c0,0,0,0.1,0,0.1c0,0,0,0,0,0.1c0,0.1,0,0.2,0,0.2
							l0,5.2c0,0.6,0.2,1.1,0.6,1.3l0.6,0.3c-0.4-0.2-0.6-0.7-0.6-1.3l0-5.2c0-0.1,0-0.1,0-0.2c0,0,0,0,0-0.1c0,0,0-0.1,0-0.1
							c0-0.1,0-0.1,0-0.2c0,0,0-0.1,0-0.1c0,0,0-0.1,0-0.1c0-0.1,0-0.1,0-0.2c0,0,0-0.1,0-0.1c0-0.1,0-0.1,0.1-0.2c0,0,0,0,0-0.1
							c0-0.1,0.1-0.1,0.1-0.2c0,0,0,0,0,0c0-0.1,0.1-0.2,0.1-0.2c0,0,0,0,0-0.1c0-0.1,0.1-0.1,0.1-0.2l29.7-51.6
							c0,0,0.1-0.1,0.1-0.1c0.1-0.1,0.1-0.2,0.2-0.3c0,0,0-0.1,0.1-0.1c0.1-0.1,0.2-0.3,0.3-0.4c0,0,0,0,0,0
							c0.1-0.1,0.2-0.3,0.3-0.4c0,0,0,0,0.1-0.1c0.1-0.2,0.2-0.3,0.4-0.5c0,0,0-0.1,0.1-0.1c0.1-0.1,0.1-0.1,0.2-0.2
							c0,0,0-0.1,0.1-0.1c0.1-0.1,0.2-0.2,0.3-0.3c0.1-0.1,0.2-0.1,0.2-0.2c0,0,0,0,0.1-0.1c0.1-0.1,0.1-0.1,0.2-0.2
							c0,0,0.1,0,0.1-0.1c0.1,0,0.1-0.1,0.2-0.1c0,0,0.1-0.1,0.1-0.1c0,0,0.1-0.1,0.1-0.1c0,0,0.1,0,0.1-0.1c0,0,0.1-0.1,0.1-0.1
							c0,0,0.1,0,0.1-0.1c0.1,0,0.1-0.1,0.2-0.1c0,0,0.1,0,0.1-0.1c0.1-0.1,0.2-0.1,0.2-0.1c0,0,0.1,0,0.1-0.1c0,0,0,0,0,0
							c0,0,0,0,0.1,0c0,0,0.1,0,0.1,0c0,0,0,0,0.1,0c0,0,0,0,0.1,0c0,0,0.1,0,0.1,0c0,0,0,0,0,0c0,0,0.1,0,0.1,0c0,0,0,0,0,0
							c0,0,0.1,0,0.1,0c0,0,0,0,0,0c0,0,0.1,0,0.1,0c0,0,0,0,0,0c0,0,0.1,0,0.1,0L349.9,275.1z"/>
						<g>
							<path class="st10" d="M349.4,275.5c0.8-0.5,1.5-0.1,1.5,0.8l0,8.5c0,0.9-0.6,2.1-1.5,2.5l-2.1,1.2L319,337.9
								c-0.4,0.7-0.9,1.2-1.5,1.6c-0.3,0.2-0.5,0.3-0.8,0.3c-0.8,0.1-1.3-0.5-1.3-1.5l0-5.2c0-0.6,0.2-1.4,0.6-2l29.7-51.6
								C346.7,277.8,348,276.3,349.4,275.5z M350.8,285l0-8.5c0-0.9-0.6-1.2-1.3-0.8c-1.3,0.8-2.7,2.2-3.6,3.8l-29.7,51.6
								c-0.4,0.6-0.6,1.3-0.6,1.9l0,5.2c0,0.9,0.5,1.5,1.2,1.4c0.2,0,0.5-0.1,0.8-0.3c0.5-0.3,1-0.8,1.4-1.5l28.4-49.3l2.2-1.3
								C350.2,286.9,350.8,285.8,350.8,285"/>
						</g>
					</g>
				</g>
			</g>
			<g>
				<g class="st3">
					<g>
						<polygon class="st11" points="359,291.4 347.9,284.9 347.9,280.8 359,287.3 						"/>
					</g>
					<g>
						<polygon class="st12" points="359,287.3 347.9,280.8 351.5,278.8 362.6,285.2 						"/>
					</g>
					<g>
						<polygon class="st13" points="362.6,285.2 362.6,289.3 359,291.4 359,287.3 						"/>
					</g>
				</g>
				<g class="st3">
					<g>
						<polygon class="st11" points="355.5,297.5 344.4,291.1 344.4,287 355.5,293.4 						"/>
					</g>
					<g>
						<polygon class="st12" points="355.5,293.4 344.4,287 347.9,284.9 359,291.4 						"/>
					</g>
					<g>
						<polygon class="st13" points="359,291.4 359,295.5 355.5,297.5 355.5,293.4 						"/>
					</g>
				</g>
				<g class="st3">
					<g>
						<polygon class="st11" points="352,303.6 340.9,297.2 340.9,293.1 352,299.6 						"/>
					</g>
					<g>
						<polygon class="st12" points="352,299.6 340.9,293.1 344.4,291.1 355.5,297.5 						"/>
					</g>
					<g>
						<polygon class="st13" points="355.5,297.5 355.5,301.6 352,303.6 352,299.6 						"/>
					</g>
				</g>
				<g class="st3">
					<g>
						<polygon class="st11" points="341.4,322.1 330.3,315.6 330.3,311.6 341.4,318 						"/>
					</g>
					<g>
						<polygon class="st13" points="344.9,316 344.9,320 341.4,322.1 341.4,318 						"/>
					</g>
					<g>
						<polygon class="st12" points="341.4,318 330.3,311.6 333.8,309.5 344.9,316 						"/>
					</g>
					<g>
						<polygon class="st13" points="348.4,309.8 348.4,313.9 344.9,315.9 344.9,311.9 						"/>
					</g>
					<g>
						<polygon class="st11" points="344.9,315.9 333.8,309.5 333.8,305.4 344.9,311.9 						"/>
					</g>
					<g>
						<polygon class="st12" points="344.9,311.9 333.8,305.4 337.3,303.4 348.4,309.8 						"/>
					</g>
					<g>
						<polygon class="st11" points="348.4,309.8 337.3,303.3 337.3,299.3 348.4,305.7 						"/>
					</g>
					<g>
						<polygon class="st13" points="352,303.7 352,307.7 348.4,309.8 348.4,305.7 						"/>
					</g>
					<g>
						<polygon class="st12" points="348.4,305.7 337.3,299.3 340.9,297.2 352,303.7 						"/>
					</g>
				</g>
				<g class="st3">
					<g>
						<polygon class="st11" points="334.3,334.4 323.2,327.9 323.2,323.8 334.3,330.3 						"/>
					</g>
					<g>
						<polygon class="st12" points="334.3,330.3 323.2,323.8 326.7,321.8 337.8,328.2 						"/>
					</g>
					<g>
						<polygon class="st13" points="337.8,328.2 337.8,332.3 334.3,334.4 334.3,330.3 						"/>
					</g>
				</g>
				<g class="st3">
					<g>
						<polygon class="st11" points="337.8,328.2 326.7,321.8 326.7,317.7 337.8,324.1 						"/>
					</g>
					<g>
						<polygon class="st12" points="337.8,324.1 326.7,317.7 330.3,315.7 341.4,322.1 						"/>
					</g>
					<g>
						<polygon class="st13" points="341.4,322.1 341.4,326.2 337.8,328.2 337.8,324.1 						"/>
					</g>
				</g>
				<g class="st3">
					<g>
						<polygon class="st11" points="327.2,346.6 316.1,340.2 316.1,336.1 327.2,342.6 						"/>
					</g>
					<g>
						<polygon class="st12" points="327.2,342.6 316.1,336.1 319.7,334.1 330.8,340.5 						"/>
					</g>
					<g>
						<polygon class="st13" points="330.8,340.5 330.8,344.6 327.2,346.6 327.2,342.6 						"/>
					</g>
				</g>
				<g class="st3">
					<g>
						<polygon class="st11" points="330.8,340.5 319.7,334.1 319.7,330 330.8,336.4 						"/>
					</g>
					<g>
						<polygon class="st12" points="330.8,336.4 319.7,330 323.2,327.9 334.3,334.4 						"/>
					</g>
					<g>
						<polygon class="st13" points="334.3,334.4 334.3,338.5 330.8,340.5 330.8,336.4 						"/>
					</g>
				</g>
			</g>
			<g>
				<g class="st7">
					<path class="st8" d="M360.6,282.1c0.8-0.4,1.4-0.1,1.4,0.8l0,8.5c0,0.9-0.6,2-1.4,2.4l-2.1,1.2l-28.4,49.3
						c-0.4,0.7-0.9,1.2-1.4,1.5c-1,0.6-2,0.2-2-1.2l0-5.2c0-0.6,0.2-1.3,0.6-2L357,286C358,284.3,359.3,282.9,360.6,282.1z"/>
				</g>
				<g>
					<g class="st3">
						<path class="st9" d="M362.3,283.1c0-0.3-0.1-0.5-0.2-0.6c-0.1-0.1-0.1-0.2-0.2-0.2l-0.6-0.3c0.2,0.1,0.4,0.4,0.4,0.9l0,8.5
							c0,0,0,0.1,0,0.1c0,0,0,0,0,0c0,0,0,0.1,0,0.1c0,0,0,0.1,0,0.1c0,0,0,0,0,0.1c0,0,0,0,0,0.1c0,0,0,0.1,0,0.1c0,0,0,0,0,0.1
							c0,0,0,0.1,0,0.1c0,0,0,0,0,0c0,0,0,0.1-0.1,0.1c0,0,0,0,0,0c0,0,0,0.1-0.1,0.1c0,0,0,0,0,0c0,0,0,0.1-0.1,0.1c0,0,0,0,0,0
							c0,0-0.1,0.1-0.1,0.1c0,0,0,0,0,0c0,0,0,0.1-0.1,0.1c0,0,0,0,0,0.1c0,0,0,0.1-0.1,0.1c0,0,0,0-0.1,0.1c0,0,0,0-0.1,0.1
							c0,0-0.1,0.1-0.1,0.1c0,0,0,0-0.1,0.1c0,0,0,0,0,0c0,0-0.1,0-0.1,0.1c0,0,0,0,0,0c0,0-0.1,0-0.1,0.1c0,0,0,0,0,0
							c0,0-0.1,0.1-0.1,0.1l-2.2,1.3l-28.4,49.3c0,0.1-0.1,0.2-0.1,0.2c0,0,0,0,0,0.1c0,0.1-0.1,0.1-0.1,0.2c0,0,0,0-0.1,0.1
							c0,0-0.1,0.1-0.1,0.1c0,0,0,0.1-0.1,0.1c0,0-0.1,0.1-0.1,0.1c0,0-0.1,0.1-0.1,0.1c0,0-0.1,0.1-0.1,0.1c0,0,0,0-0.1,0.1
							c0,0-0.1,0.1-0.1,0.1c0,0,0,0-0.1,0.1c0,0-0.1,0.1-0.1,0.1c0,0,0,0-0.1,0c-0.1,0-0.1,0.1-0.2,0.1c-0.1,0-0.1,0.1-0.2,0.1
							c0,0,0,0,0,0c0,0-0.1,0-0.1,0c0,0-0.1,0-0.1,0c0,0-0.1,0-0.1,0c0,0-0.1,0-0.1,0c0,0-0.1,0-0.1,0c-0.1,0-0.1,0-0.2,0
							c0,0,0,0,0,0c-0.1,0-0.1,0-0.2,0c0,0,0,0,0,0c0,0-0.1,0-0.1,0c0,0,0,0,0,0c0,0-0.1,0-0.1-0.1l0,0h0l0.6,0.3c0,0,0,0,0,0
							c0,0,0.1,0,0.1,0c0,0,0,0,0,0c0,0,0,0,0,0c0,0,0,0,0,0c0,0,0.1,0,0.1,0c0,0,0,0,0,0c0,0,0,0,0,0c0,0,0.1,0,0.1,0c0,0,0,0,0,0
							c0,0,0,0,0,0c0,0,0,0,0.1,0c0,0,0.1,0,0.1,0c0,0,0,0,0.1,0c0,0,0,0,0.1,0c0,0,0.1,0,0.1,0c0,0,0,0,0,0c0,0,0,0,0,0
							c0,0,0.1,0,0.1,0c0,0,0,0,0,0c0,0,0,0,0.1,0c0,0,0,0,0,0c0.1,0,0.1-0.1,0.2-0.1c0.1,0,0.1-0.1,0.2-0.1c0,0,0,0,0.1,0
							c0,0,0.1-0.1,0.1-0.1c0,0,0,0,0.1-0.1c0,0,0.1-0.1,0.1-0.1c0,0,0,0,0.1-0.1c0,0,0,0,0,0c0,0,0,0,0,0c0,0,0.1-0.1,0.1-0.1
							c0,0,0,0,0,0c0,0,0,0,0,0c0,0,0-0.1,0.1-0.1c0,0,0,0,0.1-0.1c0,0,0,0,0-0.1c0,0,0,0,0.1-0.1c0,0,0,0,0-0.1c0,0,0-0.1,0.1-0.1
							c0,0,0,0,0-0.1c0,0,0,0,0,0c0-0.1,0.1-0.1,0.1-0.2c0,0,0,0,0,0l28.4-49.3l2.2-1.3c0,0,0.1-0.1,0.1-0.1c0,0,0,0,0,0
							c0,0,0.1,0,0.1-0.1c0,0,0,0,0,0c0,0,0.1,0,0.1-0.1c0,0,0,0,0,0c0,0,0,0,0,0c0,0,0,0,0,0c0,0,0.1-0.1,0.1-0.1c0,0,0,0,0,0
							c0,0,0,0,0,0c0,0,0,0,0.1-0.1c0,0,0,0,0,0c0,0,0,0,0,0c0,0,0,0,0-0.1c0,0,0,0,0,0c0,0,0,0,0-0.1c0,0,0,0,0,0c0,0,0,0,0,0
							c0,0,0-0.1,0.1-0.1c0,0,0,0,0,0c0,0,0,0,0,0c0,0,0-0.1,0-0.1c0,0,0,0,0,0c0,0,0,0,0,0c0,0,0,0,0,0c0,0,0-0.1,0-0.1
							c0,0,0,0,0,0c0,0,0,0,0,0c0,0,0-0.1,0-0.1c0,0,0,0,0,0c0,0,0,0,0,0c0,0,0,0,0-0.1c0,0,0,0,0,0c0,0,0,0,0-0.1c0,0,0,0,0,0
							c0,0,0,0,0-0.1c0,0,0,0,0-0.1c0,0,0,0,0,0c0,0,0,0,0,0c0,0,0-0.1,0-0.1c0,0,0,0,0,0c0,0,0,0,0-0.1c0,0,0,0,0,0
							c0-0.1,0-0.1,0-0.1L362.3,283.1z"/>
						<path class="st9" d="M361.4,281.8C361.4,281.8,361.4,281.8,361.4,281.8C361.4,281.8,361.3,281.8,361.4,281.8
							C361.3,281.8,361.3,281.8,361.4,281.8c-0.1,0-0.1-0.1-0.1-0.1c0,0,0,0,0,0c0,0,0,0,0,0c0,0,0,0,0,0c0,0,0,0,0,0
							c0,0-0.1,0-0.1,0c0,0,0,0,0,0c0,0,0,0,0,0c0,0,0,0-0.1,0c0,0,0,0,0,0c0,0,0,0,0,0c0,0,0,0,0,0c0,0,0,0,0,0c0,0,0,0-0.1,0
							c0,0,0,0,0,0c0,0,0,0,0,0c0,0-0.1,0-0.1,0c0,0,0,0,0,0c0,0,0,0,0,0c0,0,0,0,0,0c0,0-0.1,0-0.1,0.1c-0.1,0-0.2,0.1-0.2,0.1
							c0,0-0.1,0-0.1,0.1c-0.1,0-0.1,0.1-0.2,0.1c0,0-0.1,0-0.1,0.1c0,0-0.1,0.1-0.1,0.1c0,0-0.1,0-0.1,0.1c0,0-0.1,0.1-0.1,0.1
							c0,0-0.1,0-0.1,0.1c-0.1,0-0.1,0.1-0.2,0.1c0,0-0.1,0-0.1,0.1c-0.1,0.1-0.1,0.1-0.2,0.2c0,0,0,0-0.1,0.1
							c-0.1,0.1-0.1,0.1-0.2,0.2c0,0,0,0,0,0c-0.1,0.1-0.2,0.2-0.3,0.3c0,0,0,0.1-0.1,0.1c-0.1,0.1-0.1,0.1-0.2,0.2c0,0,0,0,0,0
							c0,0,0,0,0,0c-0.1,0.1-0.3,0.3-0.4,0.5c0,0,0,0,0,0c0,0,0,0,0,0c-0.1,0.1-0.2,0.3-0.3,0.4c0,0,0,0,0,0c0,0,0,0,0,0
							c-0.1,0.1-0.2,0.3-0.3,0.4c0,0,0,0,0,0c0,0,0,0,0,0.1c-0.1,0.1-0.1,0.2-0.2,0.3c0,0,0,0,0,0.1c0,0,0,0,0,0.1L327,337.5
							c0,0-0.1,0.1-0.1,0.2c0,0,0,0,0,0.1c0,0,0,0,0,0.1c0,0,0,0,0,0c0,0.1-0.1,0.1-0.1,0.2c0,0,0,0,0,0c0,0,0,0,0,0
							c0,0.1,0,0.1-0.1,0.2c0,0,0,0,0,0c0,0,0,0,0,0.1c0,0,0,0,0,0.1c0,0,0,0.1,0,0.1c0,0,0,0.1,0,0.1c0,0,0,0,0,0c0,0,0,0.1,0,0.1
							c0,0,0,0.1,0,0.1c0,0,0,0,0,0c0,0,0,0,0,0.1c0,0.1,0,0.1,0,0.2c0,0,0,0,0,0c0,0,0,0.1,0,0.1c0,0,0,0,0,0.1c0,0.1,0,0.2,0,0.2
							l0,5.2c0,0.6,0.2,1.1,0.6,1.3l0.6,0.3c-0.4-0.2-0.6-0.7-0.6-1.3l0-5.2c0-0.1,0-0.1,0-0.2c0,0,0,0,0-0.1c0,0,0-0.1,0-0.1
							c0-0.1,0-0.1,0-0.2c0,0,0-0.1,0-0.1c0,0,0-0.1,0-0.1c0-0.1,0-0.1,0-0.2c0,0,0-0.1,0-0.1c0-0.1,0-0.1,0.1-0.2c0,0,0,0,0-0.1
							c0-0.1,0.1-0.1,0.1-0.2c0,0,0,0,0,0c0-0.1,0.1-0.2,0.1-0.2c0,0,0,0,0-0.1c0-0.1,0.1-0.1,0.1-0.2l29.7-51.6
							c0,0,0.1-0.1,0.1-0.1c0.1-0.1,0.1-0.2,0.2-0.3c0,0,0-0.1,0.1-0.1c0.1-0.1,0.2-0.3,0.3-0.4c0,0,0,0,0,0
							c0.1-0.1,0.2-0.3,0.3-0.4c0,0,0,0,0.1-0.1c0.1-0.2,0.2-0.3,0.4-0.5c0,0,0-0.1,0.1-0.1c0.1-0.1,0.1-0.1,0.2-0.2
							c0,0,0-0.1,0.1-0.1c0.1-0.1,0.2-0.2,0.3-0.3c0.1-0.1,0.2-0.1,0.2-0.2c0,0,0,0,0.1-0.1c0.1-0.1,0.1-0.1,0.2-0.2
							c0,0,0.1,0,0.1-0.1c0.1,0,0.1-0.1,0.2-0.1c0,0,0.1,0,0.1-0.1c0,0,0.1-0.1,0.1-0.1c0,0,0.1,0,0.1-0.1c0,0,0.1-0.1,0.1-0.1
							c0,0,0.1,0,0.1-0.1c0.1,0,0.1-0.1,0.2-0.1c0,0,0.1,0,0.1-0.1c0.1-0.1,0.2-0.1,0.2-0.1c0,0,0.1,0,0.1-0.1c0,0,0,0,0,0
							c0,0,0,0,0.1,0c0,0,0.1,0,0.1,0c0,0,0,0,0.1,0c0,0,0,0,0.1,0c0,0,0.1,0,0.1,0c0,0,0,0,0,0c0,0,0.1,0,0.1,0c0,0,0,0,0,0
							c0,0,0.1,0,0.1,0c0,0,0,0,0,0c0,0,0.1,0,0.1,0c0,0,0,0,0,0c0,0,0.1,0,0.1,0L361.4,281.8z"/>
						<g>
							<path class="st10" d="M360.9,282.2c0.8-0.5,1.5-0.1,1.5,0.8l0,8.5c0,0.9-0.6,2.1-1.5,2.5l-2.1,1.2l-28.3,49.3
								c-0.4,0.7-0.9,1.2-1.5,1.6c-0.3,0.2-0.5,0.3-0.8,0.3c-0.8,0.1-1.3-0.5-1.3-1.5l0-5.2c0-0.6,0.2-1.4,0.6-2l29.7-51.6
								C358.2,284.5,359.6,283,360.9,282.2z M362.3,291.7l0-8.5c0-0.9-0.6-1.2-1.3-0.8c-1.3,0.8-2.7,2.2-3.6,3.8l-29.7,51.6
								c-0.4,0.6-0.6,1.3-0.6,1.9l0,5.2c0,0.9,0.5,1.5,1.2,1.4c0.2,0,0.5-0.1,0.8-0.3c0.5-0.3,1-0.8,1.4-1.5l28.4-49.3l2.2-1.3
								C361.7,293.6,362.3,292.5,362.3,291.7"/>
						</g>
					</g>
				</g>
			</g>
		</g>
		<g>
			<g>
				<g>
					<polygon class="st44" points="466.6,274 466.6,280.5 471.7,283.4 471.7,276.9 					"/>
					<polygon class="st45" points="471.7,276.9 479.8,272.2 479.8,278.7 471.7,283.4 					"/>
					<polygon class="st46" points="479.8,272.2 474.7,269.3 466.6,274 471.7,276.9 					"/>
				</g>
				<g>
					<polygon class="st47" points="466.3,266.7 466.3,279.7 471.7,282.8 471.7,269.8 					"/>
					<polygon class="st48" points="471.7,269.8 480.2,264.9 480.2,277.9 471.7,282.8 					"/>
					<polygon class="st5" points="480.2,264.9 474.7,261.7 466.3,266.7 471.7,269.8 					"/>
				</g>
				<g>
					<path class="st44" d="M469.3,279.3c-0.2,0-0.4,0-0.6-0.1l-0.5-0.3c-0.1-0.1-0.2-0.2-0.2-0.4c0-0.2,0.1-0.3,0.2-0.4
						c0.1,0,0.1,0,0.1,0c0,0.1,0,0.1,0,0.1c-0.1,0-0.1,0.1-0.1,0.2c0,0.1,0,0.2,0.1,0.2l0.5,0.3c0.3,0.2,0.6,0.2,0.9,0
						c0.1,0,0.1,0,0.1,0c0,0.1,0,0.1,0,0.1C469.7,279.3,469.5,279.3,469.3,279.3z"/>
				</g>
				<g>
					<path class="st44" d="M469.3,275.1c-0.2,0-0.4,0-0.6-0.1l-0.5-0.3c-0.1-0.1-0.2-0.2-0.2-0.4c0-0.2,0.1-0.3,0.2-0.4
						c0.1,0,0.1,0,0.1,0c0,0.1,0,0.1,0,0.1c-0.1,0-0.1,0.1-0.1,0.2c0,0.1,0,0.2,0.1,0.2l0.5,0.3c0.3,0.2,0.6,0.2,0.9,0
						c0.1,0,0.1,0,0.2,0c0,0.1,0,0.1,0,0.1C469.7,275.1,469.5,275.1,469.3,275.1z"/>
				</g>
				<g>
					<path class="st44" d="M469.3,270.5c-0.2,0-0.4,0-0.6-0.1l-0.5-0.3c-0.1-0.1-0.2-0.2-0.2-0.4c0-0.2,0.1-0.3,0.2-0.4
						c0.1,0,0.1,0,0.1,0c0,0.1,0,0.1,0,0.1c-0.1,0-0.1,0.1-0.1,0.2c0,0.1,0,0.2,0.1,0.2l0.5,0.3c0.3,0.2,0.6,0.2,0.9,0
						c0.1,0,0.1,0,0.2,0c0,0.1,0,0.1,0,0.2C469.7,270.5,469.5,270.5,469.3,270.5z"/>
				</g>
			</g>
			<g>
				<g>
					<polygon class="st44" points="448.9,263.7 448.9,270.2 454,273.1 454,266.7 					"/>
					<polygon class="st45" points="454,266.7 462.1,261.9 462.1,268.4 454,273.1 					"/>
					<polygon class="st46" points="462.1,261.9 457,259 448.9,263.7 454,266.7 					"/>
				</g>
				<g>
					<polygon class="st47" points="448.6,256.4 448.6,269.4 454,272.5 454,259.5 					"/>
					<polygon class="st48" points="454,259.5 462.4,254.6 462.4,267.6 454,272.5 					"/>
					<polygon class="st5" points="462.4,254.6 457,251.5 448.6,256.4 454,259.5 					"/>
				</g>
				<g>
					<path class="st44" d="M451.6,269.1c-0.2,0-0.4,0-0.6-0.1l-0.5-0.3c-0.1-0.1-0.2-0.2-0.2-0.4c0-0.2,0.1-0.3,0.2-0.4
						c0.1,0,0.1,0,0.1,0c0,0.1,0,0.1,0,0.1c-0.1,0-0.1,0.1-0.1,0.2c0,0.1,0,0.2,0.1,0.2l0.5,0.3c0.3,0.2,0.6,0.2,0.9,0
						c0.1,0,0.1,0,0.1,0c0,0.1,0,0.1,0,0.1C452,269,451.8,269.1,451.6,269.1z"/>
				</g>
				<g>
					<path class="st44" d="M451.6,264.9c-0.2,0-0.4,0-0.6-0.1l-0.5-0.3c-0.1-0.1-0.2-0.2-0.2-0.4c0-0.2,0.1-0.3,0.2-0.4
						c0.1,0,0.1,0,0.1,0c0,0.1,0,0.1,0,0.1c-0.1,0-0.1,0.1-0.1,0.2c0,0.1,0,0.2,0.1,0.2l0.5,0.3c0.3,0.2,0.6,0.2,0.9,0
						c0.1,0,0.1,0,0.1,0c0,0.1,0,0.1,0,0.1C452,264.8,451.8,264.9,451.6,264.9z"/>
				</g>
				<g>
					<path class="st44" d="M451.6,260.2c-0.2,0-0.4,0-0.6-0.1l-0.5-0.3c-0.1-0.1-0.2-0.2-0.2-0.4c0-0.2,0.1-0.3,0.2-0.4
						c0.1,0,0.1,0,0.1,0c0,0.1,0,0.1,0,0.1c-0.1,0-0.1,0.1-0.1,0.2c0,0.1,0,0.2,0.1,0.2l0.5,0.3c0.3,0.2,0.6,0.2,0.9,0
						c0.1,0,0.1,0,0.1,0c0,0.1,0,0.1,0,0.1C452,260.2,451.8,260.2,451.6,260.2z"/>
				</g>
			</g>
			<g>
				<path class="st47" d="M454.7,249.6l-8.8,5.1c-0.2,0.1-0.4,0.3-0.5,0.5l30.2,17.4l8.7-5.4l0.1-0.4L454.7,249.6z"/>
				<path class="st49" d="M445.2,255.9L475,273l0.6-0.4l-30.2-17.4C445.3,255.4,445.2,255.6,445.2,255.9z"/>
				<path class="st50" d="M475.7,271.9l8.8-5.1v0.8L475,273l0,0C475,272.6,475.2,272.1,475.7,271.9z"/>
			</g>
		</g>
		<g>
			<g>
				<g>
					<polygon class="st44" points="455.4,281.4 455.4,287.9 460.5,290.8 460.5,284.3 					"/>
					<polygon class="st45" points="460.5,284.3 468.6,279.6 468.6,286.1 460.5,290.8 					"/>
					<polygon class="st46" points="468.6,279.6 463.5,276.7 455.4,281.4 460.5,284.3 					"/>
				</g>
				<g>
					<polygon class="st47" points="455.1,274.1 455.1,287.1 460.5,290.2 460.5,277.2 					"/>
					<polygon class="st48" points="460.5,277.2 469,272.3 469,285.3 460.5,290.2 					"/>
					<polygon class="st5" points="469,272.3 463.5,269.2 455.1,274.1 460.5,277.2 					"/>
				</g>
				<g>
					<path class="st44" d="M458.1,286.8c-0.2,0-0.4,0-0.6-0.1l-0.5-0.3c-0.1-0.1-0.2-0.2-0.2-0.4c0-0.2,0.1-0.3,0.2-0.4
						c0.1,0,0.1,0,0.1,0c0,0.1,0,0.1,0,0.1c-0.1,0-0.1,0.1-0.1,0.2c0,0.1,0,0.2,0.1,0.2l0.5,0.3c0.3,0.2,0.6,0.2,0.9,0
						c0.1,0,0.1,0,0.1,0c0,0.1,0,0.1,0,0.1C458.5,286.7,458.3,286.8,458.1,286.8z"/>
				</g>
				<g>
					<path class="st44" d="M458.1,282.6c-0.2,0-0.4,0-0.6-0.1l-0.5-0.3c-0.1-0.1-0.2-0.2-0.2-0.4c0-0.2,0.1-0.3,0.2-0.4
						c0.1,0,0.1,0,0.1,0c0,0.1,0,0.1,0,0.1c-0.1,0-0.1,0.1-0.1,0.2c0,0.1,0,0.2,0.1,0.2l0.5,0.3c0.3,0.2,0.6,0.2,0.9,0
						c0.1,0,0.1,0,0.1,0c0,0.1,0,0.1,0,0.2C458.5,282.5,458.3,282.6,458.1,282.6z"/>
				</g>
				<g>
					<path class="st44" d="M458.1,277.9c-0.2,0-0.4,0-0.6-0.1l-0.5-0.3c-0.1-0.1-0.2-0.2-0.2-0.4c0-0.2,0.1-0.3,0.2-0.4
						c0.1,0,0.1,0,0.1,0c0,0.1,0,0.1,0,0.1c-0.1,0-0.1,0.1-0.1,0.2c0,0.1,0,0.2,0.1,0.2l0.5,0.3c0.3,0.2,0.6,0.2,0.9,0
						c0.1,0,0.1,0,0.1,0c0,0.1,0,0.1,0,0.1C458.5,277.9,458.3,277.9,458.1,277.9z"/>
				</g>
			</g>
			<g>
				<g>
					<polygon class="st44" points="437.7,271.1 437.7,277.6 442.8,280.5 442.8,274.1 					"/>
					<polygon class="st45" points="442.8,274.1 450.9,269.3 450.9,275.8 442.8,280.5 					"/>
					<polygon class="st46" points="450.9,269.3 445.8,266.4 437.7,271.1 442.8,274.1 					"/>
				</g>
				<g>
					<polygon class="st47" points="437.4,263.8 437.4,276.8 442.8,279.9 442.8,266.9 					"/>
					<polygon class="st48" points="442.8,266.9 451.2,262 451.2,275 442.8,279.9 					"/>
					<polygon class="st5" points="451.2,262 445.8,258.9 437.4,263.8 442.8,266.9 					"/>
				</g>
				<g>
					<path class="st44" d="M440.4,276.5c-0.2,0-0.4,0-0.6-0.1l-0.5-0.3c-0.1-0.1-0.2-0.2-0.2-0.4c0-0.2,0.1-0.3,0.2-0.4
						c0.1,0,0.1,0,0.1,0c0,0.1,0,0.1,0,0.1c-0.1,0-0.1,0.1-0.1,0.2c0,0.1,0,0.2,0.1,0.2l0.5,0.3c0.3,0.2,0.6,0.2,0.9,0
						c0.1,0,0.1,0,0.1,0c0,0.1,0,0.1,0,0.1C440.8,276.4,440.6,276.5,440.4,276.5z"/>
				</g>
				<g>
					<path class="st44" d="M440.4,272.3c-0.2,0-0.4,0-0.6-0.1l-0.5-0.3c-0.1-0.1-0.2-0.2-0.2-0.4c0-0.2,0.1-0.3,0.2-0.4
						c0.1,0,0.1,0,0.1,0c0,0.1,0,0.1,0,0.1c-0.1,0-0.1,0.1-0.1,0.2c0,0.1,0,0.2,0.1,0.2l0.5,0.3c0.3,0.2,0.6,0.2,0.9,0
						c0.1,0,0.1,0,0.1,0c0,0.1,0,0.1,0,0.1C440.8,272.2,440.6,272.3,440.4,272.3z"/>
				</g>
				<g>
					<path class="st44" d="M440.4,267.6c-0.2,0-0.4,0-0.6-0.1l-0.5-0.3c-0.1-0.1-0.2-0.2-0.2-0.4c0-0.2,0.1-0.3,0.2-0.4
						c0.1,0,0.1,0,0.1,0c0,0.1,0,0.1,0,0.1c-0.1,0-0.1,0.1-0.1,0.2c0,0.1,0,0.2,0.1,0.2l0.5,0.3c0.3,0.2,0.6,0.2,0.9,0
						c0.1,0,0.1,0,0.1,0c0,0.1,0,0.1,0,0.2C440.8,267.6,440.6,267.6,440.4,267.6z"/>
				</g>
			</g>
			<g>
				<path class="st47" d="M443.5,257.1l-8.8,5.1c-0.2,0.1-0.4,0.3-0.5,0.5l30.2,17.4l8.7-5.4l0.1-0.4L443.5,257.1z"/>
				<path class="st49" d="M434,263.3l29.7,17.2l0.6-0.4l-30.2-17.4C434.1,262.8,434,263.1,434,263.3z"/>
				<path class="st50" d="M464.5,279.3l8.8-5.1v0.8l-9.5,5.5l0,0C463.8,280,464,279.5,464.5,279.3z"/>
			</g>
		</g>
		<g>
			<g>
				<g>
					<polygon class="st44" points="442.4,288.9 442.4,295.4 447.5,298.3 447.5,291.8 					"/>
					<polygon class="st45" points="447.5,291.8 455.6,287.1 455.6,293.6 447.5,298.3 					"/>
					<polygon class="st46" points="455.6,287.1 450.6,284.2 442.4,288.9 447.5,291.8 					"/>
				</g>
				<g>
					<polygon class="st47" points="442.1,281.6 442.1,294.6 447.5,297.7 447.5,284.7 					"/>
					<polygon class="st48" points="447.5,284.7 456,279.8 456,292.8 447.5,297.7 					"/>
					<polygon class="st5" points="456,279.8 450.6,276.7 442.1,281.6 447.5,284.7 					"/>
				</g>
				<g>
					<path class="st44" d="M445.1,294.3c-0.2,0-0.4,0-0.6-0.1l-0.5-0.3c-0.1-0.1-0.2-0.2-0.2-0.4c0-0.2,0.1-0.3,0.2-0.4
						c0.1,0,0.1,0,0.1,0c0,0.1,0,0.1,0,0.1c-0.1,0-0.1,0.1-0.1,0.2c0,0.1,0,0.2,0.1,0.2l0.5,0.3c0.3,0.2,0.6,0.2,0.9,0
						c0.1,0,0.1,0,0.1,0c0,0.1,0,0.1,0,0.1C445.5,294.2,445.3,294.3,445.1,294.3z"/>
				</g>
				<g>
					<path class="st44" d="M445.1,290.1c-0.2,0-0.4,0-0.6-0.1l-0.5-0.3c-0.1-0.1-0.2-0.2-0.2-0.4c0-0.2,0.1-0.3,0.2-0.4
						c0.1,0,0.1,0,0.1,0c0,0.1,0,0.1,0,0.1c-0.1,0-0.1,0.1-0.1,0.2c0,0.1,0,0.2,0.1,0.2l0.5,0.3c0.3,0.2,0.6,0.2,0.9,0
						c0.1,0,0.1,0,0.1,0c0,0.1,0,0.1,0,0.1C445.5,290,445.3,290.1,445.1,290.1z"/>
				</g>
				<g>
					<path class="st44" d="M445.1,285.4c-0.2,0-0.4,0-0.6-0.1l-0.5-0.3c-0.1-0.1-0.2-0.2-0.2-0.4c0-0.2,0.1-0.3,0.2-0.4
						c0.1,0,0.1,0,0.1,0c0,0.1,0,0.1,0,0.1c-0.1,0-0.1,0.1-0.1,0.2c0,0.1,0,0.2,0.1,0.2l0.5,0.3c0.3,0.2,0.6,0.2,0.9,0
						c0.1,0,0.1,0,0.1,0c0,0.1,0,0.1,0,0.2C445.5,285.4,445.3,285.4,445.1,285.4z"/>
				</g>
			</g>
			<g>
				<g>
					<polygon class="st44" points="424.7,278.6 424.7,285.1 429.8,288 429.8,281.6 					"/>
					<polygon class="st45" points="429.8,281.6 437.9,276.8 437.9,283.3 429.8,288 					"/>
					<polygon class="st46" points="437.9,276.8 432.8,273.9 424.7,278.6 429.8,281.6 					"/>
				</g>
				<g>
					<polygon class="st47" points="424.4,271.3 424.4,284.3 429.8,287.4 429.8,274.4 					"/>
					<polygon class="st48" points="429.8,274.4 438.2,269.5 438.2,282.5 429.8,287.4 					"/>
					<polygon class="st5" points="438.2,269.5 432.8,266.4 424.4,271.3 429.8,274.4 					"/>
				</g>
				<g>
					<path class="st44" d="M427.4,284c-0.2,0-0.4,0-0.6-0.1l-0.5-0.3c-0.1-0.1-0.2-0.2-0.2-0.4c0-0.2,0.1-0.3,0.2-0.4
						c0.1,0,0.1,0,0.1,0c0,0.1,0,0.1,0,0.1c-0.1,0-0.1,0.1-0.1,0.2c0,0.1,0,0.2,0.1,0.2l0.5,0.3c0.3,0.2,0.6,0.2,0.9,0
						c0.1,0,0.1,0,0.1,0c0,0.1,0,0.1,0,0.1C427.8,283.9,427.6,284,427.4,284z"/>
				</g>
				<g>
					<path class="st44" d="M427.4,279.8c-0.2,0-0.4,0-0.6-0.1l-0.5-0.3c-0.1-0.1-0.2-0.2-0.2-0.4c0-0.2,0.1-0.3,0.2-0.4
						c0.1,0,0.1,0,0.1,0c0,0.1,0,0.1,0,0.1c-0.1,0-0.1,0.1-0.1,0.2c0,0.1,0,0.2,0.1,0.2l0.5,0.3c0.3,0.2,0.6,0.2,0.9,0
						c0.1,0,0.1,0,0.1,0c0,0.1,0,0.1,0,0.1C427.8,279.7,427.6,279.8,427.4,279.8z"/>
				</g>
				<g>
					<path class="st44" d="M427.4,275.1c-0.2,0-0.4,0-0.6-0.1l-0.5-0.3c-0.1-0.1-0.2-0.2-0.2-0.4c0-0.2,0.1-0.3,0.2-0.4
						c0.1,0,0.1,0,0.1,0c0,0.1,0,0.1,0,0.1c-0.1,0-0.1,0.1-0.1,0.2c0,0.1,0,0.2,0.1,0.2l0.5,0.3c0.3,0.2,0.6,0.2,0.9,0
						c0.1,0,0.1,0,0.1,0c0,0.1,0,0.1,0,0.2C427.8,275.1,427.6,275.1,427.4,275.1z"/>
				</g>
			</g>
			<g>
				<path class="st47" d="M430.5,264.5l-8.8,5.1c-0.2,0.1-0.4,0.3-0.5,0.5l30.2,17.4l8.7-5.4l0.1-0.4L430.5,264.5z"/>
				<path class="st49" d="M421.1,270.8l29.7,17.2l0.6-0.4l-30.2-17.4C421.1,270.3,421.1,270.5,421.1,270.8z"/>
				<path class="st50" d="M451.5,286.8l8.8-5.1v0.8l-9.5,5.5l0,0C450.8,287.5,451,287,451.5,286.8z"/>
			</g>
		</g>
		<g>
			<g>
				<g>
					<g class="st3">
						<g>
							<polygon class="st51" points="439.5,295.2 439.5,303 408.6,321 408.6,313.3 							"/>
						</g>
						<g>
							<polygon class="st52" points="408.6,313.3 408.6,321 400.2,316.2 400.3,308.4 							"/>
						</g>
						<g>
							<polygon class="st53" points="439.5,295.2 408.6,313.3 400.3,308.4 431.2,290.4 							"/>
						</g>
					</g>
				</g>
			</g>
			<g>
				<polygon class="st5" points="439.5,300.5 439.5,301.5 408.6,319.6 408.6,318.5 				"/>
				<polygon class="st48" points="408.6,318.5 408.6,319.6 400.2,314.8 400.3,313.7 				"/>
			</g>
		</g>
		<g>
			<g>
				<path class="st54" d="M425.9,298.4C425.9,298.4,425.9,298.4,425.9,298.4c0,0.1,0,0.1-0.1,0.2c0,0,0,0,0,0c0,0-0.1,0.1-0.1,0.1
					c0,0-0.1,0.1-0.1,0.1c0,0-0.1,0-0.1,0.1l-9.6,5.6c-0.1,0.1-0.3,0.1-0.5,0.2c0,0,0,0-0.1,0c-0.2,0-0.3,0.1-0.5,0.1c0,0,0,0,0,0
					c-0.2,0-0.4,0-0.5-0.1c0,0,0,0,0,0c-0.2,0-0.3-0.1-0.5-0.2c-0.3-0.2-0.4-0.4-0.4-0.6l0,0.5c0,0.2,0.1,0.5,0.4,0.6
					c0.1,0,0.1,0.1,0.2,0.1c0.1,0,0.1,0,0.2,0.1c0,0,0.1,0,0.1,0c0,0,0,0,0,0c0,0,0,0,0,0c0,0,0.1,0,0.1,0c0,0,0.1,0,0.1,0
					c0,0,0.1,0,0.1,0c0,0,0,0,0.1,0c0,0,0,0,0,0c0,0,0.1,0,0.1,0c0.1,0,0.1,0,0.2,0c0.1,0,0.1,0,0.2,0c0,0,0.1,0,0.1,0
					c0,0,0,0,0.1,0c0,0,0.1,0,0.1,0c0.1,0,0.2-0.1,0.3-0.1l9.6-5.6c0,0,0,0,0,0c0,0,0,0,0.1-0.1c0,0,0.1-0.1,0.1-0.1c0,0,0,0,0,0
					c0,0,0.1-0.1,0.1-0.1c0,0,0,0,0,0c0,0,0,0,0,0c0,0,0,0,0,0c0,0,0-0.1,0-0.1c0,0,0,0,0,0c0,0,0,0,0,0c0,0,0,0,0-0.1
					c0,0,0-0.1,0-0.1c0,0,0,0,0,0l0-0.5C425.9,298.3,425.9,298.4,425.9,298.4z"/>
				<g>
					<path class="st55" d="M425.5,297.6c0.6,0.3,0.6,0.9,0,1.2l-9.6,5.6c-0.6,0.3-1.5,0.3-2.1,0c-0.6-0.3-0.6-0.9,0-1.2l9.6-5.6
						C423.9,297.3,424.9,297.3,425.5,297.6z"/>
				</g>
			</g>
			<g>
				<polygon class="st56" points="420.5,295.6 420.5,300.7 419.1,301.5 419.1,296.4 				"/>
				<polygon class="st39" points="420.5,295.6 420.1,295.4 418.8,296.2 419.1,296.4 				"/>
				<polygon class="st57" points="419.1,296.4 418.8,296.2 418.8,301.3 419.1,301.5 				"/>
			</g>
			<g>
				<polygon class="st58" points="431.4,291.2 431.4,272.3 406.8,286.5 406.8,305.4 				"/>
				<polygon class="st55" points="431.4,272.3 430.9,272.1 406.3,286.3 406.8,286.5 				"/>
				<polygon class="st59" points="406.8,305.4 406.8,286.5 406.3,286.3 406.3,305.1 				"/>
			</g>
		</g>
	</g>
</g>
</svg>
