<?xml version="1.0" encoding="utf-8"?>
<!-- Generator: Adobe Illustrator 24.2.1, SVG Export Plug-In . SVG Version: 6.00 Build 0)  -->
<svg version="1.1" xmlns="http://www.w3.org/2000/svg" xmlns:xlink="http://www.w3.org/1999/xlink" x="0px" y="0px"
	 viewBox="0 0 500 500" style="enable-background:new 0 0 500 500;" xml:space="preserve">
<style type="text/css">
	.st0{display:none;}
	.st1{display:inline;}
	.st2{fill:#FFFDF8;}
	.st3{enable-background:new    ;}
	.st4{fill:#1C569B;}
	.st5{fill:#4198EF;}
	.st6{fill:#B3E6FF;}
	.st7{fill:#B3DBFF;}
	.st8{fill:#92BCEA;}
	.st9{fill:#EBF6FC;}
	.st10{fill:#2384CC;}
	.st11{fill:#225F96;}
	.st12{fill:#275FAF;}
	.st13{fill:#4A97F4;}
	.st14{fill:#184172;}
	.st15{fill:#1D3963;}
	.st16{fill:#28467C;}
	.st17{fill:#A8A8A8;}
	.st18{fill:#F8FCFF;}
	.st19{fill:#728CA5;}
	.st20{fill:#9D9D9D;}
	.st21{fill:#696969;}
	.st22{fill:#A9A9A9;}
	.st23{fill:#989898;}
	.st24{fill:#C4C4C4;}
	.st25{fill:#DDDDDD;}
	.st26{fill:#B0BECC;}
	.st27{fill:#EAEAEA;}
	.st28{fill:none;stroke:#EAB18B;stroke-width:1.3153;stroke-linecap:round;stroke-miterlimit:10;}
	.st29{fill:#7C3232;}
	.st30{fill:#FC8754;}
	.st31{fill:#FFFFFF;}
	.st32{fill:#DDA07F;}
	.st33{fill:#CC8A6D;}
	.st34{fill:#EAB18B;}
	.st35{fill:#E0A380;}
	.st36{fill:#562816;}
	.st37{opacity:0.4;fill:#D39779;}
	.st38{fill:#C5C5C5;}
	.st39{fill:#898989;}
	.st40{fill:#DCDCDC;}
	.st41{fill:#A0A0A0;}
	.st42{fill:#A1CCFF;}
	.st43{fill:#73AEEA;}
	.st44{fill:#6ABAEF;}
	.st45{fill:#589DD6;}
	.st46{fill:#5290BA;}
	.st47{fill:#155A9E;}
	.st48{fill:#357FBC;}
	.st49{fill:#CCE6FF;}
	.st50{fill:#0B4E9E;}
	.st51{fill:#5C9EE0;}
	.st52{fill:#7FB2EF;}
	.st53{fill:#FFCFD5;}
	.st54{fill:#ADD9F7;}
</style>
<g id="BACKGROUND" class="st0">
	<g class="st1">
		<rect class="st2" width="500" height="500"/>
	</g>
</g>
<g id="OBJECTS">
	<g>
		<g>
			<g class="st3">
				<g>
					<polygon class="st4" points="161,423.1 161,427 237.2,471.2 237.2,467.4 					"/>
				</g>
				<g>
					<polygon class="st5" points="237.2,467.4 237.2,471.2 394.5,380.3 394.5,376.4 					"/>
				</g>
				<g>
					<polygon class="st6" points="161,423.1 237.2,467.4 394.5,376.4 318.3,332.2 					"/>
				</g>
			</g>
		</g>
		<g>
			<g>
				<g>
					<g>
						<g class="st3">
							<g>
								<polygon class="st7" points="318.1,346.1 318.1,362.2 236.1,409.9 236.1,393.9 								"/>
							</g>
							<g>
								<polygon class="st8" points="236.1,393.9 236.1,409.9 218.8,399.9 218.8,383.9 								"/>
							</g>
							<g>
								<polygon class="st9" points="318.1,346.1 236.1,393.9 218.8,383.9 300.8,336.1 								"/>
							</g>
						</g>
					</g>
				</g>
				<g>
					<polygon class="st10" points="318.1,357.1 318.1,359.2 236.1,407 236.1,404.8 					"/>
					<polygon class="st11" points="236.1,404.8 236.1,407 218.8,397 218.8,394.8 					"/>
				</g>
			</g>
			<g>
				<g>
					<path class="st12" d="M239,376.2v-14.4c0-0.4-0.4-0.6-0.7-0.4l-14.2,8.2c-0.3,0.1-0.4,0.4-0.4,0.7l0,14.3
						c0,0.4,0.4,0.7,0.8,0.5l14.1-8.1C238.9,376.8,239,376.5,239,376.2z"/>
					<g>
						<g class="st3">
							<path class="st13" d="M233.8,381.4C233.8,381.4,233.8,381.4,233.8,381.4c-0.1,0-0.1,0-0.2,0c0,0,0,0,0,0c-0.1,0-0.1,0-0.2,0
								c0,0,0,0,0,0c-0.1,0-0.1-0.1-0.2-0.1l-1-0.6l-1.6,1l1,0.6c0,0,0.1,0.1,0.1,0.1c0,0,0,0,0,0c0,0,0,0,0,0c0,0,0,0,0,0
								c0,0,0.1,0,0.1,0c0,0,0,0,0,0c0,0,0,0,0,0c0,0,0,0,0,0c0,0,0,0,0.1,0c0,0,0,0,0.1,0c0,0,0,0,0,0c0,0,0,0,0,0c0,0,0,0,0,0
								c0,0,0,0,0.1,0c0,0,0,0,0.1,0c0,0,0,0,0,0l1.7-1C233.9,381.4,233.9,381.4,233.8,381.4z"/>
							<path class="st12" d="M232.8,379l0,2.7c0,0.4-0.1,0.7-0.4,0.8l1.7-1c0.2-0.1,0.4-0.4,0.4-0.8l0-2.7L232.8,379z"/>
							<g>
								<polygon class="st13" points="232.8,379 234.5,378.1 234.3,378 232.6,378.9 								"/>
							</g>
							<g>
								<path class="st14" d="M232.6,378.9l0,2.7c0,0.7-0.5,0.9-1.1,0.6l-1-0.6l0,0.2l1,0.6c0.7,0.4,1.3,0.1,1.3-0.7l0-2.7
									L232.6,378.9z"/>
							</g>
						</g>
					</g>
				</g>
				<g>
					<path class="st12" d="M261.3,364.3V350c0-0.4-0.4-0.6-0.7-0.4l-14.2,8.2c-0.3,0.1-0.4,0.4-0.4,0.7l0,14.3
						c0,0.4,0.4,0.7,0.8,0.5l14.1-8.1C261.1,364.9,261.3,364.6,261.3,364.3z"/>
					<g>
						<g class="st3">
							<path class="st13" d="M256,369.5C256,369.5,256,369.5,256,369.5c-0.1,0-0.1,0-0.2,0c0,0,0,0,0,0c-0.1,0-0.1,0-0.2,0
								c0,0,0,0,0,0c-0.1,0-0.1-0.1-0.2-0.1l-1-0.6l-1.6,1l1,0.6c0,0,0.1,0.1,0.1,0.1c0,0,0,0,0,0c0,0,0,0,0,0c0,0,0,0,0,0
								c0,0,0.1,0,0.1,0c0,0,0,0,0,0c0,0,0,0,0,0c0,0,0,0,0,0c0,0,0,0,0.1,0c0,0,0,0,0.1,0c0,0,0,0,0,0c0,0,0,0,0,0c0,0,0,0,0,0
								c0,0,0,0,0.1,0c0,0,0,0,0.1,0c0,0,0,0,0,0l1.7-1C256.1,369.5,256.1,369.5,256,369.5z"/>
							<path class="st12" d="M255.1,367.2l0,2.7c0,0.4-0.1,0.7-0.4,0.8l1.7-1c0.2-0.1,0.4-0.4,0.4-0.8l0-2.7L255.1,367.2z"/>
							<g>
								<polygon class="st13" points="255.1,367.2 256.7,366.2 256.5,366.1 254.9,367 								"/>
							</g>
							<g>
								<path class="st14" d="M254.9,367l0,2.7c0,0.7-0.5,0.9-1.1,0.6l-1-0.6l0,0.2l1,0.6c0.7,0.4,1.3,0.1,1.3-0.7l0-2.7L254.9,367z
									"/>
							</g>
						</g>
					</g>
				</g>
				<g>
					<path class="st12" d="M280.9,353.8v-14.4c0-0.4-0.4-0.6-0.7-0.4l-14.2,8.2c-0.3,0.1-0.4,0.4-0.4,0.7l0,14.3
						c0,0.4,0.4,0.7,0.8,0.5l14.1-8.1C280.8,354.4,280.9,354.1,280.9,353.8z"/>
					<g>
						<g class="st3">
							<path class="st13" d="M275.7,359C275.7,359,275.7,359,275.7,359c-0.1,0-0.1,0-0.2,0c0,0,0,0,0,0c-0.1,0-0.1,0-0.2,0
								c0,0,0,0,0,0c-0.1,0-0.1-0.1-0.2-0.1l-1-0.6l-1.6,1l1,0.6c0,0,0.1,0.1,0.1,0.1c0,0,0,0,0,0c0,0,0,0,0,0c0,0,0,0,0,0
								c0,0,0.1,0,0.1,0c0,0,0,0,0,0c0,0,0,0,0,0c0,0,0,0,0,0c0,0,0,0,0.1,0c0,0,0,0,0.1,0c0,0,0,0,0,0c0,0,0,0,0,0c0,0,0,0,0,0
								c0,0,0,0,0.1,0c0,0,0,0,0.1,0c0,0,0,0,0,0l1.7-1C275.8,358.9,275.8,358.9,275.7,359z"/>
							<path class="st12" d="M274.7,356.6l0,2.7c0,0.4-0.1,0.7-0.4,0.8l1.7-1c0.2-0.1,0.4-0.4,0.4-0.8l0-2.7L274.7,356.6z"/>
							<g>
								<polygon class="st13" points="274.7,356.6 276.4,355.6 276.2,355.5 274.5,356.5 								"/>
							</g>
							<g>
								<path class="st14" d="M274.5,356.5l0,2.7c0,0.7-0.5,0.9-1.1,0.6l-1-0.6l0,0.2l1,0.6c0.7,0.4,1.3,0.1,1.3-0.7l0-2.7
									L274.5,356.5z"/>
							</g>
						</g>
					</g>
				</g>
				<g>
					<path class="st12" d="M303.1,341.9v-14.4c0-0.4-0.4-0.6-0.7-0.4l-14.2,8.2c-0.3,0.1-0.4,0.4-0.4,0.7l0,14.3
						c0,0.4,0.4,0.7,0.8,0.5l14.1-8.1C303,342.5,303.1,342.2,303.1,341.9z"/>
					<g>
						<g class="st3">
							<path class="st13" d="M297.9,347.1C297.9,347.1,297.9,347.1,297.9,347.1c-0.1,0-0.1,0-0.2,0c0,0,0,0,0,0c-0.1,0-0.1,0-0.2,0
								c0,0,0,0,0,0c-0.1,0-0.1-0.1-0.2-0.1l-1-0.6l-1.6,1l1,0.6c0,0,0.1,0.1,0.1,0.1c0,0,0,0,0,0c0,0,0,0,0,0c0,0,0,0,0,0
								c0,0,0.1,0,0.1,0c0,0,0,0,0,0c0,0,0,0,0,0c0,0,0,0,0,0c0,0,0,0,0.1,0c0,0,0,0,0.1,0c0,0,0,0,0,0c0,0,0,0,0,0c0,0,0,0,0,0
								c0,0,0,0,0.1,0c0,0,0,0,0.1,0c0,0,0,0,0,0l1.7-1C298,347,298,347.1,297.9,347.1z"/>
							<path class="st12" d="M296.9,344.7l0,2.7c0,0.4-0.1,0.7-0.4,0.8l1.7-1c0.2-0.1,0.4-0.4,0.4-0.8l0-2.7L296.9,344.7z"/>
							<g>
								<polygon class="st13" points="296.9,344.7 298.6,343.7 298.4,343.6 296.7,344.6 								"/>
							</g>
							<g>
								<path class="st14" d="M296.7,344.6l0,2.7c0,0.7-0.5,0.9-1.1,0.6l-1-0.6l0,0.2l1,0.6c0.7,0.4,1.3,0.1,1.3-0.7l0-2.7
									L296.7,344.6z"/>
							</g>
						</g>
					</g>
				</g>
				<g>
					<g>
						<path class="st15" d="M241.2,382v2.2c0,0.4,0.2,0.9,0.6,1.1l1.9,1.1l-3,1.7l-1.9-1.1c-0.4-0.2-0.6-0.6-0.6-1.1v-2.2L241.2,382
							z"/>
						<path class="st12" d="M241.3,381.9v2.2c0,0.4,0.2,0.9,0.6,1.1l1.9,1.1l-3,1.7l-1.8-1.1c-0.4-0.2-0.6-0.6-0.6-1.1v-2.2
							L241.3,381.9z"/>
						<polygon class="st16" points="243.8,386.5 243.8,386.4 240.8,388.1 240.8,388.2 						"/>
					</g>
					<path class="st17" d="M247,379.5v-14c0-0.4-0.4-0.6-0.7-0.4l-13.8,8c-0.2,0.1-0.4,0.4-0.4,0.7l0,13.9c0,0.4,0.4,0.7,0.8,0.5
						l13.7-7.9C246.8,380.1,247,379.8,247,379.5z"/>
					<path class="st12" d="M232.2,386.7l0-12.9c0-0.3,0.2-0.5,0.4-0.7l13.8-8c0.3-0.2,0.7,0,0.7,0.4v12.5L232.2,386.7z"/>
					<polygon class="st18" points="232.7,386 232.7,373.5 246.6,365.5 246.6,378 					"/>
					<path class="st16" d="M247.1,378.1v1.4c0,0.3-0.2,0.6-0.4,0.7l-13.7,7.9c-0.3,0.2-0.8-0.1-0.8-0.5l0-1L247.1,378.1z"/>
				</g>
				<g>
					<g>
						<path class="st15" d="M261.7,370.9v2.2c0,0.4,0.2,0.9,0.6,1.1l1.9,1.1l-3,1.7l-1.9-1.1c-0.4-0.2-0.6-0.6-0.6-1.1v-2.2
							L261.7,370.9z"/>
						<path class="st12" d="M261.7,370.8v2.2c0,0.4,0.2,0.9,0.6,1.1l1.9,1.1l-3,1.7l-1.8-1.1c-0.4-0.2-0.6-0.6-0.6-1.1v-2.2
							L261.7,370.8z"/>
						<polygon class="st16" points="264.2,375.3 264.2,375.2 261.3,376.9 261.3,377.1 						"/>
					</g>
					<path class="st17" d="M267.4,368.4v-14c0-0.4-0.4-0.6-0.7-0.4l-13.8,8c-0.2,0.1-0.4,0.4-0.4,0.7l0,13.9c0,0.4,0.4,0.7,0.8,0.5
						l13.7-7.9C267.3,369,267.4,368.7,267.4,368.4z"/>
					<path class="st12" d="M252.7,375.6l0-12.9c0-0.3,0.1-0.5,0.4-0.7l13.8-8c0.3-0.2,0.7,0,0.7,0.4V367L252.7,375.6z"/>
					<polygon class="st18" points="253.1,374.9 253.1,362.4 267,354.4 267,366.8 					"/>
					<path class="st16" d="M267.5,367v1.4c0,0.3-0.2,0.6-0.4,0.7l-13.7,7.9c-0.3,0.2-0.8-0.1-0.8-0.5l0-1L267.5,367z"/>
				</g>
				<g>
					<g>
						<path class="st15" d="M281.4,359.2v2.2c0,0.4,0.2,0.9,0.6,1.1l1.9,1.1l-3,1.7l-1.9-1.1c-0.4-0.2-0.6-0.6-0.6-1.1v-2.2
							L281.4,359.2z"/>
						<path class="st12" d="M281.4,359.1v2.2c0,0.4,0.2,0.9,0.6,1.1l1.9,1.1l-3,1.7l-1.8-1.1c-0.4-0.2-0.6-0.6-0.6-1.1v-2.2
							L281.4,359.1z"/>
						<polygon class="st16" points="283.9,363.6 283.9,363.5 280.9,365.2 280.9,365.4 						"/>
					</g>
					<path class="st17" d="M287.1,356.7v-14c0-0.4-0.4-0.6-0.7-0.4l-13.8,8c-0.2,0.1-0.4,0.4-0.4,0.7l0,13.9c0,0.4,0.4,0.7,0.8,0.5
						l13.7-7.9C287,357.3,287.1,357,287.1,356.7z"/>
					<path class="st12" d="M272.3,363.9l0-12.9c0-0.3,0.2-0.5,0.4-0.7l13.8-8c0.3-0.2,0.7,0,0.7,0.4v12.5L272.3,363.9z"/>
					<polygon class="st18" points="272.8,363.2 272.8,350.7 286.7,342.7 286.7,355.1 					"/>
					<path class="st16" d="M287.2,355.3v1.4c0,0.3-0.2,0.6-0.4,0.7l-13.7,7.9c-0.3,0.2-0.8-0.1-0.8-0.5l0-1L287.2,355.3z"/>
				</g>
				<g>
					<g>
						<path class="st15" d="M301.7,347.8v2.2c0,0.4,0.2,0.9,0.6,1.1l1.9,1.1l-3,1.7l-1.9-1.1c-0.4-0.2-0.6-0.6-0.6-1.1v-2.2
							L301.7,347.8z"/>
						<path class="st12" d="M301.7,347.7v2.2c0,0.4,0.2,0.9,0.6,1.1l1.9,1.1l-3,1.7l-1.8-1.1c-0.4-0.2-0.6-0.6-0.6-1.1v-2.2
							L301.7,347.7z"/>
						<polygon class="st16" points="304.2,352.3 304.2,352.2 301.2,353.9 301.2,354 						"/>
					</g>
					<path class="st17" d="M307.4,345.3v-14c0-0.4-0.4-0.6-0.7-0.4l-13.8,8c-0.2,0.1-0.4,0.4-0.4,0.7l0,13.9c0,0.4,0.4,0.7,0.8,0.5
						l13.7-7.9C307.3,345.9,307.4,345.6,307.4,345.3z"/>
					<path class="st12" d="M292.6,352.5l0-12.9c0-0.3,0.2-0.5,0.4-0.7l13.8-8c0.3-0.2,0.7,0,0.7,0.4v12.5L292.6,352.5z"/>
					<polygon class="st18" points="293.1,351.8 293.1,339.3 307,331.3 307,343.8 					"/>
					<path class="st16" d="M307.5,343.9v1.4c0,0.3-0.2,0.6-0.4,0.7l-13.7,7.9c-0.3,0.2-0.8-0.1-0.8-0.5l0-1L307.5,343.9z"/>
				</g>
			</g>
		</g>
		<g>
			<g>
				<g>
					<g>
						<g class="st3">
							<g>
								<polygon class="st7" points="382.1,360.9 382.1,377 337.5,402.9 337.5,386.9 								"/>
							</g>
							<g>
								<polygon class="st8" points="337.5,386.9 337.5,402.9 320.2,392.9 320.2,376.9 								"/>
							</g>
							<g>
								<polygon class="st9" points="382.1,360.9 337.5,386.9 320.2,376.9 364.8,350.9 								"/>
							</g>
						</g>
					</g>
				</g>
				<g>
					<polygon class="st10" points="382.1,371.9 382.1,374.1 337.5,400 337.5,397.8 					"/>
					<polygon class="st11" points="337.5,397.8 337.5,400 320.2,390 320.2,387.8 					"/>
				</g>
			</g>
			<g>
				<path class="st19" d="M338.9,371.6v-14.4c0-0.4-0.4-0.6-0.7-0.4L324,365c-0.3,0.1-0.4,0.4-0.4,0.7l0,14.3c0,0.4,0.4,0.7,0.8,0.5
					l14.1-8.1C338.7,372.2,338.9,371.9,338.9,371.6z"/>
				<g>
					<g class="st3">
						<path class="st20" d="M333.7,376.8C333.7,376.8,333.7,376.8,333.7,376.8c-0.1,0-0.1,0-0.2,0c0,0,0,0,0,0c-0.1,0-0.1,0-0.2,0
							c0,0,0,0,0,0c-0.1,0-0.1-0.1-0.2-0.1l-1-0.6l-1.6,1l1,0.6c0,0,0.1,0.1,0.1,0.1c0,0,0,0,0,0c0,0,0,0,0,0c0,0,0,0,0,0
							c0,0,0.1,0,0.1,0c0,0,0,0,0,0c0,0,0,0,0,0c0,0,0,0,0,0c0,0,0,0,0.1,0c0,0,0,0,0.1,0c0,0,0,0,0,0c0,0,0,0,0,0c0,0,0,0,0,0
							c0,0,0,0,0.1,0c0,0,0,0,0.1,0c0,0,0,0,0,0l1.7-1C333.8,376.7,333.7,376.8,333.7,376.8z"/>
						<path class="st21" d="M332.7,374.4l0,2.7c0,0.4-0.1,0.7-0.4,0.8l1.7-1c0.2-0.1,0.4-0.4,0.4-0.8l0-2.7L332.7,374.4z"/>
						<g>
							<polygon class="st22" points="332.7,374.4 334.3,373.4 334.1,373.3 332.5,374.3 							"/>
						</g>
						<g>
							<path class="st23" d="M332.5,374.3l0,2.7c0,0.7-0.5,0.9-1.1,0.6l-1-0.6l0,0.2l1,0.6c0.7,0.4,1.3,0.1,1.3-0.7l0-2.7
								L332.5,374.3z"/>
						</g>
					</g>
				</g>
			</g>
			<g>
				<path class="st19" d="M360.4,362.4v-14.4c0-0.4-0.4-0.6-0.7-0.4l-14.2,8.2c-0.3,0.1-0.4,0.4-0.4,0.7l0,14.3
					c0,0.4,0.4,0.7,0.8,0.5l14.1-8.1C360.2,363,360.4,362.7,360.4,362.4z"/>
				<g>
					<g class="st3">
						<path class="st20" d="M355.2,367.6C355.2,367.6,355.2,367.6,355.2,367.6c-0.1,0-0.1,0-0.2,0c0,0,0,0,0,0c-0.1,0-0.1,0-0.2,0
							c0,0,0,0,0,0c-0.1,0-0.1-0.1-0.2-0.1l-1-0.6l-1.6,1l1,0.6c0,0,0.1,0.1,0.1,0.1c0,0,0,0,0,0c0,0,0,0,0,0c0,0,0,0,0,0
							c0,0,0.1,0,0.1,0c0,0,0,0,0,0c0,0,0,0,0,0c0,0,0,0,0,0c0,0,0,0,0.1,0c0,0,0,0,0.1,0c0,0,0,0,0,0c0,0,0,0,0,0c0,0,0,0,0,0
							c0,0,0,0,0.1,0c0,0,0,0,0.1,0c0,0,0,0,0,0l1.7-1C355.3,367.6,355.2,367.6,355.2,367.6z"/>
						<path class="st21" d="M354.2,365.3l0,2.7c0,0.4-0.1,0.7-0.4,0.8l1.7-1c0.2-0.1,0.4-0.4,0.4-0.8l0-2.7L354.2,365.3z"/>
						<g>
							<polygon class="st22" points="354.2,365.3 355.8,364.3 355.6,364.2 354,365.1 							"/>
						</g>
						<g>
							<path class="st23" d="M354,365.1l0,2.7c0,0.7-0.5,0.9-1.1,0.6l-1-0.6l0,0.2l1,0.6c0.7,0.4,1.3,0.1,1.3-0.7l0-2.7L354,365.1z"
								/>
						</g>
					</g>
				</g>
			</g>
			<g>
				<path class="st19" d="M377.1,352.8v-14.4c0-0.4-0.4-0.6-0.7-0.4l-14.2,8.2c-0.3,0.1-0.4,0.4-0.4,0.7l0,14.3
					c0,0.4,0.4,0.7,0.8,0.5l14.1-8.1C376.9,353.4,377.1,353.1,377.1,352.8z"/>
				<g>
					<g class="st3">
						<path class="st20" d="M371.9,358C371.9,358,371.9,358,371.9,358c-0.1,0-0.1,0-0.2,0c0,0,0,0,0,0c-0.1,0-0.1,0-0.2,0
							c0,0,0,0,0,0c-0.1,0-0.1-0.1-0.2-0.1l-1-0.6l-1.6,1l1,0.6c0,0,0.1,0.1,0.1,0.1c0,0,0,0,0,0c0,0,0,0,0,0c0,0,0,0,0,0
							c0,0,0.1,0,0.1,0c0,0,0,0,0,0c0,0,0,0,0,0c0,0,0,0,0,0c0,0,0,0,0.1,0c0,0,0,0,0.1,0c0,0,0,0,0,0c0,0,0,0,0,0c0,0,0,0,0,0
							c0,0,0,0,0.1,0c0,0,0,0,0.1,0c0,0,0,0,0,0l1.7-1C372,358,371.9,358,371.9,358z"/>
						<path class="st21" d="M370.9,355.7l0,2.7c0,0.4-0.1,0.7-0.4,0.8l1.7-1c0.2-0.1,0.4-0.4,0.4-0.8l0-2.7L370.9,355.7z"/>
						<g>
							<polygon class="st22" points="370.9,355.7 372.6,354.7 372.4,354.6 370.7,355.5 							"/>
						</g>
						<g>
							<path class="st23" d="M370.7,355.5l0,2.7c0,0.7-0.5,0.9-1.1,0.6l-1-0.6l0,0.2l1,0.6c0.7,0.4,1.3,0.1,1.3-0.7l0-2.7
								L370.7,355.5z"/>
						</g>
					</g>
				</g>
			</g>
			<g>
				<g>
					<path class="st24" d="M374.4,357.4v2.3c0,0.5,0.2,0.9,0.6,1.1l2,1.1l-3.1,1.8l-2-1.1c-0.4-0.2-0.6-0.7-0.6-1.1v-2.3
						L374.4,357.4z"/>
					<path class="st25" d="M374.4,357.2v2.3c0,0.5,0.2,0.9,0.6,1.1l2,1.1l-3.1,1.8l-1.9-1.1c-0.4-0.2-0.6-0.7-0.6-1.1V359
						L374.4,357.2z"/>
					<polygon class="st26" points="377,361.9 377,361.8 373.9,363.6 373.9,363.7 					"/>
				</g>
				<path class="st17" d="M380.1,355.1v-14.4c0-0.4-0.4-0.6-0.7-0.4l-14.2,8.2c-0.3,0.1-0.4,0.4-0.4,0.7l0,14.3
					c0,0.4,0.4,0.7,0.8,0.5l14.1-8.1C379.9,355.7,380.1,355.4,380.1,355.1z"/>
				<path class="st24" d="M364.9,362.5l0-13.3c0-0.3,0.2-0.6,0.4-0.7l14.2-8.2c0.3-0.2,0.7,0,0.7,0.4v12.9L364.9,362.5z"/>
				<polygon class="st18" points="365.4,361.8 365.4,349 379.7,340.7 379.7,353.5 				"/>
				<path class="st27" d="M380.2,353.7v1.5c0,0.3-0.2,0.6-0.4,0.7l-14.1,8.1c-0.4,0.2-0.8-0.1-0.8-0.5l0-1L380.2,353.7z"/>
			</g>
			<g>
				<g>
					<path class="st24" d="M357.3,367v2.3c0,0.5,0.2,0.9,0.6,1.1l2,1.1l-3.1,1.8l-2-1.1c-0.4-0.2-0.6-0.7-0.6-1.1v-2.3L357.3,367z"
						/>
					<path class="st25" d="M357.4,366.9v2.3c0,0.5,0.2,0.9,0.6,1.1l2,1.1l-3.1,1.8L355,372c-0.4-0.2-0.6-0.7-0.6-1.1v-2.3
						L357.4,366.9z"/>
					<polygon class="st26" points="360,371.5 360,371.4 356.9,373.2 356.9,373.3 					"/>
				</g>
				<path class="st17" d="M363,364.7v-14.4c0-0.4-0.4-0.6-0.7-0.4l-14.2,8.2c-0.3,0.1-0.4,0.4-0.4,0.7l0,14.3c0,0.4,0.4,0.7,0.8,0.5
					l14.1-8.1C362.9,365.3,363,365,363,364.7z"/>
				<path class="st24" d="M347.8,372.1l0-13.3c0-0.3,0.2-0.6,0.4-0.7l14.2-8.2c0.3-0.2,0.7,0,0.7,0.4v12.9L347.8,372.1z"/>
				<polygon class="st18" points="348.3,371.4 348.3,358.6 362.6,350.3 362.6,363.1 				"/>
				<path class="st27" d="M363.1,363.3v1.5c0,0.3-0.2,0.6-0.4,0.7l-14.1,8.1c-0.4,0.2-0.8-0.1-0.8-0.5l0-1L363.1,363.3z"/>
			</g>
			<g>
				<g>
					<path class="st24" d="M340.3,376.6v2.3c0,0.5,0.2,0.9,0.6,1.1l2,1.1l-3.1,1.8l-2-1.1c-0.4-0.2-0.6-0.7-0.6-1.1v-2.3
						L340.3,376.6z"/>
					<path class="st25" d="M340.3,376.5v2.3c0,0.5,0.2,0.9,0.6,1.1l2,1.1l-3.1,1.8l-1.9-1.1c-0.4-0.2-0.6-0.7-0.6-1.1v-2.3
						L340.3,376.5z"/>
					<polygon class="st26" points="342.9,381.2 342.9,381 339.8,382.8 339.8,382.9 					"/>
				</g>
				<path class="st17" d="M346,374.3V360c0-0.4-0.4-0.6-0.7-0.4l-14.2,8.2c-0.3,0.1-0.4,0.4-0.4,0.7l0,14.3c0,0.4,0.4,0.7,0.8,0.5
					l14.1-8.1C345.8,374.9,346,374.6,346,374.3z"/>
				<path class="st24" d="M330.8,381.7l0-13.3c0-0.3,0.2-0.6,0.4-0.7l14.2-8.2c0.3-0.2,0.7,0,0.7,0.4v12.9L330.8,381.7z"/>
				<polygon class="st18" points="331.3,381 331.3,368.2 345.6,359.9 345.6,372.8 				"/>
				<path class="st27" d="M346.1,372.9v1.5c0,0.3-0.2,0.6-0.4,0.7l-14.1,8.1c-0.4,0.2-0.8-0.1-0.8-0.5l0-1L346.1,372.9z"/>
			</g>
		</g>
		<g>
			<g>
				<g>
					<path class="st28" d="M266.7,392.8c0,0.2,0.6,5.1,0.6,5.1l1.3,5"/>
					<path class="st29" d="M265.9,390.4c0.4-1.3,1.5-1,2.1-0.3c0.5,0.7-0.1,2.9,0,3.5c-0.3,0.4-1.5,0.5-2,0.3
						C265.9,393.4,265.6,391.3,265.9,390.4z"/>
				</g>
				<g>
					<g>
						<path class="st30" d="M265,417.6c0,0.1,0,0.3,0,0.5c0,0.2,0.5,0.6,0.9,0.7c0,0,0,0,0,0l0-0.1c0.1,0,0.4,0.2,0.5,0.3
							c0,0,0,0.1,0.1,0.1c0.3,0.2,0.6,0.4,0.8,0.5c0.4,0.2,1-0.1,1.2-0.1c0,0,0,0,0-0.1l0-0.1l-0.7,0l-1.2-0.7l-1.5-0.8l0-0.1
							L265,417.6"/>
						<path class="st31" d="M265.1,417.3c0,0.1,0.4,0.3,0.8,0.3c0.4,0,0.9,0.1,0.7-0.1c0.1,0,0.6,0.7,1.9,1.6c0,0,0,0.2,0,0.2l0,0
							c0,0,0,0,0,0.1c-0.2,0.1-0.8,0.3-1.2,0.1c-0.4-0.3-1.1-0.8-1.5-0.9c-0.4-0.1-0.9-0.4-0.9-0.7c0-0.2,0-0.2,0-0.3
							C265,417.4,265.1,417.3,265.1,417.3z"/>
					</g>
					<g>
						<path class="st29" d="M264.6,398.8c-1.5,1.3,0.3,7.2,1.1,10.1c0,0.1-0.3,2.1-0.3,3.1c0,1.8-0.3,5.2-0.3,5.2
							c0.1,0.5,1.8,0.7,1.8,0l1.1-8.8c0,0,0.3-4.8-0.4-9.6C267.6,398.9,265.9,397.7,264.6,398.8z"/>
					</g>
				</g>
				<g>
					<g>
						<path class="st30" d="M262,419.6c0,0.1,0,0.3,0,0.5c0,0.2,0.5,0.6,0.9,0.7c0,0,0,0,0,0l0-0.1c0.1,0,0.4,0.2,0.5,0.3
							c0,0,0,0.1,0.1,0.1c0.3,0.2,0.6,0.4,0.8,0.5c0.4,0.2,1,0,1.2-0.1c0,0,0,0,0-0.1l0-0.1l-0.7,0l-1.2-0.7l-1.5-0.8l0-0.1
							L262,419.6"/>
						<path class="st31" d="M262.1,419.3c0,0.1,0.4,0.3,0.8,0.4c0.4,0,0.9,0.2,0.7-0.1c0.1,0,0.6,0.7,1.9,1.6c0,0,0,0.2,0,0.2l0,0
							c0,0,0,0,0,0.1c-0.2,0.1-0.8,0.3-1.2,0.1c-0.4-0.3-1.1-0.8-1.5-0.9c-0.4-0.1-0.9-0.5-0.9-0.7c0-0.2,0-0.2,0-0.3
							C262,419.4,262.1,419.3,262.1,419.3z"/>
					</g>
					<g>
						<path class="st29" d="M262.3,401.2c-1.5,1.3,0,6.8,0.8,9.8c0,0.1-0.2,0.5-0.2,0.5c-0.1,0.8-0.3,1.6-0.3,2.7
							c-0.1,1.8-0.4,5.2-0.4,5.2c0.1,0.5,1.8,0.7,1.8,0l1.2-8.8c0,0,0.3-4.8-0.3-9.6C264.8,401,263.6,400.1,262.3,401.2z"/>
					</g>
				</g>
				<path class="st30" d="M263.3,390.2c-0.5,0.2-2.1,0.9-2.6,1.5c-0.4,0.4-0.1,3.3,0.3,4.4c0.4,1.1,0.8,4.7,0.8,5.7
					c-0.1,1.1,1.9,1.3,3,1.2c1.1-0.1,3.2-1.5,3.2-1.5c-1-2.7,1.4-11-1.7-11.8L263.3,390.2z"/>
				<path class="st32" d="M265.7,390.6c0.1,0.6,0.6,0.7-0.3,0.9c-0.7,0.1-1.7,0-1.9-0.6c-0.1-0.6-0.2-0.9,0.7-1.1
					C265.1,389.7,265.6,390,265.7,390.6z"/>
				<path class="st32" d="M263.5,388.8c0,0,0,0.8-0.2,1.6c0.4,0.6,1.9,0.9,2.1,0.3c0,0-0.1-0.6,0.2-1
					C265.9,389.3,263.5,388.8,263.5,388.8z"/>
				<path class="st33" d="M263.5,388.8c0,0,0,0.2,0,0.4c0.5,1,1.3,1.3,1.9,1.3c0-0.2,0-0.5,0.2-0.8
					C265.9,389.3,263.5,388.8,263.5,388.8z"/>
				<g>
					<path class="st29" d="M263.4,389.9c0,0.1,0,0.2,0,0.4c0.2,0.5,0.8,1.1,2,1.2c0,0-0.4,0.2-0.8,0.8
						C263.8,392.1,262.9,390.6,263.4,389.9z"/>
					<path class="st29" d="M265.4,391.5c0,0,0.5,0,0.8,0.3c0,0-0.2-1.5-0.8-1.8C265.5,390.1,265.8,390.6,265.4,391.5z"/>
				</g>
				<g>
					<g>
						<path class="st34" d="M266,385.8c0,0,0.5,0.8,0.5,1.7c0,0.1,0.2,0.4,0.1,0.9c0,0.4-0.1,1.1-0.1,1.5c0,0.1-0.1,0.3-0.3,0.3
							c-0.7,0.1-1.9,0.2-2.8-1c0,0-0.4-0.5-0.6-0.5c-0.2-0.1-0.9-1-0.9-1.8c0-0.8,0.5-2.1,2.1-2.1C265.4,384.8,266,385.8,266,385.8z
							"/>
						<g>
							<path class="st35" d="M266.5,387.5c0-0.9-0.5-1.7-0.5-1.7s-0.1-0.2-0.3-0.3c0,0.1,0.1,0.1,0.1,0.1s0.5,0.8,0.5,1.7
								c0,0.1,0.2,0.4,0.1,0.9c0,0.4-0.1,1.1-0.1,1.5c0,0.1-0.1,0.3-0.3,0.3c-0.6,0.1-1.6,0.2-2.5-0.6c0.8,1.1,2,1,2.7,0.9
								c0.1,0,0.2-0.1,0.3-0.3c0-0.4,0.1-1.1,0.1-1.5C266.7,387.9,266.5,387.6,266.5,387.5z"/>
						</g>
					</g>
					<path class="st36" d="M263.7,386.4c0.5,0.3-0.2,1.7-0.1,2c-0.1,0.1-0.2-0.4-0.4-0.4c-0.2,0,0,0.3,0,0.3l0.3,0.7l0,0.5
						c-0.1-0.8-1.7-0.9-1.6-2.9c0-0.5,0.3-1.3,0.5-1.2C262.5,385.6,263.6,385.9,263.7,386.4z"/>
					<path class="st36" d="M263,388.6c-0.2-0.2-0.9-1-1.2-1.5c0.2,1.5,1.5,1.7,1.6,2.4l0-0.5l-0.3-0.6L263,388.6z"/>
					<g>
						<path class="st37" d="M263.2,388c-0.3-0.3-0.7,0-0.5,0.4c0.1,0.1,0.2,0.1,0.2,0.2c0,0,0,0.1,0.1,0.1c0.1,0.1,0.2,0.1,0.2,0.2
							c0.1,0,0.2,0,0.2-0.1L263.2,388z"/>
						<path class="st34" d="M263.4,388c-0.2-0.4-0.7-0.3-0.6,0.2c0,0.1,0.1,0.2,0.1,0.3c0.1,0.4,0.3,0.5,0.4,0.4"/>
					</g>
					<path class="st36" d="M263.4,386.5c1.3,1.6,3,0.2,3.1,0.1c0.3-0.1,1-2.4,0.6-2.6c-0.4-0.2-2.2,0-3.1,0c-0.9,0-1.6,0.9-1.9,1.9
						C262.3,386.1,263.4,386.5,263.4,386.5z"/>
				</g>
				<g>
					<path class="st28" d="M260.7,394.6c0,0.2-0.2,5.1-0.2,5.1l0.3,6.6"/>
					<path class="st29" d="M260.3,392.1c0.6-1.2,1.7-0.8,2.1,0c0.4,0.8-0.5,2.8-0.5,3.5c-0.3,0.4-1.6,0.3-2,0
						C259.8,395.1,259.8,393,260.3,392.1z"/>
				</g>
				<path class="st29" d="M265.7,391.9c0,0.1-0.1,0.2-0.1,0.2c-0.1,0-0.1-0.1-0.1-0.2s0.1-0.2,0.1-0.2
					C265.6,391.7,265.7,391.8,265.7,391.9z"/>
			</g>
		</g>
		<g>
			<g>
				<g>
					<g class="st3">
						<g>
							<polygon class="st7" points="325,392.7 325,408.8 280.4,434.7 280.4,418.6 							"/>
						</g>
						<g>
							<polygon class="st8" points="280.4,418.6 280.4,434.7 263.1,424.7 263.1,408.6 							"/>
						</g>
						<g>
							<polygon class="st9" points="325,392.7 280.4,418.6 263.1,408.6 307.7,382.7 							"/>
						</g>
					</g>
				</g>
			</g>
			<g>
				<polygon class="st10" points="325,403.7 325,405.8 280.4,431.7 280.4,429.6 				"/>
				<polygon class="st11" points="280.4,429.6 280.4,431.7 263.1,421.7 263.1,419.6 				"/>
			</g>
			<g>
				<g>
					<g>
						<g>
							<g class="st3">
								<g>
									<polygon class="st38" points="279.1,405.7 279.1,406.1 274.5,408.8 274.5,408.3 									"/>
								</g>
								<g>
									<polygon class="st39" points="274.5,408.3 274.5,408.8 273.1,408 273.1,407.5 									"/>
								</g>
								<g>
									<polygon class="st40" points="279.1,405.7 274.5,408.3 273.1,407.5 277.7,404.9 									"/>
								</g>
							</g>
						</g>
						<g>
							<g>
								<g class="st3">
									<path class="st41" d="M277.4,399C277.4,399,277.4,399,277.4,399C277.4,399,277.5,399,277.4,399c0.1,0,0.2,0,0.2,0
										c0,0,0,0,0,0c0,0,0.1,0,0.1,0l-0.3-0.2c0,0,0,0,0,0c0,0,0,0,0,0c0,0,0,0,0,0c0,0,0,0,0,0c0,0,0,0,0,0c0,0,0,0,0,0
										c0,0,0,0,0,0c0,0,0,0,0,0c0,0,0,0,0,0c0,0,0,0,0,0c0,0,0,0,0,0c0,0,0,0,0,0c0,0,0,0,0,0c0,0,0,0,0,0c0,0,0,0,0,0
										c0,0,0,0-0.1,0l-2.3,1.3c0,0-0.1,0-0.1,0.1c0,0,0,0,0,0c0,0,0,0,0,0c0,0,0,0,0,0c0,0,0,0,0,0c0,0,0,0,0,0c0,0,0,0,0,0.1
										c0,0,0,0,0,0c0,0,0,0,0,0c0,0,0,0,0,0c0,0,0,0,0,0c0,0,0,0,0,0c0,0,0,0,0,0c0,0,0,0,0,0c0,0,0,0,0,0c0,0,0,0,0,0
										c0,0,0,0,0,0c0,0,0,0,0,0c0,0,0,0,0,0c0,0,0,0,0,0c0,0,0,0,0,0c0,0,0,0,0,0c0,0,0,0,0,0c0,0,0,0,0,0c0,0,0,0,0,0.1
										c0,0,0,0,0,0c0,0,0,0,0,0c0,0,0,0,0,0c0,0,0,0.1,0,0.1l0,5.8c0,0.1,0,0.2,0,0.2c0,0.1,0.1,0.1,0.1,0.1l0.3,0.2
										c-0.1-0.1-0.2-0.2-0.2-0.3l0-5.8c0,0,0-0.1,0-0.1c0,0,0,0,0,0c0,0,0-0.1,0-0.1c0,0,0,0,0,0c0,0,0-0.1,0-0.1c0,0,0,0,0,0
										c0,0,0-0.1,0.1-0.1c0,0,0,0,0,0c0,0,0-0.1,0.1-0.1c0,0,0,0,0,0c0,0,0.1-0.1,0.1-0.1c0,0,0,0,0,0c0,0,0,0,0.1-0.1
										c0,0,0,0,0,0c0,0,0.1,0,0.1-0.1l2.3-1.3C277.3,399,277.3,399,277.4,399C277.3,399,277.4,399,277.4,399z"/>
									<g>
										<path class="st16" d="M277.2,399.1c0.3-0.2,0.5,0,0.5,0.3l0,5.8c0,0.3-0.2,0.7-0.5,0.9l-2.3,1.3c-0.3,0.2-0.5,0-0.5-0.3
											l0-5.8c0-0.3,0.2-0.7,0.5-0.9L277.2,399.1z"/>
									</g>
								</g>
							</g>
							<g>
								<path class="st16" d="M277.2,399.1c0.3-0.2,0.6,0,0.6,0.3l0,5.7c0,0.4-0.3,0.8-0.6,1l-2.2,1.3c-0.3,0.2-0.6,0-0.6-0.3l0-5.7
									c0-0.4,0.3-0.8,0.6-1L277.2,399.1z M277.7,405.2l0-5.7c0-0.3-0.2-0.4-0.4-0.3l-2.2,1.3c-0.2,0.1-0.4,0.5-0.4,0.8l0,5.7
									c0,0.3,0.2,0.4,0.4,0.3l2.2-1.3C277.5,405.8,277.7,405.5,277.7,405.2"/>
							</g>
						</g>
					</g>
					<g>
						<g>
							<g class="st3">
								<g>
									<polygon class="st38" points="286.3,401.6 286.3,402.1 281.7,404.7 281.7,404.2 									"/>
								</g>
								<g>
									<polygon class="st39" points="281.7,404.2 281.7,404.7 280.3,403.9 280.3,403.4 									"/>
								</g>
								<g>
									<polygon class="st40" points="286.3,401.6 281.7,404.2 280.3,403.4 284.9,400.8 									"/>
								</g>
							</g>
						</g>
						<g>
							<g>
								<g class="st3">
									<path class="st41" d="M284.5,394.9C284.6,394.9,284.6,394.9,284.5,394.9C284.6,394.9,284.6,394.9,284.5,394.9
										c0.1,0,0.2,0,0.2,0c0,0,0,0,0,0c0,0,0.1,0,0.1,0l-0.3-0.2c0,0,0,0,0,0c0,0,0,0,0,0c0,0,0,0,0,0c0,0,0,0,0,0c0,0,0,0,0,0
										c0,0,0,0,0,0c0,0,0,0,0,0c0,0,0,0,0,0c0,0,0,0,0,0c0,0,0,0,0,0c0,0,0,0,0,0c0,0,0,0,0,0c0,0,0,0,0,0c0,0,0,0,0,0
										c0,0,0,0,0,0c0,0,0,0-0.1,0l-2.3,1.3c0,0-0.1,0-0.1,0.1c0,0,0,0,0,0c0,0,0,0,0,0c0,0,0,0,0,0c0,0,0,0,0,0c0,0,0,0,0,0
										c0,0,0,0,0,0.1c0,0,0,0,0,0c0,0,0,0,0,0c0,0,0,0,0,0c0,0,0,0,0,0c0,0,0,0,0,0c0,0,0,0,0,0c0,0,0,0,0,0c0,0,0,0,0,0
										c0,0,0,0,0,0c0,0,0,0,0,0c0,0,0,0,0,0c0,0,0,0,0,0c0,0,0,0,0,0c0,0,0,0,0,0c0,0,0,0,0,0c0,0,0,0,0,0c0,0,0,0,0,0
										c0,0,0,0,0,0.1c0,0,0,0,0,0c0,0,0,0,0,0c0,0,0,0,0,0c0,0,0,0.1,0,0.1l0,5.8c0,0.1,0,0.2,0,0.2c0,0.1,0.1,0.1,0.1,0.1
										l0.3,0.2c-0.1-0.1-0.2-0.2-0.2-0.3l0-5.8c0,0,0-0.1,0-0.1c0,0,0,0,0,0c0,0,0-0.1,0-0.1c0,0,0,0,0,0c0,0,0-0.1,0-0.1
										c0,0,0,0,0,0c0,0,0-0.1,0.1-0.1c0,0,0,0,0,0c0,0,0-0.1,0.1-0.1c0,0,0,0,0,0c0,0,0.1-0.1,0.1-0.1c0,0,0,0,0,0
										c0,0,0,0,0.1-0.1c0,0,0,0,0,0c0,0,0.1,0,0.1-0.1l2.3-1.3C284.5,394.9,284.5,394.9,284.5,394.9
										C284.5,394.9,284.5,394.9,284.5,394.9z"/>
									<g>
										<path class="st16" d="M284.4,395c0.3-0.2,0.5,0,0.5,0.3l0,5.8c0,0.3-0.2,0.7-0.5,0.9l-2.3,1.3c-0.3,0.2-0.5,0-0.5-0.3
											l0-5.8c0-0.3,0.2-0.7,0.5-0.9L284.4,395z"/>
									</g>
								</g>
							</g>
							<g>
								<path class="st16" d="M284.4,395c0.3-0.2,0.6,0,0.6,0.3l0,5.7c0,0.4-0.3,0.8-0.6,1l-2.2,1.3c-0.3,0.2-0.6,0-0.6-0.3l0-5.7
									c0-0.4,0.3-0.8,0.6-1L284.4,395z M284.8,401.1l0-5.7c0-0.3-0.2-0.4-0.4-0.3l-2.2,1.3c-0.2,0.1-0.4,0.5-0.4,0.8l0,5.7
									c0,0.3,0.2,0.4,0.4,0.3l2.2-1.3C284.6,401.7,284.8,401.4,284.8,401.1"/>
							</g>
						</g>
					</g>
					<g>
						<g>
							<g class="st3">
								<g>
									<polygon class="st38" points="293.4,397.5 293.4,398 288.9,400.6 288.9,400.1 									"/>
								</g>
								<g>
									<polygon class="st39" points="288.9,400.1 288.9,400.6 287.5,399.8 287.5,399.3 									"/>
								</g>
								<g>
									<polygon class="st40" points="293.4,397.5 288.9,400.1 287.5,399.3 292,396.7 									"/>
								</g>
							</g>
						</g>
						<g>
							<g>
								<g class="st3">
									<path class="st41" d="M291.7,390.8C291.7,390.8,291.8,390.8,291.7,390.8C291.8,390.8,291.8,390.8,291.7,390.8
										c0.1,0,0.2,0,0.2,0c0,0,0,0,0,0c0,0,0.1,0,0.1,0l-0.3-0.2c0,0,0,0,0,0c0,0,0,0,0,0c0,0,0,0,0,0c0,0,0,0,0,0c0,0,0,0,0,0
										c0,0,0,0,0,0c0,0,0,0,0,0c0,0,0,0,0,0c0,0,0,0,0,0c0,0,0,0,0,0c0,0,0,0,0,0c0,0,0,0,0,0c0,0,0,0,0,0c0,0,0,0,0,0
										c0,0,0,0,0,0c0,0,0,0-0.1,0l-2.3,1.3c0,0-0.1,0-0.1,0.1c0,0,0,0,0,0c0,0,0,0,0,0c0,0,0,0,0,0c0,0,0,0,0,0c0,0,0,0,0,0
										c0,0,0,0,0,0.1c0,0,0,0,0,0c0,0,0,0,0,0c0,0,0,0,0,0c0,0,0,0,0,0c0,0,0,0,0,0c0,0,0,0,0,0c0,0,0,0,0,0c0,0,0,0,0,0
										c0,0,0,0,0,0c0,0,0,0,0,0c0,0,0,0,0,0c0,0,0,0,0,0c0,0,0,0,0,0c0,0,0,0,0,0c0,0,0,0,0,0c0,0,0,0,0,0c0,0,0,0,0,0
										c0,0,0,0,0,0.1c0,0,0,0,0,0c0,0,0,0,0,0c0,0,0,0,0,0c0,0,0,0.1,0,0.1l0,5.8c0,0.1,0,0.2,0,0.2c0,0.1,0.1,0.1,0.1,0.1
										l0.3,0.2c-0.1-0.1-0.2-0.2-0.2-0.3l0-5.8c0,0,0-0.1,0-0.1c0,0,0,0,0,0c0,0,0-0.1,0-0.1c0,0,0,0,0,0c0,0,0-0.1,0-0.1
										c0,0,0,0,0,0c0,0,0-0.1,0.1-0.1c0,0,0,0,0,0c0,0,0-0.1,0.1-0.1c0,0,0,0,0,0c0,0,0-0.1,0.1-0.1c0,0,0,0,0,0c0,0,0,0,0.1-0.1
										c0,0,0,0,0,0c0,0,0.1,0,0.1-0.1l2.3-1.3C291.6,390.9,291.7,390.8,291.7,390.8C291.7,390.8,291.7,390.8,291.7,390.8z"/>
									<g>
										<path class="st16" d="M291.6,390.9c0.3-0.2,0.5,0,0.5,0.3l0,5.8c0,0.3-0.2,0.7-0.5,0.9l-2.3,1.3c-0.3,0.2-0.5,0-0.5-0.3
											l0-5.8c0-0.3,0.2-0.7,0.5-0.9L291.6,390.9z"/>
									</g>
								</g>
							</g>
							<g>
								<path class="st16" d="M291.6,390.9c0.3-0.2,0.6,0,0.6,0.3l0,5.7c0,0.4-0.3,0.8-0.6,1l-2.2,1.3c-0.3,0.2-0.6,0-0.6-0.3l0-5.7
									c0-0.4,0.3-0.8,0.6-1L291.6,390.9z M292,397l0-5.7c0-0.3-0.2-0.4-0.4-0.3l-2.2,1.3c-0.2,0.1-0.4,0.5-0.4,0.8l0,5.7
									c0,0.3,0.2,0.4,0.4,0.3l2.2-1.3C291.8,397.7,292,397.3,292,397"/>
							</g>
						</g>
					</g>
					<g>
						<g>
							<g class="st3">
								<g>
									<polygon class="st38" points="300.6,393.4 300.6,393.9 296.1,396.5 296.1,396.1 									"/>
								</g>
								<g>
									<polygon class="st39" points="296.1,396.1 296.1,396.5 294.7,395.7 294.7,395.2 									"/>
								</g>
								<g>
									<polygon class="st40" points="300.6,393.4 296.1,396.1 294.7,395.2 299.2,392.6 									"/>
								</g>
							</g>
						</g>
						<g>
							<g>
								<g class="st3">
									<path class="st41" d="M298.9,386.7C298.9,386.7,299,386.7,298.9,386.7C299,386.7,299,386.7,298.9,386.7c0.1,0,0.2,0,0.2,0
										c0,0,0,0,0,0c0,0,0.1,0,0.1,0l-0.3-0.2c0,0,0,0,0,0c0,0,0,0,0,0c0,0,0,0,0,0c0,0,0,0,0,0c0,0,0,0,0,0c0,0,0,0,0,0
										c0,0,0,0,0,0c0,0,0,0,0,0c0,0,0,0,0,0c0,0,0,0,0,0c0,0,0,0,0,0c0,0,0,0,0,0c0,0,0,0,0,0c0,0,0,0,0,0c0,0,0,0,0,0
										c0,0,0,0-0.1,0l-2.3,1.3c0,0-0.1,0-0.1,0.1c0,0,0,0,0,0c0,0,0,0,0,0c0,0,0,0,0,0c0,0,0,0,0,0c0,0,0,0,0,0c0,0,0,0,0,0.1
										c0,0,0,0,0,0c0,0,0,0,0,0c0,0,0,0,0,0c0,0,0,0,0,0c0,0,0,0,0,0c0,0,0,0,0,0c0,0,0,0,0,0c0,0,0,0,0,0c0,0,0,0,0,0
										c0,0,0,0,0,0c0,0,0,0,0,0c0,0,0,0,0,0c0,0,0,0,0,0c0,0,0,0,0,0c0,0,0,0,0,0c0,0,0,0,0,0c0,0,0,0,0,0c0,0,0,0,0,0.1
										c0,0,0,0,0,0c0,0,0,0,0,0c0,0,0,0,0,0c0,0,0,0.1,0,0.1l0,5.8c0,0.1,0,0.2,0,0.2c0,0.1,0.1,0.1,0.1,0.1l0.3,0.2
										c-0.1-0.1-0.2-0.2-0.2-0.3l0-5.8c0,0,0-0.1,0-0.1c0,0,0,0,0,0c0,0,0-0.1,0-0.1c0,0,0,0,0,0c0,0,0-0.1,0-0.1c0,0,0,0,0,0
										c0,0,0-0.1,0.1-0.1c0,0,0,0,0,0c0,0,0-0.1,0.1-0.1c0,0,0,0,0,0c0,0,0.1-0.1,0.1-0.1c0,0,0,0,0,0c0,0,0,0,0.1-0.1
										c0,0,0,0,0,0c0,0,0.1,0,0.1-0.1l2.3-1.3C298.8,386.8,298.8,386.8,298.9,386.7C298.9,386.7,298.9,386.7,298.9,386.7z"/>
									<g>
										<path class="st16" d="M298.8,386.8c0.3-0.2,0.5,0,0.5,0.3l0,5.8c0,0.3-0.2,0.7-0.5,0.9l-2.3,1.3c-0.3,0.2-0.5,0-0.5-0.3
											l0-5.8c0-0.3,0.2-0.7,0.5-0.9L298.8,386.8z"/>
									</g>
								</g>
							</g>
							<g>
								<path class="st16" d="M298.7,386.8c0.3-0.2,0.6,0,0.6,0.3l0,5.7c0,0.4-0.3,0.8-0.6,1l-2.2,1.3c-0.3,0.2-0.6,0-0.6-0.3l0-5.7
									c0-0.4,0.3-0.8,0.6-1L298.7,386.8z M299.2,392.9l0-5.7c0-0.3-0.2-0.4-0.4-0.3l-2.2,1.3c-0.2,0.1-0.4,0.5-0.4,0.8l0,5.7
									c0,0.3,0.2,0.4,0.4,0.3l2.2-1.3C299,393.6,299.2,393.2,299.2,392.9"/>
							</g>
						</g>
					</g>
					<g>
						<g>
							<g class="st3">
								<g>
									<polygon class="st38" points="307.8,389.3 307.8,389.8 303.3,392.4 303.3,392 									"/>
								</g>
								<g>
									<polygon class="st39" points="303.3,392 303.3,392.4 301.9,391.6 301.9,391.2 									"/>
								</g>
								<g>
									<polygon class="st40" points="307.8,389.3 303.3,392 301.9,391.2 306.4,388.5 									"/>
								</g>
							</g>
						</g>
						<g>
							<g>
								<g class="st3">
									<path class="st41" d="M306.1,382.7C306.1,382.6,306.1,382.6,306.1,382.7C306.2,382.6,306.2,382.6,306.1,382.7
										c0.1,0,0.2,0,0.2,0c0,0,0,0,0,0c0,0,0.1,0,0.1,0l-0.3-0.2c0,0,0,0,0,0c0,0,0,0,0,0c0,0,0,0,0,0c0,0,0,0,0,0c0,0,0,0,0,0
										c0,0,0,0,0,0c0,0,0,0,0,0c0,0,0,0,0,0c0,0,0,0,0,0c0,0,0,0,0,0c0,0,0,0,0,0c0,0,0,0,0,0c0,0,0,0,0,0c0,0,0,0,0,0
										c0,0,0,0,0,0c0,0,0,0-0.1,0l-2.3,1.3c0,0-0.1,0-0.1,0.1c0,0,0,0,0,0c0,0,0,0,0,0c0,0,0,0,0,0c0,0,0,0,0,0c0,0,0,0,0,0
										c0,0,0,0,0,0.1c0,0,0,0,0,0c0,0,0,0,0,0c0,0,0,0,0,0c0,0,0,0,0,0c0,0,0,0,0,0c0,0,0,0,0,0c0,0,0,0,0,0c0,0,0,0,0,0
										c0,0,0,0,0,0c0,0,0,0,0,0c0,0,0,0,0,0c0,0,0,0,0,0c0,0,0,0,0,0c0,0,0,0,0,0c0,0,0,0,0,0c0,0,0,0,0,0c0,0,0,0,0,0
										c0,0,0,0,0,0.1c0,0,0,0,0,0c0,0,0,0,0,0c0,0,0,0,0,0c0,0,0,0.1,0,0.1l0,5.8c0,0.1,0,0.2,0,0.2s0.1,0.1,0.1,0.1l0.3,0.2
										c-0.1-0.1-0.2-0.2-0.2-0.3l0-5.8c0,0,0-0.1,0-0.1c0,0,0,0,0,0c0,0,0-0.1,0-0.1c0,0,0,0,0,0c0,0,0-0.1,0-0.1c0,0,0,0,0,0
										c0,0,0-0.1,0.1-0.1c0,0,0,0,0,0c0,0,0-0.1,0.1-0.1c0,0,0,0,0,0c0,0,0.1-0.1,0.1-0.1c0,0,0,0,0,0c0,0,0,0,0.1-0.1
										c0,0,0,0,0,0c0,0,0.1,0,0.1-0.1l2.3-1.3C306,382.7,306,382.7,306.1,382.7C306.1,382.7,306.1,382.7,306.1,382.7z"/>
									<g>
										<path class="st16" d="M306,382.7c0.3-0.2,0.5,0,0.5,0.3l0,5.8c0,0.3-0.2,0.7-0.5,0.9l-2.3,1.3c-0.3,0.2-0.5,0-0.5-0.3
											l0-5.8c0-0.3,0.2-0.7,0.5-0.9L306,382.7z"/>
									</g>
								</g>
							</g>
							<g>
								<path class="st16" d="M305.9,382.7c0.3-0.2,0.6,0,0.6,0.3l0,5.7c0,0.4-0.3,0.8-0.6,1l-2.2,1.3c-0.3,0.2-0.6,0-0.6-0.3l0-5.7
									c0-0.4,0.3-0.8,0.6-1L305.9,382.7z M306.4,388.8l0-5.7c0-0.3-0.2-0.4-0.4-0.3l-2.2,1.3c-0.2,0.1-0.4,0.5-0.4,0.8l0,5.7
									c0,0.3,0.2,0.4,0.4,0.3l2.2-1.3C306.2,389.5,306.4,389.1,306.4,388.8"/>
							</g>
						</g>
					</g>
				</g>
				<g>
					<g>
						<g>
							<g class="st3">
								<g>
									<polygon class="st38" points="286.3,410.1 286.3,410.6 281.7,413.2 281.7,412.8 									"/>
								</g>
								<g>
									<polygon class="st39" points="281.7,412.8 281.7,413.2 280.3,412.4 280.3,412 									"/>
								</g>
								<g>
									<polygon class="st40" points="286.3,410.1 281.7,412.8 280.3,412 284.9,409.3 									"/>
								</g>
							</g>
						</g>
						<g>
							<g>
								<g class="st3">
									<path class="st41" d="M284.5,403.5C284.6,403.5,284.6,403.5,284.5,403.5C284.6,403.5,284.6,403.5,284.5,403.5
										c0.1,0,0.2,0,0.2,0c0,0,0,0,0,0c0,0,0.1,0,0.1,0l-0.3-0.2c0,0,0,0,0,0c0,0,0,0,0,0c0,0,0,0,0,0c0,0,0,0,0,0c0,0,0,0,0,0
										c0,0,0,0,0,0c0,0,0,0,0,0c0,0,0,0,0,0c0,0,0,0,0,0c0,0,0,0,0,0c0,0,0,0,0,0c0,0,0,0,0,0c0,0,0,0,0,0c0,0,0,0,0,0
										c0,0,0,0,0,0c0,0,0,0-0.1,0l-2.3,1.3c0,0-0.1,0-0.1,0.1c0,0,0,0,0,0c0,0,0,0,0,0c0,0,0,0,0,0c0,0,0,0,0,0c0,0,0,0,0,0
										c0,0,0,0,0,0.1c0,0,0,0,0,0c0,0,0,0,0,0c0,0,0,0,0,0c0,0,0,0,0,0c0,0,0,0,0,0c0,0,0,0,0,0c0,0,0,0,0,0c0,0,0,0,0,0
										c0,0,0,0,0,0c0,0,0,0,0,0c0,0,0,0,0,0c0,0,0,0,0,0c0,0,0,0,0,0c0,0,0,0,0,0c0,0,0,0,0,0c0,0,0,0,0,0c0,0,0,0,0,0
										c0,0,0,0,0,0.1c0,0,0,0,0,0c0,0,0,0,0,0c0,0,0,0,0,0c0,0,0,0.1,0,0.1l0,5.8c0,0.1,0,0.2,0,0.2c0,0.1,0.1,0.1,0.1,0.1
										l0.3,0.2c-0.1-0.1-0.2-0.2-0.2-0.3l0-5.8c0,0,0-0.1,0-0.1c0,0,0,0,0,0c0,0,0-0.1,0-0.1c0,0,0,0,0,0c0,0,0-0.1,0-0.1
										c0,0,0,0,0,0c0,0,0-0.1,0.1-0.1c0,0,0,0,0,0c0,0,0-0.1,0.1-0.1c0,0,0,0,0,0c0,0,0.1-0.1,0.1-0.1c0,0,0,0,0,0
										c0,0,0,0,0.1-0.1c0,0,0,0,0,0c0,0,0.1,0,0.1-0.1l2.3-1.3C284.5,403.5,284.5,403.5,284.5,403.5
										C284.5,403.5,284.5,403.5,284.5,403.5z"/>
									<g>
										<path class="st31" d="M284.4,403.5c0.3-0.2,0.5,0,0.5,0.3l0,5.8c0,0.3-0.2,0.7-0.5,0.9l-2.3,1.3c-0.3,0.2-0.5,0-0.5-0.3
											l0-5.8c0-0.3,0.2-0.7,0.5-0.9L284.4,403.5z"/>
									</g>
								</g>
							</g>
							<g>
								<path class="st16" d="M284.4,403.5c0.3-0.2,0.6,0,0.6,0.3l0,5.7c0,0.4-0.3,0.8-0.6,1l-2.2,1.3c-0.3,0.2-0.6,0-0.6-0.3l0-5.7
									c0-0.4,0.3-0.8,0.6-1L284.4,403.5z M284.8,409.7l0-5.7c0-0.3-0.2-0.4-0.4-0.3l-2.2,1.3c-0.2,0.1-0.4,0.5-0.4,0.8l0,5.7
									c0,0.3,0.2,0.4,0.4,0.3l2.2-1.3C284.6,410.3,284.8,409.9,284.8,409.7"/>
							</g>
						</g>
					</g>
					<g>
						<g>
							<g class="st3">
								<g>
									<polygon class="st38" points="293.4,406.1 293.4,406.5 288.9,409.2 288.9,408.7 									"/>
								</g>
								<g>
									<polygon class="st39" points="288.9,408.7 288.9,409.2 287.5,408.4 287.5,407.9 									"/>
								</g>
								<g>
									<polygon class="st40" points="293.4,406.1 288.9,408.7 287.5,407.9 292,405.2 									"/>
								</g>
							</g>
						</g>
						<g>
							<g>
								<g class="st3">
									<path class="st41" d="M291.7,399.4C291.7,399.4,291.8,399.4,291.7,399.4C291.8,399.4,291.8,399.4,291.7,399.4
										c0.1,0,0.2,0,0.2,0c0,0,0,0,0,0c0,0,0.1,0,0.1,0l-0.3-0.2c0,0,0,0,0,0c0,0,0,0,0,0c0,0,0,0,0,0c0,0,0,0,0,0c0,0,0,0,0,0
										c0,0,0,0,0,0c0,0,0,0,0,0c0,0,0,0,0,0c0,0,0,0,0,0c0,0,0,0,0,0c0,0,0,0,0,0c0,0,0,0,0,0c0,0,0,0,0,0c0,0,0,0,0,0
										c0,0,0,0,0,0c0,0,0,0-0.1,0l-2.3,1.3c0,0-0.1,0-0.1,0.1c0,0,0,0,0,0c0,0,0,0,0,0c0,0,0,0,0,0c0,0,0,0,0,0c0,0,0,0,0,0
										c0,0,0,0,0,0.1c0,0,0,0,0,0c0,0,0,0,0,0c0,0,0,0,0,0c0,0,0,0,0,0c0,0,0,0,0,0c0,0,0,0,0,0c0,0,0,0,0,0c0,0,0,0,0,0
										c0,0,0,0,0,0c0,0,0,0,0,0c0,0,0,0,0,0c0,0,0,0,0,0c0,0,0,0,0,0c0,0,0,0,0,0c0,0,0,0,0,0c0,0,0,0,0,0c0,0,0,0,0,0
										c0,0,0,0,0,0.1c0,0,0,0,0,0c0,0,0,0,0,0c0,0,0,0,0,0c0,0,0,0.1,0,0.1l0,5.8c0,0.1,0,0.2,0,0.2c0,0.1,0.1,0.1,0.1,0.1
										l0.3,0.2c-0.1-0.1-0.2-0.2-0.2-0.3l0-5.8c0,0,0-0.1,0-0.1c0,0,0,0,0,0c0,0,0-0.1,0-0.1c0,0,0,0,0,0c0,0,0-0.1,0-0.1
										c0,0,0,0,0,0c0,0,0-0.1,0.1-0.1c0,0,0,0,0,0c0,0,0-0.1,0.1-0.1c0,0,0,0,0,0c0,0,0.1-0.1,0.1-0.1c0,0,0,0,0,0
										c0,0,0,0,0.1-0.1c0,0,0,0,0,0c0,0,0.1,0,0.1-0.1l2.3-1.3C291.6,399.4,291.7,399.4,291.7,399.4
										C291.7,399.4,291.7,399.4,291.7,399.4z"/>
									<g>
										<path class="st31" d="M291.6,399.4c0.3-0.2,0.5,0,0.5,0.3l0,5.8c0,0.3-0.2,0.7-0.5,0.9l-2.3,1.3c-0.3,0.2-0.5,0-0.5-0.3
											l0-5.8c0-0.3,0.2-0.7,0.5-0.9L291.6,399.4z"/>
									</g>
								</g>
							</g>
							<g>
								<path class="st16" d="M291.6,399.4c0.3-0.2,0.6,0,0.6,0.3l0,5.7c0,0.4-0.3,0.8-0.6,1l-2.2,1.3c-0.3,0.2-0.6,0-0.6-0.3l0-5.7
									c0-0.4,0.3-0.8,0.6-1L291.6,399.4z M292,405.6l0-5.7c0-0.3-0.2-0.4-0.4-0.3l-2.2,1.3c-0.2,0.1-0.4,0.5-0.4,0.8l0,5.7
									c0,0.3,0.2,0.4,0.4,0.3l2.2-1.3C291.8,406.2,292,405.9,292,405.6"/>
							</g>
						</g>
					</g>
					<g>
						<g>
							<g class="st3">
								<g>
									<polygon class="st38" points="300.6,402 300.6,402.4 296.1,405.1 296.1,404.6 									"/>
								</g>
								<g>
									<polygon class="st39" points="296.1,404.6 296.1,405.1 294.7,404.3 294.7,403.8 									"/>
								</g>
								<g>
									<polygon class="st40" points="300.6,402 296.1,404.6 294.7,403.8 299.2,401.2 									"/>
								</g>
							</g>
						</g>
						<g>
							<g>
								<g class="st3">
									<path class="st41" d="M298.9,395.3C298.9,395.3,299,395.3,298.9,395.3C299,395.3,299,395.3,298.9,395.3c0.1,0,0.2,0,0.2,0
										c0,0,0,0,0,0c0,0,0.1,0,0.1,0l-0.3-0.2c0,0,0,0,0,0c0,0,0,0,0,0c0,0,0,0,0,0c0,0,0,0,0,0c0,0,0,0,0,0c0,0,0,0,0,0
										c0,0,0,0,0,0c0,0,0,0,0,0c0,0,0,0,0,0c0,0,0,0,0,0c0,0,0,0,0,0c0,0,0,0,0,0c0,0,0,0,0,0c0,0,0,0,0,0c0,0,0,0,0,0
										c0,0,0,0-0.1,0l-2.3,1.3c0,0-0.1,0-0.1,0.1c0,0,0,0,0,0c0,0,0,0,0,0c0,0,0,0,0,0c0,0,0,0,0,0c0,0,0,0,0,0c0,0,0,0,0,0.1
										c0,0,0,0,0,0c0,0,0,0,0,0c0,0,0,0,0,0c0,0,0,0,0,0c0,0,0,0,0,0c0,0,0,0,0,0c0,0,0,0,0,0c0,0,0,0,0,0c0,0,0,0,0,0
										c0,0,0,0,0,0c0,0,0,0,0,0c0,0,0,0,0,0c0,0,0,0,0,0c0,0,0,0,0,0c0,0,0,0,0,0c0,0,0,0,0,0c0,0,0,0,0,0c0,0,0,0,0,0.1
										c0,0,0,0,0,0c0,0,0,0,0,0c0,0,0,0,0,0c0,0,0,0.1,0,0.1l0,5.8c0,0.1,0,0.2,0,0.2c0,0.1,0.1,0.1,0.1,0.1l0.3,0.2
										c-0.1-0.1-0.2-0.2-0.2-0.3l0-5.8c0,0,0-0.1,0-0.1c0,0,0,0,0,0c0,0,0-0.1,0-0.1c0,0,0,0,0,0c0,0,0-0.1,0-0.1c0,0,0,0,0,0
										c0,0,0-0.1,0.1-0.1c0,0,0,0,0,0c0,0,0-0.1,0.1-0.1c0,0,0,0,0,0c0,0,0-0.1,0.1-0.1c0,0,0,0,0,0c0,0,0,0,0.1-0.1c0,0,0,0,0,0
										c0,0,0.1,0,0.1-0.1l2.3-1.3C298.8,395.3,298.8,395.3,298.9,395.3C298.9,395.3,298.9,395.3,298.9,395.3z"/>
									<g>
										<path class="st31" d="M298.8,395.3c0.3-0.2,0.5,0,0.5,0.3l0,5.8c0,0.3-0.2,0.7-0.5,0.9l-2.3,1.3c-0.3,0.2-0.5,0-0.5-0.3
											l0-5.8c0-0.3,0.2-0.7,0.5-0.9L298.8,395.3z"/>
									</g>
								</g>
							</g>
							<g>
								<path class="st16" d="M298.7,395.3c0.3-0.2,0.6,0,0.6,0.3l0,5.7c0,0.4-0.3,0.8-0.6,1l-2.2,1.3c-0.3,0.2-0.6,0-0.6-0.3l0-5.7
									c0-0.4,0.3-0.8,0.6-1L298.7,395.3z M299.2,401.5l0-5.7c0-0.3-0.2-0.4-0.4-0.3l-2.2,1.3c-0.2,0.1-0.4,0.5-0.4,0.8l0,5.7
									c0,0.3,0.2,0.4,0.4,0.3l2.2-1.3C299,402.1,299.2,401.8,299.2,401.5"/>
							</g>
						</g>
					</g>
					<g>
						<g>
							<g class="st3">
								<g>
									<polygon class="st38" points="307.8,397.9 307.8,398.3 303.3,401 303.3,400.5 									"/>
								</g>
								<g>
									<polygon class="st39" points="303.3,400.5 303.3,401 301.9,400.2 301.9,399.7 									"/>
								</g>
								<g>
									<polygon class="st40" points="307.8,397.9 303.3,400.5 301.9,399.7 306.4,397.1 									"/>
								</g>
							</g>
						</g>
						<g>
							<g>
								<g class="st3">
									<path class="st41" d="M306.1,391.2C306.1,391.2,306.1,391.2,306.1,391.2C306.2,391.2,306.2,391.2,306.1,391.2
										c0.1,0,0.2,0,0.2,0c0,0,0,0,0,0c0,0,0.1,0,0.1,0l-0.3-0.2c0,0,0,0,0,0c0,0,0,0,0,0c0,0,0,0,0,0c0,0,0,0,0,0c0,0,0,0,0,0
										c0,0,0,0,0,0c0,0,0,0,0,0c0,0,0,0,0,0c0,0,0,0,0,0c0,0,0,0,0,0c0,0,0,0,0,0c0,0,0,0,0,0c0,0,0,0,0,0c0,0,0,0,0,0
										c0,0,0,0,0,0c0,0,0,0-0.1,0l-2.3,1.3c0,0-0.1,0-0.1,0.1c0,0,0,0,0,0c0,0,0,0,0,0c0,0,0,0,0,0c0,0,0,0,0,0c0,0,0,0,0,0
										c0,0,0,0,0,0.1c0,0,0,0,0,0c0,0,0,0,0,0c0,0,0,0,0,0c0,0,0,0,0,0c0,0,0,0,0,0c0,0,0,0,0,0c0,0,0,0,0,0c0,0,0,0,0,0
										c0,0,0,0,0,0c0,0,0,0,0,0c0,0,0,0,0,0c0,0,0,0,0,0c0,0,0,0,0,0c0,0,0,0,0,0c0,0,0,0,0,0c0,0,0,0,0,0c0,0,0,0,0,0
										c0,0,0,0,0,0.1c0,0,0,0,0,0c0,0,0,0,0,0c0,0,0,0,0,0c0,0,0,0.1,0,0.1l0,5.8c0,0.1,0,0.2,0,0.2c0,0.1,0.1,0.1,0.1,0.1
										l0.3,0.2c-0.1-0.1-0.2-0.2-0.2-0.3l0-5.8c0,0,0-0.1,0-0.1c0,0,0,0,0,0c0,0,0-0.1,0-0.1c0,0,0,0,0,0c0,0,0-0.1,0-0.1
										c0,0,0,0,0,0c0,0,0-0.1,0.1-0.1c0,0,0,0,0,0c0,0,0-0.1,0.1-0.1c0,0,0,0,0,0c0,0,0.1-0.1,0.1-0.1c0,0,0,0,0,0
										c0,0,0,0,0.1-0.1c0,0,0,0,0,0c0,0,0.1,0,0.1-0.1l2.3-1.3C306,391.2,306,391.2,306.1,391.2
										C306.1,391.2,306.1,391.2,306.1,391.2z"/>
									<g>
										<path class="st31" d="M306,391.3c0.3-0.2,0.5,0,0.5,0.3l0,5.8c0,0.3-0.2,0.7-0.5,0.9l-2.3,1.3c-0.3,0.2-0.5,0-0.5-0.3
											l0-5.8c0-0.3,0.2-0.7,0.5-0.9L306,391.3z"/>
									</g>
								</g>
							</g>
							<g>
								<path class="st16" d="M305.9,391.3c0.3-0.2,0.6,0,0.6,0.3l0,5.7c0,0.4-0.3,0.8-0.6,1l-2.2,1.3c-0.3,0.2-0.6,0-0.6-0.3l0-5.7
									c0-0.4,0.3-0.8,0.6-1L305.9,391.3z M306.4,397.4l0-5.7c0-0.3-0.2-0.4-0.4-0.3l-2.2,1.3c-0.2,0.1-0.4,0.5-0.4,0.8l0,5.7
									c0,0.3,0.2,0.4,0.4,0.3l2.2-1.3C306.2,398,306.4,397.7,306.4,397.4"/>
							</g>
						</g>
					</g>
					<g>
						<g>
							<g class="st3">
								<g>
									<polygon class="st38" points="315,393.8 315,394.3 310.4,396.9 310.4,396.4 									"/>
								</g>
								<g>
									<polygon class="st39" points="310.4,396.4 310.4,396.9 309,396.1 309,395.6 									"/>
								</g>
								<g>
									<polygon class="st40" points="315,393.8 310.4,396.4 309,395.6 313.6,393 									"/>
								</g>
							</g>
						</g>
						<g>
							<g>
								<g class="st3">
									<path class="st41" d="M313.3,387.1C313.3,387.1,313.3,387.1,313.3,387.1C313.3,387.1,313.4,387.1,313.3,387.1
										c0.1,0,0.2,0,0.2,0c0,0,0,0,0,0c0,0,0.1,0,0.1,0l-0.3-0.2c0,0,0,0,0,0c0,0,0,0,0,0c0,0,0,0,0,0c0,0,0,0,0,0c0,0,0,0,0,0
										c0,0,0,0,0,0c0,0,0,0,0,0c0,0,0,0,0,0c0,0,0,0,0,0c0,0,0,0,0,0c0,0,0,0,0,0c0,0,0,0,0,0c0,0,0,0,0,0c0,0,0,0,0,0
										c0,0,0,0,0,0c0,0,0,0-0.1,0l-2.3,1.3c0,0-0.1,0-0.1,0.1c0,0,0,0,0,0c0,0,0,0,0,0c0,0,0,0,0,0c0,0,0,0,0,0c0,0,0,0,0,0
										c0,0,0,0,0,0.1c0,0,0,0,0,0c0,0,0,0,0,0c0,0,0,0,0,0c0,0,0,0,0,0c0,0,0,0,0,0c0,0,0,0,0,0c0,0,0,0,0,0c0,0,0,0,0,0
										c0,0,0,0,0,0c0,0,0,0,0,0c0,0,0,0,0,0c0,0,0,0,0,0c0,0,0,0,0,0c0,0,0,0,0,0c0,0,0,0,0,0c0,0,0,0,0,0c0,0,0,0,0,0
										c0,0,0,0,0,0.1c0,0,0,0,0,0c0,0,0,0,0,0c0,0,0,0,0,0c0,0,0,0.1,0,0.1l0,5.8c0,0.1,0,0.2,0,0.2c0,0.1,0.1,0.1,0.1,0.1
										l0.3,0.2c-0.1-0.1-0.2-0.2-0.2-0.3l0-5.8c0,0,0-0.1,0-0.1c0,0,0,0,0,0c0,0,0-0.1,0-0.1c0,0,0,0,0,0c0,0,0-0.1,0-0.1
										c0,0,0,0,0,0c0,0,0-0.1,0.1-0.1c0,0,0,0,0,0c0,0,0-0.1,0.1-0.1c0,0,0,0,0,0c0,0,0.1-0.1,0.1-0.1c0,0,0,0,0,0
										c0,0,0,0,0.1-0.1c0,0,0,0,0,0c0,0,0.1,0,0.1-0.1l2.3-1.3C313.2,387.2,313.2,387.1,313.3,387.1
										C313.2,387.1,313.3,387.1,313.3,387.1z"/>
									<g>
										<path class="st31" d="M313.1,387.2c0.3-0.2,0.5,0,0.5,0.3l0,5.8c0,0.3-0.2,0.7-0.5,0.9l-2.3,1.3c-0.3,0.2-0.5,0-0.5-0.3
											l0-5.8c0-0.3,0.2-0.7,0.5-0.9L313.1,387.2z"/>
									</g>
								</g>
							</g>
							<g>
								<path class="st16" d="M313.1,387.2c0.3-0.2,0.6,0,0.6,0.3l0,5.7c0,0.4-0.3,0.8-0.6,1l-2.2,1.3c-0.3,0.2-0.6,0-0.6-0.3l0-5.7
									c0-0.4,0.3-0.8,0.6-1L313.1,387.2z M313.6,393.3l0-5.7c0-0.3-0.2-0.4-0.4-0.3l-2.2,1.3c-0.2,0.1-0.4,0.5-0.4,0.8l0,5.7
									c0,0.3,0.2,0.4,0.4,0.3l2.2-1.3C313.4,393.9,313.6,393.6,313.6,393.3"/>
							</g>
						</g>
					</g>
				</g>
			</g>
		</g>
		<g>
			<g>
				<g>
					<g class="st3">
						<g>
							<polygon class="st7" points="197.5,417.3 197.5,433.4 242.1,459.3 242,443.2 							"/>
						</g>
						<g>
							<polygon class="st8" points="242,443.2 242.1,459.3 259.4,449.3 259.4,433.2 							"/>
						</g>
						<g>
							<polygon class="st9" points="197.5,417.3 242,443.2 259.4,433.2 214.8,407.3 							"/>
						</g>
					</g>
				</g>
			</g>
			<g>
				<polygon class="st10" points="197.5,428.3 197.5,430.5 242.1,456.4 242,454.2 				"/>
				<polygon class="st11" points="242,454.2 242.1,456.4 259.4,446.4 259.4,444.2 				"/>
			</g>
		</g>
		<g>
			<polygon class="st42" points="243.6,436.6 238.2,433.5 236.6,434.5 241.9,437.6 			"/>
			<g>
				<g>
					<polygon class="st43" points="243.2,436.6 243,436.7 242.8,436.6 243,436.5 					"/>
					<polygon class="st43" points="242.8,436.4 242.7,436.5 242.5,436.4 242.7,436.2 					"/>
					<polygon class="st43" points="242.5,436.1 242.3,436.2 242.1,436.1 242.3,436 					"/>
					<polygon class="st43" points="241.7,435.7 241.5,435.8 241.3,435.7 241.5,435.6 					"/>
					<polygon class="st43" points="241.3,435.5 241.2,435.6 241,435.5 241.2,435.4 					"/>
					<polygon class="st43" points="241,435.3 240.8,435.4 240.6,435.3 240.8,435.2 					"/>
					<polygon class="st43" points="240.6,435.1 240.4,435.2 240.2,435.1 240.4,435 					"/>
					<polygon class="st43" points="240.2,434.8 240,435 239.8,434.8 240,434.7 					"/>
					<polygon class="st43" points="239.8,434.6 239.7,434.7 239.5,434.6 239.7,434.5 					"/>
					<polygon class="st43" points="239.1,434.2 238.9,434.3 238.7,434.2 238.9,434.1 					"/>
					<polygon class="st43" points="238.7,434 238.5,434.1 238.3,434 238.5,433.9 					"/>
					<polygon class="st43" points="238.3,433.8 238.2,433.9 238,433.8 238.2,433.7 					"/>
				</g>
				<g>
					<polygon class="st43" points="242.9,436.8 242.7,436.9 242.5,436.8 242.7,436.7 					"/>
					<polygon class="st43" points="242.5,436.6 242.3,436.7 242.1,436.6 242.3,436.5 					"/>
					<polygon class="st43" points="242.1,436.4 241.9,436.5 241.7,436.4 241.9,436.3 					"/>
					<polygon class="st43" points="241.7,436.1 241.6,436.3 241.4,436.1 241.6,436 					"/>
					<polygon class="st43" points="241.4,435.9 241.2,436 241,435.9 241.2,435.8 					"/>
					<polygon class="st43" points="241,435.7 240.8,435.8 240.6,435.7 240.8,435.6 					"/>
					<polygon class="st43" points="240.6,435.5 240.4,435.6 240.2,435.5 240.4,435.4 					"/>
					<polygon class="st43" points="240.2,435.3 240.1,435.4 239.9,435.3 240.1,435.2 					"/>
					<polygon class="st43" points="239.9,435.1 239.7,435.2 239.5,435.1 239.7,435 					"/>
					<polygon class="st43" points="239.5,434.8 239.3,435 239.1,434.8 239.3,434.7 					"/>
					<polygon class="st43" points="239.1,434.6 238.9,434.7 238.8,434.6 238.9,434.5 					"/>
					<polygon class="st43" points="238.8,434.4 238.6,434.5 238.4,434.4 238.6,434.3 					"/>
					<polygon class="st43" points="238.4,434.2 238.2,434.3 238,434.2 238.2,434.1 					"/>
					<polygon class="st43" points="238,434 237.8,434.1 237.6,434 237.8,433.9 					"/>
				</g>
				<g>
					<polygon class="st43" points="242.6,437 242.4,437.1 242.2,437 242.4,436.9 					"/>
					<polygon class="st43" points="242.2,436.7 242,436.9 241.8,436.7 242,436.6 					"/>
					<polygon class="st43" points="241.8,436.5 241.6,436.6 241.5,436.5 241.6,436.4 					"/>
					<polygon class="st43" points="241.5,436.3 241.3,436.4 241.1,436.3 241.3,436.2 					"/>
					<polygon class="st43" points="241.1,436.1 240.9,436.2 240.7,436.1 240.9,436 					"/>
					<polygon class="st43" points="240.7,435.9 240.5,436 240.3,435.9 240.5,435.8 					"/>
					<polygon class="st43" points="240.3,435.7 240.1,435.8 240,435.7 240.1,435.6 					"/>
					<polygon class="st43" points="240,435.4 239.8,435.6 239.6,435.4 239.8,435.3 					"/>
					<polygon class="st43" points="239.6,435.2 239.4,435.3 239.2,435.2 239.4,435.1 					"/>
					<polygon class="st43" points="239.2,435 239,435.1 238.8,435 239,434.9 					"/>
					<polygon class="st43" points="237.7,434.2 237.5,434.3 237.3,434.2 237.5,434 					"/>
				</g>
				<g>
					<polygon class="st43" points="242.3,437.1 242.1,437.2 241.9,437.1 242.1,437 					"/>
					<polygon class="st43" points="241.9,436.9 241.7,437 241.5,436.9 241.7,436.8 					"/>
					<polygon class="st43" points="241.5,436.7 241.3,436.8 241.2,436.7 241.3,436.6 					"/>
					<polygon class="st43" points="241.2,436.5 241,436.6 240.8,436.5 241,436.4 					"/>
					<polygon class="st43" points="240.8,436.3 240.6,436.4 240.4,436.3 240.6,436.2 					"/>
					<polygon class="st43" points="240.4,436.1 240.2,436.2 240,436.1 240.2,435.9 					"/>
					<polygon class="st43" points="240,435.8 239.8,435.9 239.7,435.8 239.8,435.7 					"/>
					<polygon class="st43" points="239.7,435.6 239.5,435.7 239.3,435.6 239.5,435.5 					"/>
					<polygon class="st43" points="239.3,435.4 239.1,435.5 238.9,435.4 239.1,435.3 					"/>
					<polygon class="st43" points="238.9,435.2 238.7,435.3 238.5,435.2 238.7,435.1 					"/>
					<polygon class="st43" points="238.2,434.8 238,434.9 237.8,434.8 238,434.6 					"/>
					<polygon class="st43" points="237.4,434.3 237.2,434.4 237,434.3 237.2,434.2 					"/>
				</g>
				<g>
					<polygon class="st43" points="242,437.3 241.8,437.4 241.6,437.3 241.8,437.2 					"/>
					<polygon class="st43" points="241.6,437.1 241.4,437.2 241.2,437.1 241.4,437 					"/>
					<polygon class="st43" points="241.2,436.9 241,437 240.9,436.9 241,436.8 					"/>
					<polygon class="st43" points="240.9,436.7 240.7,436.8 238.6,435.6 238.8,435.5 					"/>
					<polygon class="st43" points="238.6,435.4 238.4,435.5 238.2,435.4 238.4,435.2 					"/>
					<polygon class="st43" points="238.2,435.1 238.1,435.2 237.9,435.1 238.1,435 					"/>
					<polygon class="st43" points="237.9,434.9 237.7,435 237.5,434.9 237.7,434.8 					"/>
					<polygon class="st43" points="237.5,434.7 237.3,434.8 237.1,434.7 237.3,434.6 					"/>
					<polygon class="st43" points="237.1,434.5 236.9,434.6 236.7,434.5 236.9,434.4 					"/>
				</g>
			</g>
			<polygon class="st44" points="241.9,437.6 241.9,437.7 236.6,434.6 236.6,434.5 			"/>
			<polygon class="st45" points="241.9,437.7 241.9,437.6 243.6,436.6 243.6,436.7 			"/>
		</g>
		<g>
			<g>
				<path class="st46" d="M240,431.4c0,0.8,1.2,1.9,2.7,2.4c1.5,0.5,2.7,0.2,2.7-0.6c0-0.8-1.2-1.9-2.7-2.4
					C241.2,430.3,240,430.5,240,431.4z"/>
				<path class="st43" d="M240,431.1c0,0.8,1.2,1.9,2.7,2.4c1.5,0.5,2.7,0.2,2.7-0.6c0-0.8-1.2-1.9-2.7-2.4
					C241.2,430,240,430.3,240,431.1z"/>
				<polygon class="st47" points="243.3,431.6 243.3,432.6 241.6,431.6 241.6,430.6 				"/>
				<polygon class="st48" points="243.3,432.6 243.7,432.4 243.7,431.9 243.3,431.6 				"/>
			</g>
			<g>
				<polygon class="st42" points="247.6,426.7 247.8,426.5 247.8,433.9 247.6,434.1 				"/>
				<polygon class="st49" points="247.8,426.5 238.9,421.4 238.6,421.5 247.6,426.7 				"/>
				<polygon class="st47" points="247.6,426.7 247.6,434.1 238.6,428.9 238.6,421.5 				"/>
				<polygon class="st31" points="246.9,426.9 246.9,433.2 239.2,428.8 239.2,422.5 				"/>
				<path class="st47" d="M239.4,429.1L239.4,429.1c0,0.1-0.1,0.1-0.1,0.1l-0.2-0.1c0,0,0,0,0-0.1v0c0-0.1,0.1-0.1,0.1-0.1
					L239.4,429.1C239.3,429,239.4,429.1,239.4,429.1z"/>
				<path class="st47" d="M240.3,429.6L240.3,429.6c0,0.1-0.1,0.1-0.1,0.1l-0.2-0.1c0,0,0,0,0-0.1v0c0-0.1,0.1-0.1,0.1-0.1
					L240.3,429.6C240.3,429.6,240.3,429.6,240.3,429.6z"/>
				<path class="st47" d="M239.8,429.4L239.8,429.4c0,0.1-0.1,0.1-0.1,0.1l-0.2-0.1c0,0,0,0,0-0.1v0c0-0.1,0.1-0.1,0.1-0.1
					L239.8,429.4C239.8,429.3,239.8,429.3,239.8,429.4z"/>
			</g>
		</g>
		<g>
			<g>
				<path class="st50" d="M228,456.1c0,0,2.6-0.7,3.1-0.5c0.5,0.2,0.8,0.8,0.3,1.1c-0.5,0.3-3.5,2-3.9,2c-0.4,0-0.9-0.1-1-0.4
					c-0.1-0.3,0-1,0-1L228,456.1z"/>
				<path class="st50" d="M230.7,458.1c0,0,2.6-0.7,3.1-0.5c0.5,0.2,0.8,0.8,0.3,1.1c-0.5,0.3-3.5,2-3.9,2c-0.4,0-0.9-0.1-1-0.4
					c-0.1-0.3,0-1,0-1L230.7,458.1z"/>
				<path class="st51" d="M225.6,438.2c0,0-1.1,2.7-0.4,4.3c0.4,1,1.3,6.8,1.2,7.1c-0.1,0.3,0.2,8.1,0.2,8.1s1.7,0.3,1.7-0.4
					c0-0.7,1.7-8,1.6-9.2c-0.1-1.1,0-9.1,0-9.1L225.6,438.2z"/>
				<path class="st52" d="M227.3,440.1c0,0-0.5,2.9,0.6,4.4c0.7,0.9,1.3,6.8,1.2,7.1c-0.1,0.3,0.2,8.1,0.2,8.1s1.7,0.3,1.7-0.4
					c0-0.7,1.7-8,1.6-9.2c-0.1-1.1,0-9.1,0-9.1L227.3,440.1z"/>
			</g>
			<path class="st50" d="M227.9,425.3c0,0-0.9-0.4-1.8,0c-0.9,0.4-1.2,1.9-1.1,2.9c0.1,1,0.7,5.6,0.4,7.3c0,0.5-0.6,2.8-0.3,3.7
				c0.3,1,5,3.6,6.5,2.8c1.4-0.8,2.3-0.6,1.8-2.4c-0.4-1.8-0.9-3.3-0.7-5.5c0.2-2.2,1.5-5.3-2.2-7.7
				C230.1,426.1,227.9,425.3,227.9,425.3z"/>
			<g>
				<path class="st53" d="M236.9,431c0,0,0.4-1,0.7-1.3c0.3-0.3,0.7-1.2,1.1-1.4c0.4-0.2,0.4,0.5,0.1,0.9c-0.1,0.4,0.8-0.6,1.1-1
					c0.5-0.4,0.6,0.1,0.4,0.7c-0.1,0.5,0.2,0.4-0.5,1.1c-0.7,0.8-1.9,1.4-2.1,1.9L236.9,431z"/>
				<path class="st54" d="M232.2,427.7c-0.9,0.2-1.4,0.8-1.2,2.8c0.2,2,0.4,5.7,1.5,5.7c1.1,0,2.7-0.6,5.7-4.5c0,0-0.6-0.9-1.4-1.1
					c0,0-2.4,1.5-2.9,2.7C233.8,433.4,233.8,427.6,232.2,427.7z"/>
			</g>
			<path class="st53" d="M232.1,421.6c0,0.2,0.1,1.3,0,2.2c-0.1,0.9-0.4,1.6-1,1.7c-0.4,0-1.1-0.3-1.3-0.9c-0.2-0.6-2-1.5-1.7-2.7
				c0.3-1.2,1.7-1.2,2.3-1.2C230.9,420.7,232,421.2,232.1,421.6z"/>
			<path class="st53" d="M227.8,424.4l-0.2,0.9c0,0,0.3,1.3,2.3,1.2l0.4-2l0.3-1.2l-2.5-0.4L227.8,424.4z"/>
			<path class="st50" d="M231.6,421.9c0.5-0.2,0.8-1.1,0.6-1.5c-0.2-0.4-1.2-0.6-1.5-0.6c-0.2,0-0.7,0.2-1.3,0.1
				c-0.6,0-2.6,0.5-2.6,2.3s1.1,2.4,1.1,2.7c0.5-0.6,1.5-0.6,1.7-0.9c0.2-0.3,0.6-0.4,0.9,0.2c0.2,0.1,0.2-0.6,0.3-0.8
				C231,423.3,231.9,423,231.6,421.9z"/>
			<path class="st54" d="M230,426.3c0,0-1.9-0.1-2.3-1.2l0-0.2c0,0-0.5,0.1-0.5,0.3c-0.1,0.9,2.2,2.2,3.2,1.3c0,0,0.2-0.2-0.3-0.3
				L230,426.3z"/>
		</g>
	</g>
</g>
</svg>
