<svg id="OBJECTS" xmlns="http://www.w3.org/2000/svg" viewBox="0 0 12.91 34.08">
  <defs>
    <style>
      .cls-1 {
        fill: #ea8c4e;
      }

      .cls-15, .cls-2, .cls-20, .cls-6, .cls-9 {
        fill: none;
        stroke-linecap: round;
        stroke-miterlimit: 10;
      }

      .cls-2, .cls-6 {
        stroke: #c47433;
      }

      .cls-15, .cls-2 {
        stroke-width: 0.17px;
      }

      .cls-3 {
        fill: #2b68b7;
      }

      .cls-4 {
        fill: #3b72c6;
      }

      .cls-5 {
        fill: #4d80e2;
      }

      .cls-20, .cls-6 {
        stroke-width: 0.18px;
      }

      .cls-7 {
        fill: #7756af;
      }

      .cls-8 {
        fill: #624193;
      }

      .cls-9 {
        stroke: #7756af;
        stroke-width: 0.09px;
      }

      .cls-10 {
        fill: #d13f13;
      }

      .cls-11 {
        fill: #db4b14;
      }

      .cls-12 {
        fill: #ffce00;
      }

      .cls-13 {
        fill: #e27d45;
      }

      .cls-14 {
        fill: #824a11;
      }

      .cls-15, .cls-20 {
        stroke: #c45f33;
      }

      .cls-16 {
        fill: #c12d5f;
      }

      .cls-17 {
        fill: #d33764;
      }

      .cls-18 {
        fill: #e54d71;
      }

      .cls-19 {
        fill: #e24579;
      }
    </style>
  </defs>
  <g>
    <path class="cls-1" d="M197.52,311.85c.16-1,.76-4.34,1-5.16.13-1.48-.21-4.79,0-5.74.11-.61,1.07-.67,1.14-.15s0,3.54-.17,6.07c-.06.37-1.21,4.25-1.38,5.12C198.13,312,197.22,313.71,197.52,311.85Z" transform="translate(-194.02 -295.38)"/>
    <g>
      <path class="cls-2" d="M196.31,315v-1.22a1.87,1.87,0,0,1,1.06-1.63h0a.8.8,0,0,1,1.2.61v1.08" transform="translate(-194.02 -295.38)"/>
      <polygon class="cls-3" points="0.54 20.34 5.39 17.49 4.89 20.96 1.63 22.85 0.54 22.22 0.54 20.34"/>
      <g>
        <polygon class="cls-4" points="1.08 25.87 1.18 20.39 1.28 20.76 1.63 26.65 1.08 25.87"/>
        <polygon class="cls-5" points="1.18 20.39 0.54 20.34 0 25.71 1.08 25.87 1.18 20.39"/>
        <polygon class="cls-4" points="6.17 17.94 4.89 19.08 5.12 18.15 6.17 17.94"/>
      </g>
      <polygon class="cls-5" points="1.28 20.76 1.63 26.65 6.52 23.83 6.17 17.94 1.28 20.76"/>
      <polygon class="cls-5" points="5.12 18.15 5.39 17.49 5.3 18.11 5.12 18.15"/>
      <path class="cls-6" d="M196.81,315.55l-.14-1.38a1.9,1.9,0,0,1,.87-1.85h0a.88.88,0,0,1,1.27.7l.13,1.23" transform="translate(-194.02 -295.38)"/>
    </g>
    <path class="cls-1" d="M197.53,312c.1,0,.15.28.07.56s.14-.33.14-.35v-.37l-.08-.06S197.48,312,197.53,312Z" transform="translate(-194.02 -295.38)"/>
    <path class="cls-1" d="M204,315.08l-.13-.28s-.42.21-.33.55a.46.46,0,0,0,.09.21c0,.33.24.33.24.33l.1-.16-.06-.34C204,315.25,204,315.08,204,315.08Z" transform="translate(-194.02 -295.38)"/>
    <g>
      <path class="cls-7" d="M202.81,327.37c-.08-.49-.15-.49-.23-.49s-.71.36-1.15.16c0,0-1.8,1.35-2.24,1.78a.83.83,0,0,0-.18.24h0v.14h0c0,.16.26.25.68.27a3.64,3.64,0,0,0,1.91-.91c.39-.31.83-.32,1.12-.5C202.77,328,202.89,327.87,202.81,327.37Z" transform="translate(-194.02 -295.38)"/>
      <path class="cls-8" d="M201.39,326.86s-1.79,1.35-2.24,1.79-.19.6.47.63a3.6,3.6,0,0,0,1.92-.91c.38-.3.83-.31,1.12-.5.08-.07.2-.18.12-.68s-.15-.49-.23-.49S201.84,327.06,201.39,326.86Z" transform="translate(-194.02 -295.38)"/>
      <path class="cls-9" d="M200.88,328.23a1.18,1.18,0,0,0-.79-.37" transform="translate(-194.02 -295.38)"/>
      <path class="cls-9" d="M201.09,328.05a1.1,1.1,0,0,0-.78-.37" transform="translate(-194.02 -295.38)"/>
      <path class="cls-9" d="M201.31,327.86a1.18,1.18,0,0,0-.79-.37" transform="translate(-194.02 -295.38)"/>
    </g>
    <g>
      <path class="cls-7" d="M204.29,321.5c-.29-.41-.35-.38-.43-.35s-.47.64-1,.66c0,0-1,2-1.23,2.59a.88.88,0,0,0,0,.29h0l.06.12h0c.09.14.34.11.72-.05a3.68,3.68,0,0,0,1.33-1.66c.21-.44.6-.65.78-.94C204.52,322.06,204.58,321.91,204.29,321.5Z" transform="translate(-194.02 -295.38)"/>
      <path class="cls-8" d="M202.79,321.66s-1,2-1.22,2.59.09.63.7.36a3.7,3.7,0,0,0,1.32-1.65c.21-.45.6-.65.78-.95,0-.1.1-.25-.19-.66s-.35-.37-.42-.34S203.28,321.65,202.79,321.66Z" transform="translate(-194.02 -295.38)"/>
      <path class="cls-9" d="M202.93,323.12a1.14,1.14,0,0,0-.87,0" transform="translate(-194.02 -295.38)"/>
      <path class="cls-9" d="M203.05,322.86a1.18,1.18,0,0,0-.87,0" transform="translate(-194.02 -295.38)"/>
      <path class="cls-9" d="M203.16,322.6a1.18,1.18,0,0,0-.87,0" transform="translate(-194.02 -295.38)"/>
    </g>
    <path class="cls-10" d="M199,308.18a.69.69,0,0,0-.54.5A73.39,73.39,0,0,0,197,316c-.17,2,5.55,5.77,5.87,5.83,0,0,.77.36,1-.8-1.3-1.07-3.66-4-4.82-4.7a16.64,16.64,0,0,0,1.56-3.51,22.52,22.52,0,0,0,.47-3.79l-.65-1.07Z" transform="translate(-194.02 -295.38)"/>
    <path class="cls-11" d="M203.06,309.06c1.2,1.15.33,4.29-1.14,8.64.62,2-.11,2.64.71,9.21-.23.68-1.32.58-1.35,0,0,0-1.11-5.69-1.55-9.2a31,31,0,0,1,.62-8.32C200.46,308.76,203.06,309.06,203.06,309.06Z" transform="translate(-194.02 -295.38)"/>
    <path class="cls-12" d="M201.78,300.88a10,10,0,0,1,1.33.55,1.54,1.54,0,0,1,.84,1.41c0,1.65-1.41,3.12-.89,6.22a3.08,3.08,0,0,1-2.46.71c-1.42-.12-2.18-1-1.86-2.12a15.78,15.78,0,0,0,.09-3.4c-.48-.09-1-.75-.31-2,0-.39,0-1.72,1.1-1.91.87.22,1.76.42,2,.48Z" transform="translate(-194.02 -295.38)"/>
    <path class="cls-13" d="M200.12,300.65v.63a.61.61,0,0,0,.9.54,1.66,1.66,0,0,0,.76-.69,4,4,0,0,0,.23-1.61h-.22l-.54.22Z" transform="translate(-194.02 -295.38)"/>
    <path class="cls-14" d="M199.66,296.36c-1.22,0-.46,3.26-.92,3.57l.7-.32.8-2.94Z" transform="translate(-194.02 -295.38)"/>
    <path class="cls-1" d="M199.15,298.12s-.14-1.88,1.42-2.23a2.22,2.22,0,0,1,2.92,2,2.69,2.69,0,0,1-1.61,2.19,4.4,4.4,0,0,1-1.84.89.56.56,0,0,1-.62-.31C199.21,299.85,198.79,298.38,199.15,298.12Z" transform="translate(-194.02 -295.38)"/>
    <path class="cls-14" d="M199.68,296a.41.41,0,0,0-.12.43c.39,1.17,2.19,1.63,2,2.47,0,0,.24-.22.44-.15s-.38,2.09-.25,2.89l1.56-.91a5.74,5.74,0,0,0,.14-4.32A2.64,2.64,0,0,0,199.68,296Z" transform="translate(-194.02 -295.38)"/>
    <path class="cls-1" d="M203.82,314.65c0-1-.1-5.41.05-6.27-.15-1.48-1.06-4.67-1.06-5.64,0-.62.94-.86,1.1-.35s.62,3.48.91,6c0,.38-.36,5.4-.37,6.29C204.45,314.68,203.85,316.53,203.82,314.65Z" transform="translate(-194.02 -295.38)"/>
    <g>
      <path class="cls-15" d="M202.7,318.1v-1.22a1.85,1.85,0,0,1,1.06-1.62h0a.8.8,0,0,1,1.2.61V317" transform="translate(-194.02 -295.38)"/>
      <polygon class="cls-16" points="6.93 23.47 11.79 20.63 11.28 24.1 8.02 25.98 6.93 25.36 6.93 23.47"/>
      <g>
        <polygon class="cls-17" points="7.47 30.84 7.57 23.52 7.67 23.9 8.02 31.63 7.47 30.84"/>
        <polygon class="cls-18" points="7.57 23.52 6.93 23.47 6.39 30.69 7.47 30.84 7.57 23.52"/>
        <polygon class="cls-17" points="12.56 21.07 11.28 22.22 11.51 21.29 12.56 21.07"/>
      </g>
      <polygon class="cls-18" points="7.67 23.9 8.02 31.63 12.91 28.81 12.56 21.07 7.67 23.9"/>
      <polygon class="cls-19" points="11.51 21.29 11.79 20.63 11.7 21.25 11.51 21.29"/>
      <path class="cls-20" d="M203.2,318.69l-.14-1.38a1.89,1.89,0,0,1,.87-1.85h0a.87.87,0,0,1,1.27.69l.13,1.23" transform="translate(-194.02 -295.38)"/>
    </g>
    <path class="cls-1" d="M203.79,315c0,.18-.13.72,0,.88s.76-.1.84-.44,0-.74-.23-.77S203.83,314.82,203.79,315Z" transform="translate(-194.02 -295.38)"/>
  </g>
</svg>
